<svg width="130" height="60" viewBox="0 0 130 60" fill="none" xmlns="http://www.w3.org/2000/svg">
<rect width="130" height="60" fill="white"/>
<path d="M3 40H126.55V19H3V40Z" fill="#FDE100"/>
<path fill-rule="evenodd" clip-rule="evenodd" d="M8.76074 26.8727L12.0281 29.0595L15.9525 26.4353L14.3189 25.3388L16.4439 23.922L21.0193 26.9836L13.502 32.0103L15.1357 33.1068L24.4586 26.8727L16.6097 21.6242L8.76074 26.8727ZM24.4586 32.1211L21.1852 29.9343L17.2607 32.5585L18.8943 33.6488L16.7694 35.0719L12.1939 32.0103L19.7112 26.9836L18.0775 25.887L8.76074 32.1211L16.6097 37.3696L24.4586 32.1211ZM24.4586 23.811L22.8188 24.9076L21.1852 23.811L24.4586 21.6242V23.811ZM8.76074 35.1827L10.3944 34.0862L12.0281 35.1827L8.76074 37.3696V35.1827Z" fill="#003882"/>
<path fill-rule="evenodd" clip-rule="evenodd" d="M31.8778 34.7392C32.9035 34.7392 35.4522 34.6221 35.4522 31.9671C35.4522 30.5256 35.0039 29.5215 33.2843 29.3059C34.5986 29.0472 35.2557 28.1724 35.2557 26.965C35.2557 24.7289 33.7387 24.2484 31.8901 24.2484H27.5972V34.7392H31.8778ZM108.924 34.7392C110.361 34.7392 111.81 34.5482 111.81 32.3244C111.81 29.7556 108.101 30.0143 108.101 28.3819C108.101 27.7905 108.463 27.4702 109.071 27.4702H111.061V26.1457H108.267C105.976 26.1457 105.411 27.1868 105.411 28.5297C105.411 31.0862 109.52 31.0246 109.52 32.466C109.52 33.0451 109.206 33.4394 108.574 33.4394H105.632L103.452 26.1519H100.842L98.4279 33.9692L96.911 30.6057C98.0226 30.4024 98.4648 29.694 98.4709 28.4004C98.4709 26.9342 97.5988 26.1519 96.2538 26.1519H92.1697V34.7392H94.3991V27.4702H95.1422C95.7686 27.4702 96.3152 27.9322 96.3152 28.7761C96.3152 29.4907 95.9591 30.0821 95.3879 30.0451L94.7614 30.0514L96.7943 34.7393H100.369L100.903 32.8358H103.212L103.74 34.7393L108.924 34.7392ZM102.874 31.5236H101.222L102.008 28.0061L102.874 31.5236ZM78.0072 34.9917C81.3421 34.9917 81.3421 32.7679 81.3421 30.4887C81.3421 28.1786 81.3421 25.9794 78.0072 25.9794C74.6723 25.9794 74.6723 28.1786 74.6723 30.4887C74.6723 32.7679 74.6723 34.9917 78.0072 34.9917ZM78.0072 33.6858C77.0307 33.6858 76.9017 32.7248 76.9017 30.4887C76.9017 28.2525 77.0306 27.2854 78.0072 27.2854C78.9837 27.2854 79.1065 28.2525 79.1065 30.4887C79.1065 32.7248 78.9838 33.6858 78.0072 33.6858ZM67.4191 34.7392H70.6742C74.0889 34.7392 73.8616 31.7084 73.8616 30.3839C73.8616 27.7043 73.3703 26.1273 70.754 26.1273H67.4191V34.7392ZM69.5932 27.464H70.4715C71.6691 27.464 71.6691 28.8624 71.6691 30.4455C71.6691 32.6078 71.4603 33.4332 70.4162 33.4332H69.5932V27.464ZM86.8941 30.1622H87.4345C88.4786 30.1622 88.8102 30.7351 88.8102 31.6591C88.8102 33.1314 87.8214 33.1437 87.3792 33.1437H86.2308V30.1807L86.8941 30.1622ZM86.2308 28.5605V25.8809H87.5082C88.2083 25.8809 88.6997 26.4414 88.6997 27.2176C88.6997 28.234 88.0671 28.5482 87.6188 28.5482H86.8941L86.2308 28.5605ZM87.8706 34.7453C88.8962 34.7453 91.445 34.6283 91.445 31.9671C91.445 30.5256 90.9966 29.5277 89.2831 29.3059C90.5974 29.0472 91.2546 28.1724 91.2546 26.965C91.2546 24.7289 89.7315 24.2484 87.889 24.2484H83.5899V34.7453H87.8706ZM120.796 34.739V33.4392H118.253V26.1518H116.079V34.739H120.796ZM114.801 26.1518H112.621V34.739H114.801V26.1518ZM61.7197 34.9916C65.0546 34.9916 65.0546 32.7616 65.0546 30.47C65.0546 28.1476 65.0546 25.9423 61.7197 25.9423C58.391 25.9423 58.391 28.1476 58.391 30.47C58.391 32.7616 58.391 34.9916 61.7197 34.9916ZM61.7197 33.6856C60.7432 33.6856 60.6204 32.7123 60.6204 30.47C60.6204 28.2216 60.7432 27.2544 61.7197 27.2544C62.6962 27.2544 62.8252 28.2216 62.8252 30.47C62.8252 32.7123 62.6963 33.6856 61.7197 33.6856ZM40.169 31.5173H38.5107L39.2969 28.006L40.169 31.5173ZM37.6571 34.739L38.1975 32.8355H40.5068L41.035 34.739H43.3135L40.7401 26.1518H38.1361L35.5075 34.739H37.6571ZM54.7552 34.9916C56.6468 34.9916 57.7523 34.24 57.7523 31.8992H55.5966C55.5721 32.5891 55.5599 33.6856 54.7552 33.6856C53.8401 33.6856 53.705 33.125 53.705 30.47C53.705 27.7164 53.9138 27.2544 54.7122 27.2544C55.2834 27.2544 55.5413 27.6856 55.5413 28.8561H57.6847C57.7646 26.9711 56.7205 25.9423 54.6569 25.9423C51.5861 25.9423 51.5002 27.9012 51.5002 30.47C51.5002 33.0511 51.4203 34.9916 54.7552 34.9916ZM45.6718 34.739V29.0162L48.0486 34.739H50.6219V26.1518H48.7672V31.7021L46.4518 26.1518H43.8171V34.739H45.6718ZM30.7539 30.1497H31.0917C32.3692 30.1497 32.7745 30.7164 32.7745 31.6466C32.7745 33.1127 31.5646 33.1251 31.0242 33.1251H30.2319V30.162L30.7539 30.1497ZM30.2319 28.5419V25.8622H31.1777C32.0375 25.8622 32.6394 26.429 32.6394 27.199C32.6394 28.2154 31.8656 28.5357 31.3128 28.5357H30.4223L30.2319 28.5419Z" fill="#003882"/>
</svg>
