<svg width="130" height="60" viewBox="0 0 130 60" fill="none" xmlns="http://www.w3.org/2000/svg">
<rect width="130" height="60" fill="white"/>
<path fill-rule="evenodd" clip-rule="evenodd" d="M108.101 26.9853H105.659L105.456 27.8771H108.101C110.521 27.8771 111.337 28.5327 111.337 30.4754V31.4158C110.737 30.8042 109.676 30.4942 108.177 30.4942C105.785 30.4942 104.623 31.5265 104.623 33.6496V33.8041C104.623 35.7947 105.768 36.8042 108.025 36.8042H108.633C111.025 36.8042 112.238 35.7947 112.238 33.8041V30.4754C112.238 27.9964 111.039 26.9853 108.101 26.9853ZM111.337 33.9328C111.337 35.3574 110.572 35.9125 108.608 35.9125H108.228C106.333 35.9125 105.524 35.2816 105.524 33.8041V33.6496C105.524 32.0446 106.295 31.3603 108.101 31.3603H108.253C110.415 31.3603 111.337 32.0216 111.337 33.5721V33.9328ZM45.3842 28.7349L45.8646 26.3527H41.729V23.0985L38.8259 23.5449V33.265C38.8259 36.6254 40.1205 37.6253 43.6503 37.6253H45.1957L45.6764 35.2641H43.8591C42.2511 35.2641 41.7287 34.8606 41.7287 33.0735V28.7349H45.3842ZM25.4379 21.9708V32.4145C25.4379 36.2856 27.1921 37.902 31.0144 37.902C34.9827 37.902 36.7372 36.3282 36.7372 32.4355V31.4361C36.7372 27.7778 35.1079 25.9909 31.5575 25.9909C30.4294 25.9909 29.1971 26.2248 28.3616 26.884V21.5029L25.4379 21.9708ZM31.1187 28.3303C33.1237 28.3303 33.8341 29.1388 33.8341 31.542V32.4355C33.8341 34.7749 33.1237 35.5836 31.077 35.5836C29.0303 35.5836 28.3196 34.7749 28.3196 32.4143V31.202C28.3196 29.0536 29.0303 28.3303 31.1187 28.3303ZM52.4018 25.9909C48.5795 25.9909 46.825 27.6286 46.825 31.372V31.9463C46.825 35.4982 48.3498 37.221 51.942 37.221C53.0908 37.221 54.2397 37.0087 55.0541 36.349V36.7748C55.0541 38.7743 54.198 39.433 52.1927 39.433H50.9922C50.306 39.4454 49.9942 39.5695 49.5806 40.2599L49.5783 40.2589C46.1345 45.8092 40.1556 49.1999 33.6398 49.1999C23.2434 49.1999 14.7857 40.5872 14.7857 29.9999C14.7857 19.4128 23.2434 10.8001 33.6398 10.8001C40.9423 10.8001 47.5855 15.1067 50.6936 21.8087H51.5599C48.3923 14.6322 41.3701 10 33.6398 10C22.8105 10 14 18.972 14 29.9999C14 41.028 22.8105 50 33.6398 50C40.0086 50 45.886 46.8904 49.5501 41.73H52.3598C56.0568 41.73 57.9575 40.3052 57.9575 36.6682V31.1807C57.9575 27.5647 56.1404 25.9909 52.4018 25.9909ZM55.0752 32.3079C55.0752 34.3073 54.386 34.9239 52.4021 34.9239C50.1669 34.9239 49.7284 34.137 49.7284 31.8189V31.4574C49.7284 29.1598 50.1252 28.3303 52.4018 28.3303C54.6365 28.3303 55.0752 29.1388 55.0752 31.4784V32.3079ZM114.099 36.8042H115V23.2958H114.099V36.8042H114.099ZM93.7962 27.8773L93.9985 26.9853H89.9678V24.4351L89.0415 24.6036V33.3397C89.0415 35.8276 89.9569 36.7528 92.4185 36.7528H93.7495L93.9178 35.861H92.4185C90.5633 35.861 89.9678 35.2611 89.9678 33.3909V27.8776H93.7965L93.7962 27.8773ZM102.14 32.927C102.14 35.2261 101.434 35.9639 99.2336 35.9639C97.0984 35.9639 96.3776 35.1978 96.3776 32.927V26.9853H95.4513V32.927C95.4513 35.7544 96.5119 36.8557 99.2334 36.8557C101.938 36.8557 103.041 35.7179 103.041 32.927V26.9853H102.14V32.927ZM81.7589 32.282V31.4561C81.7589 28.8137 82.6452 27.8773 85.1467 27.8773H87.2603L87.4618 26.9853H85.147C82.1635 26.9853 80.8323 28.364 80.8323 31.4559V32.282C80.8323 35.3738 82.1633 36.7528 85.147 36.7528H87.285L87.4872 35.861H85.147C82.7086 35.861 81.7591 34.8575 81.7591 32.282H81.7589ZM75.0886 26.9853H72.6459L72.4442 27.8771H75.0886C77.4892 27.8771 78.299 28.5327 78.299 30.4754V31.4158C77.6995 30.8042 76.6386 30.4942 75.139 30.4942C72.7477 30.4942 71.585 31.5265 71.585 33.6496V33.8041C71.585 35.7947 72.738 36.8042 75.0123 36.8042H75.6205C77.9961 36.8042 79.2004 35.7947 79.2004 33.8041V30.4754C79.2004 27.9964 78.009 26.9853 75.0886 26.9853ZM78.299 33.9328C78.299 35.3761 77.5662 35.9125 75.5953 35.9125H75.2153C73.3026 35.9125 72.4862 35.2816 72.4862 33.8041V33.6496C72.4862 32.0446 73.2569 31.3603 75.0632 31.3603H75.2153C77.3767 31.3603 78.299 32.0216 78.299 33.5721V33.9328ZM66.0182 26.8305C63.1614 26.8305 61.8306 28.2677 61.8306 31.3527V39.7456H62.7318V35.4359C63.3839 36.2991 64.5997 36.8042 66.0688 36.8042C68.9126 36.8042 70.1808 35.4093 70.1808 32.282V31.3272C70.1808 28.2173 68.8969 26.8305 66.0182 26.8305ZM69.254 32.2818C69.254 34.9285 68.391 35.9122 66.0688 35.9122C63.8713 35.9122 62.757 34.821 62.757 32.6686V31.3527C62.757 28.7737 63.7019 27.722 66.0182 27.722C68.3467 27.722 69.254 28.7326 69.254 31.3272V32.2818Z" fill="#001E61"/>
</svg>
