<svg width="130" height="60" viewBox="0 0 130 60" fill="none" xmlns="http://www.w3.org/2000/svg">
<rect width="130" height="60" fill="white"/>
<path d="M25.4055 29.7446C25.3598 29.0578 25.1769 28.3711 24.811 27.7759L21.7013 22.3277C21.4726 21.9157 21.2897 21.4578 21.1982 21L21.061 21.2289C20.2836 22.5566 20.2836 24.2506 21.061 25.5783L23.5763 29.9277C24.3537 31.2554 24.3537 32.9494 23.5763 34.2771L23.4391 34.506C23.3476 34.0482 23.1647 33.5904 22.936 33.1783L20.6494 29.1952L19.186 26.6313C18.9573 26.2193 18.7744 25.7614 18.683 25.3036L18.5458 25.5325C17.7683 26.8602 17.7683 28.5084 18.5458 29.8819L21.061 34.2313C21.8385 35.559 21.8385 37.253 21.061 38.5807L20.9238 38.8096C20.8324 38.3518 20.6494 37.894 20.4208 37.4819L17.2653 32.0337C16.8537 31.3012 16.6708 30.4771 16.6708 29.653C13.3323 30.5229 11 32.4 11 34.5518C11 37.5735 15.4817 40 21.0153 40C26.5488 40 31.0306 37.5735 31.0306 34.5518C31.0763 32.4916 28.7897 30.6145 25.4055 29.7446ZM34.872 39.0386C34.9178 38.2602 35.0092 37.7566 35.2379 37.1157C36.2897 37.6193 37.6617 37.8482 38.6678 37.8482C40.4056 37.8482 41.4117 37.2988 41.4117 36.1542C41.4117 35.0554 40.68 34.5518 38.9422 33.7735L37.9818 33.4072C36.1983 32.6289 35.0092 31.6217 35.0092 29.653C35.0092 27.5012 36.5184 26.1277 39.5367 26.1277C40.7715 26.1277 41.9148 26.3108 42.9666 26.6771C42.9209 27.4096 42.7837 28.0048 42.6007 28.5542C41.5946 28.188 40.3599 28.0048 39.491 28.0048C37.8446 28.0048 37.1129 28.6458 37.1129 29.653C37.1129 30.6145 37.8446 31.2096 39.1708 31.759L40.1769 32.1711C42.555 33.1783 43.5611 34.2771 43.5611 36.1084C43.5611 38.2602 41.9147 39.7711 38.7135 39.7711C37.2044 39.7711 35.9239 39.5422 34.872 39.0386ZM53.6678 30.0193V39.4506H51.7471L51.6556 38.306C51.1069 39.1301 50.3294 39.6795 49.0032 39.6795C46.5337 39.6795 44.8416 37.8482 44.8416 34.6892C44.8416 31.3928 46.6251 29.4699 50.1008 29.4699C51.4727 29.5157 52.616 29.653 53.6678 30.0193ZM51.6099 37.2988V31.3928C51.1983 31.3012 50.6953 31.3012 50.1008 31.3012C47.9514 31.3012 46.9453 32.6289 46.9453 34.7349C46.9453 36.6578 47.7227 38.0313 49.552 38.0313C50.4209 37.9855 51.0611 37.7108 51.6099 37.2988ZM64.2776 33.1325V39.4506H62.2197V33.4988C62.2197 31.988 61.7167 31.3012 59.6587 31.3012C59.1557 31.3012 58.6069 31.347 58.0124 31.4386V39.4506H55.9544V30.0193C57.2807 29.6988 58.7441 29.4699 59.7045 29.4699C63.1801 29.5157 64.2776 30.8434 64.2776 33.1325ZM70.0399 37.9398C70.6344 37.9398 71.2289 37.8482 71.6405 37.6651C71.5947 38.2145 71.5033 38.8554 71.4118 39.4048C70.863 39.6337 70.2228 39.7253 69.674 39.7253C67.6618 39.7253 66.3813 38.8096 66.3813 36.5205V26.5855C67.0216 26.3566 67.799 26.2651 68.4392 26.2651V29.8361H71.7319C71.6862 30.4771 71.6405 31.0723 71.549 31.6217H68.4392V36.2458C68.4392 37.4361 69.0338 37.9398 70.0399 37.9398ZM81.1527 30.0193V39.4506H79.232L79.1405 38.306C78.5917 39.1301 77.8143 39.6795 76.488 39.6795C74.0185 39.6795 72.3265 37.8482 72.3265 34.6892C72.3265 31.3928 74.11 29.4699 77.5856 29.4699C78.9576 29.5157 80.0551 29.653 81.1527 30.0193ZM79.049 37.2988V31.3928C78.6374 31.3012 78.1344 31.3012 77.5399 31.3012C75.3905 31.3012 74.3844 32.6289 74.3844 34.7349C74.3844 36.6578 75.1618 38.0313 76.9911 38.0313C77.86 37.9855 78.546 37.7108 79.049 37.2988ZM91.7625 33.1325V39.4506H89.6588V33.4988C89.6588 31.988 89.1558 31.3012 87.0978 31.3012C86.5948 31.3012 86.046 31.347 85.4515 31.4386V39.4506H83.3936V30.0193C84.7198 29.6988 86.1832 29.4699 87.1436 29.4699C90.6192 29.5157 91.7625 30.8434 91.7625 33.1325ZM102.235 26.2651V39.4506H100.314L100.223 38.2602C99.6741 39.1301 98.8967 39.6795 97.5247 39.6795C95.0552 39.6795 93.3631 37.8482 93.3631 34.6892C93.3631 31.3928 95.1467 29.4699 98.6223 29.4699C99.1711 29.4699 99.6741 29.5157 100.177 29.6072V26.494C100.817 26.3108 101.549 26.2651 102.235 26.2651ZM100.177 37.2988V31.4843C99.6284 31.3928 99.0796 31.3012 98.5308 31.3012C96.4729 31.3012 95.5125 32.5831 95.5125 34.7349C95.5125 36.6578 96.29 38.0313 98.1192 38.0313C98.9424 37.9855 99.6284 37.7108 100.177 37.2988ZM112.662 35.4217H106.031C106.305 37.1157 107.266 37.894 109.141 37.894C110.284 37.894 111.427 37.6651 112.433 37.1614C112.342 37.7108 112.25 38.4434 112.113 39.0386C111.153 39.4506 110.192 39.6337 109.049 39.6337C105.574 39.6337 103.927 37.7108 103.927 34.506C103.927 31.7133 105.208 29.4699 108.5 29.4699C111.473 29.4699 112.753 31.3928 112.753 33.7735C112.753 34.4145 112.753 34.8723 112.662 35.4217ZM106.031 33.6819H110.695C110.695 32.1253 109.872 31.2096 108.455 31.2096C106.945 31.2554 106.168 32.0795 106.031 33.6819ZM119.933 29.6072C119.933 30.2482 119.842 30.9807 119.75 31.3928C119.247 31.347 118.79 31.3012 118.196 31.3012C117.692 31.3012 117.189 31.347 116.686 31.3928V39.4506H114.628V30.0193C115.497 29.6988 117.006 29.4699 118.15 29.4699C118.744 29.5157 119.476 29.5157 119.933 29.6072Z" fill="#EA1D25"/>
</svg>
