<svg width="60" height="66" viewBox="0 0 60 66" fill="none" xmlns="http://www.w3.org/2000/svg">
<path d="M30.1014 53.5734C18.5614 53.5734 9.17145 44.1834 9.17145 32.6434C9.17145 21.1034 18.5614 11.7134 30.1014 11.7134C41.6414 11.7134 51.0315 21.1034 51.0315 32.6434C51.0315 44.1834 41.6414 53.5734 30.1014 53.5734ZM30.1014 13.7034C19.6614 13.7034 11.1714 22.1934 11.1714 32.6334C11.1714 43.0734 19.6614 51.5634 30.1014 51.5634C40.5414 51.5634 49.0315 43.0734 49.0315 32.6334C49.0315 22.1934 40.5414 13.7034 30.1014 13.7034Z" fill="#001C43"/>
<path d="M2.41144 19.7535C2.26144 19.7535 2.11145 19.7235 1.96145 19.6435C1.47145 19.3935 1.27145 18.7935 1.52145 18.3035C6.99145 7.42345 17.9414 0.663452 30.1014 0.663452C41.3714 0.663452 51.6014 6.42346 57.4514 16.0735C57.7414 16.5435 57.5914 17.1635 57.1115 17.4435C56.6414 17.7335 56.0215 17.5835 55.7415 17.1035C50.2515 8.05345 40.6614 2.65345 30.1014 2.65345C18.6914 2.65345 8.43145 8.99345 3.30145 19.1834C3.12145 19.5334 2.77144 19.7335 2.41144 19.7335V19.7535Z" fill="#001C43"/>
<path d="M30.7515 65.0834C19.4815 65.0834 9.25146 59.3234 3.40146 49.6734C3.11146 49.2034 3.26146 48.5834 3.74146 48.3034C4.21146 48.0134 4.83145 48.1634 5.11145 48.6434C10.6015 57.6934 20.1915 63.0934 30.7515 63.0934C42.1615 63.0934 52.4215 56.7534 57.5515 46.5634C57.8015 46.0734 58.4015 45.8734 58.8915 46.1234C59.3815 46.3734 59.5815 46.9734 59.3315 47.4634C53.8615 58.3434 42.9115 65.1034 30.7515 65.1034V65.0834Z" fill="#001C43"/>
<path d="M1.49144 59.7035C1.49144 59.7035 1.41142 59.7035 1.38142 59.7035C0.831425 59.6435 0.44145 59.1435 0.50145 58.5935L1.55144 49.3035C1.72144 47.7535 3.12144 46.6435 4.68144 46.8135L13.6214 47.8234C14.1714 47.8834 14.5615 48.3834 14.5015 48.9334C14.4415 49.4834 13.9514 49.8735 13.3914 49.8135L4.45143 48.8035C4.00143 48.7535 3.59143 49.0735 3.54143 49.5335L2.49144 58.8234C2.43144 59.3334 2.00145 59.7134 1.50145 59.7134L1.49144 59.7035Z" fill="#1DB8D9"/>
<path d="M56.0015 18.6735C55.8915 18.6735 55.7914 18.6734 55.6814 18.6534L46.7414 17.6435C46.1914 17.5835 45.8014 17.0835 45.8614 16.5335C45.9214 15.9835 46.4114 15.5834 46.9714 15.6534L55.9114 16.6635C56.3514 16.7135 56.7814 16.3834 56.8214 15.9334L57.8714 6.64345C57.9314 6.09345 58.4214 5.69345 58.9814 5.76345C59.5314 5.82345 59.9214 6.32345 59.8614 6.87345L58.8114 16.1635C58.6514 17.6035 57.4215 18.6735 56.0015 18.6735Z" fill="#18243E"/>
<path d="M24.1615 35.5434C23.2715 35.5434 22.4515 35.2934 22.1115 35.1734C20.4915 34.6034 19.7815 32.6234 20.0015 29.2834C20.0015 29.1934 20.0015 29.1534 20.0015 29.1534C19.8615 29.0334 19.0715 28.9434 18.5915 28.8934C17.5015 28.7734 16.1415 28.6334 15.1715 27.7434C13.3115 26.0434 12.7714 22.6234 12.7214 22.2434C12.6414 21.6934 13.0215 21.1934 13.5715 21.1134C14.1215 21.0334 14.6215 21.4134 14.7015 21.9634C14.8215 22.8134 15.3915 25.2434 16.5215 26.2734C17.0115 26.7134 17.9215 26.8134 18.8015 26.9134C20.0515 27.0434 22.1315 27.2634 22.0015 29.4134C21.8315 32.0134 22.3115 33.1234 22.7815 33.2834C23.7115 33.6134 24.5615 33.6034 24.8415 33.4034C24.8815 33.3734 24.9515 33.3234 24.9515 33.0634C24.9515 31.6734 24.6314 31.3034 23.6915 30.4234C22.9615 29.7434 22.3215 29.0634 22.3815 28.1734C22.4215 27.6234 22.7415 27.1434 23.3215 26.7334C24.1615 26.1534 25.0115 26.3734 25.5715 26.5134C25.9215 26.6034 26.1415 26.6534 26.2615 26.5934C26.9715 26.1834 29.4615 22.6934 29.8315 21.7034C30.0115 21.2234 30.0115 20.6034 29.8215 20.3334C29.7815 20.2834 29.7115 20.1734 29.3915 20.1734C28.8515 20.1734 27.9815 20.6034 27.2115 20.9934C25.9715 21.6134 24.8014 22.1834 23.7214 21.8534C22.4314 21.4434 21.6415 20.8934 21.3115 20.1634C21.1515 19.8034 21.0115 19.2234 21.3115 18.5134C21.4715 18.1334 21.7015 17.7534 21.9115 17.3834C22.1415 16.9934 22.5515 16.2834 22.5415 16.0434C22.5115 15.8634 22.1715 15.6334 22.0315 15.5734C21.5215 15.3534 21.2915 14.7634 21.5015 14.2634C21.7215 13.7534 22.3115 13.5234 22.8115 13.7434C22.9615 13.8034 24.2815 14.4134 24.5015 15.7334C24.6515 16.6434 24.1315 17.5434 23.6215 18.4034C23.4215 18.7334 23.2415 19.0534 23.1315 19.3134C23.1015 19.3434 23.2715 19.6334 24.3015 19.9634C24.6215 20.0634 25.6615 19.5334 26.2915 19.2234C27.3015 18.7234 28.3515 18.2034 29.3615 18.2034C30.2415 18.2034 30.9715 18.5634 31.4315 19.2234C32.1215 20.2234 31.9915 21.5834 31.6715 22.4334C31.2515 23.5434 28.4615 27.7434 27.1315 28.4034C26.3415 28.8034 25.5915 28.6134 25.0515 28.4734C24.7115 28.3834 24.5415 28.3534 24.4515 28.3834C24.5515 28.5034 24.7215 28.6834 25.0215 28.9734C26.1715 30.0434 26.9215 30.9034 26.9215 33.0734C26.9215 34.1434 26.4014 34.7334 25.9714 35.0434C25.4314 35.4334 24.7715 35.5534 24.1415 35.5534L24.1615 35.5434Z" fill="#001C43"/>
<path d="M33.3615 20.0134C32.3815 20.0134 31.7415 19.0634 31.0715 18.0634C30.9315 17.8634 30.7915 17.6434 30.6315 17.4234C30.0315 16.5734 27.5515 15.1034 26.1215 14.3734C25.6315 14.1234 25.4315 13.5234 25.6815 13.0334C25.9315 12.5434 26.5315 12.3434 27.0215 12.5934C27.7115 12.9434 31.2115 14.7734 32.2715 16.2734C32.4415 16.5134 32.5915 16.7334 32.7315 16.9434C32.9315 17.2334 33.1615 17.5734 33.3415 17.8034C33.6715 17.1934 33.9615 15.9834 33.7615 15.6434C33.4315 15.0934 32.0515 14.1534 31.1715 13.6634C30.6915 13.3934 30.5215 12.7834 30.7915 12.3034C31.0615 11.8234 31.6715 11.6534 32.1515 11.9134C32.5815 12.1534 34.7615 13.4134 35.4815 14.6134C36.1915 15.8034 35.6015 17.5834 35.4015 18.0934C35.0015 19.1334 34.4915 19.7434 33.8815 19.9334C33.7015 19.9834 33.5415 20.0134 33.3815 20.0134H33.3615Z" fill="#001C43"/>
<path d="M45.4214 34.3834C45.1914 34.3834 44.9614 34.3634 44.7514 34.3334C42.7614 34.0034 42.6414 32.5634 42.5914 31.7934C42.5714 31.5734 42.5614 31.3734 42.5114 31.2234C42.5114 31.2034 42.4314 31.1234 42.2614 31.0834C41.9814 31.0034 41.5114 31.0434 41.1314 31.4034C40.1814 32.2934 38.4814 33.0434 35.8314 31.5434C34.8314 30.9734 34.0914 29.9234 33.8114 28.6534C33.5714 27.5634 33.7214 26.5134 34.2014 25.8334C35.2214 24.4134 37.6814 24.7434 40.0514 25.0534L40.2314 25.0734C40.4014 25.0934 40.6314 25.1034 40.7314 25.0034C40.9114 24.8334 40.9714 24.3634 40.9514 24.0834V22.6934C40.9514 20.9434 43.4914 19.3734 44.2814 18.9334C44.7614 18.6634 45.3714 18.8334 45.6414 19.3134C45.9114 19.7934 45.7414 20.4034 45.2614 20.6734C44.1414 21.3034 42.9914 22.3034 42.9514 22.6934V23.9934C42.9614 24.0734 43.0614 25.5334 42.1214 26.4334C41.7414 26.7934 41.0614 27.1934 39.9714 27.0434L39.7914 27.0234C38.8014 26.8934 36.1514 26.5334 35.8314 26.9834C35.7314 27.1234 35.6214 27.5834 35.7614 28.2034C35.9214 28.9134 36.3114 29.5034 36.8114 29.7834C38.7514 30.8734 39.5114 30.1634 39.7614 29.9234C40.5914 29.1434 41.7514 28.8434 42.7914 29.1334C43.6114 29.3634 44.2214 29.9234 44.4314 30.6534C44.5314 31.0034 44.5514 31.3334 44.5814 31.6234C44.6148 32.0568 44.7814 32.2968 45.0814 32.3434C46.3814 32.5534 48.3914 31.5234 48.6414 31.0634C48.9114 30.5834 49.5214 30.4034 50.0014 30.6734C50.4814 30.9434 50.6614 31.5334 50.4014 32.0134C49.7914 33.1534 47.3914 34.3634 45.4314 34.3634L45.4214 34.3834Z" fill="#001C43"/>
<path d="M31.7714 49.1334C31.5214 49.1334 31.2614 49.0835 31.0014 48.9734C29.5114 48.3734 28.3314 46.5934 29.4714 43.3834C30.1914 41.3434 30.1514 41.1534 29.5414 40.0934C29.3014 39.6734 29.0114 39.2734 28.7214 38.8834C28.0414 37.9534 27.3414 37.0034 27.3414 35.7434C27.3414 35.6834 27.3414 35.6334 27.3514 35.5834C27.4614 34.9334 27.8814 32.7234 28.7314 31.8834C29.2614 31.3534 30.1814 31.0334 31.1814 31.0334C32.3114 31.0334 33.3514 31.4234 34.1114 32.1434C34.9114 32.8934 35.6514 33.2634 36.3714 33.6234C36.6614 33.7734 36.9514 33.9134 37.2214 34.0634C38.2714 34.6634 38.9114 35.5234 38.9814 36.4134C39.0214 37.0034 38.8514 37.8734 37.7614 38.7434C37.0214 39.3334 36.3614 41.4034 35.8814 42.9234C35.3914 44.4534 35.0714 45.4234 34.6014 45.9634C34.3914 46.2034 34.2014 46.6234 34.0114 47.0334C33.6014 47.9234 33.0514 49.1434 31.7714 49.1434V49.1334ZM29.3514 35.8234C29.3814 36.4034 29.8114 36.9834 30.3414 37.7034C30.6414 38.1134 30.9814 38.5834 31.2814 39.0934C32.3214 40.9134 32.1514 41.7934 31.3514 44.0434C30.9214 45.2634 30.7914 46.6934 31.7114 47.0934C31.8614 46.9134 32.0614 46.4634 32.1914 46.1834C32.4214 45.6734 32.6914 45.0934 33.0914 44.6334C33.3214 44.3734 33.7014 43.1734 33.9814 42.2934C34.6014 40.3334 35.3114 38.1234 36.5314 37.1534C36.8914 36.8734 37.0114 36.6534 37.0014 36.5434C36.9914 36.3734 36.7214 36.0534 36.2414 35.7834C36.0014 35.6434 35.7514 35.5234 35.5014 35.3934C34.7314 35.0134 33.7714 34.5334 32.7514 33.5734C32.3714 33.2134 31.8114 33.0134 31.2014 33.0134C30.5914 33.0134 30.2514 33.1934 30.1614 33.2834C29.9214 33.5234 29.5514 34.7134 29.3614 35.8134L29.3514 35.8234Z" fill="#001C43"/>
</svg>
