<svg width="61" height="63" viewBox="0 0 61 63" fill="none" xmlns="http://www.w3.org/2000/svg">
<path d="M52.785 62.8465H3.28497C1.78497 62.8465 0.554993 61.6265 0.554993 60.1165C0.554993 60.0565 0.554982 59.9965 0.574982 59.9465L5.745 30.6865C5.795 29.2265 6.99498 28.0565 8.47498 28.0565H57.975C59.475 28.0565 60.705 29.2765 60.705 30.7865C60.705 30.8465 60.705 30.9065 60.685 30.9565L55.515 60.2165C55.465 61.6765 54.265 62.8465 52.785 62.8465ZM2.55499 60.1865C2.59499 60.5565 2.90497 60.8465 3.28497 60.8465H52.785C53.185 60.8465 53.515 60.5165 53.515 60.1165C53.515 60.0565 53.515 59.9965 53.535 59.9465L58.705 30.7165C58.665 30.3465 58.355 30.0565 57.975 30.0565H8.47498C8.07498 30.0565 7.745 30.3865 7.745 30.7865C7.745 30.8465 7.74498 30.9065 7.72498 30.9565L2.55499 60.1865Z" fill="#001C43"/>
<path d="M56.785 30.0565C56.235 30.0565 55.785 29.6065 55.785 29.0565V26.1065C55.785 25.1465 55.005 24.3765 54.055 24.3765H50.115C49.565 24.3765 49.115 23.9265 49.115 23.3765C49.115 22.8265 49.565 22.3765 50.115 22.3765H54.055C56.115 22.3765 57.785 24.0465 57.785 26.1065V29.0565C57.785 29.6065 57.335 30.0565 56.785 30.0565Z" fill="#001C43"/>
<path d="M2.40497 62.6166C2.23497 62.6166 2.05499 62.5766 1.89499 62.4766C1.06499 61.9866 0.544983 61.0866 0.544983 60.1266V20.7166C0.544983 19.2166 1.76499 17.9866 3.27499 17.9866H10.825C11.375 17.9866 11.825 18.4366 11.825 18.9866C11.825 19.5366 11.375 19.9866 10.825 19.9866H3.27499C2.87499 19.9866 2.54498 20.3166 2.54498 20.7166V60.1266C2.54498 60.3866 2.68497 60.6266 2.90497 60.7566C3.38497 61.0366 3.53497 61.6466 3.25497 62.1266C3.06497 62.4466 2.73499 62.6166 2.39499 62.6166H2.40497Z" fill="#001C43"/>
<path d="M49.795 30.0265C49.245 30.0265 48.795 29.5765 48.795 29.0265V13.6565C48.795 13.1065 49.245 12.6565 49.795 12.6565C50.345 12.6565 50.795 13.1065 50.795 13.6565V29.0265C50.795 29.5765 50.345 30.0265 49.795 30.0265Z" fill="#001C43"/>
<path d="M11.345 30.0266C10.795 30.0266 10.345 29.5765 10.345 29.0266V1.57654C10.345 1.02654 10.795 0.576538 11.345 0.576538H37.315C37.865 0.576538 38.315 1.02654 38.315 1.57654C38.315 2.12654 37.865 2.57654 37.315 2.57654H12.345V29.0266C12.345 29.5765 11.895 30.0266 11.345 30.0266Z" fill="#001C43"/>
<path d="M49.795 11.8065C49.245 11.8065 48.795 11.3565 48.795 10.8065V3.13654C48.795 2.82654 48.545 2.57654 48.235 2.57654H40.265C39.715 2.57654 39.265 2.12654 39.265 1.57654C39.265 1.02654 39.715 0.576538 40.265 0.576538H48.235C49.645 0.576538 50.795 1.72654 50.795 3.13654V10.8065C50.795 11.3565 50.345 11.8065 49.795 11.8065Z" fill="#1DB8D9"/>
<path d="M42.795 13.1166H18.975C18.425 13.1166 17.975 12.6666 17.975 12.1166C17.975 11.5666 18.425 11.1166 18.975 11.1166H42.795C43.345 11.1166 43.795 11.5666 43.795 12.1166C43.795 12.6666 43.345 13.1166 42.795 13.1166Z" fill="#001C43"/>
<path d="M32.385 17.8466H18.975C18.425 17.8466 17.975 17.3966 17.975 16.8466C17.975 16.2966 18.425 15.8466 18.975 15.8466H32.385C32.935 15.8466 33.385 16.2966 33.385 16.8466C33.385 17.3966 32.935 17.8466 32.385 17.8466Z" fill="#001C43"/>
</svg>
