<svg width="94" height="56" viewBox="0 0 94 56" fill="none" xmlns="http://www.w3.org/2000/svg">
<path d="M81.5797 55.896H65.3697C64.8197 55.896 64.3697 55.4459 64.3697 54.896V31.4459H29.5497V54.896C29.5497 55.4459 29.0997 55.896 28.5497 55.896H26.8197C26.2697 55.896 25.8197 55.4459 25.8197 54.896C25.8197 54.346 26.2697 53.896 26.8197 53.896H27.5497V30.4459C27.5497 29.896 27.9997 29.4459 28.5497 29.4459H65.3697C65.9197 29.4459 66.3697 29.896 66.3697 30.4459V53.896H80.5797V19.506L46.9897 8.25595L13.3297 19.506V40.3359C13.3297 40.8859 12.8797 41.3359 12.3297 41.3359C11.7797 41.3359 11.3297 40.8859 11.3297 40.3359V18.7859C11.3297 18.3559 11.6097 17.976 12.0097 17.836L46.6697 6.24595C46.8797 6.17595 47.0997 6.17595 47.2997 6.24595L81.8897 17.836C82.2997 17.976 82.5697 18.3559 82.5697 18.7859V54.896C82.5697 55.4459 82.1197 55.896 81.5697 55.896H81.5797Z" fill="#001C43"/>
<path d="M61.3397 55.5059H32.9297C32.3797 55.5059 31.9297 55.0559 31.9297 54.5059V35.1559C31.9297 34.6059 32.3797 34.1559 32.9297 34.1559H61.3397C61.8897 34.1559 62.3397 34.6059 62.3397 35.1559V54.5059C62.3397 55.0559 61.8897 55.5059 61.3397 55.5059ZM33.9297 53.5059H60.3397V36.1559H33.9297V53.5059Z" fill="#001C43"/>
<path d="M1.56968 17.856C1.14968 17.856 0.759695 17.596 0.619695 17.176C0.449695 16.656 0.729669 16.086 1.24967 15.906L46.6797 0.715952C46.8897 0.645952 47.1097 0.645952 47.3097 0.715952L92.6397 15.906C93.1597 16.086 93.4497 16.646 93.2697 17.176C93.0897 17.696 92.5297 17.986 91.9997 17.806L46.9797 2.72595L1.85968 17.806C1.74968 17.846 1.64968 17.856 1.53968 17.856H1.56968Z" fill="#001C43"/>
<path d="M23.5097 55.896H14.1597C12.5997 55.896 11.3297 54.626 11.3297 53.066V44.066C11.3297 43.516 11.7797 43.066 12.3297 43.066C12.8797 43.066 13.3297 43.516 13.3297 44.066V53.066C13.3297 53.526 13.6997 53.896 14.1597 53.896H23.5097C24.0597 53.896 24.5097 54.346 24.5097 54.896C24.5097 55.446 24.0597 55.896 23.5097 55.896Z" fill="#1DB8D9"/>
</svg>
