<svg width="75" height="51" viewBox="0 0 75 51" fill="none" xmlns="http://www.w3.org/2000/svg">
<path d="M19.5426 50.9104C18.3426 50.9104 17.1426 50.4504 16.2226 49.5404L10.0426 43.3605C9.65263 42.9705 9.65263 42.3405 10.0426 41.9505C10.4326 41.5605 11.0626 41.5605 11.4526 41.9505L17.6326 48.1305C18.6826 49.1805 20.3926 49.1805 21.4426 48.1305L42.3826 27.1905C42.8026 26.7705 43.0826 26.2105 43.1526 25.6105L45.0626 9.94047C45.1626 9.12047 44.8826 8.31044 44.3026 7.72044C43.7226 7.13044 42.9226 6.85046 42.0926 6.93046L26.1926 8.65043C25.5826 8.72043 25.0126 8.99045 24.5826 9.42045L11.1826 22.7804C10.7926 23.1704 10.1626 23.1704 9.77263 22.7804C9.38263 22.3904 9.38263 21.7605 9.77263 21.3705L23.1726 8.01048C23.9226 7.26048 24.9226 6.78044 25.9826 6.66044L41.8826 4.94047C43.3226 4.79047 44.7226 5.28047 45.7326 6.31047C46.7426 7.34047 47.2226 8.74046 47.0526 10.1805L45.1426 25.8504C45.0126 26.8904 44.5426 27.8604 43.8026 28.6004L22.8626 49.5404C21.9426 50.4604 20.7426 50.9104 19.5426 50.9104Z" fill="#001C43"/>
<path d="M8.61263 41.4405C8.35263 41.4405 8.10263 41.3405 7.90263 41.1505L1.08263 34.3305C-0.0373726 33.2105 -0.0273726 31.3605 1.11263 30.2205L7.81263 23.5205C8.20263 23.1305 8.83263 23.1305 9.22263 23.5205C9.61263 23.9105 9.61263 24.5405 9.22263 24.9305L2.52263 31.6305C2.16263 31.9905 2.15263 32.5605 2.49263 32.9105L9.31263 39.7305C9.70263 40.1205 9.70263 40.7505 9.31263 41.1405C9.11263 41.3405 8.86263 41.4305 8.60263 41.4305L8.61263 41.4405Z" fill="#1DB8D9"/>
<path d="M35.0126 22.8905C31.5026 22.8905 28.6426 20.0305 28.6426 16.5205C28.6426 13.0105 31.5026 10.1505 35.0126 10.1505C38.5226 10.1505 41.3826 13.0105 41.3826 16.5205C41.3826 20.0305 38.5226 22.8905 35.0126 22.8905ZM35.0126 12.1505C32.6026 12.1505 30.6426 14.1105 30.6426 16.5205C30.6426 18.9305 32.6026 20.8905 35.0126 20.8905C37.4226 20.8905 39.3826 18.9305 39.3826 16.5205C39.3826 14.1105 37.4226 12.1505 35.0126 12.1505Z" fill="#001C43"/>
<path d="M34.8826 16.8805C34.6926 16.8805 34.4926 16.8205 34.3226 16.7105C33.8626 16.4005 33.7426 15.7805 34.0526 15.3205C34.3226 14.9205 40.7826 5.58051 51.7426 6.83051C65.3226 8.37051 69.3026 6.17048 72.2526 1.30048C72.5426 0.830477 73.1526 0.680511 73.6226 0.960511C74.0926 1.25051 74.2426 1.86051 73.9626 2.33051C70.1426 8.65051 64.4726 10.2805 51.5126 8.81049C41.7326 7.71049 35.7626 16.3505 35.7026 16.4305C35.5126 16.7205 35.1926 16.8705 34.8726 16.8705L34.8826 16.8805Z" fill="#001C43"/>
</svg>
