<svg width="83" height="76" viewBox="0 0 83 76" fill="none" xmlns="http://www.w3.org/2000/svg">
<path d="M66.1978 75.9435H1.02777C0.477771 75.9435 0.027771 75.4935 0.027771 74.9435V35.7935C0.027771 35.2435 0.477771 34.7935 1.02777 34.7935H81.0778C81.6278 34.7935 82.0778 35.2435 82.0778 35.7935V60.3235C82.0778 60.8735 81.6278 61.3235 81.0778 61.3235C80.5278 61.3235 80.0778 60.8735 80.0778 60.3235V36.7935H2.02777V73.9435H66.1978C66.7478 73.9435 67.1978 74.3935 67.1978 74.9435C67.1978 75.4935 66.7478 75.9435 66.1978 75.9435Z" fill="#001C43"/>
<path d="M80.6277 41.3535H1.01776C0.467761 41.3535 0.0177612 40.9035 0.0177612 40.3535C0.0177612 39.8035 0.467761 39.3535 1.01776 39.3535H80.6277C81.1777 39.3535 81.6277 39.8035 81.6277 40.3535C81.6277 40.9035 81.1777 41.3535 80.6277 41.3535Z" fill="#001C43"/>
<path d="M77.0378 31.6035C76.9078 31.6035 76.7777 31.5735 76.6477 31.5235L41.1977 16.6235L5.52775 31.5235C5.01775 31.7335 4.42775 31.4935 4.21775 30.9835C4.00775 30.4735 4.24773 29.8835 4.75773 29.6735L40.8177 14.6135C41.0677 14.5135 41.3477 14.5135 41.5877 14.6135L77.4277 29.6735C77.9377 29.8835 78.1777 30.4735 77.9577 30.9835C77.7977 31.3635 77.4278 31.5935 77.0378 31.5935V31.6035Z" fill="#001C43"/>
<path d="M6.61774 35.7935C6.06774 35.7935 5.61774 35.3435 5.61774 34.7935V32.0935C5.61774 31.8335 5.39775 31.6035 5.12775 31.6035C4.85775 31.6035 4.63776 31.8235 4.63776 32.0935V34.7935C4.63776 35.3435 4.18776 35.7935 3.63776 35.7935C3.08776 35.7935 2.63776 35.3435 2.63776 34.7935V32.0935C2.63776 30.7235 3.75775 29.6035 5.12775 29.6035C6.49775 29.6035 7.61774 30.7235 7.61774 32.0935V34.7935C7.61774 35.3435 7.16774 35.7935 6.61774 35.7935Z" fill="#001C43"/>
<path d="M78.4478 35.7935C77.8978 35.7935 77.4478 35.3435 77.4478 34.7935V32.0935C77.4478 31.8335 77.2278 31.6035 76.9578 31.6035C76.6878 31.6035 76.4678 31.8235 76.4678 32.0935V34.7935C76.4678 35.3435 76.0178 35.7935 75.4678 35.7935C74.9178 35.7935 74.4678 35.3435 74.4678 34.7935V32.0935C74.4678 30.7235 75.5878 29.6035 76.9578 29.6035C78.3278 29.6035 79.4478 30.7235 79.4478 32.0935V34.7935C79.4478 35.3435 78.9978 35.7935 78.4478 35.7935Z" fill="#001C43"/>
<path d="M41.1877 8.28345C39.0877 8.28345 37.3777 6.57345 37.3777 4.47345C37.3777 2.37345 39.0877 0.663452 41.1877 0.663452C43.2877 0.663452 44.9977 2.37345 44.9977 4.47345C44.9977 6.57345 43.2877 8.28345 41.1877 8.28345ZM41.1877 2.65345C40.1877 2.65345 39.3777 3.46345 39.3777 4.46345C39.3777 5.46345 40.1877 6.27345 41.1877 6.27345C42.1877 6.27345 42.9977 5.46345 42.9977 4.46345C42.9977 3.46345 42.1877 2.65345 41.1877 2.65345Z" fill="#001C43"/>
<path d="M41.1877 17.9035C40.6377 17.9035 40.1877 17.4535 40.1877 16.9035V8.30347C40.1877 7.75347 40.6377 7.30347 41.1877 7.30347C41.7377 7.30347 42.1877 7.75347 42.1877 8.30347V16.8935C42.1877 17.4435 41.7377 17.8935 41.1877 17.8935V17.9035Z" fill="#001C43"/>
<path d="M79.2378 75.9434H70.2378C69.6878 75.9434 69.2378 75.4934 69.2378 74.9434C69.2378 74.3934 69.6878 73.9434 70.2378 73.9434H79.2378C79.6978 73.9434 80.0677 73.5734 80.0677 73.1134V63.7634C80.0677 63.2134 80.5177 62.7634 81.0677 62.7634C81.6177 62.7634 82.0677 63.2134 82.0677 63.7634V73.1134C82.0677 74.6734 80.7978 75.9434 79.2378 75.9434Z" fill="#1DB8D9"/>
</svg>
