<svg width="65" height="64" viewBox="0 0 65 64" fill="none" xmlns="http://www.w3.org/2000/svg">
<path d="M21.7677 63.2935C21.7677 63.2935 21.7077 63.2935 21.6777 63.2935C21.3677 63.2635 21.0877 63.0935 20.9177 62.8235L14.8777 53.1535C13.8377 53.2035 12.1177 53.1335 11.4777 52.5135C10.8777 51.9335 10.6877 50.2935 10.7677 49.1635L0.807754 43.2235C0.537753 43.0635 0.357743 42.7835 0.327743 42.4635C0.297743 42.1435 0.417729 41.8335 0.657729 41.6235L3.87773 38.7135C4.07773 38.5335 4.34775 38.4435 4.61775 38.4635L16.4277 39.3435C17.9577 37.3835 24.2377 29.3135 26.2277 26.7535L18.8777 20.9035L7.45775 14.8135C7.19775 14.6735 7.00774 14.4235 6.94774 14.1335C6.88774 13.8435 6.95775 13.5435 7.14775 13.3035L11.4677 7.86345C11.7177 7.54345 12.1477 7.41345 12.5377 7.52345L39.2478 15.4035C39.3578 15.2935 39.4877 15.1635 39.6377 15.0135C41.9177 12.7035 47.9577 6.57345 50.3477 4.84345C53.9777 2.19345 57.6577 0.663452 60.4477 0.663452C61.1477 0.663452 62.1277 0.763452 62.9177 1.26345C63.0277 1.32345 63.2277 1.44345 63.4277 1.64345C63.6177 1.83345 63.8377 2.03345 63.9477 2.30345C64.4077 3.06345 64.5177 3.99345 64.5177 4.65345C64.5177 7.32345 62.9177 11.0135 60.2277 14.5335C58.3477 17.0035 51.2677 23.5335 49.2577 25.3535L57.3177 51.3435C57.4477 51.7535 57.2977 52.1935 56.9577 52.4435L51.3777 56.5835C51.1377 56.7535 50.8378 56.8135 50.5578 56.7535C50.2678 56.6935 50.0278 56.5034 49.8978 56.2435L45.2478 47.4335C44.9878 46.9435 45.1777 46.3435 45.6677 46.0835C46.1577 45.8235 46.7577 46.0135 47.0177 46.5035L51.1178 54.2835L55.1977 51.2635L47.1577 25.3435C47.0377 24.9635 47.1577 24.5535 47.4577 24.2935C48.6777 23.2235 56.7577 15.8035 58.6377 13.3235C61.0377 10.1835 62.5177 6.86345 62.5177 4.65345C62.5177 4.08345 62.4077 3.57345 62.2177 3.30345C62.1877 3.26345 62.1678 3.22345 62.1478 3.18345C62.1077 3.14345 62.0678 3.10345 62.0278 3.06345C61.9878 3.04345 61.8978 2.97345 61.8678 2.95345C61.5778 2.76345 61.0477 2.65345 60.4477 2.65345C58.1077 2.65345 54.7778 4.07345 51.5278 6.44345C49.2678 8.08345 43.0878 14.3435 41.0578 16.4035C40.6378 16.8335 40.3477 17.1235 40.2277 17.2335C39.9677 17.4835 39.5978 17.5835 39.2478 17.4735L12.6178 9.61345L9.45775 13.5835L19.8977 19.1535C19.9477 19.1835 19.9977 19.2135 20.0477 19.2535L28.2478 25.7735C28.6778 26.1135 28.7477 26.7335 28.4177 27.1735C28.4177 27.1735 17.9177 40.6535 17.6777 40.9635C17.4677 41.2335 17.1478 41.3735 16.8078 41.3535L4.88774 40.4635L2.98775 42.1835L12.3577 47.7735C12.7777 48.0235 12.9578 48.5335 12.7778 48.9935C12.6778 49.3335 12.7477 50.5235 12.8877 51.0235C13.4277 51.1635 14.7577 51.2135 15.1377 51.1135C15.5577 51.0135 15.9977 51.1935 16.2177 51.5535L21.8877 60.6235L23.6877 58.6334L22.6277 47.0335C22.5977 46.6835 22.7478 46.3535 23.0278 46.1435C23.0278 46.1435 25.0378 44.6335 25.7778 44.0535C26.2078 43.7135 26.8377 43.7835 27.1877 44.2135C27.5277 44.6435 27.4578 45.2735 27.0278 45.6135C26.4978 46.0335 25.3277 46.9135 24.6877 47.4035L25.7377 58.8834C25.7677 59.1634 25.6677 59.4435 25.4877 59.6435L22.4978 62.9435C22.3078 63.1535 22.0377 63.2735 21.7577 63.2735L21.7677 63.2935Z" fill="#001C43"/>
<path d="M44.4277 45.5135C44.1377 45.5135 43.8577 45.3935 43.6577 45.1535L37.6877 37.9535C37.5477 37.7835 37.3477 37.6835 37.1277 37.6535C36.9077 37.6335 36.6977 37.7035 36.5177 37.8435L29.5977 43.5935C29.1677 43.9435 28.5377 43.8835 28.1877 43.4635C27.8377 43.0435 27.8977 42.4035 28.3177 42.0535L35.2377 36.3035C35.8177 35.8235 36.5478 35.5935 37.3078 35.6635C38.0578 35.7335 38.7377 36.0935 39.2177 36.6735L45.1877 43.8735C45.5377 44.2935 45.4778 44.9335 45.0578 45.2835C44.8678 45.4335 44.6477 45.5135 44.4177 45.5135H44.4277Z" fill="#1DB8D9"/>
</svg>
