<svg width="88" height="65" viewBox="0 0 88 65" fill="none" xmlns="http://www.w3.org/2000/svg">
<path d="M83.38 54.9441C82.38 54.9441 81.44 54.5541 80.73 53.8441L54.2 27.3141L50.2 31.304C50.73 32.484 50.51 33.924 49.55 34.894C48.33 36.114 46.23 36.104 45.01 34.894L33.67 23.5441C33.06 22.9441 32.73 22.134 32.73 21.274C32.73 20.414 33.07 19.6141 33.68 19.0041C34.6 18.0741 36.09 17.8241 37.26 18.3441L50.54 5.07407C50.35 4.66407 50.25 4.20405 50.25 3.74405C50.25 2.88405 50.59 2.08404 51.2 1.48404C52.39 0.274038 54.52 0.274038 55.73 1.48404L67.07 12.8141C68.31 14.0641 68.31 16.1041 67.07 17.3541C66.14 18.2841 64.66 18.544 63.48 18.014L59.49 22.0041L86.03 48.5441C87.49 50.0041 87.49 52.3841 86.03 53.8441C85.32 54.5541 84.38 54.9441 83.38 54.9441ZM54.2 24.9041C54.46 24.9041 54.71 25.0041 54.91 25.1941L82.15 52.4341C82.81 53.0941 83.97 53.0941 84.63 52.4341C85.31 51.7541 85.31 50.6441 84.63 49.9641L57.38 22.714C57.19 22.524 57.09 22.2741 57.09 22.0041C57.09 21.7341 57.2 21.4841 57.38 21.2941L62.64 16.0441C63.01 15.6741 63.61 15.6541 64.01 16.0041C64.47 16.4041 65.23 16.384 65.67 15.954C66.13 15.484 66.13 14.714 65.67 14.234L54.33 2.90405C53.87 2.44405 53.08 2.44405 52.63 2.90405C52.39 3.13405 52.27 3.43406 52.27 3.75406C52.27 4.07406 52.39 4.37405 52.62 4.59405C52.95 4.92405 53.01 5.43406 52.78 5.81406C52.74 5.87406 52.7 5.92406 52.65 5.97406C52.52 6.10406 52.37 6.18404 52.21 6.23404L38.5 19.934C38.45 20.114 38.36 20.2741 38.22 20.4141C37.83 20.7941 37.2 20.784 36.82 20.394C36.37 19.934 35.58 19.934 35.12 20.394C34.88 20.624 34.76 20.9241 34.76 21.2541C34.76 21.5841 34.89 21.8741 35.11 22.1041L46.45 33.454C46.9 33.904 47.71 33.904 48.16 33.454C48.63 32.974 48.63 32.224 48.16 31.744C47.77 31.354 47.78 30.724 48.16 30.334C48.29 30.204 48.44 30.1241 48.6 30.0741L53.51 25.174C53.7 24.984 53.96 24.8841 54.22 24.8841L54.2 24.9041Z" fill="#001C43"/>
<path d="M48.94 32.184C48.69 32.184 48.43 32.084 48.24 31.894C47.85 31.504 47.85 30.874 48.24 30.484L62.52 16.0741C62.91 15.6841 63.54 15.6841 63.93 16.0741C64.32 16.4641 64.32 17.094 63.93 17.484L49.65 31.894C49.45 32.094 49.2 32.194 48.94 32.194V32.184Z" fill="#001C43"/>
<path d="M49.14 32.3841C48.88 32.3841 48.63 32.2841 48.43 32.0941L36.66 20.3041C36.27 19.9141 36.27 19.2841 36.66 18.8941C37.05 18.5041 37.68 18.5041 38.07 18.8941L49.84 30.6841C50.23 31.0741 50.23 31.7041 49.84 32.0941C49.64 32.2841 49.39 32.3841 49.13 32.3841H49.14Z" fill="#001C43"/>
<path d="M63.44 17.844C63.18 17.844 62.93 17.744 62.73 17.544L50.81 5.514C50.42 5.124 50.43 4.48402 50.81 4.10402C51.2 3.71402 51.84 3.71402 52.23 4.10402L64.15 16.134C64.54 16.524 64.53 17.164 64.15 17.544C63.95 17.734 63.7 17.834 63.45 17.834L63.44 17.844Z" fill="#001C43"/>
<path d="M47.08 64.2241H11.97C11.42 64.2241 10.97 63.7741 10.97 63.2241V53.924C10.97 51.164 13.24 48.9141 16.03 48.9141H34.65C35.2 48.9141 35.65 49.3641 35.65 49.9141C35.65 50.4641 35.2 50.9141 34.65 50.9141H16.03C14.35 50.9141 12.97 52.264 12.97 53.924V62.2241H46.08V61.7941C46.08 61.2441 46.53 60.7941 47.08 60.7941C47.63 60.7941 48.08 61.2441 48.08 61.7941V63.2241C48.08 63.7741 47.63 64.2241 47.08 64.2241Z" fill="#001C43"/>
<path d="M58.04 64.2241H1C0.45 64.2241 0 63.7741 0 63.2241C0 62.6741 0.45 62.2241 1 62.2241H58.04C58.59 62.2241 59.04 62.6741 59.04 63.2241C59.04 63.7741 58.59 64.2241 58.04 64.2241Z" fill="#001C43"/>
<path d="M47.19 60.2441C46.64 60.2441 46.19 59.7941 46.19 59.2441V51.6641C46.19 51.2541 45.86 50.9241 45.45 50.9241H37.53C36.98 50.9241 36.53 50.4741 36.53 49.9241C36.53 49.3741 36.98 48.9241 37.53 48.9241H45.45C46.96 48.9241 48.19 50.1541 48.19 51.6641V59.2441C48.19 59.7941 47.74 60.2441 47.19 60.2441Z" fill="#1DB8D9"/>
</svg>
