<svg width="42" height="67" viewBox="0 0 42 67" fill="none" xmlns="http://www.w3.org/2000/svg">
<path d="M25.755 11.1365H24.055C23.505 11.1365 23.055 10.6865 23.055 10.1365C23.055 9.58654 23.505 9.13654 24.055 9.13654H25.755C26.305 9.13654 26.755 9.58654 26.755 10.1365C26.755 10.6865 26.305 11.1365 25.755 11.1365Z" fill="#001C43"/>
<path d="M36.415 66.8765H5.40497C2.49497 66.8765 0.124969 64.5065 0.124969 61.5965V14.4165C0.124969 11.5065 2.49497 9.13654 5.40497 9.13654H17.355C17.905 9.13654 18.355 9.58654 18.355 10.1365C18.355 10.6865 17.905 11.1365 17.355 11.1365H5.40497C3.59497 11.1365 2.12497 12.6065 2.12497 14.4165V61.5965C2.12497 63.4065 3.59497 64.8765 5.40497 64.8765H36.415C38.225 64.8765 39.695 63.4065 39.695 61.5965V25.3865C39.695 24.8365 40.145 24.3865 40.695 24.3865C41.245 24.3865 41.695 24.8365 41.695 25.3865V61.5965C41.695 64.5065 39.325 66.8765 36.415 66.8765Z" fill="#001C43"/>
<path d="M40.695 23.2466C40.145 23.2466 39.695 22.7966 39.695 22.2466V12.1165C39.695 11.5765 39.255 11.1365 38.715 11.1365H28.965C28.415 11.1365 27.965 10.6865 27.965 10.1365C27.965 9.58654 28.415 9.13654 28.965 9.13654H38.715C40.355 9.13654 41.695 10.4765 41.695 12.1165V22.2466C41.695 22.7966 41.245 23.2466 40.695 23.2466Z" fill="#1DB8D9"/>
<path d="M20.975 16.4565H20.555C18.335 16.4565 16.525 14.6465 16.525 12.4265V4.60654C16.525 2.38654 18.335 0.576538 20.555 0.576538H20.975C23.195 0.576538 25.005 2.38654 25.005 4.60654V12.4265C25.005 14.6465 23.195 16.4565 20.975 16.4565ZM20.555 2.58655C19.435 2.58655 18.525 3.49655 18.525 4.61655V12.4365C18.525 13.5565 19.435 14.4666 20.555 14.4666H20.975C22.095 14.4666 23.005 13.5565 23.005 12.4365V4.61655C23.005 3.49655 22.095 2.58655 20.975 2.58655H20.555Z" fill="#001C43"/>
<path d="M11.035 37.2965C10.775 37.2965 10.525 37.1965 10.325 37.0065L6.51497 33.1965C6.12497 32.8065 6.12497 32.1765 6.51497 31.7865C6.90497 31.3965 7.53497 31.3965 7.92497 31.7865L11.025 34.8865L15.875 30.0365C16.265 29.6465 16.895 29.6465 17.285 30.0365C17.675 30.4265 17.675 31.0565 17.285 31.4465L11.725 37.0065C11.525 37.2065 11.275 37.2965 11.015 37.2965H11.035Z" fill="#001C43"/>
<path d="M34.635 35.1465H18.955C18.405 35.1465 17.955 34.6965 17.955 34.1465C17.955 33.5965 18.405 33.1465 18.955 33.1465H34.635C35.185 33.1465 35.635 33.5965 35.635 34.1465C35.635 34.6965 35.185 35.1465 34.635 35.1465Z" fill="#001C43"/>
<path d="M11.035 53.1565C10.775 53.1565 10.525 53.0565 10.325 52.8665L6.51497 49.0565C6.12497 48.6665 6.12497 48.0365 6.51497 47.6465C6.90497 47.2565 7.53497 47.2565 7.92497 47.6465L11.025 50.7465L15.875 45.8965C16.265 45.5065 16.895 45.5065 17.285 45.8965C17.675 46.2865 17.675 46.9165 17.285 47.3065L11.725 52.8665C11.525 53.0665 11.275 53.1565 11.015 53.1565H11.035Z" fill="#001C43"/>
<path d="M34.635 51.0165H18.955C18.405 51.0165 17.955 50.5665 17.955 50.0165C17.955 49.4665 18.405 49.0165 18.955 49.0165H34.635C35.185 49.0165 35.635 49.4665 35.635 50.0165C35.635 50.5665 35.185 51.0165 34.635 51.0165Z" fill="#001C43"/>
<path d="M30.275 19.4366H11.235C10.685 19.4366 10.235 18.9866 10.235 18.4366V13.7466C10.235 13.1966 10.685 12.7466 11.235 12.7466H17.695C18.245 12.7466 18.695 13.1966 18.695 13.7466C18.695 14.2966 18.245 14.7466 17.695 14.7466H12.235V17.4366H29.275V14.7466H23.815C23.265 14.7466 22.815 14.2966 22.815 13.7466C22.815 13.1966 23.265 12.7466 23.815 12.7466H30.275C30.825 12.7466 31.275 13.1966 31.275 13.7466V18.4366C31.275 18.9866 30.825 19.4366 30.275 19.4366Z" fill="#001C43"/>
</svg>
