<svg width="55" height="61" viewBox="0 0 55 61" fill="none" xmlns="http://www.w3.org/2000/svg">
<path d="M45.202 60.8023H4.97192C2.66192 60.8023 0.791931 58.9223 0.791931 56.6223C0.791931 54.3223 2.67192 52.4423 4.97192 52.4423H27.152C27.702 52.4423 28.152 52.8923 28.152 53.4423C28.152 53.9923 27.702 54.4423 27.152 54.4423H4.97192C3.77192 54.4423 2.79193 55.4223 2.79193 56.6223C2.79193 57.8223 3.77192 58.8023 4.97192 58.8023H45.202C46.402 58.8023 47.382 57.8223 47.382 56.6223C47.382 55.4223 46.402 54.4423 45.202 54.4423H43.262C42.712 54.4423 42.262 53.9923 42.262 53.4423C42.262 52.8923 42.712 52.4423 43.262 52.4423H45.202C47.512 52.4423 49.382 54.3223 49.382 56.6223C49.382 58.9223 47.502 60.8023 45.202 60.8023Z" fill="#001C43"/>
<path d="M9.55194 53.6623C9.00194 53.6623 8.55194 53.2123 8.55194 52.6623V31.4523C8.55194 22.3323 15.972 14.9223 25.082 14.9223C34.192 14.9223 41.6119 22.3423 41.6119 31.4523V39.9323C41.6119 40.4823 41.1619 40.9323 40.6119 40.9323C40.0619 40.9323 39.6119 40.4823 39.6119 39.9323V31.4523C39.6119 23.4423 33.092 16.9223 25.082 16.9223C17.072 16.9223 10.5519 23.4423 10.5519 31.4523V52.6623C10.5519 53.2123 10.1019 53.6623 9.55194 53.6623Z" fill="#001C43"/>
<path d="M39.0419 10.5223C38.8819 10.5223 38.7219 10.4823 38.5719 10.4023C38.0819 10.1423 37.9019 9.53231 38.1619 9.05231L42.2219 1.47231C42.4819 0.982305 43.0919 0.802302 43.5719 1.0623C44.0619 1.3223 44.2419 1.93231 43.9819 2.41231L39.9219 9.99229C39.7419 10.3323 39.3919 10.5223 39.0419 10.5223Z" fill="#001C43"/>
<path d="M45.902 17.0523C45.582 17.0523 45.262 16.9023 45.072 16.6123C44.762 16.1523 44.882 15.5323 45.342 15.2223L52.4719 10.4223C52.9319 10.1123 53.552 10.2323 53.862 10.6923C54.172 11.1523 54.052 11.7723 53.592 12.0823L46.462 16.8823C46.292 16.9923 46.092 17.0523 45.902 17.0523Z" fill="#001C43"/>
<path d="M38.892 54.4323H30.402C29.852 54.4323 29.402 53.9823 29.402 53.4323C29.402 52.8823 29.852 52.4323 30.402 52.4323H38.892C39.292 52.4323 39.6119 52.1123 39.6119 51.7123V42.8923C39.6119 42.3423 40.0619 41.8923 40.6119 41.8923C41.1619 41.8923 41.6119 42.3423 41.6119 42.8923V51.7123C41.6119 53.2123 40.392 54.4323 38.892 54.4323Z" fill="#1DB8D9"/>
<path fill-rule="evenodd" clip-rule="evenodd" d="M26.9919 45.8523C26.9919 46.9423 26.152 47.7723 25.012 47.7723C23.872 47.7723 23.0319 46.9423 23.0319 45.8523V45.8023C23.0319 44.7223 23.872 43.8823 25.012 43.8823C26.152 43.8823 26.9919 44.7123 26.9919 45.8023V45.8523Z" fill="#001C43"/>
<path d="M25.002 42.3423C24.452 42.3423 24.002 41.8923 24.002 41.3423V25.6723C24.002 25.1223 24.452 24.6723 25.002 24.6723C25.552 24.6723 26.002 25.1223 26.002 25.6723V41.3423C26.002 41.8923 25.552 42.3423 25.002 42.3423Z" fill="#001C43"/>
</svg>
