<svg width="63" height="63" viewBox="0 0 63 63" fill="none" xmlns="http://www.w3.org/2000/svg">
<path d="M56.9901 62.2297H5.24005C2.45005 62.2297 0.170044 59.9597 0.170044 57.1597V5.40973C0.170044 2.60973 2.44005 0.339722 5.24005 0.339722H46.3101C46.8601 0.339722 47.3101 0.789722 47.3101 1.33972C47.3101 1.88972 46.8601 2.33972 46.3101 2.33972H5.24005C3.55005 2.33972 2.17004 3.71973 2.17004 5.40973V57.1597C2.17004 58.8497 3.55005 60.2297 5.24005 60.2297H56.9901C58.68 60.2297 60.0601 58.8497 60.0601 57.1597V15.7897C60.0601 15.2397 60.5101 14.7897 61.0601 14.7897C61.6101 14.7897 62.0601 15.2397 62.0601 15.7897V57.1597C62.0601 59.9597 59.7901 62.2297 56.9901 62.2297Z" fill="#001C43"/>
<path d="M61.0601 13.7397C60.5101 13.7397 60.0601 13.2897 60.0601 12.7397V3.25977C60.0601 2.74977 59.6601 2.33972 59.1801 2.33972H49.53C48.98 2.33972 48.53 1.88972 48.53 1.33972C48.53 0.789722 48.98 0.339722 49.53 0.339722H59.1801C60.7701 0.339722 62.0601 1.64977 62.0601 3.25977V12.7397C62.0601 13.2897 61.6101 13.7397 61.0601 13.7397Z" fill="#1DB8D9"/>
<path d="M34.01 51.8997H27.08C26.53 51.8997 26.08 51.4497 26.08 50.8997V34.4097H21.07C20.52 34.4097 20.07 33.9597 20.07 33.4097V26.6397C20.07 26.0897 20.52 25.6397 21.07 25.6397H26.08V21.8597C26.11 17.3397 27.63 15.4597 28.01 15.0497C30.6 11.7297 34.5501 11.6397 34.9901 11.6397H41.11C41.66 11.6397 42.11 12.0897 42.11 12.6397V19.0197C42.11 19.5697 41.66 20.0197 41.11 20.0197H37.05C35.4 20.0197 35.04 21.0397 35.01 21.8897V25.6397H40.8101C41.1001 25.6397 41.3701 25.7597 41.5601 25.9797C41.7501 26.1897 41.84 26.4797 41.8 26.7697L40.97 33.5397C40.91 34.0397 40.48 34.4197 39.98 34.4197H35.02V50.9097C35.02 51.4597 34.57 51.9097 34.02 51.9097L34.01 51.8997ZM28.08 49.8997H33.01V33.4097C33.01 32.8597 33.46 32.4097 34.01 32.4097H39.09L39.6801 27.6397H34.02C33.47 27.6397 33.02 27.1897 33.02 26.6397V21.8597C33.07 19.9297 34.31 18.0197 36.97 18.0197H37.07H40.11V13.6397H35.03C34.64 13.6397 31.5701 13.7198 29.5601 16.3198C29.5301 16.3598 29.49 16.3998 29.45 16.4398C29.45 16.4398 28.1 17.8698 28.08 21.8698V26.6497C28.08 27.1997 27.63 27.6497 27.08 27.6497H22.07V32.4197H27.08C27.63 32.4197 28.08 32.8697 28.08 33.4197V49.9097V49.8997Z" fill="#001C43"/>
</svg>
