<svg width="56" height="66" viewBox="0 0 56 66" fill="none" xmlns="http://www.w3.org/2000/svg">
<path d="M16.33 54.8099C16.18 54.8099 16.03 54.7798 15.89 54.7098C6.09001 49.8998 0 40.1298 0 29.2198C0 13.5698 12.73 0.839844 28.38 0.839844C29.35 0.839844 30.32 0.889868 31.28 0.989868C31.83 1.04987 32.23 1.53984 32.17 2.08984C32.11 2.63984 31.63 3.02986 31.07 2.97986C30.18 2.88986 29.27 2.83984 28.37 2.83984C13.82 2.83984 1.98999 14.6698 1.98999 29.2198C1.98999 39.3598 7.65001 48.4399 16.76 52.9199C17.26 53.1599 17.46 53.7598 17.22 54.2598C17.05 54.6098 16.69 54.8198 16.32 54.8198L16.33 54.8099Z" fill="#001C43"/>
<path d="M27.3 56.9997C26.33 56.9997 25.36 56.9498 24.4 56.8498C23.85 56.7898 23.45 56.2997 23.51 55.7497C23.57 55.1997 24.05 54.8098 24.61 54.8598C25.5 54.9498 26.41 54.9997 27.31 54.9997C41.86 54.9997 53.69 43.1698 53.69 28.6198C53.69 18.4798 48.03 9.39977 38.92 4.91977C38.42 4.67977 38.22 4.07975 38.46 3.57975C38.7 3.07975 39.3 2.87979 39.8 3.11979C49.6 7.92979 55.69 17.6998 55.69 28.6098C55.69 44.2598 42.96 56.9898 27.31 56.9898L27.3 56.9997Z" fill="#001C43"/>
<path d="M31.38 65.0499C31.12 65.0499 30.87 64.9498 30.67 64.7598L23.88 57.9699C22.76 56.8499 22.76 55.0199 23.88 53.8999L30.42 47.3599C30.81 46.9699 31.44 46.9699 31.83 47.3599C32.22 47.7499 32.22 48.3799 31.83 48.7699L25.29 55.3099C24.95 55.6499 24.95 56.2099 25.29 56.5499L32.08 63.3399C32.47 63.7299 32.47 64.3598 32.08 64.7498C31.88 64.9498 31.63 65.0399 31.37 65.0399L31.38 65.0499Z" fill="#001C43"/>
<path d="M26.22 42.8398C26.06 42.8398 25.91 42.7998 25.76 42.7298C25.27 42.4698 25.08 41.8698 25.34 41.3798L31.45 29.6698H23.87C23.53 29.6698 23.21 29.4898 23.02 29.1998C22.84 28.9098 22.82 28.5398 22.97 28.2298L29.34 15.0198C29.58 14.5198 30.18 14.3098 30.67 14.5498C31.17 14.7898 31.38 15.3898 31.14 15.8798L25.46 27.6598H33.1C33.45 27.6598 33.77 27.8398 33.96 28.1398C34.14 28.4398 34.15 28.8098 33.99 29.1198L27.12 42.2898C26.94 42.6298 26.59 42.8298 26.23 42.8298L26.22 42.8398Z" fill="#001C43"/>
</svg>
