<svg width="61" height="71" viewBox="0 0 61 71" fill="none" xmlns="http://www.w3.org/2000/svg">
<path d="M52.1252 70.3397H3.11523C1.46523 70.3397 0.115234 68.9897 0.115234 67.3397C0.115234 67.2697 0.115254 67.1997 0.135254 67.1297L5.95526 40.4497C6.01526 38.8497 7.33526 37.5697 8.95526 37.5697H57.9653C59.6153 37.5697 60.9653 38.9197 60.9653 40.5697C60.9653 40.6397 60.9653 40.7097 60.9453 40.7797L55.1353 67.4597C55.0753 69.0597 53.7553 70.3397 52.1353 70.3397H52.1252ZM2.11523 67.4297C2.16523 67.9397 2.58523 68.3397 3.11523 68.3397H52.1252C52.6752 68.3397 53.1252 67.8897 53.1252 67.3397C53.1252 67.2697 53.1253 67.1997 53.1453 67.1297L58.9553 40.4797C58.9053 39.9697 58.4853 39.5697 57.9553 39.5697H8.94525C8.39525 39.5697 7.94525 40.0197 7.94525 40.5697C7.94525 40.6397 7.94523 40.7097 7.92523 40.7797L2.11523 67.4297Z" fill="#001C43"/>
<path d="M56.7552 38.4097C56.2052 38.4097 55.7552 37.9597 55.7552 37.4097V33.9997C55.7552 32.8097 54.7853 31.8397 53.5953 31.8397H20.2653C19.7153 31.8397 19.2653 31.3897 19.2653 30.8397C19.2653 30.2897 19.7153 29.8397 20.2653 29.8397H53.5953C55.8853 29.8397 57.7552 31.7097 57.7552 33.9997V37.4097C57.7552 37.9597 57.3052 38.4097 56.7552 38.4097Z" fill="#001C43"/>
<path d="M2.09528 70.0597C1.92528 70.0597 1.74527 70.0197 1.58527 69.9197C0.675266 69.3797 0.105225 68.3897 0.105225 67.3297V27.4997C0.105225 25.9897 1.33528 24.7597 2.84528 24.7597H18.2552C19.9052 24.7597 21.2552 26.1097 21.2552 27.7597V30.8297C21.2552 31.3797 20.8052 31.8297 20.2552 31.8297C19.7052 31.8297 19.2552 31.3797 19.2552 30.8297V27.7597C19.2552 27.2097 18.8052 26.7597 18.2552 26.7597H2.84528C2.43528 26.7597 2.10522 27.0897 2.10522 27.4997V67.3297C2.10522 67.6797 2.29522 68.0097 2.60522 68.1897C3.08522 68.4697 3.23527 69.0797 2.96527 69.5597C2.77527 69.8797 2.44522 70.0497 2.10522 70.0497L2.09528 70.0597Z" fill="#001C43"/>
<path d="M32.2153 28.2497C31.9553 28.2497 31.7053 28.1497 31.5053 27.9597L21.0452 17.4997C20.6552 17.1097 20.6552 16.4797 21.0452 16.0897C21.4352 15.6997 22.0653 15.6997 22.4553 16.0897L32.2053 25.8397L41.9553 16.0897C42.3453 15.6997 42.9753 15.6997 43.3653 16.0897C43.7553 16.4797 43.7553 17.1097 43.3653 17.4997L32.9053 27.9597C32.7053 28.1597 32.4553 28.2497 32.1953 28.2497H32.2153Z" fill="#1DB8D9"/>
<path d="M37.4553 19.1797C36.9053 19.1797 36.4553 18.7297 36.4553 18.1797V1.8197C36.4553 1.2697 36.9053 0.819702 37.4553 0.819702C38.0053 0.819702 38.4553 1.2697 38.4553 1.8197V18.1797C38.4553 18.7297 38.0053 19.1797 37.4553 19.1797Z" fill="#001C43"/>
<path d="M27.2352 19.1797C26.6852 19.1797 26.2352 18.7297 26.2352 18.1797V1.8197C26.2352 1.2697 26.6852 0.819702 27.2352 0.819702C27.7852 0.819702 28.2352 1.2697 28.2352 1.8197V18.1797C28.2352 18.7297 27.7852 19.1797 27.2352 19.1797Z" fill="#001C43"/>
</svg>
