<svg width="63" height="53" viewBox="0 0 63 53" fill="none" xmlns="http://www.w3.org/2000/svg">
<path d="M53.705 52.1465H3.69498C2.04498 52.1465 0.694977 50.7965 0.694977 49.1465C0.694977 49.0865 0.694966 49.0266 0.714966 48.9666L6.53497 16.2766C6.58497 14.6666 7.91497 13.3765 9.53497 13.3765H59.545C61.195 13.3765 62.545 14.7265 62.545 16.3765C62.545 16.4365 62.545 16.4965 62.525 16.5565L56.705 49.2466C56.655 50.8566 55.325 52.1465 53.705 52.1465ZM2.69498 49.2166C2.73498 49.7366 3.16498 50.1465 3.69498 50.1465H53.705C54.255 50.1465 54.705 49.6965 54.705 49.1465C54.705 49.0865 54.705 49.0266 54.725 48.9666L60.545 16.2965C60.505 15.7765 60.075 15.3665 59.545 15.3665H9.53497C8.98497 15.3665 8.53497 15.8165 8.53497 16.3665C8.53497 16.4265 8.53497 16.4865 8.51497 16.5465L2.69498 49.2166Z" fill="#001C43"/>
<path d="M58.335 14.2166C57.785 14.2166 57.335 13.7666 57.335 13.2166V9.80655C57.335 8.61655 56.365 7.64655 55.175 7.64655H20.845C20.295 7.64655 19.845 7.19655 19.845 6.64655C19.845 6.09655 20.295 5.64655 20.845 5.64655H55.175C57.465 5.64655 59.335 7.51655 59.335 9.80655V13.2166C59.335 13.7666 58.885 14.2166 58.335 14.2166Z" fill="#001C43"/>
<path d="M20.845 7.64655C20.295 7.64655 19.845 7.19655 19.845 6.64655V3.57654C19.845 3.02654 19.395 2.57654 18.845 2.57654H15.525C14.975 2.57654 14.525 2.12654 14.525 1.57654C14.525 1.02654 14.975 0.576538 15.525 0.576538H18.845C20.495 0.576538 21.845 1.92654 21.845 3.57654V6.64655C21.845 7.19655 21.395 7.64655 20.845 7.64655Z" fill="#001C43"/>
<path d="M2.68497 51.8665C2.51497 51.8665 2.33497 51.8165 2.17497 51.7265C1.26497 51.1865 0.694977 50.1965 0.694977 49.1365V14.7965C0.694977 14.2465 1.14498 13.7965 1.69498 13.7965C2.24498 13.7965 2.69498 14.2465 2.69498 14.7965V49.1365C2.69498 49.4865 2.88498 49.8165 3.19498 49.9965C3.67498 50.2765 3.82497 50.8865 3.54497 51.3665C3.35497 51.6865 3.02497 51.8565 2.68497 51.8565V51.8665Z" fill="#001C43"/>
<path d="M1.69498 12.8965C1.14498 12.8965 0.694977 12.4465 0.694977 11.8965V3.31653C0.694977 1.80653 1.92497 0.576538 3.43497 0.576538H12.355C12.905 0.576538 13.355 1.02654 13.355 1.57654C13.355 2.12654 12.905 2.57654 12.355 2.57654H3.43497C3.02497 2.57654 2.69498 2.90653 2.69498 3.31653V11.8965C2.69498 12.4465 2.24498 12.8965 1.69498 12.8965Z" fill="#1DB8D9"/>
</svg>
