<svg width="56" height="55" viewBox="0 0 56 55" fill="none" xmlns="http://www.w3.org/2000/svg">
<path d="M7.86749 7.92401C7.31749 7.92401 6.86749 7.47401 6.86749 6.92401V1.96402C6.86749 0.87402 7.74746 -0.00598145 8.83746 -0.00598145H13.6075C14.1575 -0.00598145 14.6075 0.444019 14.6075 0.994019C14.6075 1.54402 14.1575 1.99402 13.6075 1.99402H8.83746L8.86749 6.92401C8.86749 7.47401 8.41749 7.92401 7.86749 7.92401Z" fill="#1DB8D9"/>
<path d="M9.10751 54.8741C6.90751 54.8741 4.8375 54.0141 3.2775 52.4641C0.0674951 49.2541 0.0674951 44.0241 3.2775 40.8141C4.8375 39.2541 6.89751 38.4041 9.10751 38.4041C11.3175 38.4041 13.3775 39.2641 14.9275 40.8141C16.4875 42.3741 17.3375 44.434 17.3375 46.644C17.3375 48.854 16.4775 50.9141 14.9275 52.4641C13.3675 54.024 11.3075 54.8741 9.10751 54.8741ZM9.10751 40.394C7.43751 40.394 5.87754 41.0441 4.69754 42.2241C2.26754 44.6541 2.26754 48.614 4.69754 51.044C5.87754 52.224 7.43751 52.8741 9.10751 52.8741C10.7775 52.8741 12.3375 52.224 13.5175 51.044C14.6975 49.864 15.3475 48.3041 15.3475 46.6341C15.3475 44.9641 14.6975 43.4041 13.5175 42.2241C12.3375 41.0441 10.7775 40.394 9.10751 40.394Z" fill="#001C43"/>
<path d="M27.6675 49.744C25.5275 49.744 23.7775 48.074 23.6775 45.934C23.5075 42.314 21.9975 38.894 19.4275 36.334C16.6775 33.584 13.0175 32.064 9.11749 32.064C8.04749 32.064 7.04748 31.644 6.28748 30.894C5.53748 30.134 5.11749 29.134 5.11749 28.064C5.11749 25.854 6.90749 24.064 9.11749 24.064C15.1475 24.064 20.8175 26.414 25.0775 30.674C29.0575 34.654 31.3975 39.934 31.6675 45.554C31.7175 46.674 31.2975 47.774 30.4975 48.574C29.7975 49.274 28.8575 49.694 27.8575 49.744H27.6675ZM9.11749 26.064C8.01749 26.064 7.11749 26.964 7.11749 28.064C7.11749 28.594 7.32751 29.104 7.69751 29.474C8.07751 29.854 8.57748 30.064 9.10748 30.064C13.5375 30.064 17.6975 31.784 20.8275 34.914C23.7475 37.834 25.4675 41.714 25.6675 45.834C25.7175 46.904 26.5975 47.734 27.6675 47.734H27.7675C28.2675 47.704 28.7375 47.504 29.0875 47.144C29.4875 46.744 29.6975 46.194 29.6675 45.634C29.4175 40.514 27.2875 35.704 23.6675 32.074C19.7875 28.184 14.6175 26.044 9.11749 26.044V26.064Z" fill="#001C43"/>
<path d="M39.0875 49.364C36.9375 49.364 35.1875 47.6841 35.0875 45.5341C34.8075 39.0141 32.1175 32.8741 27.4975 28.2541C22.8575 23.6141 16.6875 20.9141 10.1375 20.6541C9.06745 20.6141 8.08749 20.1541 7.35749 19.3741C6.62749 18.5941 6.25749 17.5741 6.29749 16.5041C6.37749 14.3541 8.13748 12.6641 10.2875 12.6641H10.4475C19.0175 13.0041 27.0775 16.534 33.1475 22.604C39.2175 28.674 42.7175 36.674 43.0775 45.204C43.1275 46.324 42.6975 47.414 41.9075 48.204C41.1975 48.914 40.2575 49.3241 39.2475 49.3741H39.0775L39.0875 49.364ZM10.3675 14.6641C9.2075 14.6641 8.33749 15.504 8.29749 16.584C8.27749 17.114 8.46746 17.624 8.82746 18.024C9.18746 18.414 9.68747 18.6441 10.2175 18.6641C17.2775 18.9441 23.9175 21.8441 28.9175 26.8441C33.8975 31.8241 36.7975 38.434 37.0975 45.454C37.1475 46.524 38.0175 47.3741 39.0975 47.3741H39.1875C39.6875 47.3541 40.1575 47.144 40.5175 46.794C40.9175 46.394 41.1275 45.864 41.0975 45.294C40.7575 37.264 37.4375 29.714 31.7575 24.024C26.0475 18.314 18.4575 14.994 10.3875 14.674L10.3675 14.6641Z" fill="#001C43"/>
<path d="M51.6275 49.724C49.4575 49.724 47.6775 47.984 47.6275 45.814C47.4175 35.834 43.4075 26.454 36.3475 19.394C29.4375 12.484 20.2675 8.48403 10.5275 8.13403C9.97746 8.11403 9.5475 7.65402 9.5675 7.09402C9.5875 6.54402 10.0675 6.09403 10.6075 6.13403C20.8575 6.50403 30.4975 10.714 37.7675 17.984C45.1875 25.414 49.4075 35.274 49.6275 45.774C49.6475 46.864 50.5475 47.734 51.6275 47.734C51.6375 47.734 51.6575 47.734 51.6675 47.734C52.1875 47.724 52.6675 47.514 53.0375 47.154C53.4275 46.764 53.6375 46.244 53.6175 45.694C53.3675 34.164 48.7475 23.314 40.5875 15.154C33.9075 8.47401 25.4875 4.154 16.2475 2.674C15.7075 2.584 15.3275 2.07401 15.4175 1.52401C15.5075 0.97401 16.0175 0.604023 16.5675 0.694023C26.2275 2.24402 35.0275 6.754 42.0075 13.734C50.5375 22.254 55.3675 33.594 55.6275 45.644C55.6475 46.744 55.2375 47.784 54.4575 48.554C53.7275 49.284 52.7475 49.704 51.7175 49.724C51.6875 49.724 51.6575 49.724 51.6275 49.724Z" fill="#001C43"/>
</svg>
