<svg width="39" height="61" viewBox="0 0 39 61" fill="none" xmlns="http://www.w3.org/2000/svg">
<path d="M32.28 26.4597C31.73 26.4597 31.28 26.0097 31.28 25.4597V13.4597C31.28 7.32972 26.2901 2.33972 20.16 2.33972C14.03 2.33972 9.05005 7.32972 9.05005 13.4597V25.4597C9.05005 26.0097 8.60005 26.4597 8.05005 26.4597C7.50005 26.4597 7.05005 26.0097 7.05005 25.4597V13.4597C7.05005 6.22972 12.93 0.339722 20.16 0.339722C27.39 0.339722 33.28 6.21972 33.28 13.4597V25.4597C33.28 26.0097 32.83 26.4597 32.28 26.4597Z" fill="#001C43"/>
<path d="M35.2301 60.5097H3.92004C2.27004 60.5097 0.920044 59.1597 0.920044 57.5097V28.0097C0.920044 26.3597 2.27004 25.0097 3.92004 25.0097H22.5201C23.07 25.0097 23.5201 25.4597 23.5201 26.0097C23.5201 26.5597 23.07 27.0097 22.5201 27.0097H3.92004C3.37004 27.0097 2.92004 27.4597 2.92004 28.0097V57.5097C2.92004 58.0597 3.37004 58.5097 3.92004 58.5097H35.2301C35.7801 58.5097 36.2301 58.0597 36.2301 57.5097V40.6197C36.2301 40.0697 36.6801 39.6197 37.2301 39.6197C37.7801 39.6197 38.2301 40.0697 38.2301 40.6197V57.5097C38.2301 59.1597 36.8801 60.5097 35.2301 60.5097Z" fill="#001C43"/>
<path d="M37.2301 38.4097C36.6801 38.4097 36.2301 37.9597 36.2301 37.4097V27.9297C36.2301 27.4197 35.8301 27.0097 35.3501 27.0097H25.7001C25.1501 27.0097 24.7001 26.5597 24.7001 26.0097C24.7001 25.4597 25.1501 25.0097 25.7001 25.0097H35.3501C36.9401 25.0097 38.2301 26.3197 38.2301 27.9297V37.4097C38.2301 37.9597 37.7801 38.4097 37.2301 38.4097Z" fill="#1DB8D9"/>
<path d="M22.6001 52.1297H16.6801C16.1301 52.1297 15.6801 51.6797 15.6801 51.1297V45.6097C14.3001 44.4397 13.4901 42.7297 13.4901 40.9197C13.4901 37.5297 16.25 34.7697 19.64 34.7697C23.03 34.7697 25.7901 37.5297 25.7901 40.9197C25.7901 42.7297 24.9801 44.4397 23.6001 45.6097V51.1297C23.6001 51.6797 23.1501 52.1297 22.6001 52.1297ZM17.6801 50.1297H21.6001V45.1197C21.6001 44.7997 21.76 44.4897 22.0201 44.2997C23.13 43.5197 23.7901 42.2497 23.7901 40.9197C23.7901 38.6297 21.93 36.7697 19.64 36.7697C17.35 36.7697 15.4901 38.6297 15.4901 40.9197C15.4901 42.2597 16.1501 43.5197 17.2601 44.2997C17.5201 44.4897 17.6801 44.7897 17.6801 45.1197V50.1297Z" fill="#001C43"/>
</svg>
