<svg width="45" height="68" viewBox="0 0 45 68" fill="none" xmlns="http://www.w3.org/2000/svg">
<path d="M18.91 67.5319C15.1 67.5319 10.85 64.5519 10.85 60.5619V49.9019C10.85 49.3519 11.3 48.9019 11.85 48.9019C12.4 48.9019 12.85 49.3519 12.85 49.9019V60.5619C12.85 63.3619 16.11 65.5319 18.91 65.5319C21.42 65.5319 24.09 63.9619 24.75 62.1019C24.93 61.5819 25.51 61.3119 26.03 61.4919C26.55 61.6719 26.82 62.2419 26.64 62.7719C25.59 65.7519 21.89 67.5419 18.91 67.5419V67.5319Z" fill="#001C43"/>
<path d="M11.85 50.9719C11.3 50.9719 10.85 50.5219 10.85 49.9719V46.072C10.85 44.242 9.88997 42.5419 8.27997 41.5319C3.53997 38.5519 0.929993 33.462 0.929993 27.182C0.929993 22.582 2.80998 18.252 6.22998 15.002C9.82998 11.582 14.8 9.782 19.9 10.022C29.35 10.502 36.98 18.262 36.9 27.312C36.85 33.552 34.24 38.612 29.55 41.542C27.63 42.742 27.0099 43.622 27.0099 45.142C27.0099 45.692 26.5599 46.142 26.0099 46.142C25.4599 46.142 25.0099 45.692 25.0099 45.142C25.0099 42.552 26.4 41.152 28.49 39.852C32.58 37.292 34.85 32.842 34.9 27.302C34.97 19.302 28.19 12.452 19.79 12.022C15.25 11.792 10.81 13.402 7.59998 16.452C4.58998 19.322 2.91998 23.132 2.91998 27.182C2.91998 32.742 5.19997 37.232 9.33997 39.832C11.53 41.212 12.84 43.542 12.84 46.062V49.962C12.84 50.512 12.39 50.962 11.84 50.962L11.85 50.9719Z" fill="#001C43"/>
<path d="M37.35 14.732C37.04 14.732 36.73 14.582 36.53 14.302C36.21 13.852 36.32 13.222 36.77 12.912L43.26 8.352C43.71 8.032 44.34 8.14199 44.65 8.59199C44.97 9.04199 44.86 9.672 44.41 9.982L37.92 14.542C37.75 14.662 37.55 14.722 37.35 14.722V14.732Z" fill="#001C43"/>
<path d="M31.85 9.49193C31.66 9.49193 31.46 9.43194 31.29 9.32194C30.83 9.01194 30.71 8.39193 31.02 7.93193L35.52 1.28191C35.83 0.821905 36.45 0.701947 36.91 1.01195C37.37 1.32195 37.49 1.9419 37.18 2.4019L32.68 9.05192C32.49 9.34192 32.17 9.49193 31.85 9.49193Z" fill="#001C43"/>
<path d="M26.0099 60.6919C25.4599 60.6919 25.0099 60.2419 25.0099 59.6919V51.5519C25.0099 51.1919 24.72 50.9019 24.36 50.9019H15.9C15.35 50.9019 14.9 50.4519 14.9 49.9019C14.9 49.3519 15.35 48.9019 15.9 48.9019H24.36C25.82 48.9019 27.0099 50.0919 27.0099 51.5519V59.6919C27.0099 60.2419 26.5599 60.6919 26.0099 60.6919Z" fill="#1DB8D9"/>
<path d="M10.78 57.0319C10.32 57.0319 9.90001 56.7119 9.80001 56.2319C9.69001 55.6919 10.03 55.1619 10.57 55.0519L20.08 53.0719C20.62 52.9519 21.15 53.3019 21.26 53.8419C21.37 54.3819 21.03 54.912 20.49 55.022L10.98 57.0019C10.91 57.0119 10.84 57.022 10.78 57.022V57.0319Z" fill="#001C43"/>
<path d="M10.78 62.6119C10.32 62.6119 9.90001 62.2919 9.80001 61.8119C9.69001 61.2719 10.03 60.7419 10.57 60.6319L20.08 58.6519C20.62 58.5319 21.15 58.8819 21.26 59.4219C21.37 59.9619 21.03 60.4919 20.49 60.6019L10.98 62.5819C10.91 62.5919 10.84 62.6019 10.78 62.6019V62.6119Z" fill="#001C43"/>
</svg>
