<svg width="64" height="61" viewBox="0 0 64 61" fill="none" xmlns="http://www.w3.org/2000/svg">
<path d="M61.05 60.184H3.04999C1.49999 60.184 0.22998 58.924 0.22998 57.364V12.244C0.22998 10.694 1.48999 9.42401 3.04999 9.42401H16.6299C17.1799 9.42401 17.6299 9.87401 17.6299 10.424C17.6299 10.974 17.1799 11.424 16.6299 11.424H3.04999C2.59999 11.424 2.22998 11.794 2.22998 12.244V57.364C2.22998 57.814 2.59999 58.184 3.04999 58.184H61.05C61.5 58.184 61.87 57.814 61.87 57.364V27.734C61.87 27.184 62.32 26.734 62.87 26.734C63.42 26.734 63.87 27.184 63.87 27.734V57.364C63.87 58.914 62.61 60.184 61.05 60.184Z" fill="#001C43"/>
<path d="M43.79 11.434H21.6C21.05 11.434 20.6 10.984 20.6 10.434C20.6 9.88402 21.05 9.43402 21.6 9.43402H43.79C44.34 9.43402 44.79 9.88402 44.79 10.434C44.79 10.984 44.34 11.434 43.79 11.434Z" fill="#001C43"/>
<path d="M62.5699 28.624H1.53998C0.989978 28.624 0.539978 28.174 0.539978 27.624C0.539978 27.074 0.989978 26.624 1.53998 26.624H62.5699C63.1199 26.624 63.5699 27.074 63.5699 27.624C63.5699 28.174 63.1199 28.624 62.5699 28.624Z" fill="#001C43"/>
<path d="M19.15 20.664C17.37 20.664 15.92 19.214 15.92 17.434V3.22403C15.92 1.44403 17.37 -0.00598145 19.15 -0.00598145C20.93 -0.00598145 22.3799 1.44403 22.3799 3.22403V17.434C22.3799 19.214 20.93 20.664 19.15 20.664ZM19.15 1.99402C18.47 1.99402 17.92 2.54403 17.92 3.22403V17.434C17.92 18.114 18.47 18.664 19.15 18.664C19.83 18.664 20.3799 18.114 20.3799 17.434V3.22403C20.3799 2.54403 19.83 1.99402 19.15 1.99402Z" fill="#001C43"/>
<path d="M46.29 20.664C44.51 20.664 43.0599 19.214 43.0599 17.434V3.22403C43.0599 1.44403 44.51 -0.00598145 46.29 -0.00598145C48.07 -0.00598145 49.52 1.44403 49.52 3.22403V17.434C49.52 19.214 48.07 20.664 46.29 20.664ZM46.29 1.99402C45.61 1.99402 45.0599 2.54403 45.0599 3.22403V17.434C45.0599 18.114 45.61 18.664 46.29 18.664C46.97 18.664 47.52 18.114 47.52 17.434V3.22403C47.52 2.54403 46.97 1.99402 46.29 1.99402Z" fill="#001C43"/>
<path d="M62.86 22.254C62.31 22.254 61.86 21.804 61.86 21.254V12.254C61.86 11.794 61.49 11.424 61.03 11.424H51.68C51.13 11.424 50.68 10.974 50.68 10.424C50.68 9.87401 51.13 9.42401 51.68 9.42401H61.03C62.59 9.42401 63.86 10.694 63.86 12.254V21.254C63.86 21.804 63.41 22.254 62.86 22.254Z" fill="#1DB8D9"/>
</svg>
