<svg width="63" height="63" viewBox="0 0 63 63" fill="none" xmlns="http://www.w3.org/2000/svg">
<path d="M57.1 62.2297H5.35004C2.56004 62.2297 0.280029 59.9597 0.280029 57.1597V5.40973C0.280029 2.60973 2.56004 0.339722 5.35004 0.339722H46.42C46.97 0.339722 47.42 0.789722 47.42 1.33972C47.42 1.88972 46.97 2.33972 46.42 2.33972H5.35004C3.66004 2.33972 2.28003 3.71973 2.28003 5.40973V57.1597C2.28003 58.8497 3.66004 60.2297 5.35004 60.2297H57.1C58.79 60.2297 60.17 58.8497 60.17 57.1597V15.7897C60.17 15.2397 60.62 14.7897 61.17 14.7897C61.72 14.7897 62.17 15.2397 62.17 15.7897V57.1597C62.17 59.9597 59.9 62.2297 57.1 62.2297Z" fill="#001C43"/>
<path d="M61.17 13.7397C60.62 13.7397 60.17 13.2897 60.17 12.7397V3.25977C60.17 2.74977 59.77 2.33972 59.29 2.33972H49.64C49.09 2.33972 48.64 1.88972 48.64 1.33972C48.64 0.789722 49.09 0.339722 49.64 0.339722H59.29C60.88 0.339722 62.17 1.64977 62.17 3.25977V12.7397C62.17 13.2897 61.72 13.7397 61.17 13.7397Z" fill="#1DB8D9"/>
<path d="M37.8701 49.1298H24.3901C17.8701 49.1298 12.5601 43.8298 12.5601 37.3098V23.8297C12.5601 17.3097 17.8701 11.9998 24.3901 11.9998H37.8701C44.3901 11.9998 49.7001 17.3097 49.7001 23.8297V37.3098C49.7001 43.8298 44.4001 49.1298 37.8701 49.1298ZM24.3901 13.9998C18.9701 13.9998 14.5601 18.4097 14.5601 23.8297V37.3098C14.5601 42.7298 18.9701 47.1298 24.3901 47.1298H37.8701C43.2901 47.1298 47.7001 42.7198 47.7001 37.3098V23.8297C47.7001 18.4097 43.2901 13.9998 37.8701 13.9998H24.3901Z" fill="#001C43"/>
<path d="M31.6 38.5797C27.21 38.5797 23.64 35.0098 23.64 30.6298C23.64 26.2498 27.21 22.6697 31.6 22.6697C35.99 22.6697 39.55 26.2398 39.55 30.6298C39.55 35.0198 35.98 38.5797 31.6 38.5797ZM31.6 24.6697C28.32 24.6697 25.64 27.3398 25.64 30.6298C25.64 33.9198 28.31 36.5797 31.6 36.5797C34.89 36.5797 37.55 33.9098 37.55 30.6298C37.55 27.3498 34.88 24.6697 31.6 24.6697Z" fill="#001C43"/>
<path d="M40.2101 24.5797C38.3601 24.5797 36.86 23.0797 36.86 21.2297C36.86 19.3797 38.3601 17.8798 40.2101 17.8798C42.0601 17.8798 43.56 19.3797 43.56 21.2297C43.56 23.0797 42.0601 24.5797 40.2101 24.5797ZM40.2101 19.8698C39.4601 19.8698 38.86 20.4797 38.86 21.2197C38.86 21.9597 39.4701 22.5698 40.2101 22.5698C40.9501 22.5698 41.56 21.9597 41.56 21.2197C41.56 20.4797 40.9501 19.8698 40.2101 19.8698Z" fill="#001C43"/>
</svg>
