<svg width="98" height="59" viewBox="0 0 98 59" fill="none" xmlns="http://www.w3.org/2000/svg">
<path d="M92.4945 50.4298C90.5245 50.4298 88.9245 48.8298 88.9245 46.8598C88.9245 44.8898 90.5245 43.2898 92.4945 43.2898C94.4645 43.2898 96.0645 44.8898 96.0645 46.8598C96.0645 48.8298 94.4645 50.4298 92.4945 50.4298ZM92.4945 45.2898C91.6245 45.2898 90.9245 45.9898 90.9245 46.8598C90.9245 47.7298 91.6245 48.4298 92.4945 48.4298C93.3645 48.4298 94.0645 47.7298 94.0645 46.8598C94.0645 45.9898 93.3645 45.2898 92.4945 45.2898Z" fill="#001C43"/>
<path d="M96.5345 58.2598C95.9845 58.2598 95.5345 57.8098 95.5345 57.2598V54.7897C95.5345 53.1097 94.1745 51.7498 92.4945 51.7498C90.8145 51.7498 89.4545 53.1097 89.4545 54.7897V57.2598C89.4545 57.8098 89.0045 58.2598 88.4545 58.2598C87.9045 58.2598 87.4545 57.8098 87.4545 57.2598V54.7897C87.4545 52.0097 89.7145 49.7498 92.4945 49.7498C95.2745 49.7498 97.5345 52.0097 97.5345 54.7897V57.2598C97.5345 57.8098 97.0845 58.2598 96.5345 58.2598Z" fill="#001C43"/>
<path d="M5.74451 50.4298C3.77451 50.4298 2.1745 48.8298 2.1745 46.8598C2.1745 44.8898 3.77451 43.2898 5.74451 43.2898C7.71451 43.2898 9.31451 44.8898 9.31451 46.8598C9.31451 48.8298 7.71451 50.4298 5.74451 50.4298ZM5.74451 45.2898C4.87451 45.2898 4.1745 45.9898 4.1745 46.8598C4.1745 47.7298 4.87451 48.4298 5.74451 48.4298C6.61451 48.4298 7.31451 47.7298 7.31451 46.8598C7.31451 45.9898 6.61451 45.2898 5.74451 45.2898Z" fill="#001C43"/>
<path d="M9.78455 58.2598C9.23455 58.2598 8.78455 57.8098 8.78455 57.2598V54.7897C8.78455 53.1097 7.42451 51.7498 5.74451 51.7498C4.06451 51.7498 2.70453 53.1097 2.70453 54.7897V57.2598C2.70453 57.8098 2.25453 58.2598 1.70453 58.2598C1.15453 58.2598 0.704529 57.8098 0.704529 57.2598V54.7897C0.704529 52.0097 2.96451 49.7498 5.74451 49.7498C8.52451 49.7498 10.7845 52.0097 10.7845 54.7897V57.2598C10.7845 57.8098 10.3345 58.2598 9.78455 58.2598Z" fill="#001C43"/>
<path d="M92.4945 7.97986C90.5245 7.97986 88.9245 6.37985 88.9245 4.40985C88.9245 2.43985 90.5245 0.839844 92.4945 0.839844C94.4645 0.839844 96.0645 2.43985 96.0645 4.40985C96.0645 6.37985 94.4645 7.97986 92.4945 7.97986ZM92.4945 2.83984C91.6245 2.83984 90.9245 3.53985 90.9245 4.40985C90.9245 5.27985 91.6245 5.97986 92.4945 5.97986C93.3645 5.97986 94.0645 5.27985 94.0645 4.40985C94.0645 3.53985 93.3645 2.83984 92.4945 2.83984Z" fill="#001C43"/>
<path d="M96.5345 15.8098C95.9845 15.8098 95.5345 15.3598 95.5345 14.8098V12.3398C95.5345 10.6598 94.1745 9.2998 92.4945 9.2998C90.8145 9.2998 89.4545 10.6598 89.4545 12.3398V14.8098C89.4545 15.3598 89.0045 15.8098 88.4545 15.8098C87.9045 15.8098 87.4545 15.3598 87.4545 14.8098V12.3398C87.4545 9.55978 89.7145 7.2998 92.4945 7.2998C95.2745 7.2998 97.5345 9.55978 97.5345 12.3398V14.8098C97.5345 15.3598 97.0845 15.8098 96.5345 15.8098Z" fill="#001C43"/>
<path d="M5.74451 7.97986C3.77451 7.97986 2.1745 6.37985 2.1745 4.40985C2.1745 2.43985 3.77451 0.839844 5.74451 0.839844C7.71451 0.839844 9.31451 2.43985 9.31451 4.40985C9.31451 6.37985 7.71451 7.97986 5.74451 7.97986ZM5.74451 2.83984C4.87451 2.83984 4.1745 3.53985 4.1745 4.40985C4.1745 5.27985 4.87451 5.97986 5.74451 5.97986C6.61451 5.97986 7.31451 5.27985 7.31451 4.40985C7.31451 3.53985 6.61451 2.83984 5.74451 2.83984Z" fill="#001C43"/>
<path d="M9.78455 15.8098C9.23455 15.8098 8.78455 15.3598 8.78455 14.8098V12.3398C8.78455 10.6598 7.42451 9.2998 5.74451 9.2998C4.06451 9.2998 2.70453 10.6598 2.70453 12.3398V14.8098C2.70453 15.3598 2.25453 15.8098 1.70453 15.8098C1.15453 15.8098 0.704529 15.3598 0.704529 14.8098V12.3398C0.704529 9.55978 2.96451 7.2998 5.74451 7.2998C8.52451 7.2998 10.7845 9.55978 10.7845 12.3398V14.8098C10.7845 15.3598 10.3345 15.8098 9.78455 15.8098Z" fill="#001C43"/>
<path d="M49.4445 27.3099C45.2545 27.3099 41.8445 23.8998 41.8445 19.7098C41.8445 15.5198 45.2545 12.1099 49.4445 12.1099C53.6345 12.1099 57.0445 15.5198 57.0445 19.7098C57.0445 23.8998 53.6345 27.3099 49.4445 27.3099ZM49.4445 14.1199C46.3545 14.1199 43.8445 16.6298 43.8445 19.7198C43.8445 22.8098 46.3545 25.3199 49.4445 25.3199C52.5345 25.3199 55.0445 22.8098 55.0445 19.7198C55.0445 16.6298 52.5345 14.1199 49.4445 14.1199Z" fill="#001C43"/>
<path d="M57.8845 50.0098H53.9445C53.3945 50.0098 52.9445 49.5598 52.9445 49.0098C52.9445 48.4598 53.3945 48.0098 53.9445 48.0098H56.8845V37.5098C56.8845 33.4098 53.5445 30.0698 49.4445 30.0698C45.9345 30.0698 42.8646 32.5698 42.1546 36.0098C42.0446 36.5498 41.5246 36.8898 40.9746 36.7898C40.4346 36.6798 40.0845 36.1498 40.1945 35.6098C41.0945 31.2398 44.9845 28.0698 49.4345 28.0698C54.6345 28.0698 58.8745 32.2998 58.8745 37.5098V49.0098C58.8745 49.5598 58.4245 50.0098 57.8745 50.0098H57.8845Z" fill="#001C43"/>
<path d="M50.1445 50.0099H42.5045C41.1345 50.0099 40.0145 48.8799 40.0145 47.4899V39.9899C40.0145 39.4399 40.4645 38.9899 41.0145 38.9899C41.5645 38.9899 42.0145 39.4399 42.0145 39.9899V47.4899C42.0145 47.7799 42.2345 48.0099 42.5045 48.0099H50.1445C50.6945 48.0099 51.1445 48.4599 51.1445 49.0099C51.1445 49.5599 50.6945 50.0099 50.1445 50.0099Z" fill="#1DB8D9"/>
<path d="M16.4545 50.8299C16.1045 50.8299 15.7645 50.6499 15.5845 50.3199C15.3145 49.8399 15.4845 49.2298 15.9645 48.9598L33.4945 39.1299C33.9745 38.8599 34.5845 39.0299 34.8545 39.5099C35.1245 39.9899 34.9545 40.5999 34.4745 40.8699L16.9445 50.6999C16.7845 50.7899 16.6245 50.8299 16.4545 50.8299Z" fill="#001C43"/>
<path d="M35.5845 23.7399C35.4245 23.7399 35.2645 23.6999 35.1145 23.6199L15.9745 13.3299C15.4845 13.0699 15.3045 12.4599 15.5645 11.9799C15.8245 11.4899 16.4345 11.3099 16.9145 11.5699L36.0545 21.8599C36.5445 22.1199 36.7245 22.7298 36.4645 23.2098C36.2845 23.5498 35.9345 23.7399 35.5845 23.7399Z" fill="#001C43"/>
<path d="M82.6445 50.8299C82.4745 50.8299 82.3145 50.7899 82.1545 50.6999L64.6245 40.8699C64.1445 40.5999 63.9745 39.9899 64.2445 39.5099C64.5145 39.0299 65.1245 38.8599 65.6045 39.1299L83.1345 48.9598C83.6145 49.2298 83.7845 49.8399 83.5145 50.3199C83.3345 50.6499 82.9945 50.8299 82.6445 50.8299Z" fill="#001C43"/>
<path d="M63.5045 23.7399C63.1445 23.7399 62.8045 23.5498 62.6245 23.2098C62.3645 22.7198 62.5445 22.1199 63.0345 21.8599L82.1745 11.5699C82.6545 11.3099 83.2645 11.4899 83.5245 11.9799C83.7845 12.4699 83.6045 13.0699 83.1145 13.3299L63.9745 23.6199C63.8245 23.6999 63.6645 23.7399 63.5045 23.7399Z" fill="#001C43"/>
</svg>
