<svg width="96" height="69" viewBox="0 0 96 69" fill="none" xmlns="http://www.w3.org/2000/svg">
<path d="M28.4999 44.0298V47.0498" stroke="#1A233F" stroke-width="2" stroke-linecap="round" stroke-linejoin="round"/>
<path d="M66.0699 44.0298V47.0498" stroke="#1A233F" stroke-width="2" stroke-linecap="round" stroke-linejoin="round"/>
<path d="M68.45 68.9598H25.77C25.22 68.9598 24.77 68.5098 24.77 67.9598V47.0897C24.77 46.5397 25.22 46.0897 25.77 46.0897H55.1099C55.6599 46.0897 56.1099 46.5397 56.1099 47.0897C56.1099 47.6397 55.6599 48.0897 55.1099 48.0897H26.77V66.9598H67.45V60.0298C67.45 59.4798 67.9 59.0298 68.45 59.0298C69 59.0298 69.45 59.4798 69.45 60.0298V67.9598C69.45 68.5098 69 68.9598 68.45 68.9598Z" fill="#001C43"/>
<path d="M68.4699 58.4198C67.9199 58.4198 67.4699 57.9698 67.4699 57.4198V48.8397C67.4699 48.4297 67.1399 48.0997 66.7299 48.0997H57.8099C57.2599 48.0997 56.8099 47.6497 56.8099 47.0997C56.8099 46.5497 57.2599 46.0997 57.8099 46.0997H66.7299C68.2399 46.0997 69.4699 47.3297 69.4699 48.8397V57.4198C69.4699 57.9698 69.0199 58.4198 68.4699 58.4198Z" fill="#1DB8D9"/>
<path d="M94.02 13.3098H52.3699C51.8199 13.3098 51.3699 12.8598 51.3699 12.3098C51.3699 11.7598 51.8199 11.3098 52.3699 11.3098H93.02V2.93982H2.07996V11.3098H41.8999C42.4499 11.3098 42.8999 11.7598 42.8999 12.3098C42.8999 12.8598 42.4499 13.3098 41.8999 13.3098H1.07996C0.529956 13.3098 0.0799561 12.8598 0.0799561 12.3098V1.93982C0.0799561 1.38982 0.529956 0.939819 1.07996 0.939819H94.02C94.57 0.939819 95.02 1.38982 95.02 1.93982V12.3098C95.02 12.8598 94.57 13.3098 94.02 13.3098Z" fill="#001C43"/>
<path d="M12.4899 68.9598H2.78992C2.23992 68.9598 1.78992 68.5098 1.78992 67.9598V63.5098C1.78992 62.9598 2.23992 62.5098 2.78992 62.5098H4.35992V12.3098C4.35992 11.7598 4.80992 11.3098 5.35992 11.3098H9.90991C10.4599 11.3098 10.9099 11.7598 10.9099 12.3098V62.5098H12.4799C13.0299 62.5098 13.4799 62.9598 13.4799 63.5098V67.9598C13.4799 68.5098 13.0299 68.9598 12.4799 68.9598H12.4899ZM3.78992 66.9598H11.4899V64.5098H9.91992C9.36992 64.5098 8.91992 64.0598 8.91992 63.5098V13.3098H6.36993V63.5098C6.36993 64.0598 5.91993 64.5098 5.36993 64.5098H3.79993V66.9598H3.78992Z" fill="#001C43"/>
<path d="M91.7599 68.9598H82.0599C81.5099 68.9598 81.0599 68.5098 81.0599 67.9598V63.5098C81.0599 62.9598 81.5099 62.5098 82.0599 62.5098H83.6299V12.3098C83.6299 11.7598 84.0799 11.3098 84.6299 11.3098H89.1799C89.7299 11.3098 90.1799 11.7598 90.1799 12.3098V62.5098H91.7499C92.2999 62.5098 92.7499 62.9598 92.7499 63.5098V67.9598C92.7499 68.5098 92.2999 68.9598 91.7499 68.9598H91.7599ZM83.0599 66.9598H90.7599V64.5098H89.1899C88.6399 64.5098 88.1899 64.0598 88.1899 63.5098V13.3098H85.64V63.5098C85.64 64.0598 85.19 64.5098 84.64 64.5098H83.0699V66.9598H83.0599Z" fill="#001C43"/>
<path d="M50.3399 17.6698H44.0699C42.4199 17.6698 41.0699 16.3198 41.0699 14.6698V8.87976C41.0699 8.32976 41.5199 7.87976 42.0699 7.87976C42.6199 7.87976 43.0699 8.32976 43.0699 8.87976V14.6698C43.0699 15.2198 43.5199 15.6698 44.0699 15.6698H50.3399C50.8899 15.6698 51.3399 15.2198 51.3399 14.6698V8.87976C51.3399 8.32976 51.7899 7.87976 52.3399 7.87976C52.8899 7.87976 53.3399 8.32976 53.3399 8.87976V14.6698C53.3399 16.3198 51.9899 17.6698 50.3399 17.6698Z" fill="#001C43"/>
<path d="M72.4999 39.4498C71.9499 39.4498 71.4999 38.9998 71.4999 38.4498V32.0298H49.6599C49.1099 32.0298 48.6599 31.5798 48.6599 31.0298C48.6599 30.4798 49.1099 30.0298 49.6599 30.0298H72.4999C73.0499 30.0298 73.4999 30.4798 73.4999 31.0298V38.4498C73.4999 38.9998 73.0499 39.4498 72.4999 39.4498Z" fill="#001C43"/>
<path d="M21.7299 39.4498C21.1799 39.4498 20.7299 38.9998 20.7299 38.4498V31.0298C20.7299 30.4798 21.1799 30.0298 21.7299 30.0298H44.4999C45.0499 30.0298 45.4999 30.4798 45.4999 31.0298C45.4999 31.5798 45.0499 32.0298 44.4999 32.0298H22.7299V38.4498C22.7299 38.9998 22.2799 39.4498 21.7299 39.4498Z" fill="#001C43"/>
<path d="M49.0099 35.9897H45.3999C44.8499 35.9897 44.3999 35.5397 44.3999 34.9897V16.6898C44.3999 16.1398 44.8499 15.6898 45.3999 15.6898H49.0099C49.5599 15.6898 50.0099 16.1398 50.0099 16.6898V34.9897C50.0099 35.5397 49.5599 35.9897 49.0099 35.9897ZM46.3999 33.9897H48.0099V17.6898H46.3999V33.9897Z" fill="#001C43"/>
</svg>
