<svg width="52" height="61" viewBox="0 0 52 61" fill="none" xmlns="http://www.w3.org/2000/svg">
<path d="M47.55 29.174C47 29.174 46.55 28.724 46.55 28.174C46.55 27.624 47 27.174 47.55 27.174C48.61 27.174 49.47 26.314 49.47 25.254C49.47 24.194 48.61 23.334 47.55 23.334H46.16C45.65 23.334 45.23 22.954 45.17 22.454C44.23 14.394 38.29 7.67402 30.39 5.74402C29.97 5.64402 29.66 5.27402 29.63 4.84402C29.51 3.24402 28.18 1.99402 26.59 1.99402H24.88C23.29 1.99402 21.96 3.24402 21.84 4.84402C21.81 5.27402 21.5 5.64402 21.08 5.74402C13.18 7.67402 7.24 14.394 6.3 22.454C6.24 22.954 5.81 23.334 5.31 23.334H3.92C2.86 23.334 2 24.194 2 25.254C2 26.314 2.86 27.174 3.92 27.174H30.97C31.52 27.174 31.97 27.624 31.97 28.174C31.97 28.724 31.52 29.174 30.97 29.174H3.92C1.76 29.174 0 27.414 0 25.254C0 23.094 1.76 21.334 3.92 21.334H4.44C5.76 13.064 11.86 6.21402 19.96 3.96402C20.47 1.68402 22.5 -0.00598145 24.89 -0.00598145H26.6C28.98 -0.00598145 31.02 1.68402 31.53 3.96402C39.62 6.21402 45.73 13.054 47.05 21.334H47.57C49.73 21.334 51.49 23.094 51.49 25.254C51.49 27.414 49.73 29.174 47.57 29.174H47.55Z" fill="#001C43"/>
<path d="M25.46 60.5341C14.1 60.5341 4.86 51.2941 4.86 39.9341V28.1741C4.86 27.6241 5.31 27.1741 5.86 27.1741C6.41 27.1741 6.86 27.6241 6.86 28.1741V39.9341C6.86 50.1941 15.21 58.5341 25.46 58.5341C34.91 58.5341 42.86 51.454 43.94 42.054C44 41.504 44.51 41.1141 45.05 41.1741C45.6 41.2341 45.99 41.7341 45.93 42.2841C44.73 52.6841 35.93 60.5341 25.46 60.5341Z" fill="#001C43"/>
<path d="M46.51 23.334H5.3C4.75 23.334 4.3 22.884 4.3 22.334C4.3 21.784 4.75 21.334 5.3 21.334H46.51C47.06 21.334 47.51 21.784 47.51 22.334C47.51 22.884 47.06 23.334 46.51 23.334Z" fill="#001C43"/>
<path d="M20.84 12.084C20.29 12.084 19.84 11.634 19.84 11.084V4.76404C19.84 4.21404 20.29 3.76404 20.84 3.76404C21.39 3.76404 21.84 4.21404 21.84 4.76404V11.084C21.84 11.634 21.39 12.084 20.84 12.084Z" fill="#001C43"/>
<path d="M30.76 11.2241C30.21 11.2241 29.76 10.7741 29.76 10.2241V4.53406C29.76 3.98406 30.21 3.53406 30.76 3.53406C31.31 3.53406 31.76 3.98406 31.76 4.53406V10.2241C31.76 10.7741 31.31 11.2241 30.76 11.2241Z" fill="#001C43"/>
<path d="M45.06 40.0041C44.51 40.0041 44.06 39.5541 44.06 39.0041V30.0041C44.06 29.5441 43.69 29.1741 43.23 29.1741H33.88C33.33 29.1741 32.88 28.7241 32.88 28.1741C32.88 27.6241 33.33 27.1741 33.88 27.1741H43.23C44.79 27.1741 46.06 28.4441 46.06 30.0041V39.0041C46.06 39.5541 45.61 40.0041 45.06 40.0041Z" fill="#1DB8D9"/>
</svg>
