<svg width="121" height="57" viewBox="0 0 121 57" fill="none" xmlns="http://www.w3.org/2000/svg">
<path d="M119.018 56.7558H1.51776C0.967761 56.7558 0.517761 56.3058 0.517761 55.7558C0.517761 55.2058 0.967761 54.7558 1.51776 54.7558H119.018C119.568 54.7558 120.018 55.2058 120.018 55.7558C120.018 56.3058 119.568 56.7558 119.018 56.7558Z" fill="#001C43"/>
<path d="M10.4377 56.7558C10.0277 56.7558 9.64772 56.5058 9.49772 56.1058L2.43772 37.1958C2.31772 36.8858 2.36771 36.5458 2.55771 36.2758C2.74771 36.0058 3.04772 35.8458 3.37772 35.8458H20.5277C20.7677 35.8458 20.9977 35.9358 21.1877 36.0958L26.5277 40.7458H68.7677L76.7177 34.6158C76.8977 34.4758 77.1077 34.4058 77.3277 34.4058H118.408C118.768 34.4058 119.098 34.5958 119.278 34.9058C119.458 35.2158 119.458 35.5958 119.278 35.9058L108.038 55.5058C107.768 55.9858 107.148 56.1458 106.678 55.8758C106.198 55.6058 106.028 54.9858 106.308 54.5058L116.688 36.3958H77.6777L69.7277 42.5258C69.5477 42.6658 69.3377 42.7358 69.1177 42.7358H26.1577C25.9177 42.7358 25.6877 42.6458 25.4977 42.4858L20.1577 37.8358H4.81772L11.3777 55.3958C11.5677 55.9158 11.3077 56.4858 10.7877 56.6858C10.6677 56.7258 10.5577 56.7458 10.4377 56.7458V56.7558Z" fill="#001C43"/>
<path d="M13.7477 37.1158C13.1977 37.1158 12.7477 36.6658 12.7477 36.1158V26.5958H7.11774C6.56774 26.5958 6.11774 26.1458 6.11774 25.5958V15.6458C6.11774 15.0958 6.56774 14.6458 7.11774 14.6458H17.6577C18.2077 14.6458 18.6577 15.0958 18.6577 15.6458C18.6577 16.1958 18.2077 16.6458 17.6577 16.6458H8.11774V24.5958H13.7477C14.2977 24.5958 14.7477 25.0458 14.7477 25.5958V36.1158C14.7477 36.6658 14.2977 37.1158 13.7477 37.1158Z" fill="#001C43"/>
<path d="M32.1978 41.7358C31.6478 41.7358 31.1978 41.2858 31.1978 40.7358V29.9258C31.1978 29.3758 31.6478 28.9258 32.1978 28.9258C32.7478 28.9258 33.1978 29.3758 33.1978 29.9258V40.7358C33.1978 41.2858 32.7478 41.7358 32.1978 41.7358Z" fill="#001C43"/>
<path d="M53.3278 27.5358H39.9677C39.4177 27.5358 38.9677 27.0858 38.9677 26.5358V15.6558C38.9677 15.1058 39.4177 14.6558 39.9677 14.6558H53.3278C53.8778 14.6558 54.3278 15.1058 54.3278 15.6558V26.5358C54.3278 27.0858 53.8778 27.5358 53.3278 27.5358ZM40.9677 25.5358H52.3278V16.6558H40.9677V25.5358Z" fill="#001C43"/>
<path d="M53.3278 42.7358H44.0977C43.5477 42.7358 43.0977 42.2858 43.0977 41.7358V26.5258C43.0977 25.9758 43.5477 25.5258 44.0977 25.5258H53.3278C53.8778 25.5258 54.3278 25.9758 54.3278 26.5258V41.7358C54.3278 42.2858 53.8778 42.7358 53.3278 42.7358ZM45.0977 40.7358H52.3278V27.5258H45.0977V40.7358Z" fill="#001C43"/>
<path d="M114.278 36.3958H101.448C100.898 36.3958 100.448 35.9458 100.448 35.3958V25.4558C100.448 24.9058 100.898 24.4558 101.448 24.4558H114.278C114.828 24.4558 115.278 24.9058 115.278 25.4558V35.3958C115.278 35.9458 114.828 36.3958 114.278 36.3958ZM102.448 34.3958H113.278V26.4558H102.448V34.3958Z" fill="#001C43"/>
<path d="M91.0277 28.4358H77.1978C76.6478 28.4358 76.1978 27.9858 76.1978 27.4358V19.3558C76.1978 18.8058 76.6478 18.3558 77.1978 18.3558H91.0277C91.5777 18.3558 92.0277 18.8058 92.0277 19.3558V27.4358C92.0277 27.9858 91.5777 28.4358 91.0277 28.4358ZM78.1978 26.4358H90.0277V20.3558H78.1978V26.4358Z" fill="#001C43"/>
<path d="M84.1077 20.3558C83.5577 20.3558 83.1077 19.9058 83.1077 19.3558V5.42578C83.1077 4.87578 83.5577 4.42578 84.1077 4.42578C84.6577 4.42578 85.1077 4.87578 85.1077 5.42578V19.3558C85.1077 19.9058 84.6577 20.3558 84.1077 20.3558Z" fill="#001C43"/>
<path d="M53.3278 26.5658C52.9978 26.5658 52.6778 26.4058 52.4878 26.1058C52.1878 25.6458 52.3277 25.0258 52.7877 24.7258L83.5178 5.02579L81.6778 2.90579L53.7777 16.5458C53.2777 16.7858 52.6878 16.5858 52.4378 16.0858C52.1978 15.5858 52.3978 14.9958 52.8978 14.7458L81.4878 0.765793C81.8978 0.565793 82.3878 0.665794 82.6778 1.00579L85.7877 4.57579C85.9777 4.79579 86.0677 5.08579 86.0277 5.37579C85.9877 5.66579 85.8178 5.91579 85.5778 6.07579L53.8778 26.3958C53.7078 26.5058 53.5278 26.5558 53.3378 26.5558L53.3278 26.5658Z" fill="#001C43"/>
<path d="M32.1978 27.5058C31.6478 27.5058 31.1978 27.0558 31.1978 26.5058V17.5058C31.1978 17.0458 30.8277 16.6758 30.3677 16.6758H21.0178C20.4678 16.6758 20.0178 16.2258 20.0178 15.6758C20.0178 15.1258 20.4678 14.6758 21.0178 14.6758H30.3677C31.9277 14.6758 33.1978 15.9458 33.1978 17.5058V26.5058C33.1978 27.0558 32.7478 27.5058 32.1978 27.5058Z" fill="#1DB8D9"/>
</svg>
