<svg width="77" height="63" viewBox="0 0 77 63" fill="none" xmlns="http://www.w3.org/2000/svg">
<path d="M50.2379 62.5034C47.7979 62.5034 45.9679 62.0434 45.6079 61.9534L28.4979 59.0734H1.9379C1.3879 59.0734 0.937897 58.6234 0.937897 58.0734C0.937897 57.5234 1.3879 57.0734 1.9379 57.0734H28.5879C28.6479 57.0734 28.6979 57.0734 28.7579 57.0834L45.9979 59.9834C45.9979 59.9834 46.0679 59.9934 46.0979 60.0034C46.1579 60.0234 51.7879 61.5534 56.6279 59.1034L73.3279 49.0134C73.7078 48.7034 75.0879 47.3334 73.5179 45.2934C72.3279 43.7534 70.2779 44.3434 68.2679 45.0834L68.1479 45.1334C66.8179 45.6234 58.4179 49.8934 55.2979 51.4934C55.1679 51.5734 53.3679 52.6334 49.8779 52.3634C49.8279 52.3634 49.7879 52.3534 49.7379 52.3434L38.7579 49.9034C38.2179 49.7834 37.8779 49.2534 37.9979 48.7134C38.1179 48.1734 38.6579 47.8334 39.1879 47.9534L50.0979 50.3834C52.8779 50.5834 54.2979 49.7634 54.3179 49.7534C54.8379 49.4834 65.7379 43.8834 67.4579 43.2534L67.5779 43.2134C69.3079 42.5734 72.9179 41.2534 75.0979 44.0834C75.9979 45.2534 76.3779 46.4634 76.2179 47.6734C75.9779 49.4634 74.6579 50.5234 74.5079 50.6434C74.4779 50.6634 74.4479 50.6834 74.4179 50.7034L57.5979 60.8634C55.0579 62.1534 52.4179 62.5134 50.2479 62.5134L50.2379 62.5034Z" fill="#001C43"/>
<path d="M50.4379 52.3934C49.9179 52.3934 49.4779 51.9934 49.4379 51.4734C49.3979 50.9234 49.8079 50.4434 50.3579 50.4034C52.7679 50.2234 53.6879 49.2234 53.6279 46.8534C53.5679 44.5134 51.7179 43.8434 51.6379 43.8134C51.5779 43.7934 42.1279 41.0034 38.3879 40.1034C35.4479 39.3934 32.5979 39.7234 29.4179 41.1134C28.5779 41.4834 27.4479 42.3034 27.4279 42.3134C26.9779 42.6334 26.3579 42.5334 26.0279 42.0934C25.6979 41.6434 25.7979 41.0234 26.2479 40.6934C26.2979 40.6534 27.5679 39.7334 28.6079 39.2834C32.1579 37.7234 35.5079 37.3634 38.8479 38.1634C42.6379 39.0734 51.8479 41.7934 52.2379 41.9134C52.3979 41.9634 55.5279 43.0234 55.6179 46.8134C55.6979 50.2634 53.9779 52.1434 50.4979 52.4134C50.4679 52.4134 50.4479 52.4134 50.4179 52.4134L50.4379 52.3934Z" fill="#001C43"/>
<path d="M60.1979 33.5234C59.9979 33.5234 59.7879 33.5234 59.5879 33.5134C57.0279 33.4234 53.0979 31.7234 50.8779 28.7434C49.0979 26.3534 48.5879 23.4434 49.3979 20.3334C51.5079 12.2434 59.5379 1.77342 59.8779 1.33342C60.0679 1.08342 60.3579 0.94342 60.6679 0.94342C60.9779 0.94342 61.2779 1.09341 61.4579 1.34341C61.8979 1.92341 72.1479 15.5834 72.1679 22.3834C72.1679 25.5534 71.1579 28.2634 69.2179 30.2134C67.0879 32.3434 63.8879 33.5234 60.1979 33.5234ZM60.6579 3.63342C58.5679 6.51342 52.9579 14.5934 51.3279 20.8434C50.6679 23.3834 51.0479 25.6334 52.4779 27.5534C54.4479 30.1834 57.8579 31.4634 59.6579 31.5234C63.0279 31.6334 65.9579 30.6634 67.8079 28.8134C69.3879 27.2234 70.1879 25.0734 70.1779 22.4034C70.1579 17.2834 63.0779 6.99342 60.6679 3.64342L60.6579 3.63342Z" fill="#001C43"/>
<path d="M12.7679 53.6734C12.2179 53.6734 11.7679 53.2234 11.7679 52.6734V43.3234C11.7679 41.7634 13.0379 40.4934 14.5979 40.4934H23.5979C24.1479 40.4934 24.5979 40.9434 24.5979 41.4934C24.5979 42.0434 24.1479 42.4934 23.5979 42.4934H14.5979C14.1379 42.4934 13.7679 42.8634 13.7679 43.3234V52.6734C13.7679 53.2234 13.3179 53.6734 12.7679 53.6734Z" fill="#1DB8D9"/>
<path d="M1.9379 59.0734C1.3879 59.0734 0.937897 58.6234 0.937897 58.0734V41.4934C0.937897 40.9434 1.3879 40.4934 1.9379 40.4934H8.65787C9.20787 40.4934 9.65787 40.9434 9.65787 41.4934C9.65787 42.0434 9.20787 42.4934 8.65787 42.4934H2.9379V58.0734C2.9379 58.6234 2.4879 59.0734 1.9379 59.0734Z" fill="#001C43"/>
<path d="M6.79788 54.0234C6.24788 54.0234 5.79788 53.5734 5.79788 53.0234V51.3534C5.79788 50.8034 6.24788 50.3534 6.79788 50.3534C7.34788 50.3534 7.79788 50.8034 7.79788 51.3534V53.0234C7.79788 53.5734 7.34788 54.0234 6.79788 54.0234Z" fill="#001C43"/>
</svg>
