<svg width="57" height="58" viewBox="0 0 57 58" fill="none" xmlns="http://www.w3.org/2000/svg">
<path d="M55.4777 13.4935C54.9277 13.4935 54.4777 13.0435 54.4777 12.4935V3.49345C54.4777 3.03345 54.1078 2.66345 53.6478 2.66345H44.2977C43.7477 2.66345 43.2977 2.21345 43.2977 1.66345C43.2977 1.11345 43.7477 0.663452 44.2977 0.663452H53.6478C55.2078 0.663452 56.4777 1.93345 56.4777 3.49345V12.4935C56.4777 13.0435 56.0277 13.4935 55.4777 13.4935Z" fill="#1DB8D9"/>
<path d="M53.4777 57.7034H44.4777C43.9277 57.7034 43.4777 57.2534 43.4777 56.7034C43.4777 56.1534 43.9277 55.7034 44.4777 55.7034H53.4777C53.9377 55.7034 54.3077 55.3334 54.3077 54.8734V17.5234C54.3077 16.9734 54.7577 16.5234 55.3077 16.5234C55.8577 16.5234 56.3077 16.9734 56.3077 17.5234V54.8734C56.3077 56.4334 55.0377 57.7034 53.4777 57.7034Z" fill="#001C43"/>
<path d="M44.2578 57.7034H2.90771C1.34771 57.7034 0.0777588 56.4334 0.0777588 54.8734V17.8734C0.0777588 17.3234 0.527759 16.8734 1.07776 16.8734C1.62776 16.8734 2.07776 17.3234 2.07776 17.8734V54.8734C2.07776 55.3334 2.44771 55.7034 2.90771 55.7034H44.2578C44.8078 55.7034 45.2578 56.1534 45.2578 56.7034C45.2578 57.2534 44.8078 57.7034 44.2578 57.7034Z" fill="#001C43"/>
<path d="M1.07776 18.8535C0.527759 18.8535 0.0777588 18.4035 0.0777588 17.8535V3.50346C0.0777588 1.94346 1.34771 0.673462 2.90771 0.673462H39.9077C40.4577 0.673462 40.9077 1.12346 40.9077 1.67346C40.9077 2.22346 40.4577 2.67346 39.9077 2.67346H2.90771C2.44771 2.67346 2.07776 3.04346 2.07776 3.50346V17.8535C2.07776 18.4035 1.62776 18.8535 1.07776 18.8535Z" fill="#001C43"/>
<path d="M28.2777 50.5435C24.9277 50.5435 22.3978 48.0835 22.3978 44.8135V44.7035C22.3978 41.4335 24.9277 38.9735 28.2777 38.9735C31.6277 38.9735 34.1577 41.4335 34.1577 44.7035V44.8135C34.1577 48.0835 31.6277 50.5435 28.2777 50.5435ZM28.2777 40.9735C26.0677 40.9735 24.3978 42.5735 24.3978 44.7035V44.8135C24.3978 46.9735 26.0277 48.5435 28.2777 48.5435C30.5277 48.5435 32.1577 46.9735 32.1577 44.8135V44.7035C32.1577 42.5435 30.5277 40.9735 28.2777 40.9735ZM28.2777 37.2935C26.3577 37.2935 24.9278 35.9535 24.7078 33.9535L22.2977 13.0235C22.1777 11.8535 22.4878 10.8135 23.1478 10.0835C23.7378 9.43346 24.5877 9.07346 25.5277 9.07346H31.0178C31.9778 9.07346 32.8277 9.45345 33.4177 10.1135C34.0777 10.8535 34.3778 11.8835 34.2678 13.0335L31.8477 33.9735C31.6377 35.9635 30.1977 37.3035 28.2777 37.3035V37.2935ZM31.0078 11.0635H25.5277C25.1477 11.0635 24.8378 11.1835 24.6278 11.4235C24.3478 11.7335 24.2277 12.2335 24.2877 12.8135L26.6978 33.7335C26.8078 34.7235 27.3777 35.2935 28.2777 35.2935C29.1777 35.2935 29.7577 34.7235 29.8577 33.7435L32.2678 12.8035C32.3278 12.2435 32.1977 11.7535 31.9177 11.4335C31.6977 11.1935 31.3877 11.0635 30.9977 11.0635H31.0078Z" fill="#001C43"/>
</svg>
