<svg width="89" height="63" viewBox="0 0 89 63" fill="none" xmlns="http://www.w3.org/2000/svg">
<path d="M49.2846 16.0199C48.6146 16.0199 48.0746 15.4799 48.0746 14.8099V3.24988H36.2846C35.6146 3.24988 35.0746 2.71987 35.0746 2.04987C35.0746 1.37987 35.6146 0.839844 36.2846 0.839844H48.0746C49.4046 0.839844 50.4846 1.91988 50.4846 3.24988V14.8099C50.4846 15.4799 49.9446 16.0199 49.2746 16.0199H49.2846Z" fill="#1DB8D9"/>
<path d="M11.3046 45.0599C11.1446 45.0599 10.9946 45.0299 10.8346 44.9698C10.3846 44.7799 10.0945 44.3399 10.0945 43.8599V37.1599H4.63455C2.44455 37.1599 0.664551 35.3799 0.664551 33.1899V4.81989C0.664551 2.62989 2.44455 0.849854 4.63455 0.849854H32.6545C33.3245 0.849854 33.8646 1.38988 33.8646 2.05988C33.8646 2.72988 33.3245 3.2699 32.6545 3.2699H4.63455C3.77455 3.2699 3.08456 3.96989 3.08456 4.81989V33.1899C3.08456 34.0499 3.78455 34.7399 4.63455 34.7399H11.3046C11.9746 34.7399 12.5146 35.2799 12.5146 35.9499V40.9698L18.4745 35.0898C18.7045 34.8698 19.0046 34.7399 19.3246 34.7399H46.5345C47.3945 34.7399 48.0846 34.0399 48.0846 33.1899V18.2999C48.0846 17.6299 48.6246 17.0898 49.2946 17.0898C49.9646 17.0898 50.5045 17.6299 50.5045 18.2999V33.1899C50.5045 35.3799 48.7245 37.1599 46.5345 37.1599H19.8246L12.1646 44.7198C11.9346 44.9498 11.6245 45.0699 11.3145 45.0699L11.3046 45.0599Z" fill="#001C43"/>
<path d="M77.7045 62.9998C77.3945 62.9998 77.0845 62.8798 76.8545 62.6498L69.1945 55.0898H42.4845C40.2945 55.0898 38.5145 53.3098 38.5145 51.1198V43.4698C38.5145 42.7998 39.0545 42.2598 39.7245 42.2598C40.3945 42.2598 40.9345 42.7998 40.9345 43.4698V51.1198C40.9345 51.9798 41.6345 52.6698 42.4845 52.6698H69.6945C70.0145 52.6698 70.3145 52.7898 70.5445 53.0198L76.5045 58.8998V53.8798C76.5045 53.2098 77.0445 52.6698 77.7145 52.6698H84.3845C85.2445 52.6698 85.9345 51.9698 85.9345 51.1198V22.7498C85.9345 21.8898 85.2345 21.1998 84.3845 21.1998H56.3645C55.6945 21.1998 55.1545 20.6598 55.1545 19.9898C55.1545 19.3198 55.6945 18.7798 56.3645 18.7798H84.3845C86.5745 18.7798 88.3545 20.5598 88.3545 22.7498V51.1198C88.3545 53.3098 86.5745 55.0898 84.3845 55.0898H78.9245V61.7898C78.9245 62.2798 78.6345 62.7198 78.1845 62.8998C78.0345 62.9598 77.8745 62.9898 77.7145 62.9898L77.7045 62.9998Z" fill="#001C43"/>
<path fill-rule="evenodd" clip-rule="evenodd" d="M19.3145 19.2098C19.3145 20.8098 18.0145 22.1098 16.4145 22.1098C14.8145 22.1098 13.5145 20.8098 13.5145 19.2098C13.5145 17.6098 14.8145 16.3098 16.4145 16.3098C18.0145 16.3098 19.3145 17.6098 19.3145 19.2098Z" fill="#001C43"/>
<path fill-rule="evenodd" clip-rule="evenodd" d="M29.0645 19.2098C29.0645 20.8098 27.7645 22.1098 26.1645 22.1098C24.5645 22.1098 23.2645 20.8098 23.2645 19.2098C23.2645 17.6098 24.5645 16.3098 26.1645 16.3098C27.7645 16.3098 29.0645 17.6098 29.0645 19.2098Z" fill="#001C43"/>
<path fill-rule="evenodd" clip-rule="evenodd" d="M38.8145 19.2098C38.8145 20.8098 37.5145 22.1098 35.9145 22.1098C34.3145 22.1098 33.0145 20.8098 33.0145 19.2098C33.0145 17.6098 34.3145 16.3098 35.9145 16.3098C37.5145 16.3098 38.8145 17.6098 38.8145 19.2098Z" fill="#001C43"/>
</svg>
