<svg width="57" height="39" viewBox="0 0 57 39" fill="none" xmlns="http://www.w3.org/2000/svg">
<path d="M13.7795 28.2264C13.5195 28.2264 13.2695 28.1264 13.0695 27.9364L1.8895 16.7564C0.899496 15.7664 0.349487 14.4464 0.349487 13.0364C0.349487 11.6264 0.899496 10.3064 1.8895 9.31641C2.8795 8.32641 4.1995 7.77643 5.6095 7.77643C7.0195 7.77643 8.3395 8.32641 9.3295 9.31641L15.2595 15.2465L24.7795 25.1664L34.1295 15.3464L47.3595 2.11646C48.3495 1.12646 49.6695 0.576416 51.0795 0.576416C52.4895 0.576416 53.8095 1.12646 54.7995 2.11646C55.7895 3.10646 56.3395 4.42643 56.3395 5.83643C56.3395 7.24643 55.7895 8.56646 54.7995 9.55646L36.9595 27.3964C36.5695 27.7864 35.9395 27.7864 35.5495 27.3964C35.1595 27.0064 35.1595 26.3764 35.5495 25.9865L53.3895 8.14642C54.0095 7.52642 54.3495 6.71643 54.3495 5.83643C54.3495 4.95643 54.0095 4.14643 53.3895 3.52643C52.1595 2.29643 50.0095 2.29643 48.7795 3.52643L35.5695 16.7365L25.5195 27.2964C25.3295 27.4964 25.0695 27.6064 24.7995 27.6064C24.5295 27.6064 24.2695 27.4964 24.0795 27.2964L13.8495 16.6364L7.9395 10.7264C6.7095 9.49644 4.5595 9.49644 3.3295 10.7264C2.7095 11.3464 2.36949 12.1664 2.36949 13.0364C2.36949 13.9064 2.7095 14.7264 3.3295 15.3464L14.5095 26.5264C14.8995 26.9164 14.8995 27.5464 14.5095 27.9364C14.3095 28.1364 14.0595 28.2264 13.7995 28.2264H13.7795Z" fill="#001C43"/>
<path d="M24.9295 38.0365C24.1295 38.0365 23.3295 37.7364 22.7195 37.1264L15.3395 29.7465C14.9495 29.3565 14.9495 28.7264 15.3395 28.3364C15.7295 27.9464 16.3595 27.9464 16.7495 28.3364L24.1295 35.7165C24.5695 36.1565 25.2795 36.1565 25.7095 35.7165L33.3795 28.0465C33.7695 27.6565 34.3995 27.6565 34.7895 28.0465C35.1795 28.4365 35.1795 29.0664 34.7895 29.4564L27.1195 37.1264C26.5095 37.7364 25.7095 38.0365 24.9095 38.0365H24.9295Z" fill="#1DB8D9"/>
</svg>
