<svg width="94" height="39" viewBox="0 0 94 39" fill="none" xmlns="http://www.w3.org/2000/svg">
<path d="M30.47 32.8335C29.92 32.8335 29.47 32.3834 29.47 31.8335V1.66345C29.47 1.11345 29.92 0.663452 30.47 0.663452H75.05C75.6 0.663452 76.05 1.11345 76.05 1.66345C76.05 2.21345 75.6 2.66345 75.05 2.66345H31.47V31.8335C31.47 32.3834 31.02 32.8335 30.47 32.8335Z" fill="#001C43"/>
<path d="M90.31 32.8335C89.76 32.8335 89.31 32.3835 89.31 31.8335V16.5135C89.31 15.9635 89.76 15.5135 90.31 15.5135C90.86 15.5135 91.31 15.9635 91.31 16.5135V31.8335C91.31 32.3835 90.86 32.8335 90.31 32.8335Z" fill="#001C43"/>
<path d="M26.06 32.9635H23.02C22.47 32.9635 22.02 32.5135 22.02 31.9635C22.02 31.4135 22.47 30.9635 23.02 30.9635H25.06V7.80347H7.81C7.45 7.80347 7.12 8.01347 6.96 8.33347L2 18.4735V30.9635H12.13C12.68 30.9635 13.13 31.4135 13.13 31.9635C13.13 32.5135 12.68 32.9635 12.13 32.9635H1C0.45 32.9635 0 32.5135 0 31.9635V18.2435C0 18.0935 0.03 17.9435 0.1 17.8035L5.16 7.45347C5.65 6.45347 6.69 5.80347 7.8 5.80347H26.05C26.6 5.80347 27.05 6.25347 27.05 6.80347V31.9635C27.05 32.5135 26.6 32.9635 26.05 32.9635H26.06Z" fill="#001C43"/>
<path d="M70.22 32.9634H63.29C62.74 32.9634 62.29 32.5134 62.29 31.9634C62.29 31.4134 62.74 30.9634 63.29 30.9634H70.22C70.77 30.9634 71.22 31.4134 71.22 31.9634C71.22 32.5134 70.77 32.9634 70.22 32.9634Z" fill="#001C43"/>
<path d="M52.39 32.9634H26.06C25.51 32.9634 25.06 32.5134 25.06 31.9634C25.06 31.4134 25.51 30.9634 26.06 30.9634H52.39C52.94 30.9634 53.39 31.4134 53.39 31.9634C53.39 32.5134 52.94 32.9634 52.39 32.9634Z" fill="#001C43"/>
<path d="M92.9 32.9634H81.12C80.57 32.9634 80.12 32.5134 80.12 31.9634C80.12 31.4134 80.57 30.9634 81.12 30.9634H92.9C93.45 30.9634 93.9 31.4134 93.9 31.9634C93.9 32.5134 93.45 32.9634 92.9 32.9634Z" fill="#001C43"/>
<path d="M75.68 38.4135C72.12 38.4135 69.23 35.5235 69.23 31.9635C69.23 28.4035 72.12 25.5135 75.68 25.5135C79.24 25.5135 82.13 28.4035 82.13 31.9635C82.13 35.5235 79.24 38.4135 75.68 38.4135ZM75.68 27.5135C73.23 27.5135 71.23 29.5135 71.23 31.9635C71.23 34.4135 73.23 36.4135 75.68 36.4135C78.13 36.4135 80.13 34.4135 80.13 31.9635C80.13 29.5135 78.13 27.5135 75.68 27.5135Z" fill="#001C43"/>
<path d="M57.84 38.4135C54.28 38.4135 51.39 35.5235 51.39 31.9635C51.39 28.4035 54.28 25.5135 57.84 25.5135C61.4 25.5135 64.29 28.4035 64.29 31.9635C64.29 35.5235 61.4 38.4135 57.84 38.4135ZM57.84 27.5135C55.39 27.5135 53.39 29.5135 53.39 31.9635C53.39 34.4135 55.39 36.4135 57.84 36.4135C60.29 36.4135 62.29 34.4135 62.29 31.9635C62.29 29.5135 60.29 27.5135 57.84 27.5135Z" fill="#001C43"/>
<path d="M17.58 38.4135C14.02 38.4135 11.13 35.5235 11.13 31.9635C11.13 28.4035 14.02 25.5135 17.58 25.5135C21.14 25.5135 24.03 28.4035 24.03 31.9635C24.03 35.5235 21.14 38.4135 17.58 38.4135ZM17.58 27.5135C15.13 27.5135 13.13 29.5135 13.13 31.9635C13.13 34.4135 15.13 36.4135 17.58 36.4135C20.03 36.4135 22.03 34.4135 22.03 31.9635C22.03 29.5135 20.03 27.5135 17.58 27.5135Z" fill="#001C43"/>
<path d="M90.59 13.4935C90.04 13.4935 89.59 13.0435 89.59 12.4935V3.49345C89.59 3.03345 89.22 2.66345 88.76 2.66345H79.41C78.86 2.66345 78.41 2.21345 78.41 1.66345C78.41 1.11345 78.86 0.663452 79.41 0.663452H88.76C90.32 0.663452 91.59 1.93345 91.59 3.49345V12.4935C91.59 13.0435 91.14 13.4935 90.59 13.4935Z" fill="#1DB8D9"/>
</svg>
