<svg width="42" height="56" viewBox="0 0 42 56" fill="none" xmlns="http://www.w3.org/2000/svg">
<path d="M11.9 46.0498C11.61 46.0498 11.32 45.9198 11.12 45.6798C4.2 37.1098 0.690002 28.9998 0.690002 21.5798C0.690002 10.1398 9.94 0.839844 21.31 0.839844C32.68 0.839844 41.93 10.1498 41.93 21.5798C41.93 30.7198 36.41 39.5998 31.77 45.4398C31.43 45.8698 30.8 45.9498 30.37 45.5998C29.94 45.2598 29.86 44.6298 30.21 44.1998C34.65 38.6098 39.94 30.1398 39.94 21.5798C39.94 11.2398 31.59 2.83984 21.32 2.83984C11.05 2.83984 2.69998 11.2498 2.69998 21.5798C2.69998 28.5298 6.06 36.2098 12.69 44.4198C13.04 44.8498 12.97 45.4798 12.54 45.8298C12.36 45.9798 12.13 46.0498 11.91 46.0498H11.9ZM21.31 27.7398C17.95 27.7398 15.22 24.9798 15.22 21.5798C15.22 18.1798 17.95 15.4198 21.31 15.4198C24.67 15.4198 27.4 18.1798 27.4 21.5798C27.4 24.9798 24.67 27.7398 21.31 27.7398ZM21.31 17.4198C19.06 17.4198 17.22 19.2898 17.22 21.5798C17.22 23.8698 19.05 25.7398 21.31 25.7398C23.57 25.7398 25.4 23.8698 25.4 21.5798C25.4 19.2898 23.57 17.4198 21.31 17.4198Z" fill="#001C43"/>
<path d="M21.25 55.2098C20.54 55.2098 19.82 54.9398 19.28 54.3898L13.05 48.1597C12.66 47.7697 12.66 47.1398 13.05 46.7498C13.44 46.3598 14.07 46.3598 14.46 46.7498L20.69 52.9798C21 53.2898 21.5 53.2898 21.81 52.9798L28.29 46.4998C28.68 46.1098 29.31 46.1098 29.7 46.4998C30.09 46.8898 30.09 47.5197 29.7 47.9097L23.22 54.3898C22.68 54.9298 21.96 55.2098 21.25 55.2098Z" fill="#1DB8D9"/>
</svg>
