<svg width="56" height="59" viewBox="0 0 56 59" fill="none" xmlns="http://www.w3.org/2000/svg">
<path d="M33.7753 42.6597C33.2253 42.6597 32.7753 42.2097 32.7753 41.6597V18.7497C32.7753 18.1997 33.2253 17.7497 33.7753 17.7497H41.0953C41.4253 17.7497 41.7253 17.5697 41.8553 17.2897C41.9853 17.0197 41.9353 16.7197 41.7353 16.4997L37.6453 11.9698C37.2753 11.5598 37.3053 10.9297 37.7153 10.5597C38.1253 10.1897 38.7552 10.2197 39.1252 10.6297L43.2053 15.1498C43.9453 15.9598 44.1253 17.1297 43.6553 18.1397C43.1953 19.1197 42.1853 19.7497 41.0853 19.7497H34.7653V41.6597C34.7653 42.2097 34.3153 42.6597 33.7653 42.6597H33.7753Z" fill="#001C43"/>
<path d="M22.7853 42.6597C22.2353 42.6597 21.7853 42.2097 21.7853 41.6597V19.7497H15.4653C14.3653 19.7497 13.3553 19.1197 12.8953 18.1397C12.4253 17.1497 12.6053 15.9798 13.3453 15.1498L17.2053 10.7997C17.5753 10.3897 18.2053 10.3498 18.6153 10.7198C19.0253 11.0898 19.0653 11.7197 18.6953 12.1297L14.8253 16.4797C14.6153 16.7097 14.5653 17.0098 14.6953 17.2798C14.8253 17.5598 15.1253 17.7397 15.4553 17.7397H22.7753C23.3253 17.7397 23.7753 18.1897 23.7753 18.7397V41.6498C23.7753 42.1998 23.3253 42.6498 22.7753 42.6498L22.7853 42.6597Z" fill="#001C43"/>
<path d="M50.9753 59.0098H5.46527C2.98527 59.0098 0.965271 56.9898 0.965271 54.5098V40.5098C0.965271 39.9598 1.41527 39.5098 1.96527 39.5098H8.96527C9.51527 39.5098 9.96527 39.9598 9.96527 40.5098V50.0098H46.4753V40.5098C46.4753 39.9598 46.9253 39.5098 47.4753 39.5098H54.4753C55.0253 39.5098 55.4753 39.9598 55.4753 40.5098V54.5098C55.4753 56.9898 53.4553 59.0098 50.9753 59.0098ZM2.96527 41.5098V54.5098C2.96527 55.8898 4.08527 57.0098 5.46527 57.0098H50.9753C52.3553 57.0098 53.4753 55.8898 53.4753 54.5098V41.5098H48.4753V51.0098C48.4753 51.5598 48.0253 52.0098 47.4753 52.0098H8.96527C8.41527 52.0098 7.96527 51.5598 7.96527 51.0098V41.5098H2.96527Z" fill="#001C43"/>
<path d="M20.1453 10.1498C19.8853 10.1498 19.6353 10.0498 19.4353 9.85977C19.0453 9.46977 19.0453 8.83979 19.4353 8.44979L26.2553 1.62979C27.3453 0.539786 29.2553 0.549754 30.3653 1.65975L37.0653 8.35977C37.4553 8.74977 37.4553 9.3798 37.0653 9.7698C36.6753 10.1598 36.0453 10.1598 35.6553 9.7698L28.9553 3.06979C28.6053 2.71979 28.0053 2.70976 27.6753 3.03976L20.8553 9.85977C20.6553 10.0598 20.4053 10.1498 20.1453 10.1498Z" fill="#1DB8D9"/>
</svg>
