<svg width="67" height="69" viewBox="0 0 67 69" fill="none" xmlns="http://www.w3.org/2000/svg">
<path d="M60.544 47.4834H51.604C51.054 47.4834 50.604 47.0334 50.604 46.4834C50.604 45.9334 51.054 45.4834 51.604 45.4834H59.544V40.7634H2.724V45.4834H32.904C33.454 45.4834 33.904 45.9334 33.904 46.4834C33.904 47.0334 33.454 47.4834 32.904 47.4834H1.724C1.174 47.4834 0.723999 47.0334 0.723999 46.4834V39.7634C0.723999 39.2134 1.174 38.7634 1.724 38.7634H60.544C61.094 38.7634 61.544 39.2134 61.544 39.7634V46.4834C61.544 47.0334 61.094 47.4834 60.544 47.4834Z" fill="#001C43"/>
<path d="M47.974 40.7635H30.214C29.664 40.7635 29.214 40.3135 29.214 39.7635V30.4335C29.214 29.8835 29.664 29.4335 30.214 29.4335H47.974C48.524 29.4335 48.974 29.8835 48.974 30.4335V39.7635C48.974 40.3135 48.524 40.7635 47.974 40.7635ZM31.214 38.7635H46.974V31.4335H31.214V38.7635Z" fill="#001C43"/>
<path d="M13.5341 67.6434C12.9841 67.6434 12.5341 67.1934 12.5341 66.6434V47.1534C12.5341 46.6034 12.9841 46.1534 13.5341 46.1534C14.0841 46.1534 14.5341 46.6034 14.5341 47.1534V66.6434C14.5341 67.1934 14.0841 67.6434 13.5341 67.6434Z" fill="#001C43"/>
<path d="M21.4041 67.6434C20.8541 67.6434 20.4041 67.1934 20.4041 66.6434V47.1534C20.4041 46.6034 20.8541 46.1534 21.4041 46.1534C21.9541 46.1534 22.4041 46.6034 22.4041 47.1534V66.6434C22.4041 67.1934 21.9541 67.6434 21.4041 67.6434Z" fill="#001C43"/>
<path d="M40.094 67.6434C39.544 67.6434 39.094 67.1934 39.094 66.6434V50.1434C39.094 49.5934 39.544 49.1434 40.094 49.1434C40.644 49.1434 41.094 49.5934 41.094 50.1434V66.6434C41.094 67.1934 40.644 67.6434 40.094 67.6434Z" fill="#001C43"/>
<path d="M47.974 67.6435C47.424 67.6435 46.974 67.1935 46.974 66.6435V60.6835C46.974 60.1335 47.424 59.6835 47.974 59.6835C48.524 59.6835 48.974 60.1335 48.974 60.6835V66.6435C48.974 67.1935 48.524 67.6435 47.974 67.6435Z" fill="#001C43"/>
<path d="M44.234 31.4235C43.984 31.4235 43.734 31.3335 43.544 31.1435C43.144 30.7635 43.134 30.1234 43.524 29.7334L61.424 11.2135L58.344 8.63347L36.364 30.4935C35.974 30.8835 35.334 30.8835 34.954 30.4935C34.564 30.1035 34.564 29.4735 34.954 29.0835L57.584 6.58346C57.954 6.21346 58.534 6.19346 58.934 6.52346L63.534 10.3735C63.744 10.5535 63.874 10.8135 63.894 11.0835C63.904 11.3635 63.804 11.6335 63.614 11.8335L44.964 31.1335C44.764 31.3335 44.504 31.4435 44.244 31.4435L44.234 31.4235Z" fill="#001C43"/>
<path d="M62.884 34.1335C62.334 34.1335 61.884 33.6835 61.884 33.1335V11.1235C61.884 10.5735 62.334 10.1235 62.884 10.1235C63.434 10.1235 63.884 10.5735 63.884 11.1235V33.1335C63.884 33.6835 63.434 34.1335 62.884 34.1335Z" fill="#001C43"/>
<path d="M65.804 34.3235H59.834C59.284 34.3235 58.834 33.8735 58.834 33.3235C58.834 32.7735 59.284 32.3235 59.834 32.3235H65.804C66.354 32.3235 66.804 32.7735 66.804 33.3235C66.804 33.8735 66.354 34.3235 65.804 34.3235Z" fill="#001C43"/>
<path d="M24.344 39.9834C23.874 39.9834 23.454 39.6534 23.364 39.1734L18.884 15.8334C18.874 15.7734 18.864 15.7034 18.864 15.6434V9.77344H11.784V15.6434C11.784 15.7034 11.784 15.7634 11.764 15.8234L7.53395 39.1635C7.43395 39.7035 6.91395 40.0734 6.37395 39.9734C5.83395 39.8735 5.47395 39.3534 5.56395 38.8134L9.77395 15.5634V8.78345C9.77395 8.23345 10.224 7.78345 10.774 7.78345H19.854C20.404 7.78345 20.854 8.23345 20.854 8.78345V15.5534L25.314 38.8034C25.414 39.3434 25.064 39.8735 24.524 39.9734C24.464 39.9834 24.394 39.9934 24.334 39.9934L24.344 39.9834Z" fill="#001C43"/>
<path d="M19.8739 16.6335H10.7939C10.2439 16.6335 9.79395 16.1835 9.79395 15.6335C9.79395 15.0835 10.2439 14.6335 10.7939 14.6335H19.8739C20.4239 14.6335 20.8739 15.0835 20.8739 15.6335C20.8739 16.1835 20.4239 16.6335 19.8739 16.6335Z" fill="#001C43"/>
<path d="M17.944 9.27344C17.394 9.27344 16.944 8.82344 16.944 8.27344V6.16345H13.724V8.27344C13.724 8.82344 13.274 9.27344 12.724 9.27344C12.174 9.27344 11.724 8.82344 11.724 8.27344V5.16345C11.724 4.61345 12.174 4.16345 12.724 4.16345H17.944C18.494 4.16345 18.944 4.61345 18.944 5.16345V8.27344C18.944 8.82344 18.494 9.27344 17.944 9.27344Z" fill="#001C43"/>
<path d="M15.334 5.60349C14.784 5.60349 14.334 5.15349 14.334 4.60349V1.94348C14.334 1.39348 14.784 0.943481 15.334 0.943481C15.884 0.943481 16.334 1.39348 16.334 1.94348V4.60349C16.334 5.15349 15.884 5.60349 15.334 5.60349Z" fill="#001C43"/>
<path d="M21.6639 25.9834C21.2939 25.9834 20.9339 25.7734 20.7639 25.4234C20.5239 24.9234 20.7339 24.3234 21.2339 24.0834L57.8539 6.38345C58.3539 6.14345 58.944 6.35345 59.194 6.85345C59.434 7.35345 59.2239 7.95345 58.7239 8.19345L22.1039 25.8934C21.9639 25.9634 21.8139 25.9934 21.6739 25.9934L21.6639 25.9834Z" fill="#001C43"/>
<path d="M47.9739 58.3035C47.4239 58.3035 46.9739 57.8535 46.9739 57.3035V48.3035C46.9739 47.8435 46.6039 47.4735 46.1439 47.4735H36.7939C36.2439 47.4735 35.7939 47.0235 35.7939 46.4735C35.7939 45.9235 36.2439 45.4735 36.7939 45.4735H46.1439C47.7039 45.4735 48.9739 46.7435 48.9739 48.3035V57.3035C48.9739 57.8535 48.5239 58.3035 47.9739 58.3035Z" fill="#1DB8D9"/>
<path d="M59.354 68.2335H2.854C2.304 68.2335 1.854 67.7835 1.854 67.2335C1.854 66.6835 2.304 66.2335 2.854 66.2335H59.344C59.894 66.2335 60.344 66.6835 60.344 67.2335C60.344 67.7835 59.894 68.2335 59.344 68.2335H59.354Z" fill="#001C43"/>
</svg>
