<svg width="62" height="68" viewBox="0 0 62 68" fill="none" xmlns="http://www.w3.org/2000/svg">
<path d="M52.2752 67.2322H3.26526C1.61526 67.2322 0.265259 65.8822 0.265259 64.2322C0.265259 64.1622 0.265248 64.0922 0.285248 64.0222L6.09525 37.3422C6.15525 35.7422 7.47525 34.4622 9.09525 34.4622H58.1053C59.7553 34.4622 61.1053 35.8122 61.1053 37.4622C61.1053 37.5322 61.1052 37.6022 61.0852 37.6722L55.2653 64.3522C55.2053 65.9522 53.8853 67.2322 52.2653 67.2322H52.2752ZM2.26526 64.3221C2.31526 64.8321 2.73526 65.2322 3.26526 65.2322H52.2752C52.8252 65.2322 53.2752 64.7822 53.2752 64.2322C53.2752 64.1622 53.2753 64.0922 53.2953 64.0222L59.1053 37.3722C59.0553 36.8622 58.6353 36.4622 58.1053 36.4622H9.09525C8.54525 36.4622 8.09525 36.9122 8.09525 37.4622C8.09525 37.5322 8.09526 37.6022 8.07526 37.6722L2.26526 64.3221Z" fill="#001C43"/>
<path d="M56.9053 35.3022C56.3553 35.3022 55.9053 34.8522 55.9053 34.3022V30.8922C55.9053 29.7022 54.9353 28.7322 53.7453 28.7322H38.2953C37.7453 28.7322 37.2953 28.2822 37.2953 27.7322C37.2953 27.1822 37.7453 26.7322 38.2953 26.7322H53.7453C56.0353 26.7322 57.9053 28.6022 57.9053 30.8922V34.3022C57.9053 34.8522 57.4553 35.3022 56.9053 35.3022Z" fill="#001C43"/>
<path d="M27.8153 28.7322H20.4153C19.8653 28.7322 19.4153 28.2822 19.4153 27.7322C19.4153 27.1822 19.8653 26.7322 20.4153 26.7322H27.8153C28.3653 26.7322 28.8153 27.1822 28.8153 27.7322C28.8153 28.2822 28.3653 28.7322 27.8153 28.7322Z" fill="#001C43"/>
<path d="M2.24524 66.9521C2.07524 66.9521 1.89523 66.9122 1.73523 66.8122C0.825229 66.2722 0.255249 65.2822 0.255249 64.2222V24.3922C0.255249 22.8822 1.48524 21.6522 2.99524 21.6522H18.4153C20.0653 21.6522 21.4153 23.0022 21.4153 24.6522V27.7222C21.4153 28.2722 20.9653 28.7222 20.4153 28.7222C19.8653 28.7222 19.4153 28.2722 19.4153 27.7222V24.6522C19.4153 24.1022 18.9653 23.6522 18.4153 23.6522H2.99524C2.58524 23.6522 2.25525 23.9822 2.25525 24.3922V64.2222C2.25525 64.5722 2.44525 64.9022 2.75525 65.0822C3.23525 65.3622 3.38523 65.9721 3.11523 66.4521C2.92523 66.7721 2.59525 66.9422 2.25525 66.9422L2.24524 66.9521Z" fill="#001C43"/>
<path d="M43.6253 13.2722C43.3653 13.2722 43.1153 13.1722 42.9153 12.9822L33.1653 3.2322L23.4153 12.9822C23.0253 13.3722 22.3953 13.3722 22.0053 12.9822C21.6153 12.5922 21.6153 11.9622 22.0053 11.5722L32.4653 1.1122C32.8553 0.722202 33.4853 0.722202 33.8753 1.1122L44.3353 11.5722C44.7253 11.9622 44.7253 12.5922 44.3353 12.9822C44.1353 13.1822 43.8853 13.2722 43.6253 13.2722Z" fill="#1DB8D9"/>
<path d="M27.9952 35.6922C27.4452 35.6922 26.9952 35.2422 26.9952 34.6922V11.2922C26.9952 10.7422 27.4452 10.2922 27.9952 10.2922C28.5452 10.2922 28.9952 10.7422 28.9952 11.2922V34.6922C28.9952 35.2422 28.5452 35.6922 27.9952 35.6922Z" fill="#001C43"/>
<path d="M38.2152 35.6922C37.6652 35.6922 37.2152 35.2422 37.2152 34.6922V11.2922C37.2152 10.7422 37.6652 10.2922 38.2152 10.2922C38.7652 10.2922 39.2152 10.7422 39.2152 11.2922V34.6922C39.2152 35.2422 38.7652 35.6922 38.2152 35.6922Z" fill="#001C43"/>
</svg>
