<svg width="71" height="69" viewBox="0 0 71 69" fill="none" xmlns="http://www.w3.org/2000/svg">
<path d="M41.1454 68.6535C40.3354 68.6535 39.5454 68.4835 38.7954 68.1435C36.3354 67.0435 35.0154 64.2635 35.6654 61.5335L37.7054 48.4735L31.7354 42.2135L24.0854 50.4035C23.6754 50.8435 23.0954 51.0935 22.5054 51.0935H6.14537C4.59537 51.0935 3.09537 50.4435 2.03537 49.3235C0.955367 48.1835 0.405367 46.6835 0.485367 45.1135C0.645367 42.0935 3.21537 39.7335 6.34537 39.7335H16.8454L32.8154 21.8335H32.7554L25.4454 29.5935C24.5254 30.6035 23.1954 31.1935 21.8054 31.1935C20.3754 31.1935 19.0754 30.6235 18.1054 29.5835C16.2954 27.6435 16.4154 24.4635 18.3754 22.5035L29.1654 12.2235C29.5754 11.8335 30.1054 11.6235 30.6554 11.6235H43.3654C44.7454 11.6235 46.0754 12.1435 47.0854 13.0835L55.5154 20.8935L61.5054 14.8235C62.4554 13.8735 63.7154 13.3535 65.0554 13.3535C66.3954 13.3535 67.6454 13.8735 68.5854 14.8235L68.7554 14.9935C69.6854 15.9235 70.1954 17.1735 70.1954 18.4935C70.1954 19.8135 69.6854 21.0535 68.7454 21.9935L58.6754 32.0935C58.4354 32.3335 58.1654 32.5535 57.8654 32.7435C57.3954 33.0435 56.7854 32.9035 56.4854 32.4335C56.1854 31.9635 56.3254 31.3535 56.7954 31.0535C56.9654 30.9435 57.1154 30.8235 57.2554 30.6835L67.3254 20.5835C67.8854 20.0235 68.1854 19.2835 68.1854 18.4935C68.1854 17.7035 67.8754 16.9635 67.3254 16.4035L67.1554 16.2335C66.5954 15.6735 65.8354 15.3535 65.0354 15.3535C64.2354 15.3535 63.4754 15.6635 62.9054 16.2335L56.8154 22.4035C56.1054 23.1135 54.9854 23.1335 54.2554 22.4635L45.7054 14.5535C45.0654 13.9535 44.2254 13.6235 43.3454 13.6235H30.6354C30.6354 13.6235 30.5554 13.6435 30.5154 13.6735L19.7454 23.9335C18.5554 25.1235 18.4654 27.0535 19.5454 28.2235C20.1254 28.8535 20.9154 29.1935 21.7554 29.1935C22.6054 29.1935 23.4054 28.8335 23.9554 28.2335L31.5754 20.1435C31.7654 19.9435 32.0254 19.8335 32.3054 19.8335H35.0254C35.4154 19.8335 35.7754 20.0635 35.9354 20.4235C36.0954 20.7835 36.0354 21.2035 35.7654 21.4935L18.0054 41.3935C17.8154 41.6035 17.5454 41.7235 17.2554 41.7235H6.30537C4.24537 41.7235 2.54537 43.2535 2.44537 45.2035C2.39537 46.2235 2.74537 47.1935 3.44537 47.9335C4.13537 48.6635 5.10537 49.0835 6.10537 49.0835H22.4454C22.4454 49.0835 22.5354 49.0635 22.5654 49.0335L30.9354 40.0735C31.1254 39.8735 31.3854 39.7535 31.6654 39.7535C31.9354 39.7535 32.1954 39.8635 32.3854 40.0635L39.4254 47.4435C39.6354 47.6635 39.7354 47.9835 39.6854 48.2835L37.5554 61.9035C37.1154 63.7735 37.9554 65.5935 39.5454 66.3035C40.5554 66.7635 41.7154 66.7435 42.6954 66.2535C43.6954 65.7535 44.3854 64.8635 44.6454 63.7435L48.2654 44.2535C48.2754 44.1935 48.2654 44.1435 48.2154 44.1035L40.3554 36.2335C39.9654 35.8435 39.9654 35.2135 40.3554 34.8235C40.7454 34.4335 41.3754 34.4335 41.7654 34.8235L49.6154 42.6935C50.1154 43.1935 50.3454 43.9235 50.2154 44.6235L46.5854 64.1635C46.1854 65.8935 45.0854 67.2935 43.5654 68.0535C42.7854 68.4435 41.9254 68.6435 41.0554 68.6435L41.1454 68.6535Z" fill="#001C43"/>
<path d="M55.5154 15.5835C51.4054 15.5835 48.0554 12.2335 48.0554 8.12346C48.0554 4.01346 51.4054 0.663452 55.5154 0.663452C59.6254 0.663452 62.9754 4.01346 62.9754 8.12346C62.9754 12.2335 59.6254 15.5835 55.5154 15.5835ZM55.5154 2.66345C52.5054 2.66345 50.0554 5.11346 50.0554 8.12346C50.0554 11.1335 52.5054 13.5835 55.5154 13.5835C58.5254 13.5835 60.9754 11.1335 60.9754 8.12346C60.9754 5.11346 58.5254 2.66345 55.5154 2.66345Z" fill="#001C43"/>
<path d="M39.4254 34.1935C39.1654 34.1935 38.9154 34.0935 38.7154 33.9035C38.3254 33.5135 38.3254 32.8835 38.7154 32.4935L45.0554 26.1535C46.0954 25.1135 47.9054 25.1135 48.9454 26.1535L55.0453 32.2535C55.4353 32.6435 55.4353 33.2735 55.0453 33.6635C54.6553 34.0535 54.0253 34.0535 53.6353 33.6635L47.5354 27.5635C47.2554 27.2835 46.7553 27.2835 46.4753 27.5635L40.1353 33.9035C39.9353 34.1035 39.6854 34.1935 39.4254 34.1935Z" fill="#1DB8D9"/>
</svg>
