<svg width="63" height="62" viewBox="0 0 63 62" fill="none" xmlns="http://www.w3.org/2000/svg">
<path d="M19.9995 61.9365H16.2795C15.2195 61.9365 14.3495 61.0665 14.3495 60.0065V58.9865C14.3495 58.2465 13.8895 57.5865 13.1895 57.3165C12.8595 57.1865 12.6195 57.0765 12.3695 56.9665C11.7095 56.6665 10.8795 56.8065 10.3595 57.3265L9.62952 58.0565C8.90952 58.7665 7.60947 58.7765 6.88947 58.0565L4.25946 55.4265C3.50946 54.6765 3.50946 53.4465 4.25946 52.6965L4.9895 51.9665C5.5095 51.4465 5.64948 50.6465 5.33948 49.9665C5.20948 49.6865 5.0895 49.4065 4.9895 49.1265C4.7295 48.4465 4.05947 47.9865 3.32947 47.9865H2.30951C1.24951 47.9865 0.379517 47.1165 0.379517 46.0565V42.3365C0.379517 41.2765 1.24951 40.4065 2.30951 40.4065H3.31952C4.05952 40.4065 4.7195 39.9465 4.9895 39.2465C5.1095 38.9465 5.21948 38.6865 5.33948 38.4265C5.63948 37.7565 5.49949 36.9565 4.97949 36.4265L4.24951 35.6965C3.88951 35.3465 3.68951 34.8465 3.68951 34.3265C3.68951 33.8065 3.88951 33.3165 4.24951 32.9565L6.87952 30.3265C7.60952 29.5965 8.8795 29.5965 9.6095 30.3265L10.3395 31.0565C10.8495 31.5665 11.6595 31.7165 12.3395 31.4065C12.6195 31.2865 12.8995 31.1565 13.1695 31.0565C13.8495 30.7965 14.3095 30.1265 14.3095 29.3965V28.3765C14.3095 27.3165 15.1795 26.4465 16.2395 26.4465H19.9595C21.0195 26.4465 21.8895 27.3165 21.8895 28.3765V29.3965C21.8895 30.1365 22.3495 30.7965 23.0495 31.0665C23.3395 31.1865 23.5995 31.2965 23.8695 31.4165C24.5395 31.7165 25.3595 31.5765 25.8795 31.0565L26.6095 30.3265C27.3395 29.5965 28.6095 29.5965 29.3395 30.3265L31.9695 32.9565C32.3295 33.3165 32.5295 33.8065 32.5295 34.3165C32.5295 34.8265 32.3295 35.3165 31.9695 35.6765L31.2395 36.4065C30.7195 36.9265 30.5795 37.7265 30.8895 38.4065C31.0195 38.6865 31.1395 38.9665 31.2395 39.2465C31.4995 39.9265 32.1695 40.3865 32.8995 40.3865H33.9195C34.9795 40.3865 35.8495 41.2565 35.8495 42.3165V46.0365C35.8495 47.0965 34.9795 47.9665 33.9195 47.9665C33.8695 47.9665 33.8195 47.9665 33.7695 47.9565H32.9195C32.1795 47.9565 31.5195 48.4165 31.2495 49.1165C31.1295 49.3965 31.0195 49.6665 30.8995 49.9365C30.5995 50.6165 30.7395 51.4165 31.2595 51.9465L31.9895 52.6765C32.3495 53.0365 32.5495 53.5365 32.5495 54.0465C32.5495 54.5565 32.3495 55.0565 31.9895 55.4165L29.3695 58.0465C28.6395 58.7765 27.3695 58.7765 26.6395 58.0465L25.9095 57.3165C25.3995 56.8065 24.5895 56.6565 23.9095 56.9665C23.6195 57.0965 23.3495 57.2165 23.0795 57.3165C22.3995 57.5765 21.9295 58.2465 21.9295 58.9865V60.0065C21.9295 61.0665 21.0595 61.9365 19.9995 61.9365ZM11.6195 54.8065C12.1595 54.8065 12.6895 54.9165 13.1895 55.1465C13.4195 55.2465 13.6395 55.3465 13.8695 55.4365C15.3795 56.0165 16.3295 57.4065 16.3495 58.9765V60.0065L19.9295 59.9365V58.9865C19.9295 57.4165 20.9195 55.9965 22.3795 55.4465C22.6195 55.3565 22.8395 55.2565 23.0695 55.1565C24.5395 54.4965 26.2295 54.8265 27.3195 55.9165L27.9995 56.5965L30.5795 54.0165L29.8495 53.3765C28.7495 52.2565 28.4495 50.5565 29.0895 49.1265C29.1995 48.8765 29.2995 48.6365 29.3995 48.3965C29.9595 46.9465 31.3495 45.9865 32.9195 45.9765H33.9295L33.8595 42.3365L32.9095 42.4065C31.3395 42.4065 29.9195 41.4265 29.3695 39.9565C29.2795 39.7165 29.1695 39.4865 29.0695 39.2465C28.4195 37.8165 28.7295 36.1165 29.8295 35.0065L30.5095 34.3265L27.9795 31.7965L27.2995 32.4765C26.1895 33.5665 24.4695 33.8765 23.0495 33.2365C22.7995 33.1265 22.5595 33.0265 22.3195 32.9265C20.8695 32.3665 19.9095 30.9765 19.8995 29.4065V28.3765L16.2495 28.4465L16.3195 29.3965C16.3195 30.9665 15.3395 32.3865 13.8695 32.9365C13.6295 33.0265 13.3995 33.1265 13.1595 33.2365C11.7295 33.8865 10.0195 33.5665 8.91949 32.4765L8.2395 31.7965L5.65948 34.3765L6.38947 35.0165C7.48947 36.1365 7.79948 37.8365 7.14948 39.2565C7.03947 39.4965 6.94949 39.7265 6.84949 39.9665C6.27949 41.4365 4.88952 42.3965 3.31952 42.4165H2.2995L2.36951 46.0665L3.31952 45.9965C4.88952 45.9965 6.3095 46.9765 6.8595 48.4465C6.9495 48.6865 7.05948 48.9165 7.15948 49.1565C7.80948 50.5865 7.49948 52.2865 6.39948 53.3965L5.71948 54.0765L8.2995 56.6565L8.93951 55.9265C9.65951 55.2165 10.6095 54.8265 11.6195 54.8265V54.8065ZM18.1495 53.5365C18.0495 53.5365 17.9395 53.5365 17.8495 53.5165C17.8095 53.5165 17.7695 53.5165 17.7295 53.5165H17.5295C17.3295 53.4965 17.1295 53.4865 16.9295 53.4565C16.5795 53.4065 16.2195 53.3465 15.8595 53.2465C15.8595 53.2465 15.8295 53.2465 15.8095 53.2365C11.6695 52.1665 8.77948 48.4365 8.77948 44.1665C8.77948 39.8965 11.6695 36.1665 15.8095 35.0865C16.1795 34.9965 16.4995 34.9365 16.8595 34.8965L17.1795 34.8565C17.4095 34.8265 17.6495 34.8165 17.8795 34.8165C18.0195 34.8165 18.0895 34.8065 18.1595 34.8065C20.1895 34.8065 22.1195 35.4465 23.7495 36.6665L24.2695 37.0765C24.4295 37.2065 24.5295 37.3065 24.6395 37.4065C24.6995 37.4565 24.8095 37.5565 24.9095 37.6765C25.0195 37.7765 25.1595 37.9465 25.3095 38.1265C25.3295 38.1565 25.3595 38.1865 25.3795 38.2165C25.7495 38.6565 26.0595 39.1065 26.3295 39.5865C26.3295 39.6065 26.3795 39.6865 26.3895 39.7065C26.5595 40.0265 26.7095 40.3465 26.8395 40.6665L26.9795 41.0565C27.0595 41.2765 27.1295 41.5065 27.1895 41.7465C27.2295 41.8565 27.2695 42.0265 27.3095 42.2065C27.3695 42.4765 27.3995 42.7365 27.4395 42.9965C27.4695 43.2865 27.4995 43.5465 27.4995 43.7965C27.5195 43.9765 27.5195 44.0765 27.5195 44.1665C27.5195 44.2365 27.5195 44.2965 27.4995 44.3665C27.4995 44.5365 27.4895 44.7265 27.4695 44.8965C27.4595 45.0665 27.4395 45.2365 27.4195 45.4065L27.4095 45.5065C27.1895 47.0065 26.6695 48.4265 25.8695 49.7165C25.6595 50.0565 25.4295 50.3265 25.1795 50.5465C24.4295 51.2665 23.5495 51.8965 22.6095 52.3965C22.4395 52.4765 22.3095 52.5465 22.1695 52.6065C21.9795 52.6965 21.8195 52.7765 21.6795 52.8265C21.5295 52.8865 21.3895 52.9365 21.2395 52.9865C21.1095 53.0365 20.9595 53.0865 20.7995 53.1265C20.6295 53.1765 20.4395 53.2265 20.2595 53.2665C20.1395 53.2965 20.0295 53.3265 19.9095 53.3365C19.7195 53.3765 19.4495 53.4165 19.1995 53.4465C19.1995 53.4465 19.1995 53.4465 19.1895 53.4465C19.1295 53.4465 19.0495 53.4665 18.9995 53.4665C18.7495 53.4865 18.4595 53.5165 18.1695 53.5165L18.1495 53.5365ZM17.7895 51.5165C17.7895 51.5165 17.9195 51.5165 18.0095 51.5265C18.2695 51.5465 18.5695 51.5265 18.8595 51.4965C18.8995 51.4965 18.9395 51.4865 18.9795 51.4865C19.1595 51.4665 19.3595 51.4365 19.5495 51.3965C19.6495 51.3865 19.6795 51.3665 19.7195 51.3665C19.9395 51.3165 20.0795 51.2765 20.2195 51.2365C20.3295 51.2065 20.4295 51.1665 20.5395 51.1265C20.6995 51.0765 20.8095 51.0265 20.9295 50.9865C20.9995 50.9565 21.0995 50.9165 21.1895 50.8665C21.1895 50.8665 21.2795 50.8265 21.2895 50.8165C21.4095 50.7665 21.5295 50.7065 21.6495 50.6465C22.4195 50.2365 23.1395 49.7165 23.7895 49.0965C23.9195 48.9765 24.0295 48.8465 24.1295 48.6865C24.7795 47.6365 25.1995 46.4765 25.3795 45.2465C25.3995 45.0465 25.4195 44.9165 25.4295 44.7865C25.4395 44.6365 25.4495 44.4865 25.4495 44.3465C25.4495 44.2665 25.4495 44.1865 25.4695 44.1265C25.4595 43.9865 25.4495 43.9065 25.4495 43.8165C25.4495 43.6365 25.4295 43.4465 25.4095 43.2665C25.3795 43.0765 25.3495 42.8565 25.3095 42.6465C25.2895 42.5465 25.2595 42.4165 25.2195 42.2965C25.1695 42.0665 25.1195 41.9265 25.0595 41.7765L24.9195 41.3765C24.8295 41.1365 24.7095 40.8865 24.5795 40.6465C24.5795 40.6465 24.5295 40.5565 24.5295 40.5465C24.3395 40.2265 24.1095 39.8765 23.8395 39.5465C23.7895 39.4965 23.7495 39.4465 23.7195 39.3965C23.6195 39.2765 23.5195 39.1565 23.4095 39.0465C23.3195 38.9465 23.2895 38.9165 23.2495 38.8765C23.1195 38.7465 23.0495 38.6865 22.9795 38.6265L22.5095 38.2565C21.2495 37.3065 19.7295 36.8065 18.1295 36.8065H18.0495C17.8195 36.8265 17.5995 36.8165 17.3695 36.8465L17.0495 36.8865C16.7795 36.9165 16.5195 36.9665 16.2595 37.0265C13.0295 37.8665 10.7595 40.8065 10.7595 44.1665C10.7595 47.5265 13.0295 50.4565 16.2895 51.2965C16.2895 51.2965 16.2995 51.2965 16.3095 51.2965C16.3095 51.2965 16.3195 51.2965 16.3295 51.2965C16.6195 51.3665 16.9095 51.4165 17.1995 51.4665C17.3395 51.4865 17.4595 51.4865 17.5795 51.4965H17.7595C17.7595 51.4965 17.7595 51.4965 17.7695 51.4965L17.7895 51.5165Z" fill="#001C43"/>
<path d="M48.5295 59.6265C47.9395 59.6265 47.3595 59.4065 46.9095 58.9765L37.6095 49.9565C37.4195 49.7665 37.3095 49.5065 37.3095 49.2365V47.1365C37.3095 46.7865 37.4895 46.3965 37.7895 46.2165C38.7695 45.6265 39.6695 44.9265 40.4795 44.1365C40.8795 43.7565 41.2195 43.3865 41.5295 43.0165C41.6395 42.8965 41.7095 42.8065 41.7695 42.7065L41.8895 42.5465C42.1195 42.2665 42.2995 42.0165 42.4795 41.7665C42.5795 41.6165 42.6895 41.4465 42.7895 41.2765C42.9695 40.9865 43.1295 40.7265 43.2895 40.4565L43.6195 39.7765C43.7395 39.5365 43.8495 39.3065 43.9595 39.0665C44.0095 38.9665 44.0195 38.9265 44.0295 38.8965L44.0895 38.7365C44.2295 38.3965 44.3795 38.0265 44.4895 37.6465L44.5295 37.4765C45.3595 34.6865 45.3595 31.7665 44.5295 28.9965L44.4695 28.7565C44.3695 28.4565 44.2195 28.0765 44.0795 27.7065L43.9295 27.3265C43.8095 27.0565 43.6595 26.7465 43.4995 26.4465L43.3995 26.2365C43.3695 26.1565 43.3395 26.0865 43.2895 26.0065C43.1095 25.6865 42.9695 25.4465 42.7995 25.1965C42.7295 25.0965 42.6595 24.9865 42.5995 24.8765C42.5495 24.7965 42.5095 24.7165 42.4495 24.6365C42.2795 24.3965 42.0895 24.1565 41.8895 23.8965C41.7395 23.6965 41.6295 23.5465 41.5095 23.4065C40.8495 22.6265 40.1095 21.8965 39.2995 21.2665C39.1695 21.1565 39.0695 21.0865 38.9695 21.0265L38.8195 20.9265C38.5295 20.7065 38.2695 20.5265 38.0195 20.3465C37.8695 20.2465 37.6895 20.1465 37.5195 20.0565C37.2095 19.8665 36.9395 19.7165 36.6595 19.5665L35.9495 19.2465C35.7095 19.1365 35.4695 19.0165 35.2195 18.9165C35.1195 18.8765 35.0795 18.8565 35.0395 18.8465L34.8695 18.7865C34.5195 18.6565 34.1395 18.5065 33.7495 18.4065L33.5795 18.3665C30.6795 17.5465 27.6495 17.5565 24.7795 18.3665L24.5595 18.4165C24.2195 18.5265 23.8195 18.6565 23.4495 18.7965L23.0595 18.9365C22.7795 19.0565 22.4495 19.2065 22.1395 19.3565L21.9295 19.4465C21.8495 19.4865 21.7595 19.5165 21.6795 19.5565C21.3495 19.7165 21.0895 19.8765 20.8495 20.0265C20.7495 20.0965 20.6295 20.1565 20.5095 20.2265C20.4295 20.2665 20.3495 20.3165 20.2695 20.3665C20.0195 20.5365 19.7695 20.7165 19.5095 20.9165C19.3195 21.0465 19.1595 21.1665 19.0095 21.2865C18.5495 21.6665 18.1695 21.9965 17.8595 22.3065C17.0495 23.0965 16.3295 23.9665 15.7195 24.9165C15.5395 25.2065 15.2195 25.3765 14.8795 25.3765H12.6295C12.3695 25.3765 12.1195 25.2765 11.9295 25.0965L2.62952 16.0765C2.18952 15.6465 1.94946 15.0765 1.94946 14.4665C1.94946 13.8565 2.18952 13.2865 2.62952 12.8565L8.11951 7.5065C9.00951 6.6365 10.4595 6.6365 11.3595 7.5065L14.2795 10.3165C15.1595 11.1865 16.4995 11.3965 17.6295 10.8465C18.6295 10.3565 19.9995 9.79648 21.1995 9.39648C22.3695 9.00648 23.1595 7.95649 23.1595 6.77649V2.79651C23.1595 2.24651 23.6095 1.79651 24.1595 1.79651C24.7095 1.79651 25.1595 2.24651 25.1595 2.79651V6.77649C25.1595 8.82649 23.8195 10.6365 21.8295 11.2965C20.7095 11.6665 19.4395 12.1865 18.5095 12.6365C16.6195 13.5565 14.3595 13.1965 12.8895 11.7365L9.97949 8.92648C9.85949 8.80648 9.64948 8.80648 9.52948 8.92648L4.03949 14.2765C3.97949 14.3365 3.95947 14.4065 3.95947 14.4565C3.95947 14.5065 3.96949 14.5765 4.03949 14.6365L13.0495 23.3765H14.3595C14.9795 22.4765 15.6895 21.6365 16.4795 20.8765C16.8395 20.5265 17.2495 20.1665 17.7795 19.7265C17.9795 19.5765 18.1695 19.4365 18.3595 19.3065C18.6295 19.1065 18.8995 18.9065 19.1895 18.7165C19.3195 18.6265 19.4395 18.5665 19.5495 18.5065C19.6295 18.4565 19.7095 18.4165 19.7995 18.3565C20.1195 18.1565 20.4495 17.9665 20.7795 17.8065C20.8595 17.7565 21.0295 17.6865 21.1995 17.6165L21.3295 17.5565C21.6395 17.4065 21.9995 17.2365 22.3595 17.0865L22.7895 16.9265C23.1995 16.7765 23.6195 16.6265 24.0495 16.4965L24.3095 16.4265C27.4995 15.5265 30.8995 15.5365 34.1195 16.4265L34.2895 16.4665C34.7895 16.5965 35.2395 16.7665 35.6095 16.9165L35.6895 16.9465C35.8195 16.9865 35.9495 17.0365 36.0795 17.0965C36.2995 17.1865 36.5695 17.3065 36.8395 17.4365L37.5795 17.7765C37.9595 17.9765 38.2395 18.1365 38.5495 18.3165C38.7595 18.4365 38.9595 18.5465 39.1695 18.6865C39.4895 18.9065 39.7795 19.1065 40.0595 19.3265L40.1395 19.3765C40.3095 19.4865 40.4695 19.5965 40.6195 19.7365C41.4995 20.4265 42.3495 21.2465 43.0895 22.1365C43.2195 22.2965 43.3595 22.4765 43.4895 22.6465C43.7195 22.9465 43.9295 23.2065 44.1295 23.4865C44.2195 23.6165 44.2895 23.7365 44.3595 23.8465C44.4095 23.9265 44.4495 23.9965 44.4995 24.0765C44.6995 24.3765 44.8795 24.6765 45.0595 25.0065C45.1195 25.1065 45.1995 25.2665 45.2695 25.4265L45.3295 25.5665C45.4895 25.8665 45.6595 26.2165 45.8095 26.5665L45.9695 26.9865C46.1195 27.3765 46.2695 27.7965 46.4095 28.2065L46.4795 28.4565C47.4095 31.5765 47.4095 34.8965 46.4795 38.0265L46.4395 38.1665C46.2895 38.6765 46.1195 39.1165 45.9695 39.4765C45.8995 39.6765 45.8495 39.8065 45.7895 39.9365C45.6995 40.1465 45.5695 40.4065 45.4395 40.6765L45.0895 41.3865C44.8795 41.7565 44.7095 42.0365 44.5195 42.3365C44.4095 42.5265 44.2795 42.7265 44.1395 42.9365C43.9195 43.2465 43.7095 43.5265 43.4795 43.7965L43.4195 43.8865C43.3095 44.0465 43.1895 44.1965 43.0595 44.3465C42.7395 44.7365 42.3495 45.1465 41.8995 45.5865C41.1195 46.3465 40.2595 47.0365 39.3395 47.6365V48.8265L48.3395 57.5565C48.4595 57.6665 48.6695 57.6765 48.7895 57.5565L54.3295 52.1965C54.3895 52.1365 54.3995 52.0665 54.3995 52.0265C54.3995 51.9865 54.3895 51.9065 54.3195 51.8465L51.4195 49.0165C49.9095 47.5765 49.5395 45.3565 50.4995 43.4965C50.9695 42.5965 51.3995 41.5965 51.7795 40.5265C52.4595 38.5965 54.3195 37.2965 56.4095 37.2965H60.4695C60.6295 37.2965 60.7695 37.1765 60.7695 37.0365V29.4565C60.7695 29.3065 60.6295 29.1765 60.4695 29.1765H56.3595C54.2495 29.1765 52.3895 27.8765 51.7295 25.9365C51.3595 24.8765 50.9295 23.8765 50.4495 22.9765C49.4995 21.1265 49.8695 18.9065 51.3695 17.4465L54.2695 14.6165C54.3295 14.5565 54.3495 14.4865 54.3495 14.4365C54.3495 14.3865 54.3395 14.3165 54.2695 14.2565L48.7295 8.88651C48.6095 8.7765 48.3995 8.7765 48.2795 8.88651L45.3595 11.6965C43.8895 13.1365 41.6295 13.5065 39.7495 12.5865C39.1495 12.2965 38.5395 12.1165 37.8895 11.9365C37.5195 11.8365 37.1495 11.7265 36.7695 11.5965C36.2495 11.4265 35.9595 10.8565 36.1395 10.3265C36.3095 9.80651 36.8795 9.5265 37.4095 9.6965C37.7595 9.8165 38.1095 9.9065 38.4395 10.0065C39.1395 10.2065 39.8695 10.4065 40.6295 10.7865C41.7495 11.3265 43.0895 11.1165 43.9695 10.2565L46.8895 7.43649C47.7795 6.57649 49.2295 6.57649 50.1195 7.43649L55.6595 12.8065C56.0995 13.2365 56.3395 13.8065 56.3395 14.4165C56.3395 15.0265 56.0995 15.5965 55.6595 16.0265L52.7595 18.8565C51.8895 19.6965 51.6695 20.9765 52.2195 22.0265C52.7295 23.0065 53.1995 24.0865 53.6095 25.2465C53.9995 26.3865 55.0995 27.1365 56.3495 27.1365H60.4595C61.7295 27.1365 62.7595 28.1565 62.7595 29.4165V36.9965C62.7595 38.2465 61.7295 39.2565 60.4595 39.2565H56.3995C55.1595 39.2565 54.0595 40.0165 53.6595 41.1465C53.2495 42.3065 52.7795 43.3965 52.2695 44.3765C51.7295 45.4365 51.9395 46.7065 52.8095 47.5365L55.7195 50.3665C56.1595 50.7965 56.3995 51.3665 56.3995 51.9765C56.3995 52.5865 56.1595 53.1565 55.7195 53.5865L50.1795 58.9465C49.7295 59.3765 49.1495 59.5965 48.5595 59.5965L48.5295 59.6265Z" fill="#001C43"/>
<path d="M34.8695 10.3365C34.3195 10.3365 33.8695 9.88652 33.8695 9.33652V3.19653C33.8695 2.85653 33.5895 2.57654 33.2495 2.57654H26.7995C26.2495 2.57654 25.7995 2.12654 25.7995 1.57654C25.7995 1.02654 26.2495 0.576538 26.7995 0.576538H33.2495C34.6995 0.576538 35.8695 1.75653 35.8695 3.19653V9.33652C35.8695 9.88652 35.4195 10.3365 34.8695 10.3365Z" fill="#1DB8D9"/>
</svg>
