<svg width="53" height="65" viewBox="0 0 53 65" fill="none" xmlns="http://www.w3.org/2000/svg">
<path d="M32.3701 28.1997C31.8201 28.1997 31.3701 27.7497 31.3701 27.1997V21.7497C31.3701 19.2697 29.3501 17.2497 26.8701 17.2497C24.3901 17.2497 22.3601 19.2697 22.3601 21.7497V27.1997C22.3601 27.7497 21.9101 28.1997 21.3601 28.1997C20.8101 28.1997 20.3601 27.7497 20.3601 27.1997V21.7497C20.3601 18.1597 23.2801 15.2497 26.8701 15.2497C30.4601 15.2497 33.3701 18.1697 33.3701 21.7497V27.1997C33.3701 27.7497 32.9201 28.1997 32.3701 28.1997Z" fill="#001C43"/>
<path d="M33.7101 43.6797H19.4801C18.4301 43.6797 17.5701 42.8197 17.5701 41.7697V28.3697C17.5701 27.3197 18.4301 26.4597 19.4801 26.4597H33.7601C34.7801 26.4597 35.6201 27.2997 35.6201 28.3397V41.7797C35.6201 42.8297 34.7601 43.6897 33.7101 43.6897V43.6797ZM19.5701 41.6797H33.6101V28.4597H19.5701V41.6797Z" fill="#001C43"/>
<path d="M28.9601 34.2297C28.9601 32.9397 27.9101 31.8897 26.6201 31.8897C25.3301 31.8897 24.28 32.9397 24.28 34.2297C24.28 35.0197 24.67 35.7097 25.28 36.1397V38.8697H27.97V36.1397C28.57 35.7197 28.97 35.0197 28.97 34.2297H28.9601Z" fill="#001C43"/>
<path d="M26.1801 64.8397C14.0501 64.8397 0.230042 48.6797 0.230042 34.5097V1.33972C0.230042 0.789722 0.680041 0.339722 1.23004 0.339722C1.78004 0.339722 2.23004 0.789722 2.23004 1.33972V34.5097C2.23004 47.4797 15.2101 62.8397 26.1801 62.8397C37.1501 62.8397 50.28 47.4797 50.28 34.5097V15.9097C50.28 15.3597 50.73 14.9097 51.28 14.9097C51.83 14.9097 52.28 15.3597 52.28 15.9097V34.5097C52.28 48.3997 38.1301 64.8397 26.1801 64.8397Z" fill="#001C43"/>
<path d="M36.38 2.33972H1.24005C0.690051 2.33972 0.240051 1.88972 0.240051 1.33972C0.240051 0.789722 0.690051 0.339722 1.24005 0.339722H36.38C36.93 0.339722 37.38 0.789722 37.38 1.33972C37.38 1.88972 36.93 2.33972 36.38 2.33972Z" fill="#001C43"/>
<path d="M51.28 13.7397C50.73 13.7397 50.28 13.2897 50.28 12.7397V3.2597C50.28 2.7497 49.88 2.33972 49.4 2.33972H39.75C39.2 2.33972 38.75 1.88972 38.75 1.33972C38.75 0.789722 39.2 0.339722 39.75 0.339722H49.4C50.99 0.339722 52.28 1.6497 52.28 3.2597V12.7397C52.28 13.2897 51.83 13.7397 51.28 13.7397Z" fill="#1DB8D9"/>
</svg>
