<svg width="65" height="47" viewBox="0 0 65 47" fill="none" xmlns="http://www.w3.org/2000/svg">
<path d="M59.28 46.1997H5.43005C2.44005 46.1997 0 43.7697 0 40.7697V6.26971C0 3.27971 2.43005 0.839722 5.43005 0.839722H48.2401C48.7901 0.839722 49.2401 1.28972 49.2401 1.83972C49.2401 2.38972 48.7901 2.83972 48.2401 2.83972H5.43005C3.54005 2.83972 2 4.37971 2 6.26971V40.7697C2 42.6597 3.54005 44.1997 5.43005 44.1997H59.28C61.17 44.1997 62.71 42.6597 62.71 40.7697V17.8397C62.71 17.2897 63.16 16.8397 63.71 16.8397C64.26 16.8397 64.71 17.2897 64.71 17.8397V40.7697C64.71 43.7597 62.28 46.1997 59.28 46.1997Z" fill="#001C43"/>
<path d="M63.71 15.3497C63.16 15.3497 62.71 14.8997 62.71 14.3497V3.86969C62.71 3.28969 62.24 2.8197 61.66 2.8197H51.57C51.02 2.8197 50.57 2.3697 50.57 1.8197C50.57 1.2697 51.02 0.819702 51.57 0.819702H61.66C63.34 0.819702 64.71 2.18969 64.71 3.86969V14.3497C64.71 14.8997 64.26 15.3497 63.71 15.3497Z" fill="#1DB8D9"/>
<path d="M17.7401 28.1597H11.51C9.86001 28.1597 8.51001 26.8097 8.51001 25.1597V21.8497C8.51001 20.1997 9.86001 18.8497 11.51 18.8497H17.7401C19.3901 18.8497 20.7401 20.1997 20.7401 21.8497V25.1597C20.7401 26.8097 19.3901 28.1597 17.7401 28.1597ZM11.51 20.8497C10.96 20.8497 10.51 21.2997 10.51 21.8497V25.1597C10.51 25.7097 10.96 26.1597 11.51 26.1597H17.7401C18.2901 26.1597 18.7401 25.7097 18.7401 25.1597V21.8497C18.7401 21.2997 18.2901 20.8497 17.7401 20.8497H11.51Z" fill="#001C43"/>
<path d="M49.52 36.3097H9.51001C8.96001 36.3097 8.51001 35.8597 8.51001 35.3097C8.51001 34.7597 8.96001 34.3097 9.51001 34.3097H49.52C50.07 34.3097 50.52 34.7597 50.52 35.3097C50.52 35.8597 50.07 36.3097 49.52 36.3097Z" fill="#001C43"/>
</svg>
