<svg width="55" height="54" viewBox="0 0 55 54" fill="none" xmlns="http://www.w3.org/2000/svg">
<path d="M12.8395 26.2366H1.81946C1.26946 26.2366 0.819458 25.7866 0.819458 25.2366C0.819458 11.6366 11.8795 0.576538 25.4795 0.576538C26.0295 0.576538 26.4795 1.02654 26.4795 1.57654V12.2866C26.4795 12.8366 26.0295 13.2866 25.4795 13.2866C24.9295 13.2866 24.4795 12.8366 24.4795 12.2866V2.60657C12.7795 3.11657 3.34946 12.5466 2.83946 24.2466H12.8295C13.3795 24.2466 13.8295 24.6966 13.8295 25.2466C13.8295 25.7966 13.3795 26.2466 12.8295 26.2466L12.8395 26.2366Z" fill="#001C43"/>
<path d="M23.8194 26.2366H15.6194C15.0694 26.2366 14.6194 25.7866 14.6194 25.2366C14.6194 24.6866 15.0694 24.2366 15.6194 24.2366H23.8194C24.1894 24.2366 24.4794 23.9365 24.4794 23.5765V15.0566C24.4794 14.5066 24.9294 14.0566 25.4794 14.0566C26.0294 14.0566 26.4794 14.5066 26.4794 15.0566V23.5765C26.4794 25.0465 25.2794 26.2366 23.8194 26.2366Z" fill="#1DB8D9"/>
<path d="M29.6895 53.8066C16.0895 53.8066 5.02948 42.7465 5.02948 29.1365C5.02948 28.5865 5.47948 28.1365 6.02948 28.1365H28.6895V5.46655C28.6895 4.91655 29.1395 4.46655 29.6895 4.46655C43.2895 4.46655 54.3495 15.5265 54.3495 29.1365C54.3495 42.7465 43.2895 53.8066 29.6895 53.8066ZM7.04948 30.1365C7.56948 42.1765 17.5295 51.8066 29.6895 51.8066C41.8495 51.8066 52.3495 41.6365 52.3495 29.1365C52.3495 16.6365 42.7195 7.01658 30.6895 6.49658V29.1365C30.6895 29.6865 30.2395 30.1365 29.6895 30.1365H7.04948Z" fill="#001C43"/>
</svg>
