<svg width="77" height="72" viewBox="0 0 77 72" fill="none" xmlns="http://www.w3.org/2000/svg">
<path d="M30.8642 71.82C14.0742 71.82 0.404175 58.16 0.404175 41.36C0.404175 24.56 14.0642 10.9 30.8642 10.9C47.6642 10.9 61.3242 24.56 61.3242 41.36C61.3242 58.16 47.6642 71.82 30.8642 71.82ZM30.8642 12.91C15.1742 12.91 2.40417 25.6801 2.40417 41.3701C2.40417 57.0601 15.1742 69.83 30.8642 69.83C46.5542 69.83 59.3242 57.0601 59.3242 41.3701C59.3242 25.6801 46.5542 12.91 30.8642 12.91Z" fill="#001C43"/>
<path d="M30.8642 61.17C19.9442 61.17 11.0642 52.29 11.0642 41.37C11.0642 30.45 19.9442 21.5699 30.8642 21.5699C41.7842 21.5699 50.6642 30.45 50.6642 41.37C50.6642 52.29 41.7842 61.17 30.8642 61.17ZM30.8642 23.5699C21.0442 23.5699 13.0642 31.56 13.0642 41.37C13.0642 51.18 21.0542 59.17 30.8642 59.17C40.6742 59.17 48.6642 51.18 48.6642 41.37C48.6642 31.56 40.6742 23.5699 30.8642 23.5699Z" fill="#001C43"/>
<path d="M30.8642 51.73C25.1542 51.73 20.5042 47.0801 20.5042 41.3701C20.5042 35.6601 25.1542 31.01 30.8642 31.01C36.5742 31.01 41.2242 35.6601 41.2242 41.3701C41.2242 47.0801 36.5742 51.73 30.8642 51.73ZM30.8642 33.01C26.2542 33.01 22.5042 36.7601 22.5042 41.3701C22.5042 45.9801 26.2542 49.73 30.8642 49.73C35.4742 49.73 39.2242 45.9801 39.2242 41.3701C39.2242 36.7601 35.4742 33.01 30.8642 33.01Z" fill="#001C43"/>
<path d="M30.8342 42.47C30.5542 42.47 30.2842 42.35 30.0842 42.13C29.7242 41.71 29.7642 41.08 30.1742 40.72L64.9542 10.31C65.3642 9.95003 65.9942 9.99 66.3642 10.4C66.7242 10.82 66.6842 11.45 66.2742 11.81L31.4942 42.22C31.3042 42.39 31.0742 42.47 30.8342 42.47Z" fill="#001C43"/>
<path d="M64.9742 21.79C64.9742 21.79 64.9342 21.79 64.9142 21.79L56.9342 21.3199C56.2342 21.2799 55.5942 20.9699 55.1242 20.4399C54.6542 19.9199 54.4242 19.24 54.4642 18.54L54.9542 10.24C54.9842 9.68998 55.4342 9.26997 56.0142 9.29997C56.5642 9.32997 56.9842 9.80997 56.9542 10.36L56.4642 18.66C56.4642 18.83 56.5142 18.99 56.6242 19.11C56.7342 19.23 56.8842 19.3099 57.0542 19.3199L65.0342 19.79C65.5842 19.82 66.0042 20.3 65.9742 20.85C65.9442 21.38 65.5042 21.79 64.9742 21.79Z" fill="#1DB8D9"/>
<path d="M66.9742 20.05C66.6942 20.05 66.4141 19.93 66.2141 19.7C65.8541 19.28 65.9042 18.65 66.3242 18.29L72.5841 12.92L67.0742 12.59C65.6342 12.5 64.5242 11.26 64.6142 9.81998L64.9641 3.87003L58.5742 9.32999C58.1542 9.68999 57.5242 9.64001 57.1642 9.22001C56.8042 8.80001 56.8541 8.17003 57.2741 7.81003L65.4542 0.820013C65.7542 0.560013 66.1942 0.499998 66.5442 0.679998C66.9042 0.859998 67.1242 1.23001 67.0942 1.63001L66.6042 9.93003C66.5842 10.27 66.8442 10.57 67.1942 10.59L75.1742 11.06C75.5842 11.08 75.9342 11.35 76.0642 11.74C76.1942 12.13 76.0742 12.55 75.7642 12.82L67.6242 19.8C67.4342 19.96 67.2042 20.04 66.9742 20.04V20.05Z" fill="#001C43"/>
</svg>
