<svg width="59" height="70" viewBox="0 0 59 70" fill="none" xmlns="http://www.w3.org/2000/svg">
<path d="M54.0354 33.7035C53.4054 33.7035 52.9054 33.1934 52.9054 32.5734C52.9054 31.9534 53.4154 31.4435 54.0354 31.4435C55.2354 31.4435 56.2054 30.4635 56.2054 29.2635C56.2054 28.0634 55.2254 27.0935 54.0354 27.0935H52.4554C51.8854 27.0935 51.3954 26.6635 51.3354 26.0935C50.2754 16.9635 43.5454 9.36345 34.6054 7.17345C34.1254 7.05345 33.7854 6.64345 33.7454 6.15345C33.6154 4.34345 32.1054 2.93345 30.3054 2.93345H28.3654C26.5654 2.93345 25.0554 4.34345 24.9254 6.15345C24.8854 6.64345 24.5454 7.05345 24.0654 7.17345C15.1254 9.36345 8.39537 16.9635 7.33537 26.0935C7.26537 26.6635 6.78538 27.0935 6.21538 27.0935H4.63538C3.43538 27.0935 2.46538 28.0735 2.46538 29.2635C2.46538 30.4535 3.44538 31.4435 4.63538 31.4435H35.2554C35.8854 31.4435 36.3854 31.9534 36.3854 32.5734C36.3854 33.1934 35.8754 33.7035 35.2554 33.7035H4.63538C2.18538 33.7035 0.195374 31.7135 0.195374 29.2635C0.195374 26.8134 2.18538 24.8234 4.63538 24.8234H5.22537C6.71537 15.4534 13.6254 7.71345 22.7954 5.16345C23.3654 2.58345 25.6754 0.663452 28.3754 0.663452H30.3154C33.0154 0.663452 35.3154 2.58345 35.8954 5.16345C45.0554 7.71345 51.9654 15.4534 53.4654 24.8234H54.0554C56.5054 24.8234 58.4954 26.8134 58.4954 29.2635C58.4954 31.7135 56.5054 33.7035 54.0554 33.7035H54.0354Z" fill="#001C43"/>
<path d="M29.0254 69.2135C16.1654 69.2135 5.69537 58.7535 5.69537 45.8835V32.5734C5.69537 31.9434 6.20538 31.4435 6.82538 31.4435C7.44538 31.4435 7.95537 31.9534 7.95537 32.5734V45.8835C7.95537 57.4935 17.4054 66.9435 29.0154 66.9435C39.7154 66.9435 48.7154 58.9235 49.9354 48.2935C50.0054 47.6735 50.5754 47.2235 51.1854 47.2935C51.8054 47.3635 52.2554 47.9235 52.1854 48.5435C50.8254 60.3235 40.8654 69.2034 29.0154 69.2034L29.0254 69.2135Z" fill="#001C43"/>
<path d="M52.8654 27.0934H6.21539C5.58539 27.0934 5.08539 26.5834 5.08539 25.9634C5.08539 25.3434 5.59539 24.8334 6.21539 24.8334H52.8654C53.4954 24.8334 53.9954 25.3434 53.9954 25.9634C53.9954 26.5834 53.4854 27.0934 52.8654 27.0934Z" fill="#001C43"/>
<path d="M23.8054 14.3635C23.1754 14.3635 22.6754 13.8535 22.6754 13.2335V6.08346C22.6754 5.45346 23.1854 4.95346 23.8054 4.95346C24.4254 4.95346 24.9354 5.46346 24.9354 6.08346V13.2335C24.9354 13.8635 24.4254 14.3635 23.8054 14.3635Z" fill="#001C43"/>
<path d="M35.0354 13.3934C34.4054 13.3934 33.9054 12.8835 33.9054 12.2635V5.82345C33.9054 5.19345 34.4154 4.69345 35.0354 4.69345C35.6554 4.69345 36.1654 5.20345 36.1654 5.82345V12.2635C36.1654 12.8935 35.6554 13.3934 35.0354 13.3934Z" fill="#001C43"/>
<path d="M51.2154 45.9635C50.5854 45.9635 50.0854 45.4535 50.0854 44.8335V34.6434C50.0854 34.1234 49.6654 33.7035 49.1454 33.7035H38.5554C37.9254 33.7035 37.4254 33.1934 37.4254 32.5734C37.4254 31.9534 37.9354 31.4435 38.5554 31.4435H49.1454C50.9054 31.4435 52.3454 32.8834 52.3454 34.6434V44.8335C52.3454 45.4635 51.8354 45.9635 51.2154 45.9635Z" fill="#1DB8D9"/>
</svg>
