<svg width="53" height="32" viewBox="0 0 53 32" fill="none" xmlns="http://www.w3.org/2000/svg">
<path d="M36.6014 31.629C36.2114 31.629 35.8115 31.549 35.4415 31.369C34.4615 30.909 33.8315 29.899 33.8315 28.799V23.479H1.92145C1.37145 23.479 0.921448 23.029 0.921448 22.479C0.921448 21.929 1.37145 21.479 1.92145 21.479H34.8315C35.3815 21.479 35.8315 21.929 35.8315 22.479V28.799C35.8315 29.129 36.0114 29.429 36.2914 29.559C36.5614 29.689 36.8615 29.639 37.0815 29.439L41.6014 25.349C42.0114 24.979 42.6415 25.009 43.0115 25.419C43.3815 25.829 43.3515 26.459 42.9415 26.829L38.4214 30.909C37.9114 31.379 37.2614 31.619 36.5914 31.619L36.6014 31.629Z" fill="#001C43"/>
<path d="M34.8315 10.489H1.92145C1.37145 10.489 0.921448 10.039 0.921448 9.48904C0.921448 8.93904 1.37145 8.48904 1.92145 8.48904H33.8315V3.16903C33.8315 2.06903 34.4615 1.05902 35.4415 0.599024C36.4315 0.129024 37.6015 0.309036 38.4315 1.04904L42.7814 4.90902C43.1914 5.27902 43.2314 5.90906 42.8615 6.31906C42.4915 6.72906 41.8615 6.76901 41.4515 6.39901L37.1014 2.52902C36.8714 2.31902 36.5615 2.26901 36.3015 2.39901C36.0215 2.52901 35.8414 2.82902 35.8414 3.15902V9.47903C35.8414 10.029 35.3914 10.479 34.8414 10.479L34.8315 10.489Z" fill="#001C43"/>
<path d="M44.5215 25.069C44.2615 25.069 44.0115 24.969 43.8115 24.779C43.4215 24.389 43.4215 23.759 43.8115 23.369L50.5115 16.669C50.6915 16.489 50.7915 16.2591 50.7915 16.0091C50.7915 15.7691 50.7015 15.5491 50.5415 15.3891L43.7215 8.56905C43.3315 8.17905 43.3315 7.54902 43.7215 7.15902C44.1115 6.76902 44.7415 6.76902 45.1315 7.15902L51.9515 13.979C52.5015 14.529 52.7915 15.259 52.7915 16.039C52.7915 16.809 52.4815 17.539 51.9315 18.089L45.2315 24.789C45.0315 24.989 44.7815 25.0791 44.5215 25.0791V25.069Z" fill="#1DB8D9"/>
</svg>
