<svg width="75" height="71" viewBox="0 0 75 71" fill="none" xmlns="http://www.w3.org/2000/svg">
<path d="M32.9495 70.3149C14.9695 70.3149 0.339478 55.6849 0.339478 37.7049C0.339478 19.7249 14.9695 5.0849 32.9495 5.0849C50.9295 5.0849 65.5695 19.7149 65.5695 37.7049C65.5695 55.6949 50.9395 70.3149 32.9495 70.3149ZM32.9495 7.0849C16.0695 7.0849 2.33948 20.8149 2.33948 37.7049C2.33948 54.5949 16.0695 68.3149 32.9495 68.3149C49.8295 68.3149 63.5695 54.5849 63.5695 37.7049C63.5695 20.8249 49.8395 7.0849 32.9495 7.0849Z" fill="#001C43"/>
<path d="M32.9495 58.8849C21.2695 58.8849 11.7695 49.3849 11.7695 37.7049C11.7695 26.0249 21.2695 16.5249 32.9495 16.5249C44.6295 16.5249 54.1295 26.0249 54.1295 37.7049C54.1295 49.3849 44.6295 58.8849 32.9495 58.8849ZM32.9495 18.5249C22.3695 18.5249 13.7695 27.1249 13.7695 37.7049C13.7695 48.2849 22.3695 56.8849 32.9495 56.8849C43.5295 56.8849 52.1295 48.2849 52.1295 37.7049C52.1295 27.1249 43.5295 18.5249 32.9495 18.5249Z" fill="#001C43"/>
<path d="M32.9495 48.7449C26.8595 48.7449 21.8995 43.7849 21.8995 37.6949C21.8995 31.6049 26.8595 26.6449 32.9495 26.6449C39.0395 26.6449 43.9995 31.6049 43.9995 37.6949C43.9995 43.7849 39.0395 48.7449 32.9495 48.7449ZM32.9495 28.6549C27.9595 28.6549 23.8995 32.7149 23.8995 37.7049C23.8995 42.6949 27.9595 46.7549 32.9495 46.7549C37.9395 46.7549 41.9995 42.6949 41.9995 37.7049C41.9995 32.7149 37.9395 28.6549 32.9495 28.6549Z" fill="#001C43"/>
<path d="M32.9095 38.8149C32.6295 38.8149 32.3595 38.6949 32.1595 38.4749C31.7995 38.0549 31.8395 37.4249 32.2495 37.0649L66.8995 6.75489C67.3095 6.39489 67.9395 6.43491 68.3095 6.84491C68.6695 7.25491 68.6295 7.89489 68.2195 8.25489L33.5695 38.5649C33.3795 38.7349 33.1495 38.8149 32.9095 38.8149Z" fill="#001C43"/>
<path d="M39.7795 40.0049H33.1995C31.9095 40.0049 30.8595 38.9549 30.8595 37.6649V30.8249C30.8595 30.2749 31.3095 29.8249 31.8595 29.8249C32.4095 29.8249 32.8595 30.2749 32.8595 30.8249V37.6649C32.8595 37.8549 33.0095 38.0049 33.1995 38.0049H39.7795C40.3295 38.0049 40.7795 38.4549 40.7795 39.0049C40.7795 39.5549 40.3295 40.0049 39.7795 40.0049Z" fill="#1DB8D9"/>
<path d="M65.2995 16.7349C65.2295 16.7349 65.1595 16.7349 65.0995 16.7149L59.3995 15.5349C58.9695 15.4449 58.6395 15.0749 58.6095 14.6349L58.1195 8.7649C58.0895 8.4449 58.2195 8.14488 58.4595 7.93488L66.5695 0.824894C66.8495 0.574894 67.2495 0.504911 67.5995 0.654911C67.9495 0.794911 68.1895 1.12494 68.2195 1.49494L68.6395 6.62488L73.6095 7.65491C73.9795 7.73491 74.2795 8.01488 74.3695 8.37488C74.4695 8.74488 74.3495 9.13489 74.0595 9.38489L65.9495 16.4949C65.7695 16.6549 65.5295 16.7449 65.2895 16.7449L65.2995 16.7349ZM60.5295 13.7249L65.0095 14.6549L71.2295 9.19489L67.4995 8.42493C67.0695 8.33493 66.7395 7.96491 66.7095 7.52491L66.3895 3.63489L60.1495 9.10492L60.5295 13.7249Z" fill="#001C43"/>
</svg>
