<svg width="59" height="55" viewBox="0 0 59 55" fill="none" xmlns="http://www.w3.org/2000/svg">
<path d="M57.9836 12.014C57.4336 12.014 56.9836 11.564 56.9836 11.014V2.51401C56.9836 2.22401 56.7536 1.99402 56.4636 1.99402H47.6736C47.1236 1.99402 46.6736 1.54402 46.6736 0.994019C46.6736 0.444019 47.1236 -0.00598145 47.6736 -0.00598145H56.4636C57.8536 -0.00598145 58.9836 1.12401 58.9836 2.51401V11.014C58.9836 11.564 58.5336 12.014 57.9836 12.014Z" fill="#1DB8D9"/>
<path d="M38.8536 36.804C35.5636 36.804 29.4636 34.5341 23.0936 28.1241C15.2936 20.2741 12.8536 11.7941 15.5336 9.09406C15.7036 8.91406 15.8836 8.73406 16.0636 8.53406C17.1636 7.36406 18.5436 5.91406 20.3736 5.91406C21.7336 5.91406 23.0236 6.70406 24.3136 8.31406C27.7236 12.5741 26.4836 14.394 24.3736 16.484L24.0636 16.7941C24.0636 16.7941 23.4036 17.904 28.3236 22.864C33.1436 27.714 34.2536 27.224 34.3336 27.144L34.6436 26.8241C35.6436 25.8041 36.6736 24.744 38.2836 24.744C39.5536 24.744 40.9836 25.4241 42.7836 26.8741C44.3336 28.1241 45.1136 29.3741 45.1636 30.6941C45.2436 32.6041 43.7636 34.0241 42.5636 35.1641C42.3736 35.3441 42.1836 35.524 42.0136 35.704C41.3136 36.404 40.2136 36.7841 38.8436 36.7841L38.8536 36.804ZM20.3836 7.92404C19.4036 7.92404 18.4036 8.98406 17.5236 9.91406C17.3336 10.1241 17.1436 10.3241 16.9536 10.5041C15.4436 12.0241 17.1736 19.3241 24.5136 26.7141C30.0736 32.3041 35.7136 34.804 38.8536 34.804C39.6736 34.804 40.2936 34.6341 40.6036 34.3141C40.7936 34.1241 40.9936 33.934 41.1936 33.744C42.1436 32.834 43.2136 31.8041 43.1736 30.7941C43.1436 30.0941 42.5936 29.3041 41.5336 28.4441C40.1436 27.3241 39.0536 26.7541 38.2936 26.7541C37.5336 26.7541 37.0036 27.284 36.0836 28.234L35.7636 28.5641C35.3536 28.9741 34.8136 29.1941 34.1936 29.1941C33.1636 29.1941 31.2936 28.6841 26.9136 24.2841C23.8636 21.2141 20.6336 17.434 22.6536 15.394L22.9736 15.0741C24.6236 13.4341 25.3136 12.7541 22.7636 9.57407C21.8936 8.47407 21.0836 7.92404 20.3836 7.92404Z" fill="#001C43"/>
<path d="M10.0536 54.7541C9.92362 54.7541 9.7936 54.724 9.6636 54.674C9.2936 54.514 9.05362 54.1541 9.05362 53.7541V44.774H4.68361C2.21361 44.774 0.203613 42.7641 0.203613 40.2941V4.49405C0.203613 2.02405 2.21361 0.0140381 4.68361 0.0140381H44.6136C45.1636 0.0140381 45.6136 0.464038 45.6136 1.01404C45.6136 1.56404 45.1636 2.01404 44.6136 2.01404H4.68361C3.31361 2.01404 2.20361 3.12405 2.20361 4.49405V40.2941C2.20361 41.6641 3.31361 42.774 4.68361 42.774H10.0536C10.6036 42.774 11.0536 43.224 11.0536 43.774V51.364L19.4636 43.0641C19.6536 42.8741 19.9036 42.774 20.1636 42.774H54.5036C55.8736 42.774 56.9836 41.6641 56.9836 40.2941V13.8841C56.9836 13.3341 57.4336 12.8841 57.9836 12.8841C58.5336 12.8841 58.9836 13.3341 58.9836 13.8841V40.2941C58.9836 42.7641 56.9736 44.774 54.5036 44.774H20.5836L10.7636 54.4741C10.5736 54.6641 10.3236 54.764 10.0636 54.764L10.0536 54.7541Z" fill="#001C43"/>
<path d="M11.6236 44.754H6.5636C6.0136 44.754 5.5636 44.304 5.5636 43.754C5.5636 43.204 6.0136 42.754 6.5636 42.754H11.6236C12.1736 42.754 12.6236 43.204 12.6236 43.754C12.6236 44.304 12.1736 44.754 11.6236 44.754Z" fill="#001C43"/>
</svg>
