<svg width="70" height="58" viewBox="0 0 70 58" fill="none" xmlns="http://www.w3.org/2000/svg">
<path d="M66.0435 57.2032H6.2135C2.9035 57.2032 0.213501 54.5132 0.213501 51.2032V19.6432C0.213501 16.3332 2.9035 13.6432 6.2135 13.6432H53.3735C53.9235 13.6432 54.3735 14.0932 54.3735 14.6432C54.3735 15.1932 53.9235 15.6432 53.3735 15.6432H6.2135C4.0035 15.6432 2.2135 17.4332 2.2135 19.6432V51.2032C2.2135 53.4132 4.0035 55.2032 6.2135 55.2032H66.0435C66.4835 55.2032 66.7935 55.1333 66.9235 55.0033C67.2035 54.7132 67.1435 53.6632 67.0935 52.7332C67.0635 52.2532 67.0435 51.7332 67.0435 51.2032V28.7632C67.0435 28.2132 67.4935 27.7632 68.0435 27.7632C68.5935 27.7632 69.0435 28.2132 69.0435 28.7632V51.2032C69.0435 51.7032 69.0735 52.1732 69.0935 52.6232C69.1735 54.0832 69.2435 55.4532 68.3735 56.3732C67.8435 56.9332 67.0835 57.2032 66.0435 57.2032Z" fill="#001C43"/>
<path d="M30.4635 36.3132H6.2135C2.9035 36.3132 0.213501 33.6232 0.213501 30.3132C0.213501 29.7632 0.663501 29.3132 1.2135 29.3132C1.7635 29.3132 2.2135 29.7632 2.2135 30.3132C2.2135 32.5232 4.0035 34.3132 6.2135 34.3132H30.4635C31.0135 34.3132 31.4635 34.7632 31.4635 35.3132C31.4635 35.8632 31.0135 36.3132 30.4635 36.3132Z" fill="#001C43"/>
<path d="M63.0435 36.3132H38.4235C37.8735 36.3132 37.4235 35.8632 37.4235 35.3132C37.4235 34.7632 37.8735 34.3132 38.4235 34.3132H63.0435C65.2535 34.3132 67.0435 32.5232 67.0435 30.3132C67.0435 29.7632 67.4935 29.3132 68.0435 29.3132C68.5935 29.3132 69.0435 29.7632 69.0435 30.3132C69.0435 33.6232 66.3535 36.3132 63.0435 36.3132Z" fill="#001C43"/>
<path d="M47.5235 15.6432C46.9735 15.6432 46.5235 15.1932 46.5235 14.6432V6.43324C46.5235 4.50324 44.9535 2.94324 43.0335 2.94324H26.2235C24.2935 2.94324 22.7335 4.51324 22.7335 6.43324V14.6432C22.7335 15.1932 22.2835 15.6432 21.7335 15.6432C21.1835 15.6432 20.7335 15.1932 20.7335 14.6432V6.43324C20.7335 3.40324 23.1935 0.943237 26.2235 0.943237H43.0335C46.0635 0.943237 48.5235 3.40324 48.5235 6.43324V14.6432C48.5235 15.1932 48.0735 15.6432 47.5235 15.6432Z" fill="#001C43"/>
<path d="M36.4235 41.8432H32.8335C31.1835 41.8432 29.8335 40.4932 29.8335 38.8432V32.3132C29.8335 30.6632 31.1835 29.3132 32.8335 29.3132H36.4235C38.0735 29.3132 39.4235 30.6632 39.4235 32.3132V38.8432C39.4235 40.4932 38.0735 41.8432 36.4235 41.8432ZM32.8335 31.3132C32.2835 31.3132 31.8335 31.7632 31.8335 32.3132V38.8432C31.8335 39.3932 32.2835 39.8432 32.8335 39.8432H36.4235C36.9735 39.8432 37.4235 39.3932 37.4235 38.8432V32.3132C37.4235 31.7632 36.9735 31.3132 36.4235 31.3132H32.8335Z" fill="#001C43"/>
<path d="M68.0435 26.4733C67.4935 26.4733 67.0435 26.0233 67.0435 25.4733V16.4733C67.0435 16.0133 66.6735 15.6432 66.2135 15.6432H56.8635C56.3135 15.6432 55.8635 15.1932 55.8635 14.6432C55.8635 14.0932 56.3135 13.6432 56.8635 13.6432H66.2135C67.7735 13.6432 69.0435 14.9133 69.0435 16.4733V25.4733C69.0435 26.0233 68.5935 26.4733 68.0435 26.4733Z" fill="#1DB8D9"/>
</svg>
