<svg width="76" height="62" viewBox="0 0 76 62" fill="none" xmlns="http://www.w3.org/2000/svg">
<path d="M5.46405 56.0435C4.91405 56.0435 4.46405 55.5935 4.46405 55.0435V35.4435C4.46405 34.8935 4.91405 34.4435 5.46405 34.4435C6.01405 34.4435 6.46405 34.8935 6.46405 35.4435V55.0435C6.46405 55.5935 6.01405 56.0435 5.46405 56.0435Z" fill="#001C43"/>
<path d="M40.244 56.0435C39.694 56.0435 39.244 55.5935 39.244 55.0435V35.4435C39.244 34.8935 39.694 34.4435 40.244 34.4435C40.794 34.4435 41.244 34.8935 41.244 35.4435V55.0435C41.244 55.5935 40.794 56.0435 40.244 56.0435Z" fill="#001C43"/>
<path d="M5.46405 37.5735C4.91405 37.5735 4.46405 37.1235 4.46405 36.5735V13.0334C4.46405 12.4834 4.91405 12.0334 5.46405 12.0334C6.01405 12.0334 6.46405 12.4834 6.46405 13.0334V36.5735C6.46405 37.1235 6.01405 37.5735 5.46405 37.5735Z" fill="#001C43"/>
<path d="M40.244 37.1735C39.694 37.1735 39.244 36.7235 39.244 36.1735V25.8235C39.244 25.2735 39.694 24.8235 40.244 24.8235C40.794 24.8235 41.244 25.2735 41.244 25.8235V36.1735C41.244 36.7235 40.794 37.1735 40.244 37.1735Z" fill="#001C43"/>
<path d="M42.494 13.4335C41.944 13.4335 41.494 12.9835 41.494 12.4335C41.494 11.8835 41.944 11.4335 42.494 11.4335C43.144 11.4335 43.674 10.9035 43.674 10.2535V9.67346C43.674 9.02346 43.144 8.48346 42.494 8.48346H3.21405C2.56405 8.48346 2.03406 9.01346 2.03406 9.67346V10.2535C2.03406 10.9035 2.56405 11.4335 3.21405 11.4335H26.674C27.224 11.4335 27.674 11.8835 27.674 12.4335C27.674 12.9835 27.224 13.4335 26.674 13.4335H3.21405C1.45405 13.4335 0.0340576 12.0035 0.0340576 10.2535V9.67346C0.0340576 7.91346 1.46405 6.48346 3.21405 6.48346H42.494C44.254 6.48346 45.674 7.91346 45.674 9.67346V10.2535C45.674 12.0135 44.244 13.4335 42.494 13.4335Z" fill="#001C43"/>
<path d="M42.374 61.7134H3.33405C1.51405 61.7134 0.0340576 60.2334 0.0340576 58.4134V58.0734C0.0340576 56.2534 1.51405 54.7634 3.33405 54.7634H42.374C44.194 54.7634 45.674 56.2434 45.674 58.0734V58.4134C45.674 60.2334 44.194 61.7134 42.374 61.7134ZM3.33405 56.7634C2.61405 56.7634 2.03406 57.3534 2.03406 58.0734V58.4134C2.03406 59.1334 2.61405 59.7134 3.33405 59.7134H42.374C43.094 59.7134 43.674 59.1234 43.674 58.4134V58.0734C43.674 57.3534 43.094 56.7634 42.374 56.7634H3.33405Z" fill="#001C43"/>
<path d="M40.244 23.6935C39.694 23.6935 39.244 23.2435 39.244 22.6935V14.1635C39.244 13.7635 38.914 13.4335 38.514 13.4335H29.644C29.094 13.4335 28.644 12.9835 28.644 12.4335C28.644 11.8835 29.094 11.4335 29.644 11.4335H38.514C40.024 11.4335 41.244 12.6635 41.244 14.1635V22.6935C41.244 23.2435 40.794 23.6935 40.244 23.6935Z" fill="#1DB8D9"/>
<path d="M41.774 34.7535H3.86401C3.31401 34.7535 2.86401 34.3035 2.86401 33.7535C2.86401 33.2035 3.31401 32.7535 3.86401 32.7535H41.774C42.324 32.7535 42.774 33.2035 42.774 33.7535C42.774 34.3035 42.324 34.7535 41.774 34.7535Z" fill="#001C43"/>
<path d="M15.604 5.11346H9.57404C9.02404 5.11346 8.57404 4.66346 8.57404 4.11346C8.57404 3.56346 9.02404 3.11346 9.57404 3.11346H15.604C16.154 3.11346 16.604 3.56346 16.604 4.11346C16.604 4.66346 16.154 5.11346 15.604 5.11346Z" fill="#001C43"/>
<path d="M61.984 32.8535H60.024C59.214 32.8535 58.554 33.5135 58.554 34.3235V37.5935H55.2841C54.4741 37.5935 53.814 38.2535 53.814 39.0635V41.0235C53.814 41.8335 54.4741 42.4935 55.2841 42.4935H58.554V45.7635C58.554 46.5735 59.214 47.2335 60.024 47.2335H61.984C62.794 47.2335 63.454 46.5735 63.454 45.7635V42.4935H66.724C67.534 42.4935 68.194 41.8335 68.194 41.0235V39.0635C68.194 38.2535 67.534 37.5935 66.724 37.5935H63.454V34.3235C63.454 33.5135 62.794 32.8535 61.984 32.8535ZM66.554 39.2235V40.8535H62.9641C62.3341 40.8535 61.824 41.3635 61.824 41.9935V45.5835H60.194V41.9935C60.194 41.3635 59.684 40.8535 59.054 40.8535H55.4641V39.2235H59.054C59.684 39.2235 60.194 38.7135 60.194 38.0835V34.4935H61.824V38.0835C61.824 38.7135 62.3341 39.2235 62.9641 39.2235H66.554Z" fill="#001C43"/>
<path d="M75.7141 51.2735H48.074V28.8135H73.934V47.7835C73.934 48.2735 74.334 48.6735 74.824 48.6735C75.314 48.6735 75.7141 48.2735 75.7141 47.7835V22.8035C75.7141 21.5335 75.214 20.3235 74.314 19.4335L67.934 13.0835V10.4535C69.024 10.3335 69.884 9.40348 69.884 8.28348V4.41348C69.884 2.49348 68.334 0.943481 66.414 0.943481H55.624C53.704 0.943481 52.134 2.51347 52.134 4.43347V8.29347C52.134 9.41347 52.984 10.3435 54.084 10.4635V13.0935L47.704 19.4435C46.804 20.3335 46.304 21.5535 46.304 22.8135V56.9535C46.304 59.5835 48.454 61.7135 51.084 61.7135H62.754C63.244 61.7135 63.644 61.3135 63.644 60.8235C63.644 60.3335 63.244 59.9335 62.754 59.9335H51.084C49.424 59.9335 48.084 58.5935 48.084 56.9535V53.0535H75.724V51.2735H75.7141ZM53.914 8.29347V4.42348C53.914 3.49348 54.684 2.73347 55.624 2.73347H66.394C67.334 2.73347 68.104 3.49348 68.104 4.42348V8.29347C68.104 8.51347 67.924 8.69348 67.694 8.69348H54.324C54.104 8.69348 53.914 8.51347 53.914 8.29347ZM66.1541 10.4735V12.5635H55.864V10.4735H66.1541ZM73.944 27.0335H48.084V22.8035C48.084 22.0035 48.3941 21.2635 48.9641 20.6935L55.354 14.3435H66.694L73.084 20.6935C73.654 21.2535 73.9641 22.0035 73.9641 22.8035V27.0335H73.944Z" fill="#001C43"/>
<path d="M64.764 60.8235C64.764 60.3335 65.1641 59.9335 65.6541 59.9335H73.274C73.634 59.9335 73.924 59.6435 73.924 59.2835V50.7135C73.924 50.2235 74.324 49.8235 74.814 49.8235C75.304 49.8235 75.704 50.2235 75.704 50.7135V59.2835C75.704 60.6335 74.614 61.7235 73.264 61.7235H65.644C65.154 61.7235 64.754 61.3235 64.754 60.8335L64.764 60.8235Z" fill="#1DB8D9"/>
</svg>
