<svg width="63" height="63" viewBox="0 0 63 63" fill="none" xmlns="http://www.w3.org/2000/svg">
<path d="M14.46 50.3897C14.2 50.3897 13.96 50.2897 13.77 50.1097C13.51 49.8597 13.41 49.4997 13.49 49.1497L15.63 40.5097C14.04 37.6997 13.21 34.5197 13.21 31.2797C13.21 20.9297 21.63 12.4997 31.99 12.4997C42.35 12.4997 50.77 20.9197 50.77 31.2797C50.77 41.6397 42.35 50.0598 31.99 50.0598C28.95 50.0598 25.9399 49.3197 23.2599 47.9097L14.74 50.3597C14.65 50.3897 14.56 50.3997 14.46 50.3997V50.3897ZM23.3699 45.8197C23.5399 45.8197 23.71 45.8597 23.86 45.9497C26.34 47.3297 29.15 48.0497 31.99 48.0497C41.24 48.0497 48.77 40.5197 48.77 31.2697C48.77 22.0197 41.24 14.4897 31.99 14.4897C22.74 14.4897 15.21 22.0197 15.21 31.2697C15.21 34.2897 16.02 37.2497 17.56 39.8397C17.69 40.0697 17.73 40.3397 17.67 40.5897L15.85 47.9497L23.09 45.8597C23.18 45.8297 23.2699 45.8197 23.3699 45.8197Z" fill="#001C43"/>
<path d="M36.69 40.6497C36.08 40.6497 35.65 40.5897 35.61 40.5797C24.58 38.5297 22.25 28.4997 22.23 28.3997C21.19 25.1797 23.71 22.9597 25.19 22.2497C26.17 21.7797 27.44 21.9897 28.15 22.7497C28.55 23.1797 28.82 23.8398 29.13 24.6698L29.57 25.8098C29.8 26.3998 30.04 27.0897 30.01 27.8297C29.97 28.6597 29.44 29.2097 29.08 29.5797C29.01 29.6497 28.94 29.7298 28.87 29.7998L28.66 30.0498C29.83 32.4898 32.72 34.0097 33.96 34.5797C34.21 34.3197 34.46 34.0598 34.71 33.7998L34.82 33.6798C35.15 33.3198 35.59 32.8297 36.27 32.6397C36.46 32.5897 36.65 32.5598 36.85 32.5598C37.53 32.5598 38.1 32.8497 38.56 33.0897L38.77 33.1997C39.31 33.4697 39.74 33.7198 40.2 33.9798L40.5 34.1497C41.53 34.7497 41.79 35.5198 41.83 36.0598C41.87 36.7298 41.71 37.5897 41.42 38.2497C40.74 39.7897 39.06 40.6497 36.69 40.6497ZM35.93 38.6098C35.93 38.6098 36.25 38.6497 36.69 38.6497C37.58 38.6497 39.13 38.4897 39.59 37.4497C39.76 37.0697 39.86 36.5497 39.84 36.1997C39.84 36.0897 39.61 35.9397 39.51 35.8897L39.21 35.7197C38.79 35.4797 38.39 35.2497 37.9 34.9997L37.66 34.8797C37.38 34.7297 37.05 34.5697 36.86 34.5697C36.69 34.6097 36.46 34.8597 36.3 35.0297L36.17 35.1698C35.89 35.4698 35.61 35.7498 35.34 36.0398L34.93 36.4697C34.66 36.7597 34.24 36.8497 33.86 36.7197C33.63 36.6297 28.1 34.5597 26.55 30.2097C26.43 29.8697 26.5 29.4897 26.74 29.2197L27.35 28.5097C27.44 28.4097 27.53 28.3097 27.63 28.2097C27.76 28.0797 27.99 27.8397 28 27.7497C28.02 27.3997 27.86 26.9598 27.7 26.5498L27.25 25.3897C27.12 25.0397 26.84 24.3097 26.68 24.1297C26.56 23.9997 26.25 23.9697 26.04 24.0697C25.77 24.1997 23.37 25.4697 24.15 27.8997C24.25 28.3497 26.27 36.8297 35.93 38.6297V38.6098Z" fill="#001C43"/>
<path d="M57.55 62.2297H5.79999C3.00999 62.2297 0.72998 59.9597 0.72998 57.1597V5.40973C0.72998 2.60973 2.99999 0.339722 5.79999 0.339722H46.87C47.42 0.339722 47.87 0.789722 47.87 1.33972C47.87 1.88972 47.42 2.33972 46.87 2.33972H5.79999C4.10999 2.33972 2.72998 3.71973 2.72998 5.40973V57.1597C2.72998 58.8497 4.10999 60.2297 5.79999 60.2297H57.55C59.24 60.2297 60.62 58.8497 60.62 57.1597V15.7897C60.62 15.2397 61.07 14.7897 61.62 14.7897C62.17 14.7897 62.62 15.2397 62.62 15.7897V57.1597C62.62 59.9497 60.35 62.2297 57.55 62.2297Z" fill="#001C43"/>
<path d="M61.62 13.7397C61.07 13.7397 60.62 13.2897 60.62 12.7397V3.2597C60.62 2.7497 60.22 2.33972 59.74 2.33972H50.09C49.54 2.33972 49.09 1.88972 49.09 1.33972C49.09 0.789722 49.54 0.339722 50.09 0.339722H59.74C61.33 0.339722 62.62 1.6497 62.62 3.2597V12.7397C62.62 13.2897 62.17 13.7397 61.62 13.7397Z" fill="#1DB8D9"/>
</svg>
