<svg width="84" height="47" viewBox="0 0 84 47" fill="none" xmlns="http://www.w3.org/2000/svg">
<path d="M74.6046 29.8998C71.2046 29.8998 68.4445 27.1399 68.4445 23.7399C68.4445 20.3399 71.2046 17.5798 74.6046 17.5798C78.0046 17.5798 80.7645 20.3399 80.7645 23.7399C80.7645 27.1399 78.0046 29.8998 74.6046 29.8998ZM74.6046 19.5798C72.3146 19.5798 70.4445 21.4499 70.4445 23.7399C70.4445 26.0299 72.3146 27.8998 74.6046 27.8998C76.8946 27.8998 78.7645 26.0299 78.7645 23.7399C78.7645 21.4499 76.8946 19.5798 74.6046 19.5798Z" fill="#001C43"/>
<path d="M82.7145 46.0199H66.4846C65.9346 46.0199 65.4846 45.5699 65.4846 45.0199V40.0499C65.4846 35.0199 69.5745 30.9399 74.5945 30.9399C79.6145 30.9399 83.7045 35.0299 83.7045 40.0499V45.0199C83.7045 45.5699 83.2545 46.0199 82.7045 46.0199H82.7145ZM67.4846 44.0199H81.7145V40.0499C81.7145 36.1299 78.5246 32.9399 74.6046 32.9399C70.6846 32.9399 67.4946 36.1299 67.4946 40.0499V44.0199H67.4846Z" fill="#001C43"/>
<path d="M11.5045 18.7098C6.57452 18.7098 2.57452 14.6998 2.57452 9.76984C2.57452 4.83984 6.58452 0.839844 11.5045 0.839844C16.4245 0.839844 20.4345 4.84984 20.4345 9.76984C20.4345 14.6898 16.4245 18.7098 11.5045 18.7098ZM11.5045 2.83984C7.68452 2.83984 4.57452 5.94984 4.57452 9.76984C4.57452 13.5898 7.68452 16.7098 11.5045 16.7098C15.3245 16.7098 18.4345 13.5998 18.4345 9.76984C18.4345 5.93984 15.3245 2.83984 11.5045 2.83984Z" fill="#001C43"/>
<path d="M21.6546 46.0198H16.9146C16.3646 46.0198 15.9146 45.5698 15.9146 45.0198C15.9146 44.4698 16.3646 44.0198 16.9146 44.0198H20.6546V31.1898C20.6546 26.1498 16.5545 22.0398 11.5045 22.0398C7.18453 22.0398 3.41457 25.1198 2.54457 29.3498C2.43457 29.8898 1.91458 30.2398 1.36458 30.1298C0.824575 30.0198 0.474546 29.4898 0.584546 28.9498C1.64455 23.7898 6.24453 20.0398 11.5045 20.0398C17.6545 20.0398 22.6546 25.0398 22.6546 31.1898V45.0198C22.6546 45.5698 22.2046 46.0198 21.6546 46.0198Z" fill="#001C43"/>
<path d="M12.3345 46.0199H3.14453C1.60453 46.0199 0.354553 44.7499 0.354553 43.1899V34.1599C0.354553 33.6099 0.804553 33.1599 1.35455 33.1599C1.90455 33.1599 2.35455 33.6099 2.35455 34.1599V43.1899C2.35455 43.6499 2.71453 44.0199 3.14453 44.0199H12.3345C12.8845 44.0199 13.3345 44.4699 13.3345 45.0199C13.3345 45.5699 12.8845 46.0199 12.3345 46.0199Z" fill="#1DB8D9"/>
<path d="M61.0446 40.2299H22.4846C21.9346 40.2299 21.4846 39.7799 21.4846 39.2299C21.4846 38.6799 21.9346 38.2299 22.4846 38.2299H61.0446C61.5946 38.2299 62.0446 38.6799 62.0446 39.2299C62.0446 39.7799 61.5946 40.2299 61.0446 40.2299Z" fill="#001C43"/>
<path d="M56.0745 46.0199C55.8145 46.0199 55.5646 45.9199 55.3646 45.7299C54.9746 45.3399 54.9746 44.7099 55.3646 44.3199L60.4445 39.2399L55.3646 34.1599C54.9746 33.7699 54.9746 33.1399 55.3646 32.7499C55.7546 32.3599 56.3846 32.3599 56.7746 32.7499L62.5645 38.5399C62.9545 38.9299 62.9545 39.5599 62.5645 39.9499L56.7746 45.7399C56.5746 45.9399 56.3245 46.0299 56.0645 46.0299L56.0745 46.0199Z" fill="#001C43"/>
</svg>
