<svg width="53" height="32" viewBox="0 0 53 32" fill="none" xmlns="http://www.w3.org/2000/svg">
<path d="M51.6602 10.479H18.7502C18.2002 10.479 17.7502 10.029 17.7502 9.47903V3.15902C17.7502 2.82902 17.5702 2.52901 17.2902 2.39901C17.0202 2.27901 16.7202 2.31901 16.5002 2.51901L11.9702 6.60903C11.5602 6.97903 10.9302 6.94903 10.5602 6.53903C10.1902 6.12903 10.2202 5.49905 10.6302 5.12905L15.1502 1.04904C15.9602 0.309036 17.1302 0.129024 18.1302 0.599024C19.1102 1.05902 19.7402 2.06903 19.7402 3.16903V8.48904H51.6502C52.2002 8.48904 52.6502 8.93904 52.6502 9.48904C52.6502 10.039 52.2002 10.489 51.6502 10.489L51.6602 10.479Z" fill="#001C43"/>
<path d="M16.9902 31.619C16.3302 31.619 15.6702 31.379 15.1602 30.909L10.8102 27.049C10.4002 26.679 10.3602 26.049 10.7302 25.639C11.1002 25.229 11.7302 25.189 12.1402 25.559L16.4902 29.429C16.7202 29.639 17.0202 29.689 17.2802 29.559C17.5602 29.429 17.7402 29.129 17.7402 28.799V22.479C17.7402 21.929 18.1902 21.479 18.7402 21.479H51.6502C52.2002 21.479 52.6502 21.929 52.6502 22.479C52.6502 23.029 52.2002 23.479 51.6502 23.479H19.7402V28.799C19.7402 29.899 19.1102 30.909 18.1302 31.369C17.7602 31.549 17.3702 31.629 16.9802 31.629L16.9902 31.619Z" fill="#001C43"/>
<path d="M9.15021 25.109C8.89021 25.109 8.64019 25.0091 8.44019 24.819L1.62021 17.999C0.50021 16.869 0.510209 15.029 1.65021 13.889L8.35019 7.18905C8.74019 6.79905 9.37019 6.79905 9.76019 7.18905C10.1502 7.57905 10.1502 8.20902 9.76019 8.59902L3.06018 15.299C2.70018 15.659 2.69018 16.229 3.03018 16.579L9.85019 23.399C10.2402 23.789 10.2402 24.419 9.85019 24.809C9.65019 25.009 9.4002 25.099 9.1402 25.099L9.15021 25.109Z" fill="#1DB8D9"/>
</svg>
