<svg width="41" height="61" viewBox="0 0 41 61" fill="none" xmlns="http://www.w3.org/2000/svg">
<path d="M35.3537 60.454H5.98364C3.22364 60.454 0.983643 58.214 0.983643 55.454V4.99402C0.983643 2.23402 3.22364 -0.00598145 5.98364 -0.00598145H24.8936C25.4436 -0.00598145 25.8936 0.444019 25.8936 0.994019C25.8936 1.54402 25.4436 1.99402 24.8936 1.99402H5.98364C4.33364 1.99402 2.98364 3.34402 2.98364 4.99402V55.454C2.98364 57.104 4.33364 58.454 5.98364 58.454H35.3537C37.0037 58.454 38.3537 57.104 38.3537 55.454V14.964C38.3537 14.414 38.8037 13.964 39.3537 13.964C39.9037 13.964 40.3537 14.414 40.3537 14.964V55.454C40.3537 58.214 38.1137 60.454 35.3537 60.454Z" fill="#001C43"/>
<path d="M39.3636 12.964C38.8136 12.964 38.3636 12.514 38.3636 11.964V2.85403C38.3636 2.38403 37.9836 2.00403 37.5136 2.00403H28.0436C27.4936 2.00403 27.0436 1.55403 27.0436 1.00403C27.0436 0.454028 27.4936 0.00402832 28.0436 0.00402832H37.5136C39.0836 0.00402832 40.3636 1.28403 40.3636 2.85403V11.964C40.3636 12.514 39.9136 12.964 39.3636 12.964Z" fill="#1DB8D9"/>
<path d="M34.4637 50.304H6.87366C6.32366 50.304 5.87366 49.854 5.87366 49.304V6.64404C5.87366 6.09404 6.32366 5.64404 6.87366 5.64404H34.4637C35.0137 5.64404 35.4637 6.09404 35.4637 6.64404V49.304C35.4637 49.854 35.0137 50.304 34.4637 50.304ZM7.87366 48.304H33.4637V7.64404H7.87366V48.304Z" fill="#001C43"/>
<path d="M22.8036 55.184H18.5436C17.9936 55.184 17.5436 54.734 17.5436 54.184C17.5436 53.634 17.9936 53.184 18.5436 53.184H22.8036C23.3537 53.184 23.8036 53.634 23.8036 54.184C23.8036 54.734 23.3537 55.184 22.8036 55.184Z" fill="#001C43"/>
</svg>
