<svg width="85" height="40" viewBox="0 0 85 40" fill="none" xmlns="http://www.w3.org/2000/svg">
<path d="M12.4 14.3398C11.85 14.3398 11.4 13.8898 11.4 13.3398V3.85986C11.4 2.24986 12.69 0.939819 14.28 0.939819H23.93C24.48 0.939819 24.93 1.38982 24.93 1.93982C24.93 2.48982 24.48 2.93982 23.93 2.93982H14.28C13.79 2.93982 13.4 3.34986 13.4 3.85986V13.3398C13.4 13.8898 12.95 14.3398 12.4 14.3398Z" fill="#1DB8D9"/>
<path d="M16.26 39.3198C11.83 39.3198 8.22002 35.7098 8.22002 31.2798C8.22002 26.8498 11.83 23.2399 16.26 23.2399C20.69 23.2399 24.3 26.8498 24.3 31.2798C24.3 35.7098 20.7 39.3198 16.26 39.3198ZM16.26 25.2499C12.93 25.2499 10.22 27.9598 10.22 31.2898C10.22 34.6198 12.93 37.3298 16.26 37.3298C19.59 37.3298 22.3 34.6198 22.3 31.2898C22.3 27.9598 19.59 25.2499 16.26 25.2499Z" fill="#001C43"/>
<path d="M62.01 39.3198C57.58 39.3198 53.97 35.7098 53.97 31.2798C53.97 26.8498 57.57 23.2399 62.01 23.2399C66.45 23.2399 70.05 26.8498 70.05 31.2798C70.05 35.7098 66.45 39.3198 62.01 39.3198ZM62.01 25.2499C58.68 25.2499 55.97 27.9598 55.97 31.2898C55.97 34.6198 58.68 37.3298 62.01 37.3298C65.34 37.3298 68.05 34.6198 68.05 31.2898C68.05 27.9598 65.34 25.2499 62.01 25.2499Z" fill="#001C43"/>
<path d="M9.18001 32.5398H6.73001C2.56001 32.3098 1.08001 29.4898 0.87001 28.0298C0.87001 27.9798 0.860016 27.9399 0.860016 27.8899V19.9698C0.910016 18.5398 1.36002 17.4299 2.22002 16.6299C3.53002 15.4099 5.24001 15.4298 5.43001 15.4398C5.98001 15.4598 6.41001 15.9198 6.39001 16.4798C6.37001 17.0298 5.90002 17.4698 5.36002 17.4398C4.93002 17.3898 2.94002 17.5199 2.86002 20.0099V27.8098C2.95002 28.2398 3.55001 30.3698 6.79001 30.5498H9.18001C9.73001 30.5498 10.18 30.9998 10.18 31.5498C10.18 32.0998 9.73001 32.5498 9.18001 32.5498V32.5398Z" fill="#001C43"/>
<path d="M78.48 32.5398H69.21C68.66 32.5398 68.21 32.0898 68.21 31.5398C68.21 30.9898 68.66 30.5398 69.21 30.5398H78.33L82.83 29.2098V22.8599C82.33 22.2399 80.56 20.3398 76.79 18.9598C72.05 17.2198 64.94 17.5298 64.87 17.5298C64.65 17.5498 64.42 17.4698 64.23 17.3398L44.64 2.93982H26.99C26.44 2.93982 25.99 2.48982 25.99 1.93982C25.99 1.38982 26.44 0.939819 26.99 0.939819H44.97C45.18 0.939819 45.39 1.00988 45.56 1.12988L65.13 15.5099C66.7 15.4599 72.93 15.4098 77.47 17.0698C82.72 18.9898 84.59 21.8599 84.67 21.9799C84.77 22.1399 84.83 22.3298 84.83 22.5198V29.9498C84.83 30.3898 84.54 30.7798 84.11 30.9098L78.75 32.4899C78.66 32.5199 78.56 32.5298 78.47 32.5298L78.48 32.5398Z" fill="#001C43"/>
<path d="M54.91 32.5398H23.28C22.73 32.5398 22.28 32.0898 22.28 31.5398C22.28 30.9898 22.73 30.5398 23.28 30.5398H54.91C55.46 30.5398 55.91 30.9898 55.91 31.5398C55.91 32.0898 55.46 32.5398 54.91 32.5398Z" fill="#001C43"/>
<path d="M64.84 17.5298L4.91002 17.4298C4.36002 17.4298 3.91002 16.9798 3.91002 16.4298C3.91002 15.8798 4.36002 15.4298 4.91002 15.4298L64.84 15.5298C65.39 15.5298 65.84 15.9798 65.84 16.5298C65.84 17.0798 65.39 17.5298 64.84 17.5298Z" fill="#001C43"/>
</svg>
