<svg width="45" height="66" viewBox="0 0 45 66" fill="none" xmlns="http://www.w3.org/2000/svg">
<path d="M29.9746 65.0598H1.29456C0.744556 65.0598 0.294556 64.6098 0.294556 64.0598V7.75977C0.294556 7.20977 0.744556 6.75977 1.29456 6.75977H43.6546C44.2046 6.75977 44.6546 7.20977 44.6546 7.75977V50.1698C44.6546 50.7198 44.2046 51.1698 43.6546 51.1698C43.1046 51.1698 42.6546 50.7198 42.6546 50.1698V8.75977H2.29456V63.0598H29.9746C30.5246 63.0598 30.9746 63.5098 30.9746 64.0598C30.9746 64.6098 30.5246 65.0598 29.9746 65.0598Z" fill="#001C43"/>
<path d="M10.7845 15.8398C10.2345 15.8398 9.78455 15.3898 9.78455 14.8398V1.83984C9.78455 1.28984 10.2345 0.839844 10.7845 0.839844C11.3345 0.839844 11.7845 1.28984 11.7845 1.83984V14.8398C11.7845 15.3898 11.3345 15.8398 10.7845 15.8398Z" fill="#001C43"/>
<path d="M22.6445 15.8398C22.0945 15.8398 21.6445 15.3898 21.6445 14.8398V1.83984C21.6445 1.28984 22.0945 0.839844 22.6445 0.839844C23.1945 0.839844 23.6445 1.28984 23.6445 1.83984V14.8398C23.6445 15.3898 23.1945 15.8398 22.6445 15.8398Z" fill="#001C43"/>
<path d="M34.4946 15.8398C33.9446 15.8398 33.4946 15.3898 33.4946 14.8398V1.83984C33.4946 1.28984 33.9446 0.839844 34.4946 0.839844C35.0446 0.839844 35.4946 1.28984 35.4946 1.83984V14.8398C35.4946 15.3898 35.0446 15.8398 34.4946 15.8398Z" fill="#001C43"/>
<path d="M35.3846 29.2698H10.8446C10.2946 29.2698 9.8446 28.8198 9.8446 28.2698C9.8446 27.7198 10.2946 27.2698 10.8446 27.2698H35.3846C35.9346 27.2698 36.3846 27.7198 36.3846 28.2698C36.3846 28.8198 35.9346 29.2698 35.3846 29.2698Z" fill="#001C43"/>
<path d="M35.3846 37.7598H10.8446C10.2946 37.7598 9.8446 37.3098 9.8446 36.7598C9.8446 36.2098 10.2946 35.7598 10.8446 35.7598H35.3846C35.9346 35.7598 36.3846 36.2098 36.3846 36.7598C36.3846 37.3098 35.9346 37.7598 35.3846 37.7598Z" fill="#001C43"/>
<path d="M27.2546 46.2598H10.8346C10.2846 46.2598 9.83459 45.8098 9.83459 45.2598C9.83459 44.7098 10.2846 44.2598 10.8346 44.2598H27.2546C27.8046 44.2598 28.2546 44.7098 28.2546 45.2598C28.2546 45.8098 27.8046 46.2598 27.2546 46.2598Z" fill="#001C43"/>
<path d="M41.9246 65.0599H33.3446C32.7946 65.0599 32.3446 64.6099 32.3446 64.0599C32.3446 63.5099 32.7946 63.0599 33.3446 63.0599H41.9246C42.3346 63.0599 42.6646 62.7299 42.6646 62.3199V53.3999C42.6646 52.8499 43.1146 52.3999 43.6646 52.3999C44.2146 52.3999 44.6646 52.8499 44.6646 53.3999V62.3199C44.6646 63.8299 43.4346 65.0599 41.9246 65.0599Z" fill="#1DB8D9"/>
</svg>
