<svg width="85" height="45" viewBox="0 0 85 45" fill="none" xmlns="http://www.w3.org/2000/svg">
<path d="M19.0835 28.6998C15.0435 28.6998 11.7535 25.4098 11.7535 21.3698C11.7535 17.3298 15.0435 14.0398 19.0835 14.0398C23.1235 14.0398 26.4135 17.3298 26.4135 21.3698C26.4135 25.4098 23.1235 28.6998 19.0835 28.6998ZM19.0835 16.0298C16.1435 16.0298 13.7535 18.4197 13.7535 21.3597C13.7535 24.2997 16.1435 26.6898 19.0835 26.6898C22.0235 26.6898 24.4135 24.2997 24.4135 21.3597C24.4135 18.4197 22.0235 16.0298 19.0835 16.0298Z" fill="#001C43"/>
<path d="M27.1835 44.4099H10.9835C10.4335 44.4099 9.98346 43.9599 9.98346 43.4099V38.4498C9.98346 33.4298 14.0635 29.3499 19.0835 29.3499C24.1035 29.3499 28.1835 33.4298 28.1835 38.4498V43.4099C28.1835 43.9599 27.7335 44.4099 27.1835 44.4099ZM11.9835 42.4099H26.1835V38.4498C26.1835 34.5298 22.9935 31.3499 19.0835 31.3499C15.1735 31.3499 11.9835 34.5398 11.9835 38.4498V42.4099Z" fill="#001C43"/>
<path d="M65.6435 28.6998C61.6035 28.6998 58.3135 25.4098 58.3135 21.3698C58.3135 17.3298 61.6035 14.0398 65.6435 14.0398C69.6835 14.0398 72.9734 17.3298 72.9734 21.3698C72.9734 25.4098 69.6835 28.6998 65.6435 28.6998ZM65.6435 16.0298C62.7035 16.0298 60.3135 18.4197 60.3135 21.3597C60.3135 24.2997 62.7035 26.6898 65.6435 26.6898C68.5835 26.6898 70.9734 24.2997 70.9734 21.3597C70.9734 18.4197 68.5835 16.0298 65.6435 16.0298Z" fill="#001C43"/>
<path d="M73.7435 44.4099H57.5435C56.9935 44.4099 56.5435 43.9599 56.5435 43.4099V38.4498C56.5435 33.4298 60.6235 29.3499 65.6435 29.3499C70.6635 29.3499 74.7435 33.4298 74.7435 38.4498V43.4099C74.7435 43.9599 74.2935 44.4099 73.7435 44.4099ZM58.5435 42.4099H72.7435V38.4498C72.7435 34.5298 69.5535 31.3499 65.6435 31.3499C61.7335 31.3499 58.5435 34.5398 58.5435 38.4498V42.4099Z" fill="#001C43"/>
<path d="M83.1435 44.4099H46.7435C46.1935 44.4099 45.7435 43.9599 45.7435 43.4099C45.7435 42.8599 46.1935 42.4099 46.7435 42.4099H83.1435C83.6935 42.4099 84.1435 42.8599 84.1435 43.4099C84.1435 43.9599 83.6935 44.4099 83.1435 44.4099Z" fill="#001C43"/>
<path d="M29.1735 44.4099H1.57349C1.02349 44.4099 0.573486 43.9599 0.573486 43.4099C0.573486 42.8599 1.02349 42.4099 1.57349 42.4099H29.1735C29.7235 42.4099 30.1735 42.8599 30.1735 43.4099C30.1735 43.9599 29.7235 44.4099 29.1735 44.4099Z" fill="#001C43"/>
<path d="M42.8635 18.0198C38.1235 18.0198 34.2735 14.1698 34.2735 9.42981C34.2735 4.68981 38.1235 0.839844 42.8635 0.839844C47.6035 0.839844 51.4535 4.68981 51.4535 9.42981C51.4535 14.1698 47.6035 18.0198 42.8635 18.0198ZM42.8635 2.67981C39.1435 2.67981 36.1135 5.70981 36.1135 9.42981C36.1135 13.1498 39.1435 16.1798 42.8635 16.1798C46.5835 16.1798 49.6135 13.1498 49.6135 9.42981C49.6135 5.70981 46.5835 2.67981 42.8635 2.67981Z" fill="#001C43"/>
<path d="M52.6735 44.4099C52.1635 44.4099 51.7535 43.9999 51.7535 43.4899V30.1199C51.7535 25.2199 47.7635 21.2299 42.8635 21.2299C37.9635 21.2299 33.9734 25.2199 33.9734 30.1199C33.9734 30.6299 33.5635 31.0399 33.0535 31.0399C32.5435 31.0399 32.1335 30.6299 32.1335 30.1199C32.1335 24.1999 36.9435 19.3899 42.8635 19.3899C48.7835 19.3899 53.5935 24.1999 53.5935 30.1199V43.4899C53.5935 43.9999 53.1835 44.4099 52.6735 44.4099Z" fill="#001C43"/>
<path d="M43.6735 44.4099H34.7935C33.3335 44.4099 32.1335 43.1998 32.1335 41.7198V32.9998C32.1335 32.4898 32.5435 32.0798 33.0535 32.0798C33.5635 32.0798 33.9734 32.4898 33.9734 32.9998V41.7198C33.9734 42.1898 34.3335 42.5698 34.7835 42.5698H43.6635C44.1735 42.5698 44.5835 42.9798 44.5835 43.4898C44.5835 43.9998 44.1735 44.4099 43.6635 44.4099H43.6735Z" fill="#1DB8D9"/>
</svg>
