<svg width="43" height="61" viewBox="0 0 43 61" fill="none" xmlns="http://www.w3.org/2000/svg">
<path d="M41.9535 60.4435H26.0435C25.4935 60.4435 25.0435 59.9935 25.0435 59.4435C25.0435 58.8935 25.4935 58.4435 26.0435 58.4435H41.9535C42.5035 58.4435 42.9535 58.8935 42.9535 59.4435C42.9535 59.9935 42.5035 60.4435 41.9535 60.4435Z" fill="#001C43"/>
<path d="M23.3035 46.6935C22.7535 46.6935 22.3035 46.2435 22.3035 45.6935V25.5835C22.3035 25.0335 22.7535 24.5835 23.3035 24.5835C23.8535 24.5835 24.3035 25.0335 24.3035 25.5835V45.6935C24.3035 46.2435 23.8535 46.6935 23.3035 46.6935Z" fill="#001C43"/>
<path d="M23.6735 34.4335C23.3635 34.4335 23.0635 34.2935 22.8635 34.0235C22.5335 33.5735 22.6335 32.9535 23.0835 32.6235L27.6635 29.2835C28.1135 28.9535 28.7335 29.0535 29.0635 29.5035C29.3935 29.9535 29.2935 30.5735 28.8435 30.9035L24.2635 34.2435C24.0835 34.3735 23.8835 34.4335 23.6735 34.4335Z" fill="#001C43"/>
<path d="M23.2835 37.2835C23.0735 37.2835 22.8635 37.2135 22.6835 37.0835L18.9735 34.2835C18.5335 33.9535 18.4435 33.3235 18.7835 32.8835C19.1135 32.4435 19.7435 32.3535 20.1835 32.6935L23.8935 35.4935C24.3335 35.8235 24.4235 36.4535 24.0835 36.8935C23.8835 37.1535 23.5835 37.2935 23.2835 37.2935V37.2835Z" fill="#001C43"/>
<path d="M21.6135 60.4435H13.2834C12.7334 60.4435 12.2834 59.9935 12.2834 59.4435C12.2834 58.8935 12.7334 58.4435 13.2834 58.4435H21.6135C21.9935 58.4435 22.3035 58.1335 22.3035 57.7535V49.0935C22.3035 48.5435 22.7535 48.0935 23.3035 48.0935C23.8535 48.0935 24.3035 48.5435 24.3035 49.0935V57.7535C24.3035 59.2335 23.0935 60.4435 21.6135 60.4435Z" fill="#1DB8D9"/>
<path d="M19.0435 44.0935C12.6735 44.0935 7.49347 38.9135 7.49347 32.5435C7.49347 32.0335 7.53345 31.5135 7.60345 30.9935C5.20345 29.1835 3.79346 26.3635 3.79346 23.3435C3.79346 19.9435 5.56349 16.8535 8.45349 15.1235C8.45349 15.0935 8.45349 15.0635 8.45349 15.0335C8.45349 10.3535 12.2535 6.55348 16.9335 6.55348C17.1035 6.55348 17.2835 6.55348 17.4734 6.57348C19.0234 3.17348 22.4335 0.943481 26.2035 0.943481C31.4935 0.943481 35.8035 5.25348 35.8035 10.5435C35.8035 10.6935 35.8035 10.8335 35.7935 10.9835C39.4635 11.9735 42.0334 15.2735 42.0334 19.1535C42.0334 21.1435 41.3535 23.0235 40.1035 24.5435C41.5635 26.5235 42.3535 28.9235 42.3535 31.3835C42.3535 37.7535 37.1735 42.9335 30.8035 42.9335C29.6235 42.9335 28.4535 42.7535 27.3335 42.4035C26.8035 42.2335 26.5135 41.6735 26.6835 41.1535C26.8535 40.6235 27.4135 40.3335 27.9335 40.5035C28.8535 40.7935 29.8235 40.9435 30.8035 40.9435C36.0735 40.9435 40.3535 36.6635 40.3535 31.3935C40.3535 29.1135 39.5235 26.8935 38.0235 25.1635C37.6835 24.7635 37.7035 24.1635 38.0835 23.7935C39.3435 22.5635 40.0334 20.9235 40.0334 19.1635C40.0334 15.9535 37.7335 13.2635 34.5535 12.7735C34.0135 12.6935 33.6435 12.1835 33.7135 11.6435C33.7735 11.2235 33.8035 10.8835 33.8035 10.5535C33.8035 6.36348 30.3935 2.95348 26.2035 2.95348C23.0035 2.95348 20.1335 4.98348 19.0535 8.00348C18.8935 8.45348 18.4235 8.73348 17.9535 8.65348C17.5735 8.59348 17.2435 8.56348 16.9335 8.56348C13.3635 8.56348 10.4535 11.4735 10.4535 15.0435C10.4535 15.2335 10.4635 15.4235 10.4835 15.6135C10.5235 16.0235 10.3035 16.4035 9.94348 16.5935C7.38348 17.9035 5.79346 20.4935 5.79346 23.3535C5.79346 25.9235 7.08347 28.3035 9.24347 29.7135C9.58347 29.9335 9.75346 30.3435 9.67346 30.7435C9.55346 31.3635 9.49347 31.9735 9.49347 32.5635C9.49347 37.8335 13.7835 42.1135 19.0435 42.1135C19.5935 42.1135 20.0435 42.5635 20.0435 43.1135C20.0435 43.6635 19.5935 44.1135 19.0435 44.1135V44.0935Z" fill="#001C43"/>
<path d="M9.99347 60.4435H1.63348C1.08348 60.4435 0.633484 59.9935 0.633484 59.4435C0.633484 58.8935 1.08348 58.4435 1.63348 58.4435H9.99347C10.5435 58.4435 10.9935 58.8935 10.9935 59.4435C10.9935 59.9935 10.5435 60.4435 9.99347 60.4435Z" fill="#001C43"/>
</svg>
