<svg width="55" height="69" viewBox="0 0 55 69" fill="none" xmlns="http://www.w3.org/2000/svg">
<path d="M28.1335 16.7632C23.7735 16.7632 20.2235 13.2132 20.2235 8.85323C20.2235 4.49323 23.7735 0.943237 28.1335 0.943237C32.4935 0.943237 36.0435 4.49323 36.0435 8.85323C36.0435 13.2132 32.4935 16.7632 28.1335 16.7632ZM28.1335 2.93323C24.8735 2.93323 22.2235 5.58323 22.2235 8.84323C22.2235 12.1032 24.8735 14.7532 28.1335 14.7532C31.3935 14.7532 34.0435 12.1032 34.0435 8.84323C34.0435 5.58323 31.3935 2.93323 28.1335 2.93323Z" fill="#001C43"/>
<path d="M29.5235 68.8132H26.7435C23.5435 68.8132 20.9335 66.2032 20.9335 63.0032V47.1132C18.3035 46.5432 16.3535 44.2232 16.3535 41.4532V24.8732C16.3535 21.6732 18.9635 19.0632 22.1635 19.0632H34.1035C37.3035 19.0632 39.9135 21.6732 39.9135 24.8732V41.4532C39.9135 44.2232 37.9635 46.5432 35.3335 47.1132V63.0032C35.3335 66.2032 32.7235 68.8132 29.5235 68.8132ZM22.1635 21.0632C20.0635 21.0632 18.3535 22.7732 18.3535 24.8732V41.4532C18.3535 43.4732 19.9435 45.1432 21.9835 45.2432C22.5135 45.2732 22.9335 45.7132 22.9335 46.2432V63.0132C22.9335 65.1132 24.6435 66.8232 26.7435 66.8232H29.5235C31.6235 66.8232 33.3335 65.1132 33.3335 63.0132V46.2432C33.3335 45.7132 33.7535 45.2732 34.2835 45.2432C36.3135 45.1432 37.9135 43.4832 37.9135 41.4532V24.8732C37.9135 22.7732 36.2035 21.0632 34.1035 21.0632H22.1635Z" fill="#001C43"/>
<path d="M10.5735 21.8232C6.97349 21.8232 4.04349 18.8932 4.04349 15.2932C4.04349 11.6932 6.97349 8.76324 10.5735 8.76324C14.1735 8.76324 17.1035 11.6932 17.1035 15.2932C17.1035 18.8932 14.1735 21.8232 10.5735 21.8232ZM10.5735 10.7632C8.07349 10.7632 6.04349 12.7932 6.04349 15.2932C6.04349 17.7932 8.07349 19.8232 10.5735 19.8232C13.0735 19.8232 15.1035 17.7932 15.1035 15.2932C15.1035 12.7932 13.0735 10.7632 10.5735 10.7632Z" fill="#001C43"/>
<path d="M11.6835 63.0832H9.46349C6.79349 63.0832 4.61349 60.9132 4.61349 58.2332V45.6732C2.49349 45.1432 0.953491 43.2432 0.953491 40.9832V28.0932C0.953491 25.4232 3.12349 23.2432 5.80349 23.2432H11.6935C12.2435 23.2432 12.6935 23.6932 12.6935 24.2432C12.6935 24.7932 12.2435 25.2432 11.6935 25.2432H5.80349C4.23349 25.2432 2.95349 26.5232 2.95349 28.0932V40.9832C2.95349 42.4932 4.14349 43.7432 5.66349 43.8132C6.19349 43.8432 6.61349 44.2832 6.61349 44.8132V58.2232C6.61349 59.7932 7.89349 61.0732 9.46349 61.0732H11.6835C12.2335 61.0732 12.6835 61.5232 12.6835 62.0732C12.6835 62.6232 12.2335 63.0732 11.6835 63.0732V63.0832Z" fill="#001C43"/>
<path d="M44.5835 21.8232C40.9835 21.8232 38.0535 18.8932 38.0535 15.2932C38.0535 11.6932 40.9835 8.76324 44.5835 8.76324C48.1835 8.76324 51.1135 11.6932 51.1135 15.2932C51.1135 18.8932 48.1835 21.8232 44.5835 21.8232ZM44.5835 10.7632C42.0835 10.7632 40.0535 12.7932 40.0535 15.2932C40.0535 17.7932 42.0835 19.8232 44.5835 19.8232C47.0835 19.8232 49.1135 17.7932 49.1135 15.2932C49.1135 12.7932 47.0835 10.7632 44.5835 10.7632Z" fill="#001C43"/>
<path d="M45.7035 63.0833H43.4835C42.9335 63.0833 42.4835 62.6333 42.4835 62.0833C42.4835 61.5333 42.9335 61.0833 43.4835 61.0833H45.7035C47.2735 61.0833 48.5535 59.8033 48.5535 58.2333V44.8233C48.5535 44.2933 48.9735 43.8533 49.5035 43.8233C51.0235 43.7533 52.2135 42.5033 52.2135 40.9933V37.2233C52.2135 36.6733 52.6635 36.2233 53.2135 36.2233C53.7635 36.2233 54.2135 36.6733 54.2135 37.2233V40.9933C54.2135 43.2433 52.6635 45.1533 50.5535 45.6833V58.2433C50.5535 60.9133 48.3835 63.0933 45.7035 63.0933V63.0833Z" fill="#001C43"/>
<path d="M53.2135 35.2232C52.6635 35.2232 52.2135 34.7732 52.2135 34.2232V25.9332C52.2135 25.5532 51.9035 25.2532 51.5335 25.2532H42.9135C42.3635 25.2532 41.9135 24.8032 41.9135 24.2532C41.9135 23.7032 42.3635 23.2532 42.9135 23.2532H51.5335C53.0135 23.2532 54.2135 24.4532 54.2135 25.9332V34.2232C54.2135 34.7732 53.7635 35.2232 53.2135 35.2232Z" fill="#1DB8D9"/>
</svg>
