<svg width="54" height="56" viewBox="0 0 54 56" fill="none" xmlns="http://www.w3.org/2000/svg">
<path d="M14.0177 55.5589C13.0777 55.5589 12.3176 55.1989 11.7476 54.4989L0.847647 43.029C-0.212353 41.979 -0.292357 40.2989 0.687643 39.0589C1.27764 38.3289 2.25766 37.889 3.26766 37.889H6.94765V10.4189C6.94765 8.59893 8.49764 7.05894 10.3376 7.05894H36.7176V3.42894C36.7176 2.42894 37.1677 1.43894 37.8977 0.868941C38.8777 0.0589405 40.5076 0.188948 41.6576 1.18895L42.9177 2.35893C43.3177 2.73893 43.3476 3.36896 42.9676 3.76897C42.5976 4.16897 41.9576 4.19895 41.5576 3.81895L40.3277 2.66893C39.8677 2.26893 39.3076 2.28893 39.1576 2.41893C38.8876 2.62893 38.7277 3.02893 38.7277 3.41893V7.94896C38.7277 8.55896 38.2376 9.04893 37.6276 9.04893H10.3476C9.60765 9.04893 8.95766 9.68898 8.95766 10.409V38.789C8.95766 39.399 8.46766 39.889 7.85766 39.889H3.27764C2.86764 39.889 2.46766 40.0589 2.26766 40.3089C1.92766 40.7489 1.92766 41.269 2.29766 41.629L13.2677 53.1789C13.5077 53.4689 13.7076 53.5589 14.0376 53.5589C14.1376 53.5589 14.4277 53.559 14.8277 53.159L25.7577 41.649C26.0077 41.359 26.0976 40.699 25.7876 40.279C25.6076 40.059 25.1976 39.889 24.7876 39.889H20.2077C19.5977 39.889 19.1077 39.399 19.1077 38.789V20.3689C19.1077 19.7589 19.5977 19.269 20.2077 19.269H37.4277C38.0377 19.269 38.5276 19.7589 38.5276 20.3689V24.899C38.5276 25.289 38.6977 25.689 38.9477 25.889C39.3977 26.239 39.9376 26.2289 40.3076 25.8589L41.3476 24.889C41.7477 24.509 42.3877 24.5389 42.7577 24.9389C43.1377 25.3389 43.1077 25.979 42.7077 26.349L41.6876 27.2989C40.6176 28.3589 38.9777 28.429 37.7077 27.459C36.9677 26.879 36.5177 25.899 36.5177 24.889V21.259H21.0976V37.879H24.7776C25.7876 37.879 26.7676 38.319 27.3476 39.039C28.2176 40.189 28.1577 41.909 27.2277 42.979L16.2476 54.539C15.5776 55.199 14.8176 55.539 14.0276 55.539L14.0177 55.5589Z" fill="#001C43"/>
<path d="M44.3677 24.549C44.1077 24.549 43.8576 24.449 43.6576 24.259C43.2676 23.869 43.2676 23.239 43.6576 22.849L51.4577 15.049C51.6777 14.829 51.7977 14.539 51.7977 14.229C51.7977 13.919 51.6777 13.629 51.4577 13.409L43.9577 5.90902C43.5677 5.51902 43.5677 4.88898 43.9577 4.49898C44.3477 4.10898 44.9777 4.10898 45.3677 4.49898L52.8677 11.999C53.4677 12.589 53.7876 13.389 53.7876 14.229C53.7876 15.069 53.4577 15.859 52.8677 16.459L45.0676 24.259C44.8676 24.459 44.6177 24.549 44.3577 24.549H44.3677Z" fill="#1DB8D9"/>
</svg>
