<svg width="55" height="66" viewBox="0 0 55 66" fill="none" xmlns="http://www.w3.org/2000/svg">
<path d="M25.73 31.0598C25.18 31.0598 24.73 30.6098 24.73 30.0598V14.0598C24.73 7.92981 19.74 2.93982 13.62 2.93982C7.50001 2.93982 2.51001 7.92981 2.51001 14.0598V25.0598C2.51001 25.6098 2.06001 26.0598 1.51001 26.0598C0.96001 26.0598 0.51001 25.6098 0.51001 25.0598V14.0598C0.51001 6.82981 6.39001 0.939819 13.62 0.939819C20.85 0.939819 26.73 6.81981 26.73 14.0598V30.0598C26.73 30.6098 26.28 31.0598 25.73 31.0598Z" fill="#001C43"/>
<path d="M51.86 65.1199H20.55C18.9 65.1199 17.55 63.7699 17.55 62.1199V32.6199C17.55 30.9699 18.9 29.6199 20.55 29.6199H39.15C39.7 29.6199 40.15 30.0699 40.15 30.6199C40.15 31.1699 39.7 31.6199 39.15 31.6199H20.55C20 31.6199 19.55 32.0699 19.55 32.6199V62.1199C19.55 62.6699 20 63.1199 20.55 63.1199H51.86C52.41 63.1199 52.86 62.6699 52.86 62.1199V45.2299C52.86 44.6799 53.31 44.2299 53.86 44.2299C54.41 44.2299 54.86 44.6799 54.86 45.2299V62.1199C54.86 63.7699 53.51 65.1199 51.86 65.1199Z" fill="#001C43"/>
<path d="M53.86 43.0199C53.31 43.0199 52.86 42.5699 52.86 42.0199V32.5399C52.86 32.0299 52.46 31.6199 51.98 31.6199H42.33C41.78 31.6199 41.33 31.1699 41.33 30.6199C41.33 30.0699 41.78 29.6199 42.33 29.6199H51.98C53.57 29.6199 54.86 30.9299 54.86 32.5399V42.0199C54.86 42.5699 54.41 43.0199 53.86 43.0199Z" fill="#1DB8D9"/>
<path d="M39.23 56.7399H33.31C32.76 56.7399 32.31 56.2899 32.31 55.7399V50.2198C30.93 49.0498 30.12 47.3399 30.12 45.5299C30.12 42.1399 32.88 39.3799 36.27 39.3799C39.66 39.3799 42.42 42.1399 42.42 45.5299C42.42 47.3399 41.61 49.0498 40.23 50.2198V55.7399C40.23 56.2899 39.78 56.7399 39.23 56.7399ZM34.31 54.7399H38.23V49.7299C38.23 49.4099 38.39 49.0999 38.65 48.9099C39.76 48.1299 40.42 46.8599 40.42 45.5299C40.42 43.2399 38.56 41.3799 36.27 41.3799C33.98 41.3799 32.12 43.2399 32.12 45.5299C32.12 46.8699 32.78 48.1299 33.89 48.9099C34.15 49.0999 34.31 49.3999 34.31 49.7299V54.7399Z" fill="#001C43"/>
</svg>
