<svg width="62" height="62" viewBox="0 0 62 62" fill="none" xmlns="http://www.w3.org/2000/svg">
<path d="M23.2253 10.1723C22.9653 10.1723 22.7153 10.0723 22.5153 9.88227C22.1253 9.49226 22.1253 8.86229 22.5153 8.47229L29.3353 1.65228C30.4653 0.532284 32.3053 0.542252 33.4453 1.68225L40.1453 8.38226C40.5353 8.77226 40.5353 9.4023 40.1453 9.7923C39.7553 10.1823 39.1253 10.1823 38.7353 9.7923L32.0353 3.09229C31.6753 2.73229 31.1053 2.72226 30.7553 3.06226L23.9353 9.88227C23.7353 10.0823 23.4853 10.1723 23.2253 10.1723Z" fill="#1DB8D9"/>
<path d="M31.4253 61.6123C30.8153 61.6123 30.1753 61.3423 29.7153 60.9023L22.1353 53.0623C21.4453 52.3923 21.2653 51.3022 21.7153 50.4323C22.1053 49.5823 22.9553 49.0223 23.9253 49.0223H26.2053V36.8523H13.8153V39.0522C13.8153 39.9522 13.2453 40.8122 12.3753 41.2422C11.5453 41.6522 10.5453 41.5023 9.78529 40.8623L1.74529 33.4423C1.25529 32.9723 0.985291 32.3323 0.985291 31.7223C0.985291 31.1123 1.26529 30.4723 1.72529 30.0223L9.75529 22.6123C10.4253 21.9523 11.5153 21.7823 12.3853 22.2023C13.2653 22.5823 13.8253 23.4323 13.8253 24.3923V26.5923H26.2153V14.4223H23.9353C23.0253 14.4223 22.1553 13.8723 21.7253 13.0123C21.4753 12.5223 21.6653 11.9223 22.1553 11.6623C22.6453 11.4123 23.2453 11.6023 23.5053 12.0923C23.6053 12.2823 23.7753 12.4123 23.9353 12.4123H27.2153C27.7653 12.4123 28.2153 12.8623 28.2153 13.4123V27.5823C28.2153 28.1323 27.7653 28.5823 27.2153 28.5823H12.8253C12.2753 28.5823 11.8253 28.1323 11.8253 27.5823V24.3823C11.8253 24.2123 11.7353 24.0923 11.5453 24.0023C11.3853 23.9223 11.2053 23.9722 11.1253 24.0522L3.09529 31.4623C3.02529 31.5223 2.97529 31.6523 2.97529 31.7123C2.97529 31.7723 3.02529 31.8923 3.11529 31.9823L11.1053 39.3523C11.1053 39.3523 11.3353 39.5223 11.4953 39.4323C11.6853 39.3423 11.8153 39.1723 11.8153 39.0423V35.8423C11.8153 35.2923 12.2653 34.8423 12.8153 34.8423H27.2053C27.7553 34.8423 28.2053 35.2923 28.2053 35.8423V50.0123C28.2053 50.5623 27.7553 51.0123 27.2053 51.0123H23.9253C23.7353 51.0123 23.5953 51.1023 23.5153 51.2923C23.4453 51.4223 23.4753 51.5623 23.5553 51.6423L31.1353 59.4823C31.2653 59.6023 31.5653 59.6223 31.7353 59.4623L39.2153 51.6623C39.2153 51.6623 39.3653 51.4623 39.2953 51.3323C39.1953 51.1423 39.0253 51.0123 38.8653 51.0123H35.5853C35.0353 51.0123 34.5853 50.5623 34.5853 50.0123V35.8423C34.5853 35.2923 35.0353 34.8423 35.5853 34.8423H49.9753C50.5253 34.8423 50.9753 35.2923 50.9753 35.8423V39.0423C50.9753 39.2123 51.0653 39.3423 51.2553 39.4223C51.4153 39.5023 51.5953 39.4523 51.6753 39.3823L59.7053 31.9723C59.8253 31.8823 59.8253 31.7623 59.8253 31.7223C59.8253 31.5323 59.8153 31.5123 59.7453 31.4523L51.7553 24.0823C51.7553 24.0823 51.5253 23.9223 51.3553 24.0023C51.1653 24.0923 51.0353 24.2623 51.0353 24.3923V27.5923C51.0353 28.1423 50.5853 28.5923 50.0353 28.5923H35.6453C35.0953 28.5923 34.6453 28.1423 34.6453 27.5923V13.4223C34.6453 12.8723 35.0953 12.4223 35.6453 12.4223H38.9253C39.1153 12.4223 39.2553 12.3323 39.3353 12.1423C39.5653 11.6423 40.1553 11.4123 40.6553 11.6423C41.1553 11.8723 41.3853 12.4623 41.1553 12.9623C40.7453 13.8523 39.8953 14.4123 38.9253 14.4123H36.6453V26.5823H49.0353V24.3823C49.0353 23.4823 49.6053 22.6223 50.4753 22.1923C51.3053 21.7823 52.3053 21.9323 53.0653 22.5723L61.1053 29.9922C61.7253 30.6022 61.8053 31.2323 61.8053 31.7123C61.8053 32.4423 61.5153 33.0723 60.9753 33.4823L53.0353 40.8123C52.3653 41.4723 51.2753 41.6423 50.4053 41.2223C49.5353 40.8423 48.9653 39.9923 48.9653 39.0323V36.8323H36.5753V49.0023H38.8553C39.7653 49.0023 40.6353 49.5523 41.0653 50.4123C41.4953 51.2523 41.3453 52.2423 40.6753 53.0023L33.1453 60.8523C32.6653 61.3223 32.0253 61.5923 31.4153 61.5923L31.4253 61.6123Z" fill="#001C43"/>
</svg>
