<svg width="70" height="57" viewBox="0 0 70 57" fill="none" xmlns="http://www.w3.org/2000/svg">
<path d="M49.72 47.6962C49.49 47.6962 49.26 47.6162 49.07 47.4562L37.27 37.4662C36.85 37.1062 36.8 36.4762 37.15 36.0562C37.51 35.6362 38.14 35.5862 38.56 35.9362L48.72 44.5362V4.09624L37.07 13.9562C36.89 14.1062 36.66 14.1962 36.42 14.1962H12.93C7.36002 14.1962 2.83002 18.7262 2.83002 24.2962C2.83002 29.8662 7.36002 34.3962 12.93 34.3962H25.18C25.73 34.3962 26.18 34.8462 26.18 35.3962C26.18 35.9462 25.73 36.3962 25.18 36.3962H12.93C6.26002 36.3962 0.830017 30.9662 0.830017 24.2962C0.830017 17.6262 6.26002 12.1962 12.93 12.1962H36.05L49.07 1.17619C49.37 0.926191 49.78 0.866177 50.14 1.03618C50.49 1.19618 50.72 1.55621 50.72 1.94621V46.6962C50.72 47.0862 50.49 47.4362 50.14 47.6062C50.01 47.6662 49.86 47.6962 49.72 47.6962Z" fill="#001C43"/>
<path d="M30.46 56.1561C30.46 56.1561 30.45 56.1561 30.44 56.1561H19.51C19.09 56.1561 18.71 55.8962 18.57 55.4962L11.46 35.7362C11.35 35.4262 11.4 35.0862 11.58 34.8262C11.77 34.5562 12.07 34.4061 12.4 34.4061H23.33C23.75 34.4061 24.13 34.6662 24.27 35.0662L31.32 54.6561C31.41 54.8061 31.46 54.9861 31.46 55.1661C31.46 55.7161 31.01 56.1661 30.46 56.1661V56.1561ZM20.21 54.1561H29.02L22.63 36.3961H13.82L20.21 54.1561Z" fill="#001C43"/>
<path d="M61.99 38.3261C61.67 38.3261 61.35 38.1761 61.16 37.8861C60.85 37.4261 60.97 36.8062 61.43 36.4962C65.24 33.9262 67.51 29.6461 67.51 25.0561C67.51 20.2161 64.93 15.6761 60.77 13.1961C60.3 12.9161 60.14 12.2961 60.42 11.8261C60.7 11.3561 61.31 11.1962 61.79 11.4762C66.55 14.3162 69.5 19.5161 69.5 25.0561C69.5 30.5961 66.9 35.2161 62.53 38.1561C62.36 38.2761 62.16 38.3261 61.97 38.3261H61.99Z" fill="#001C43"/>
<path d="M35.36 36.3861H28.03C27.48 36.3861 27.03 35.9361 27.03 35.3861C27.03 34.8361 27.48 34.3861 28.03 34.3861H35.36C35.63 34.3861 35.85 34.1661 35.85 33.8961V26.2761C35.85 25.7261 36.3 25.2761 36.85 25.2761C37.4 25.2761 37.85 25.7261 37.85 26.2761V33.8961C37.85 35.2661 36.73 36.3861 35.36 36.3861Z" fill="#1DB8D9"/>
</svg>
