<svg width="106" height="63" viewBox="0 0 106 63" fill="none" xmlns="http://www.w3.org/2000/svg">
<path d="M63.8599 62.4697C63.3099 62.4697 62.8599 62.0197 62.8599 61.4697V51.9098C62.8599 51.3598 63.3099 50.9098 63.8599 50.9098H104.83C105.38 50.9098 105.83 51.3598 105.83 51.9098C105.83 52.4598 105.38 52.9098 104.83 52.9098H64.8599V61.4697C64.8599 62.0197 64.4099 62.4697 63.8599 62.4697Z" fill="#001C43"/>
<path d="M94.2799 52.9098H69.5099C69.2199 52.9098 68.9399 52.7798 68.7499 52.5598C68.5599 52.3398 68.4799 52.0398 68.5199 51.7498L76.3299 1.96973C76.4099 1.47973 76.8299 1.12976 77.3199 1.12976H86.4699C86.9599 1.12976 87.3799 1.48973 87.4599 1.96973L95.2699 51.7498C95.3099 52.0398 95.2299 52.3298 95.0399 52.5598C94.8499 52.7798 94.5699 52.9098 94.2799 52.9098ZM70.6799 50.9098H93.1099L85.6099 3.12976H78.1799L70.6799 50.9098Z" fill="#001C43"/>
<path d="M88.6799 19.1898H75.1899C74.6399 19.1898 74.1899 18.7398 74.1899 18.1898C74.1899 17.6398 74.6399 17.1898 75.1899 17.1898H88.6799C89.2299 17.1898 89.6799 17.6398 89.6799 18.1898C89.6799 18.7398 89.2299 19.1898 88.6799 19.1898Z" fill="#001C43"/>
<path d="M91.3799 36.8198H72.8599C72.3099 36.8198 71.8599 36.3698 71.8599 35.8198C71.8599 35.2698 72.3099 34.8198 72.8599 34.8198H91.3799C91.9299 34.8198 92.3799 35.2698 92.3799 35.8198C92.3799 36.3698 91.9299 36.8198 91.3799 36.8198Z" fill="#001C43"/>
<path d="M88.5999 2.93982H55.6799C55.1299 2.93982 54.6799 2.48982 54.6799 1.93982C54.6799 1.38982 55.1299 0.939819 55.6799 0.939819H88.5999C89.1499 0.939819 89.5999 1.38982 89.5999 1.93982C89.5999 2.48982 89.1499 2.93982 88.5999 2.93982Z" fill="#001C43"/>
<path d="M63.5399 16.1798C63.2799 16.1798 63.03 16.0798 62.83 15.8898L57.87 10.9398L52.9199 15.8898C52.5299 16.2798 51.9 16.2798 51.51 15.8898C51.12 15.4998 51.12 14.8698 51.51 14.4798L57.1699 8.81984C57.5599 8.42984 58.19 8.42984 58.58 8.81984L64.2399 14.4798C64.6299 14.8698 64.6299 15.4998 64.2399 15.8898C64.0399 16.0898 63.7899 16.1798 63.5299 16.1798H63.5399Z" fill="#001C43"/>
<path d="M14.6899 62.4597C14.2499 62.4597 13.8499 62.1697 13.7299 61.7297L6.29992 35.5297C6.15992 35.0297 6.41991 34.4998 6.90991 34.3198L25.27 27.4897C25.49 27.4097 25.7399 27.4097 25.9699 27.4897L44.4799 34.3198C44.9699 34.4998 45.2399 35.0297 45.0999 35.5297L37.8499 61.2397C37.6999 61.7697 37.1399 62.0798 36.6199 61.9298C36.0899 61.7798 35.7799 61.2298 35.9299 60.6998L42.9299 35.8697L25.64 29.4897L8.49994 35.8697L15.6699 61.1898C15.8199 61.7198 15.5099 62.2697 14.9799 62.4197C14.8899 62.4497 14.8 62.4597 14.71 62.4597H14.6899Z" fill="#001C43"/>
<path d="M11.3399 33.9897C10.7899 33.9897 10.3399 33.5397 10.3399 32.9897V21.8698C10.3399 21.3198 10.7899 20.8698 11.3399 20.8698H38.9899C39.5399 20.8698 39.9899 21.3198 39.9899 21.8698V32.6598C39.9899 33.2098 39.5399 33.6598 38.9899 33.6598C38.4399 33.6598 37.9899 33.2098 37.9899 32.6598V22.8698H12.3399V32.9897C12.3399 33.5397 11.8899 33.9897 11.3399 33.9897Z" fill="#001C43"/>
<path d="M33.5299 22.5498C32.9799 22.5498 32.5299 22.0998 32.5299 21.5498V14.3698H17.8099V21.5498C17.8099 22.0998 17.3599 22.5498 16.8099 22.5498C16.2599 22.5498 15.8099 22.0998 15.8099 21.5498V13.3698C15.8099 12.8198 16.2599 12.3698 16.8099 12.3698H33.5299C34.0799 12.3698 34.5299 12.8198 34.5299 13.3698V21.5498C34.5299 22.0998 34.0799 22.5498 33.5299 22.5498Z" fill="#001C43"/>
<path d="M25.5399 49.2598C24.9899 49.2598 24.5399 48.8098 24.5399 48.2598V28.4298C24.5399 27.8798 24.9899 27.4298 25.5399 27.4298C26.0899 27.4298 26.5399 27.8798 26.5399 28.4298V48.2598C26.5399 48.8098 26.0899 49.2598 25.5399 49.2598Z" fill="#001C43"/>
<path d="M65.7799 29.9498H49.4199C48.8699 29.9498 48.4199 29.4998 48.4199 28.9498V15.6598C48.4199 15.1098 48.8699 14.6598 49.4199 14.6598H53.2399C53.7899 14.6598 54.2399 15.1098 54.2399 15.6598C54.2399 16.2098 53.7899 16.6598 53.2399 16.6598H50.4199V27.9498H65.7799C66.3299 27.9498 66.7799 28.3998 66.7799 28.9498C66.7799 29.4998 66.3299 29.9498 65.7799 29.9498Z" fill="#001C43"/>
<path d="M66.7599 26.7197C66.2099 26.7197 65.7599 26.2697 65.7599 25.7197V17.3497C65.7599 16.9597 65.4499 16.6498 65.0599 16.6498H56.3599C55.8099 16.6498 55.3599 16.1998 55.3599 15.6498C55.3599 15.0998 55.8099 14.6498 56.3599 14.6498H65.0599C66.5499 14.6498 67.7599 15.8597 67.7599 17.3497V25.7197C67.7599 26.2697 67.3099 26.7197 66.7599 26.7197Z" fill="#1DB8D9"/>
<path d="M50.3399 62.7598H1.01996C0.469958 62.7598 0.0199585 62.3098 0.0199585 61.7598C0.0199585 61.2098 0.469958 60.7598 1.01996 60.7598H50.3399C50.8899 60.7598 51.3399 61.2098 51.3399 61.7598C51.3399 62.3098 50.8899 62.7598 50.3399 62.7598Z" fill="#001C43"/>
<path d="M57.8799 10.5198C57.3299 10.5198 56.8799 10.0698 56.8799 9.51978V2.23975C56.8799 1.68975 57.3299 1.23975 57.8799 1.23975C58.4299 1.23975 58.8799 1.68975 58.8799 2.23975V9.51978C58.8799 10.0698 58.4299 10.5198 57.8799 10.5198Z" fill="#001C43"/>
</svg>
