<svg width="32" height="63" viewBox="0 0 32 63" fill="none" xmlns="http://www.w3.org/2000/svg">
<path d="M17.3065 62.1121H15.5666C13.9166 62.1121 12.5666 60.7621 12.5666 59.1121V58.9821H12.3665C10.7165 58.9821 9.36655 57.6321 9.36655 55.9821V53.6421C7.86655 53.4721 6.70654 52.2021 6.70654 50.6621V45.5121H6.20654C4.55654 45.5121 3.20654 44.1621 3.20654 42.5121V35.4321C3.20654 33.7821 4.55654 32.4321 6.20654 32.4321H15.4166C15.9666 32.4321 16.4166 32.8821 16.4166 33.4321C16.4166 33.9821 15.9666 34.4321 15.4166 34.4321H6.20654C5.65654 34.4321 5.20654 34.8821 5.20654 35.4321V42.5121C5.20654 43.0621 5.65654 43.5121 6.20654 43.5121H7.70654C8.25654 43.5121 8.70654 43.9621 8.70654 44.5121V50.6621C8.70654 51.2121 9.15654 51.6621 9.70654 51.6621H10.3665C10.9165 51.6621 11.3665 52.1121 11.3665 52.6621V55.9821C11.3665 56.5321 11.8165 56.9821 12.3665 56.9821H13.5666C14.1166 56.9821 14.5666 57.4321 14.5666 57.9821V59.1121C14.5666 59.6621 15.0166 60.1121 15.5666 60.1121H17.3065C17.8565 60.1121 18.3065 59.6621 18.3065 59.1121V57.9821C18.3065 57.4321 18.7565 56.9821 19.3065 56.9821H20.5066C21.0566 56.9821 21.5066 56.5321 21.5066 55.9821V52.6621C21.5066 52.1121 21.9566 51.6621 22.5066 51.6621H23.1666C23.7166 51.6621 24.1666 51.2121 24.1666 50.6621V44.5121C24.1666 43.9621 24.6166 43.5121 25.1666 43.5121H26.3365C26.8865 43.5121 27.3365 43.9621 27.3365 44.5121C27.3365 45.0621 26.8865 45.5121 26.3365 45.5121H26.1666V50.6621C26.1666 52.2021 24.9966 53.4721 23.5066 53.6421V55.9821C23.5066 57.6321 22.1566 58.9821 20.5066 58.9821H20.3065V59.1121C20.3065 60.7621 18.9565 62.1121 17.3065 62.1121Z" fill="#001C43"/>
<path d="M9.02655 33.7021C8.47655 33.7021 8.02655 33.2521 8.02655 32.7021V28.6221C8.02655 28.0721 8.47655 27.6221 9.02655 27.6221C9.57655 27.6221 10.0266 28.0721 10.0266 28.6221V32.7021C10.0266 33.2521 9.57655 33.7021 9.02655 33.7021Z" fill="#001C43"/>
<path d="M23.0366 33.7021C22.4866 33.7021 22.0366 33.2521 22.0366 32.7021V24.5321C22.0366 23.9821 22.4866 23.5321 23.0366 23.5321C23.5866 23.5321 24.0366 23.9821 24.0366 24.5321V32.7021C24.0366 33.2521 23.5866 33.7021 23.0366 33.7021Z" fill="#001C43"/>
<path d="M28.6266 43.9721C28.0766 43.9721 27.6266 43.5221 27.6266 42.9721V35.0321C27.6266 34.6921 27.3565 34.4221 27.0165 34.4221H18.7665C18.2165 34.4221 17.7665 33.9721 17.7665 33.4221C17.7665 32.8721 18.2165 32.4221 18.7665 32.4221H27.0165C28.4565 32.4221 29.6266 33.5921 29.6266 35.0321V42.9721C29.6266 43.5221 29.1766 43.9721 28.6266 43.9721Z" fill="#1DB8D9"/>
<path d="M26.3365 45.5121H7.70654C7.15654 45.5121 6.70654 45.0621 6.70654 44.5121C6.70654 43.9621 7.15654 43.5121 7.70654 43.5121H26.3365C26.8865 43.5121 27.3365 43.9621 27.3365 44.5121C27.3365 45.0621 26.8865 45.5121 26.3365 45.5121Z" fill="#001C43"/>
<path d="M1.13658 30.8921C0.696585 30.8921 0.296563 30.6021 0.176563 30.1621C0.026563 29.6321 0.346575 29.0821 0.876575 28.9321L30.3866 20.8021C30.9166 20.6521 31.4666 20.9721 31.6166 21.5021C31.7666 22.0321 31.4466 22.5821 30.9166 22.7321L1.40657 30.8621C1.31657 30.8821 1.22659 30.9021 1.13658 30.9021V30.8921Z" fill="#001C43"/>
<path d="M1.13658 22.7721C0.696585 22.7721 0.296563 22.4821 0.176563 22.0421C0.026563 21.5121 0.346575 20.9621 0.876575 20.8121L30.3866 12.6821C30.9166 12.5321 31.4666 12.8521 31.6166 13.3821C31.7666 13.9121 31.4466 14.4621 30.9166 14.6121L1.40657 22.7421C1.31657 22.7621 1.22659 22.7821 1.13658 22.7821V22.7721Z" fill="#001C43"/>
<path d="M1.13658 14.6421C0.696585 14.6421 0.296563 14.3521 0.176563 13.9121C0.026563 13.3821 0.346575 12.8321 0.876575 12.6821L30.3866 4.55211C30.9166 4.40211 31.4666 4.72211 31.6166 5.25211C31.7666 5.78211 31.4466 6.33211 30.9166 6.48211L1.40657 14.6121C1.31657 14.6321 1.22659 14.6521 1.13658 14.6521V14.6421Z" fill="#001C43"/>
<path d="M1.13656 6.71208C0.716561 6.71208 0.316549 6.44208 0.186549 6.01208C0.0165487 5.48208 0.306543 4.92209 0.836543 4.75209L12.5666 0.992091C13.0966 0.822091 13.6565 1.11208 13.8265 1.64208C13.9965 2.17208 13.7065 2.73208 13.1765 2.90208L1.44656 6.66209C1.34656 6.69209 1.23656 6.71208 1.13656 6.71208Z" fill="#001C43"/>
</svg>
