<svg width="55" height="60" viewBox="0 0 55 60" fill="none" xmlns="http://www.w3.org/2000/svg">
<path d="M27.5001 45.8397C26.6401 45.8397 25.8201 45.5297 25.1701 44.9597C24.5501 44.4097 10.0901 31.4597 10.0901 17.8497C10.0901 8.19973 17.9001 0.339722 27.5001 0.339722C37.1001 0.339722 44.9101 8.18973 44.9101 17.8497C44.9101 31.4597 30.4401 44.4097 29.8301 44.9597C29.1901 45.5297 28.3601 45.8397 27.5001 45.8397ZM27.5001 2.33972C19.0001 2.33972 12.0901 9.29973 12.0901 17.8497C12.0901 30.5697 25.9101 42.9397 26.5001 43.4597C27.0601 43.9497 27.9501 43.9497 28.5001 43.4597C29.0901 42.9397 42.9101 30.5597 42.9101 17.8497C42.9101 9.29973 36.0001 2.33972 27.5001 2.33972ZM27.5001 23.1597C24.6001 23.1597 22.2501 20.7797 22.2501 17.8497C22.2501 14.9197 24.6101 12.5397 27.5001 12.5397C30.3901 12.5397 32.7501 14.9197 32.7501 17.8497C32.7501 20.7797 30.3901 23.1597 27.5001 23.1597ZM27.5001 14.5297C25.7101 14.5297 24.2501 16.0197 24.2501 17.8397C24.2501 19.6597 25.7101 21.1497 27.5001 21.1497C29.2901 21.1497 30.7501 19.6597 30.7501 17.8397C30.7501 16.0197 29.2901 14.5297 27.5001 14.5297Z" fill="#001C43"/>
<path d="M53.9201 45.6697C53.3701 45.6697 52.9201 45.2197 52.9201 44.6697V29.0897H41.4401C40.8901 29.0897 40.4401 28.6397 40.4401 28.0897C40.4401 27.5397 40.8901 27.0897 41.4401 27.0897H53.9201C54.4701 27.0897 54.9201 27.5397 54.9201 28.0897V44.6697C54.9201 45.2197 54.4701 45.6697 53.9201 45.6697Z" fill="#001C43"/>
<path d="M40.58 59.8897H1.08005C0.530048 59.8897 0.0800476 59.4397 0.0800476 58.8897V28.0997C0.0800476 27.5497 0.530048 27.0997 1.08005 27.0997H13.26C13.81 27.0997 14.26 27.5497 14.26 28.0997C14.26 28.6497 13.81 29.0997 13.26 29.0997H2.08005V57.8897H40.59C41.14 57.8897 41.59 58.3397 41.59 58.8897C41.59 59.4397 41.14 59.8897 40.59 59.8897H40.58Z" fill="#001C43"/>
<path d="M52.18 59.8897H43.6C43.05 59.8897 42.6 59.4397 42.6 58.8897C42.6 58.3397 43.05 57.8897 43.6 57.8897H52.18C52.59 57.8897 52.92 57.5597 52.92 57.1497V48.2297C52.92 47.6797 53.37 47.2297 53.92 47.2297C54.47 47.2297 54.92 47.6797 54.92 48.2297V57.1497C54.92 58.6597 53.69 59.8897 52.18 59.8897Z" fill="#1DB8D9"/>
</svg>
