<svg width="61" height="60" viewBox="0 0 61 60" fill="none" xmlns="http://www.w3.org/2000/svg">
<path d="M52.2853 31.8003C51.7353 31.8003 51.2853 31.3503 51.2853 30.8003V23.7503C51.2853 23.2003 51.7353 22.7503 52.2853 22.7503C52.8353 22.7503 53.2853 23.2003 53.2853 23.7503V30.8003C53.2853 31.3503 52.8353 31.8003 52.2853 31.8003Z" fill="#001C43"/>
<path d="M7.51526 31.8003C6.96526 31.8003 6.51526 31.3503 6.51526 30.8003V10.7403C6.51526 10.1903 6.96526 9.7403 7.51526 9.7403H38.8353C39.3853 9.7403 39.8353 10.1903 39.8353 10.7403C39.8353 11.2903 39.3853 11.7403 38.8353 11.7403H8.51526V30.8003C8.51526 31.3503 8.06526 31.8003 7.51526 31.8003Z" fill="#001C43"/>
<path d="M52.2852 22.0703C51.7352 22.0703 51.2852 21.6203 51.2852 21.0703V12.4903C51.2852 12.0803 50.9552 11.7503 50.5452 11.7503H41.6252C41.0752 11.7503 40.6252 11.3003 40.6252 10.7503C40.6252 10.2003 41.0752 9.75031 41.6252 9.75031H50.5452C52.0552 9.75031 53.2852 10.9803 53.2852 12.4903V21.0703C53.2852 21.6203 52.8352 22.0703 52.2852 22.0703Z" fill="#1DB8D9"/>
<path d="M58.4152 59.7503H1.08521C0.535205 59.7503 0.0852051 59.3003 0.0852051 58.7503V28.0803C0.0852051 27.7303 0.265195 27.4004 0.575195 27.2204C0.875195 27.0404 1.25522 27.0303 1.56522 27.2003L30.0152 42.4203L58.7952 27.2003C59.1052 27.0303 59.4752 27.0503 59.7752 27.2303C60.0752 27.4103 60.2552 27.7404 60.2552 28.0904V58.7603C60.2552 59.3103 59.8052 59.7603 59.2552 59.7603H58.4252L58.4152 59.7503ZM2.08521 57.7503H54.4252L2.08521 29.7503V57.7503ZM32.1252 43.5503L58.2452 57.5203V29.7403L32.1252 43.5503Z" fill="#001C43"/>
<path d="M1.07523 29.0904C0.815231 29.0904 0.565239 28.9903 0.365239 28.7903C-0.0247608 28.4003 -0.0147608 27.7603 0.365239 27.3803L6.55524 21.2503C6.94524 20.8603 7.57525 20.8603 7.96525 21.2503C8.35525 21.6403 8.34525 22.2803 7.96525 22.6603L1.77524 28.7903C1.58524 28.9803 1.32523 29.0803 1.07523 29.0803V29.0904Z" fill="#001C43"/>
<path d="M19.2052 11.3203C18.9252 11.3203 18.6552 11.2103 18.4552 10.9803C18.0852 10.5703 18.1252 9.93032 18.5452 9.57032L27.1152 2.01033C28.8752 0.460325 31.4552 0.420289 33.2552 1.91029L40.5752 7.97035C41.0052 8.32035 41.0552 8.95032 40.7052 9.38032C40.3552 9.81032 39.7252 9.87033 39.2952 9.51033L31.9752 3.45033C30.9352 2.59033 29.4452 2.61033 28.4352 3.51033L19.8652 11.0703C19.6752 11.2403 19.4352 11.3203 19.2052 11.3203Z" fill="#001C43"/>
<path d="M59.2452 29.0903C58.9852 29.0903 58.7252 28.9903 58.5252 28.7903L53.6152 23.7503C53.2352 23.3503 53.2353 22.7203 53.6353 22.3403C54.0353 21.9603 54.6652 21.9603 55.0452 22.3603L59.9552 27.4003C60.3352 27.8003 60.3352 28.4303 59.9352 28.8103C59.7452 29.0003 59.4852 29.0903 59.2352 29.0903H59.2452Z" fill="#001C43"/>
<path d="M31.4653 26.4103H16.1553C15.6053 26.4103 15.1553 25.9603 15.1553 25.4103C15.1553 24.8603 15.6053 24.4103 16.1553 24.4103H31.4653C32.0153 24.4103 32.4653 24.8603 32.4653 25.4103C32.4653 25.9603 32.0153 26.4103 31.4653 26.4103Z" fill="#001C43"/>
<path d="M41.3353 20.8703H16.1553C15.6053 20.8703 15.1553 20.4203 15.1553 19.8703C15.1553 19.3203 15.6053 18.8703 16.1553 18.8703H41.3353C41.8853 18.8703 42.3353 19.3203 42.3353 19.8703C42.3353 20.4203 41.8853 20.8703 41.3353 20.8703Z" fill="#001C43"/>
</svg>
