<svg width="111" height="58" viewBox="0 0 111 58" fill="none" xmlns="http://www.w3.org/2000/svg">
<path d="M22.35 57.6598C22.21 57.6598 22.07 57.6298 21.93 57.5698C21.65 57.4398 14.93 54.2098 8.98001 42.3098C8.73001 41.8198 8.92999 41.2198 9.42999 40.9698C9.91999 40.7298 10.52 40.9198 10.77 41.4198C16.38 52.6298 22.71 55.7297 22.78 55.7597C23.28 55.9997 23.49 56.5898 23.26 57.0898C23.09 57.4498 22.73 57.6698 22.35 57.6698V57.6598Z" fill="#001C43"/>
<path d="M90.81 51.2698C90.81 51.2698 90.73 51.2698 90.69 51.2698C90.14 51.2498 89.7 50.7899 89.72 50.2399C89.74 49.6899 90.25 49.2498 90.75 49.2698C91.7 49.2898 92.53 48.5399 92.56 47.5699C92.57 47.0999 92.41 46.6599 92.08 46.3199C91.76 45.9799 91.33 45.7798 90.86 45.7598L43.15 43.7499C42.6 43.7299 42.17 43.2599 42.19 42.7099C42.21 42.1599 42.68 41.7399 43.23 41.7499L90.94 43.7598C91.93 43.7898 92.86 44.2099 93.55 44.9499C94.24 45.6799 94.6 46.6398 94.56 47.6398C94.49 49.6698 92.82 51.2698 90.81 51.2698Z" fill="#001C43"/>
<path d="M43.18 43.6798C43.18 43.6798 43.14 43.6798 43.12 43.6798C42.57 43.6498 42.15 43.1698 42.18 42.6198C42.24 41.6598 41.5 40.8197 40.54 40.7597L9.42998 37.2597C8.51998 37.1797 7.67998 37.9397 7.61998 38.9097C7.55998 39.8697 8.3 40.7097 9.26 40.7697C9.81 40.7997 10.23 41.2798 10.2 41.8298C10.16 42.3798 9.68 42.7797 9.14 42.7697C7.07 42.6397 5.49999 40.8497 5.62999 38.7897C5.68999 37.7897 6.14 36.8798 6.89 36.2098C7.64 35.5398 8.60997 35.2097 9.60997 35.2797L40.72 38.7797C41.67 38.8397 42.58 39.2897 43.25 40.0397C43.91 40.7897 44.25 41.7597 44.18 42.7597C44.15 43.2897 43.71 43.6998 43.18 43.6998V43.6798Z" fill="#001C43"/>
<path d="M70.15 44.0398C69.6 44.0398 69.15 43.5898 69.15 43.0398V35.1798H34.55V37.8599C34.55 38.4099 34.1 38.8599 33.55 38.8599C33 38.8599 32.55 38.4099 32.55 37.8599V34.1798C32.55 33.6298 33 33.1798 33.55 33.1798H70.15C70.7 33.1798 71.15 33.6298 71.15 34.1798V43.0398C71.15 43.5898 70.7 44.0398 70.15 44.0398Z" fill="#001C43"/>
<path d="M85.43 57.6598C85.07 57.6598 84.73 57.4699 84.55 57.1299C84.29 56.6399 84.47 56.0398 84.96 55.7798C89.06 53.5698 89.71 50.2398 89.74 50.0998C89.84 49.5598 90.36 49.1898 90.9 49.2898C91.44 49.3898 91.8 49.8998 91.71 50.4398C91.68 50.6198 90.91 54.8598 85.91 57.5398C85.76 57.6198 85.6 57.6598 85.44 57.6598H85.43Z" fill="#001C43"/>
<path d="M38.46 34.9298C37.91 34.9298 37.46 34.4798 37.46 33.9298V22.6199C37.46 22.0699 37.91 21.6199 38.46 21.6199H46.92C47.47 21.6199 47.92 22.0699 47.92 22.6199C47.92 23.1699 47.47 23.6199 46.92 23.6199H39.46V33.9298C39.46 34.4798 39.01 34.9298 38.46 34.9298Z" fill="#001C43"/>
<path d="M44.42 23.4698C43.87 23.4698 43.42 23.0198 43.42 22.4698V1.93982C43.42 1.38982 43.87 0.939819 44.42 0.939819C44.97 0.939819 45.42 1.38982 45.42 1.93982V22.4698C45.42 23.0198 44.97 23.4698 44.42 23.4698Z" fill="#001C43"/>
<path d="M59.09 33.1299C58.54 33.1299 58.09 32.6799 58.09 32.1299V23.6199H49.4C48.85 23.6199 48.4 23.1699 48.4 22.6199C48.4 22.0699 48.85 21.6199 49.4 21.6199H58.19C59.24 21.6199 60.09 22.4698 60.09 23.5198V32.1398C60.09 32.6898 59.64 33.1398 59.09 33.1398V33.1299Z" fill="#1DB8D9"/>
<path d="M109.22 57.7898H1.5C0.95 57.7898 0.5 57.3398 0.5 56.7898C0.5 56.2398 0.95 55.7898 1.5 55.7898H109.22C109.77 55.7898 110.22 56.2398 110.22 56.7898C110.22 57.3398 109.77 57.7898 109.22 57.7898Z" fill="#001C43"/>
</svg>
