<svg width="74" height="70" viewBox="0 0 74 70" fill="none" xmlns="http://www.w3.org/2000/svg">
<path d="M13.9845 16.7798C13.4345 16.7798 12.9845 16.3298 12.9845 15.7798V7.70984C12.9845 7.35984 12.6945 7.06982 12.3445 7.06982H3.95453C3.40453 7.06982 2.95453 6.61982 2.95453 6.06982C2.95453 5.51982 3.40453 5.06982 3.95453 5.06982H12.3445C13.8045 5.06982 14.9845 6.24984 14.9845 7.70984V15.7798C14.9845 16.3298 14.5345 16.7798 13.9845 16.7798Z" fill="#1DB8D9"/>
<path d="M14.0145 57.0298H1.32452C0.774524 57.0298 0.324524 56.5798 0.324524 56.0298V8.68982C0.324524 8.13982 0.774524 7.68982 1.32452 7.68982C1.87452 7.68982 2.32452 8.13982 2.32452 8.68982V55.0298H13.0145V19.4099C13.0145 18.8599 13.4645 18.4099 14.0145 18.4099C14.5645 18.4099 15.0145 18.8599 15.0145 19.4099V56.0298C15.0145 56.5798 14.5645 57.0298 14.0145 57.0298Z" fill="#001C43"/>
<path d="M8.05454 69.9398H7.28455C6.89455 69.9398 6.54454 69.7098 6.37454 69.3598L0.414538 56.4598C0.274538 56.1498 0.294545 55.7898 0.484545 55.4998C0.664545 55.2098 0.984541 55.0398 1.32454 55.0398H14.0145C14.3545 55.0398 14.6745 55.2098 14.8545 55.4998C15.0345 55.7898 15.0645 56.1498 14.9245 56.4598L8.96454 69.3598C8.80454 69.7098 8.44454 69.9398 8.05454 69.9398ZM2.89455 57.0398L7.67455 67.3898L12.4545 57.0398H2.89455Z" fill="#001C43"/>
<path d="M10.9745 15.6499H1.64453C1.09453 15.6499 0.644531 15.1999 0.644531 14.6499C0.644531 14.0999 1.09453 13.6499 1.64453 13.6499H10.9745C11.5245 13.6499 11.9745 14.0999 11.9745 14.6499C11.9745 15.1999 11.5245 15.6499 10.9745 15.6499Z" fill="#001C43"/>
<path d="M72.2946 65.0598H29.9346C29.3846 65.0598 28.9346 64.6098 28.9346 64.0598V7.75977C28.9346 7.20977 29.3846 6.75977 29.9346 6.75977H72.2946C72.8446 6.75977 73.2946 7.20977 73.2946 7.75977V64.0598C73.2946 64.6098 72.8446 65.0598 72.2946 65.0598ZM30.9346 63.0598H71.2946V8.75977H30.9346V63.0598Z" fill="#001C43"/>
<path d="M39.4246 15.8398C38.8746 15.8398 38.4246 15.3898 38.4246 14.8398V1.83984C38.4246 1.28984 38.8746 0.839844 39.4246 0.839844C39.9746 0.839844 40.4246 1.28984 40.4246 1.83984V14.8398C40.4246 15.3898 39.9746 15.8398 39.4246 15.8398Z" fill="#001C43"/>
<path d="M51.2745 15.8398C50.7245 15.8398 50.2745 15.3898 50.2745 14.8398V1.83984C50.2745 1.28984 50.7245 0.839844 51.2745 0.839844C51.8245 0.839844 52.2745 1.28984 52.2745 1.83984V14.8398C52.2745 15.3898 51.8245 15.8398 51.2745 15.8398Z" fill="#001C43"/>
<path d="M63.1246 15.8398C62.5746 15.8398 62.1246 15.3898 62.1246 14.8398V1.83984C62.1246 1.28984 62.5746 0.839844 63.1246 0.839844C63.6746 0.839844 64.1246 1.28984 64.1246 1.83984V14.8398C64.1246 15.3898 63.6746 15.8398 63.1246 15.8398Z" fill="#001C43"/>
<path d="M64.0146 29.2698H39.4745C38.9245 29.2698 38.4745 28.8198 38.4745 28.2698C38.4745 27.7198 38.9245 27.2698 39.4745 27.2698H64.0146C64.5646 27.2698 65.0146 27.7198 65.0146 28.2698C65.0146 28.8198 64.5646 29.2698 64.0146 29.2698Z" fill="#001C43"/>
<path d="M64.0146 37.7598H39.4745C38.9245 37.7598 38.4745 37.3098 38.4745 36.7598C38.4745 36.2098 38.9245 35.7598 39.4745 35.7598H64.0146C64.5646 35.7598 65.0146 36.2098 65.0146 36.7598C65.0146 37.3098 64.5646 37.7598 64.0146 37.7598Z" fill="#001C43"/>
<path d="M55.8946 46.2598H39.4745C38.9245 46.2598 38.4745 45.8098 38.4745 45.2598C38.4745 44.7098 38.9245 44.2598 39.4745 44.2598H55.8946C56.4446 44.2598 56.8946 44.7098 56.8946 45.2598C56.8946 45.8098 56.4446 46.2598 55.8946 46.2598Z" fill="#001C43"/>
</svg>
