<svg width="72" height="62" viewBox="0 0 72 62" fill="none" xmlns="http://www.w3.org/2000/svg">
<path d="M66.6636 49.0238H5.11365C2.35365 49.0238 0.113647 46.7838 0.113647 44.0238V4.99384C0.113647 2.23384 2.35365 -0.00616455 5.11365 -0.00616455H66.6636C69.4236 -0.00616455 71.6636 2.23384 71.6636 4.99384V44.0238C71.6636 46.7838 69.4236 49.0238 66.6636 49.0238ZM5.11365 1.99384C3.46365 1.99384 2.11365 3.34384 2.11365 4.99384V44.0238C2.11365 45.6738 3.46365 47.0238 5.11365 47.0238H66.6636C68.3136 47.0238 69.6636 45.6738 69.6636 44.0238V4.99384C69.6636 3.34384 68.3136 1.99384 66.6636 1.99384H5.11365Z" fill="#001C43"/>
<path d="M65.7037 38.5739H6.06372C5.51372 38.5739 5.06372 38.1239 5.06372 37.5739V6.57385C5.06372 6.02385 5.51372 5.57385 6.06372 5.57385H51.9137C52.4637 5.57385 52.9137 6.02385 52.9137 6.57385C52.9137 7.12385 52.4637 7.57385 51.9137 7.57385H7.06372V36.5739H64.7037V19.7939C64.7037 19.2439 65.1537 18.7939 65.7037 18.7939C66.2537 18.7939 66.7037 19.2439 66.7037 19.7939V37.5739C66.7037 38.1239 66.2537 38.5739 65.7037 38.5739Z" fill="#001C43"/>
<path d="M50.2936 61.8838H21.4836C19.5336 61.8838 17.9436 60.2938 17.9436 58.3438C17.9436 56.3938 19.5336 54.8038 21.4836 54.8038H50.2936C52.2436 54.8038 53.8336 56.3938 53.8336 58.3438C53.8336 60.2938 52.2436 61.8838 50.2936 61.8838ZM21.4836 56.7938C20.6336 56.7938 19.9436 57.4838 19.9436 58.3338C19.9436 59.1838 20.6336 59.8738 21.4836 59.8738H50.2936C51.1436 59.8738 51.8336 59.1838 51.8336 58.3338C51.8336 57.4838 51.1436 56.7938 50.2936 56.7938H21.4836Z" fill="#001C43"/>
<path d="M46.6236 56.8138H25.1536C24.6036 56.8138 24.1536 56.3638 24.1536 55.8138V47.9938C24.1536 47.4438 24.6036 46.9938 25.1536 46.9938H46.6236C47.1736 46.9938 47.6236 47.4438 47.6236 47.9938V55.8138C47.6236 56.3638 47.1736 56.8138 46.6236 56.8138ZM26.1536 54.8138H45.6236V48.9938H26.1536V54.8138Z" fill="#001C43"/>
<path d="M65.7037 17.6538C65.1537 17.6538 64.7037 17.2038 64.7037 16.6538V8.27386C64.7037 7.88386 64.3837 7.57385 64.0037 7.57385H55.2937C54.7437 7.57385 54.2937 7.12385 54.2937 6.57385C54.2937 6.02385 54.7437 5.57385 55.2937 5.57385H64.0037C65.4937 5.57385 66.7037 6.78386 66.7037 8.27386V16.6538C66.7037 17.2038 66.2537 17.6538 65.7037 17.6538Z" fill="#1DB8D9"/>
<path d="M43.6737 30.8838H28.4137C25.3937 30.8838 23.5237 28.5938 23.5237 24.9138V19.2338C23.5237 15.4938 25.3037 13.2638 28.2937 13.2638H43.8037C45.8337 13.2638 48.2537 14.2938 48.2537 19.2338V24.9138C48.2537 28.7638 46.6237 30.8838 43.6737 30.8838ZM28.2937 14.4638C25.1837 14.4638 24.7237 17.4538 24.7237 19.2338V24.9138C24.7237 26.3438 25.0837 29.6838 28.4237 29.6838H43.6837C45.9237 29.6838 47.0637 28.0738 47.0637 24.9138V19.2338C47.0637 14.9538 45.2037 14.4638 43.8037 14.4638H28.2937Z" fill="#001C43"/>
<path d="M33.5237 26.1538C33.4137 26.1538 33.3137 26.1238 33.2137 26.0638C33.0337 25.9538 32.9237 25.7638 32.9237 25.5538V18.8638C32.9237 18.6538 33.0337 18.4638 33.2137 18.3538C33.3937 18.2438 33.6137 18.2438 33.8037 18.3338L40.2137 21.6838C40.4137 21.7838 40.5337 21.9938 40.5337 22.2138C40.5337 22.4338 40.4137 22.6438 40.2137 22.7438L33.8037 26.0838C33.7137 26.1338 33.6237 26.1538 33.5237 26.1538ZM34.1237 19.8538V24.5738L38.6437 22.2138L34.1237 19.8538Z" fill="#001C43"/>
</svg>
