<svg width="76" height="58" viewBox="0 0 76 58" fill="none" xmlns="http://www.w3.org/2000/svg">
<path d="M6.54948 44.5663C6.29948 44.5663 6.05949 44.4763 5.86949 44.2963C5.46949 43.9163 5.44944 43.2863 5.81944 42.8863L20.3995 27.2863C20.7695 26.8863 21.4094 26.8563 21.8094 27.2363L34.9895 39.4463L71.8395 2.59633C72.2295 2.20633 72.8594 2.20633 73.2494 2.59633C73.6394 2.98633 73.6394 3.61634 73.2494 4.00634L35.7195 41.5363C35.3395 41.9163 34.7294 41.9263 34.3294 41.5663L21.1695 29.3763L7.26945 44.2563C7.06945 44.4663 6.80947 44.5763 6.53947 44.5763L6.54948 44.5663Z" fill="#001C43"/>
<path d="M74.2695 15.7264C73.7195 15.7264 73.2695 15.2764 73.2695 14.7264V3.79636C73.2695 3.12636 72.7195 2.57635 72.0495 2.57635H60.6795C60.1295 2.57635 59.6795 2.12635 59.6795 1.57635C59.6795 1.02635 60.1295 0.576355 60.6795 0.576355H72.0495C73.8295 0.576355 75.2695 2.01636 75.2695 3.79636V14.7264C75.2695 15.2764 74.8195 15.7264 74.2695 15.7264Z" fill="#1DB8D9"/>
<path d="M74.8195 57.4664H1.75946C1.20946 57.4664 0.75946 57.0164 0.75946 56.4664C0.75946 55.9164 1.20946 55.4664 1.75946 55.4664H74.8195C75.3695 55.4664 75.8195 55.9164 75.8195 56.4664C75.8195 57.0164 75.3695 57.4664 74.8195 57.4664Z" fill="#001C43"/>
<path d="M6.5495 57.3363C5.9995 57.3363 5.5495 56.8863 5.5495 56.3363V43.5063C5.5495 42.9563 5.9995 42.5063 6.5495 42.5063C7.0995 42.5063 7.5495 42.9563 7.5495 43.5063V56.3363C7.5495 56.8863 7.0995 57.3363 6.5495 57.3363Z" fill="#001C43"/>
<path d="M35.2195 57.3364C34.6695 57.3364 34.2195 56.8864 34.2195 56.3364V40.9364C34.2195 40.3864 34.6695 39.9364 35.2195 39.9364C35.7695 39.9364 36.2195 40.3864 36.2195 40.9364V56.3364C36.2195 56.8864 35.7695 57.3364 35.2195 57.3364Z" fill="#001C43"/>
<path d="M20.8795 57.3364C20.3295 57.3364 19.8795 56.8864 19.8795 56.3364V28.4064C19.8795 27.8564 20.3295 27.4064 20.8795 27.4064C21.4295 27.4064 21.8795 27.8564 21.8795 28.4064V56.3364C21.8795 56.8864 21.4295 57.3364 20.8795 57.3364Z" fill="#001C43"/>
<path d="M49.5495 57.3364C48.9995 57.3364 48.5495 56.8864 48.5495 56.3364V26.3964C48.5495 25.8464 48.9995 25.3964 49.5495 25.3964C50.0995 25.3964 50.5495 25.8464 50.5495 26.3964V56.3364C50.5495 56.8864 50.0995 57.3364 49.5495 57.3364Z" fill="#001C43"/>
<path d="M63.8895 57.3364C63.3395 57.3364 62.8895 56.8864 62.8895 56.3364V12.3164C62.8895 11.7664 63.3395 11.3164 63.8895 11.3164C64.4395 11.3164 64.8895 11.7664 64.8895 12.3164V56.3364C64.8895 56.8864 64.4395 57.3364 63.8895 57.3364Z" fill="#001C43"/>
</svg>
