<svg width="58" height="58" viewBox="0 0 58 58" fill="none" xmlns="http://www.w3.org/2000/svg">
<path d="M29.2035 19.6797C28.6535 19.6797 28.2035 19.2297 28.2035 18.6797V12.6897C28.2035 12.1397 28.6535 11.6897 29.2035 11.6897C29.7535 11.6897 30.2035 12.1397 30.2035 12.6897V18.6797C30.2035 19.2297 29.7535 19.6797 29.2035 19.6797Z" fill="#001C43"/>
<path d="M40.7335 30.2098H31.0835C29.4935 30.2098 28.2035 28.8998 28.2035 27.2898V17.8098C28.2035 17.2598 28.6535 16.8098 29.2035 16.8098C29.7535 16.8098 30.2035 17.2598 30.2035 17.8098V27.2898C30.2035 27.7998 30.6035 28.2098 31.0835 28.2098H40.7335C41.2835 28.2098 41.7335 28.6598 41.7335 29.2098C41.7335 29.7598 41.2835 30.2098 40.7335 30.2098Z" fill="#1DB8D9"/>
<path d="M29.2035 57.5798C13.5635 57.5798 0.833496 44.8497 0.833496 29.2097C0.833496 13.5697 13.5635 0.839722 29.2035 0.839722C44.8435 0.839722 57.5735 13.5697 57.5735 29.2097C57.5735 44.8497 44.8435 57.5798 29.2035 57.5798ZM29.2035 2.83972C14.6635 2.83972 2.8335 14.6697 2.8335 29.2097C2.8335 43.7497 14.6635 55.5798 29.2035 55.5798C43.7435 55.5798 55.5735 43.7497 55.5735 29.2097C55.5735 14.6697 43.7435 2.83972 29.2035 2.83972Z" fill="#001C43"/>
<path d="M7.03351 30.4297H5.82349C5.27349 30.4297 4.82349 29.9797 4.82349 29.4297C4.82349 28.8797 5.27349 28.4297 5.82349 28.4297H7.03351C7.58351 28.4297 8.03351 28.8797 8.03351 29.4297C8.03351 29.9797 7.58351 30.4297 7.03351 30.4297Z" fill="#001C43"/>
<path d="M52.5835 30.4297H51.3735C50.8235 30.4297 50.3735 29.9797 50.3735 29.4297C50.3735 28.8797 50.8235 28.4297 51.3735 28.4297H52.5835C53.1335 28.4297 53.5835 28.8797 53.5835 29.4297C53.5835 29.9797 53.1335 30.4297 52.5835 30.4297Z" fill="#001C43"/>
<path d="M29.2035 8.25983C28.6535 8.25983 28.2035 7.80983 28.2035 7.25983V6.0498C28.2035 5.4998 28.6535 5.0498 29.2035 5.0498C29.7535 5.0498 30.2035 5.4998 30.2035 6.0498V7.25983C30.2035 7.80983 29.7535 8.25983 29.2035 8.25983Z" fill="#001C43"/>
<path d="M29.2035 53.8099C28.6535 53.8099 28.2035 53.3599 28.2035 52.8099V51.5999C28.2035 51.0499 28.6535 50.5999 29.2035 50.5999C29.7535 50.5999 30.2035 51.0499 30.2035 51.5999V52.8099C30.2035 53.3599 29.7535 53.8099 29.2035 53.8099Z" fill="#001C43"/>
</svg>
