<svg width="87" height="61" viewBox="0 0 87 61" fill="none" xmlns="http://www.w3.org/2000/svg">
<path d="M34.7336 60.454H5.36365C2.60365 60.454 0.363647 58.214 0.363647 55.454V4.99402C0.363647 2.23402 2.60365 -0.00598145 5.36365 -0.00598145H24.2737C24.8237 -0.00598145 25.2737 0.444019 25.2737 0.994019C25.2737 1.54402 24.8237 1.99402 24.2737 1.99402H5.36365C3.71365 1.99402 2.36365 3.34402 2.36365 4.99402V55.454C2.36365 57.104 3.71365 58.454 5.36365 58.454H34.7336C36.3836 58.454 37.7336 57.104 37.7336 55.454V14.964C37.7336 14.414 38.1836 13.964 38.7336 13.964C39.2836 13.964 39.7336 14.414 39.7336 14.964V55.454C39.7336 58.214 37.4936 60.454 34.7336 60.454Z" fill="#001C43"/>
<path d="M38.7437 12.964C38.1937 12.964 37.7437 12.514 37.7437 11.964V2.85403C37.7437 2.38403 37.3636 2.00403 36.8936 2.00403H27.4236C26.8736 2.00403 26.4236 1.55403 26.4236 1.00403C26.4236 0.454028 26.8736 0.00402832 27.4236 0.00402832H36.8936C38.4636 0.00402832 39.7437 1.28403 39.7437 2.85403V11.964C39.7437 12.514 39.2937 12.964 38.7437 12.964Z" fill="#1DB8D9"/>
<path d="M33.8437 50.304H6.25366C5.70366 50.304 5.25366 49.854 5.25366 49.304V6.64404C5.25366 6.09404 5.70366 5.64404 6.25366 5.64404H33.8437C34.3937 5.64404 34.8437 6.09404 34.8437 6.64404V49.304C34.8437 49.854 34.3937 50.304 33.8437 50.304ZM7.25366 48.304H32.8437V7.64404H7.25366V48.304Z" fill="#001C43"/>
<path d="M22.6136 55.454H17.4836C16.9336 55.454 16.4836 55.004 16.4836 54.454C16.4836 53.904 16.9336 53.454 17.4836 53.454H22.6136C23.1636 53.454 23.6136 53.904 23.6136 54.454C23.6136 55.004 23.1636 55.454 22.6136 55.454Z" fill="#001C43"/>
<path d="M66.5036 57.514C61.9836 57.514 57.5936 55.954 54.0836 53.114L43.9736 55.334C43.5336 55.434 43.0936 55.224 42.8836 54.834C42.6736 54.444 42.7436 53.964 43.0536 53.644L49.2836 47.414C47.6136 44.444 46.7236 41.114 46.7236 37.724C46.7236 26.814 55.5936 17.944 66.5036 17.944C77.4136 17.944 86.2836 26.814 86.2836 37.724C86.2836 48.634 77.4136 57.504 66.5036 57.504V57.514ZM54.3436 51.034C54.5836 51.034 54.8136 51.114 54.9936 51.274C58.2036 54.014 62.2936 55.514 66.5036 55.514C76.3136 55.514 84.2836 47.534 84.2836 37.734C84.2836 27.934 76.3036 19.954 66.5036 19.954C56.7036 19.954 48.7236 27.934 48.7236 37.734C48.7236 41.014 49.6436 44.244 51.3836 47.054C51.6236 47.444 51.5636 47.964 51.2436 48.284L46.8836 52.644L54.1336 51.054C54.2036 51.034 54.2736 51.034 54.3436 51.034Z" fill="#001C43"/>
<path d="M66.7837 49.674C64.7137 49.674 63.0937 48.0841 63.0937 46.0641C63.0937 44.0441 64.7137 42.394 66.7837 42.394C68.8537 42.394 70.4737 43.9841 70.4737 46.0041C70.4737 48.0241 68.8537 49.674 66.7837 49.674ZM66.7837 44.394C65.8037 44.394 65.0937 45.0741 65.0937 46.0041C65.0937 46.9941 65.8037 47.674 66.7837 47.674C67.7637 47.674 68.4737 46.9941 68.4737 46.0641C68.4737 45.0741 67.7637 44.394 66.7837 44.394ZM66.7837 42.364C65.5037 42.364 64.5137 41.4441 64.3737 40.1241L63.0437 28.584C62.9637 27.804 63.1737 27.1041 63.6237 26.6041C64.0337 26.1441 64.6237 25.894 65.2737 25.894H68.3037C68.9637 25.894 69.5537 26.154 69.9637 26.614C70.4137 27.114 70.6237 27.8041 70.5437 28.5641L69.2137 40.1241C69.0737 41.4541 68.1037 42.3541 66.8037 42.3541L66.7837 42.364ZM68.2837 27.9041H65.2637C65.1437 27.9041 65.1137 27.944 65.1037 27.954C65.0537 28.004 65.0037 28.1541 65.0237 28.3741L66.3537 39.9041C66.4037 40.3641 66.6637 40.364 66.7837 40.364C66.9037 40.364 67.1637 40.3641 67.2137 39.9041L68.5437 28.3541C68.5637 28.1541 68.5137 28.014 68.4637 27.954C68.4537 27.944 68.4137 27.894 68.2837 27.894V27.9041Z" fill="#001C43"/>
</svg>
