<svg width="63" height="63" viewBox="0 0 63 63" fill="none" xmlns="http://www.w3.org/2000/svg">
<path d="M57.7701 62.2299H6.02008C3.23008 62.2299 0.950073 59.9599 0.950073 57.1599V5.40985C0.950073 2.60985 3.23008 0.339844 6.02008 0.339844H47.09C47.64 0.339844 48.09 0.789844 48.09 1.33984C48.09 1.88984 47.64 2.33984 47.09 2.33984H6.02008C4.33008 2.33984 2.95007 3.71985 2.95007 5.40985V57.1599C2.95007 58.8498 4.33008 60.2299 6.02008 60.2299H57.7701C59.4601 60.2299 60.84 58.8498 60.84 57.1599V15.7899C60.84 15.2399 61.29 14.7899 61.84 14.7899C62.39 14.7899 62.84 15.2399 62.84 15.7899V57.1599C62.84 59.9599 60.5701 62.2299 57.7701 62.2299Z" fill="#001C43"/>
<path d="M61.8301 13.7399C61.2801 13.7399 60.8301 13.2899 60.8301 12.7399V3.25989C60.8301 2.74989 60.4301 2.33984 59.9501 2.33984H50.3C49.75 2.33984 49.3 1.88984 49.3 1.33984C49.3 0.789844 49.75 0.339844 50.3 0.339844H59.9501C61.5401 0.339844 62.8301 1.64989 62.8301 3.25989V12.7399C62.8301 13.2899 62.3801 13.7399 61.8301 13.7399Z" fill="#1DB8D9"/>
<path d="M24.9601 48.8998C20.5101 48.8998 16.19 47.6299 12.45 45.2299C12.06 44.9799 11.89 44.4899 12.05 44.0499C12.21 43.6099 12.66 43.3398 13.11 43.3898C13.68 43.4598 14.27 43.4899 14.85 43.4899C17.36 43.4899 19.76 42.8799 21.91 41.6999C19.29 40.8299 17.18 38.7498 16.3 36.0298C16.19 35.6898 16.27 35.3199 16.5 35.0599C16.59 34.9599 16.7 34.8799 16.82 34.8199C14.78 33.1899 13.51 30.6799 13.51 27.9399C13.51 27.9199 13.51 27.7998 13.51 27.7798C13.53 27.4398 13.72 27.1298 14.03 26.9598C14.29 26.8198 14.59 26.7998 14.86 26.8998C14.03 25.5398 13.5801 23.9599 13.5801 22.3199C13.5801 20.7699 13.9901 19.2398 14.7701 17.8998C14.9301 17.6198 15.23 17.4298 15.56 17.3998C15.88 17.3798 16.21 17.5098 16.41 17.7698C19.94 22.0998 25.04 24.8598 30.56 25.4698C30.54 25.2398 30.53 25.0098 30.53 24.7798C30.53 19.9198 34.48 15.9698 39.34 15.9698C41.61 15.9698 43.72 16.8099 45.36 18.3499C46.81 18.0099 48.2 17.4499 49.49 16.6799C49.85 16.4699 50.3 16.4999 50.62 16.7599C50.94 17.0199 51.08 17.4499 50.95 17.8499C50.7 18.6199 50.3501 19.3498 49.9001 20.0198C50.1501 19.9298 50.4 19.8198 50.64 19.7198C51.05 19.5398 51.52 19.6499 51.81 19.9899C52.1 20.3299 52.12 20.8199 51.88 21.1899C50.86 22.7199 49.61 24.0499 48.17 25.1699C48.17 25.3399 48.17 25.5199 48.17 25.6899C48.17 31.3199 45.99 37.0198 42.2 41.3298C39.15 44.7898 33.69 48.9099 24.95 48.9099L24.9601 48.8998ZM17.03 45.3599C19.54 46.3699 22.2201 46.8998 24.9601 46.8998C35.3901 46.8998 46.18 38.9599 46.18 25.6799C46.18 25.3599 46.18 25.0399 46.16 24.7299C46.14 24.3899 46.3 24.0599 46.57 23.8599C47.1 23.4799 47.59 23.0699 48.06 22.6299C47.61 22.7199 47.15 22.7999 46.68 22.8499C46.21 22.9099 45.77 22.6299 45.61 22.1799C45.46 21.7299 45.64 21.2399 46.04 20.9999C46.6 20.6599 47.11 20.2498 47.54 19.7798C46.78 20.0498 46.01 20.2599 45.22 20.4199C44.88 20.4899 44.53 20.3699 44.3 20.1199C43 18.7299 41.2301 17.9698 39.3301 17.9698C35.5801 17.9698 32.5201 21.0198 32.5201 24.7798C32.5201 25.3098 32.58 25.8298 32.69 26.3398C32.76 26.6498 32.69 26.9698 32.48 27.2098C32.28 27.4498 31.99 27.5899 31.66 27.5699C25.64 27.2599 19.98 24.6099 15.88 20.2399C15.66 20.9099 15.55 21.6198 15.55 22.3298C15.55 24.6098 16.6801 26.7299 18.5801 27.9999C18.9501 28.2499 19.11 28.7098 18.98 29.1398C18.84 29.5598 18.48 29.8598 18 29.8298C17.21 29.8098 16.42 29.6699 15.66 29.4399C16.25 32.0299 18.29 34.0999 20.95 34.6299C21.4 34.7199 21.74 35.1098 21.75 35.5798C21.77 36.0398 21.46 36.4598 21.01 36.5798C20.3 36.7698 19.5701 36.8798 18.8301 36.8898C20.0201 38.8598 22.16 40.1299 24.53 40.1699C24.95 40.1699 25.3201 40.4499 25.4601 40.8499C25.5901 41.2499 25.46 41.6899 25.13 41.9499C22.74 43.8199 19.96 44.9899 16.99 45.3699L17.03 45.3599Z" fill="#001C43"/>
</svg>
