<svg width="63" height="63" viewBox="0 0 63 63" fill="none" xmlns="http://www.w3.org/2000/svg">
<path d="M57.66 62.2297H5.91003C3.12003 62.2297 0.840027 59.9597 0.840027 57.1597V5.40973C0.840027 2.60973 3.11003 0.339722 5.91003 0.339722H46.98C47.53 0.339722 47.98 0.789722 47.98 1.33972C47.98 1.88972 47.53 2.33972 46.98 2.33972H5.91003C4.22003 2.33972 2.84003 3.71973 2.84003 5.40973V57.1597C2.84003 58.8497 4.22003 60.2297 5.91003 60.2297H57.66C59.35 60.2297 60.73 58.8497 60.73 57.1597V15.7897C60.73 15.2397 61.18 14.7897 61.73 14.7897C62.28 14.7897 62.73 15.2397 62.73 15.7897V57.1597C62.73 59.9497 60.46 62.2297 57.66 62.2297Z" fill="#001C43"/>
<path d="M61.73 13.7397C61.18 13.7397 60.73 13.2897 60.73 12.7397V3.2597C60.73 2.7497 60.33 2.33972 59.85 2.33972H50.2C49.65 2.33972 49.2 1.88972 49.2 1.33972C49.2 0.789722 49.65 0.339722 50.2 0.339722H59.85C61.44 0.339722 62.73 1.6497 62.73 3.2597V12.7397C62.73 13.2897 62.28 13.7397 61.73 13.7397Z" fill="#1DB8D9"/>
<path d="M44.83 46.0897H19.3C14.25 46.0897 11.11 42.2597 11.11 36.1097V26.6097C11.11 20.3597 14.09 16.6297 19.09 16.6297H45.04C48.44 16.6297 52.49 18.3597 52.49 26.6097V36.1097C52.49 42.5497 49.77 46.0897 44.83 46.0897ZM19.09 18.6198C13.89 18.6198 13.11 23.6197 13.11 26.5997V36.0997C13.11 38.4997 13.71 44.0797 19.3 44.0797H44.83C48.58 44.0797 50.49 41.3897 50.49 36.0997V26.5997C50.49 19.4397 47.38 18.6198 45.04 18.6198H19.09Z" fill="#001C43"/>
<path d="M27.86 38.1797C27.68 38.1797 27.5 38.1297 27.34 38.0397C27.04 37.8597 26.86 37.5297 26.86 37.1797V25.9897C26.86 25.6397 27.04 25.3197 27.34 25.1297C27.64 24.9497 28.01 24.9397 28.32 25.0997L39.04 30.6997C39.37 30.8697 39.58 31.2097 39.58 31.5897C39.58 31.9697 39.37 32.2997 39.04 32.4797L28.32 38.0797C28.18 38.1597 28.02 38.1897 27.86 38.1897V38.1797ZM28.86 27.6397V35.5297L36.42 31.5797L28.86 27.6297V27.6397Z" fill="#001C43"/>
</svg>
