<svg width="62" height="70" viewBox="0 0 62 70" fill="none" xmlns="http://www.w3.org/2000/svg">
<path d="M30.77 57.4265C20.67 57.4265 12.45 49.2065 12.45 39.1065C12.45 29.0065 20.67 20.7865 30.77 20.7865C40.87 20.7865 49.09 29.0065 49.09 39.1065C49.09 49.2065 40.87 57.4265 30.77 57.4265ZM30.77 22.7965C21.77 22.7965 14.45 30.1165 14.45 39.1165C14.45 48.1165 21.77 55.4365 30.77 55.4365C39.77 55.4365 47.09 48.1165 47.09 39.1165C47.09 30.1165 39.77 22.7965 30.77 22.7965Z" fill="#001C43"/>
<path d="M30.77 69.5765C13.97 69.5765 0.299973 55.9065 0.299973 39.1065C0.299973 22.3065 13.97 8.63654 30.77 8.63654C31.81 8.63654 32.85 8.68654 33.88 8.79654C34.43 8.85654 34.83 9.34655 34.77 9.89655C34.71 10.4465 34.23 10.8465 33.67 10.7865C32.71 10.6865 31.73 10.6365 30.76 10.6365C15.06 10.6365 2.28996 23.4065 2.28996 39.1065C2.28996 54.8065 15.06 67.5765 30.76 67.5765C46.46 67.5765 59.23 54.8065 59.23 39.1065C59.23 38.5565 59.68 38.1065 60.23 38.1065C60.78 38.1065 61.23 38.5565 61.23 39.1065C61.23 55.9065 47.56 69.5765 30.76 69.5765H30.77Z" fill="#001C43"/>
<path d="M26.6599 19.1765C26.3999 19.1765 26.15 19.0765 25.95 18.8865C25.56 18.4965 25.56 17.8665 25.95 17.4765L32.98 10.4465C33.17 10.2565 33.28 9.99652 33.28 9.72652C33.28 9.45652 33.17 9.19652 32.98 9.00652L25.67 1.69652C25.28 1.30652 25.28 0.676519 25.67 0.286519C26.06 -0.103481 26.69 -0.103481 27.08 0.286519L34.39 7.59652C34.96 8.16652 35.27 8.92653 35.27 9.73653C35.27 10.5465 34.96 11.3065 34.39 11.8765L27.36 18.9065C27.16 19.1065 26.91 19.1965 26.65 19.1965L26.6599 19.1765Z" fill="#1DB8D9"/>
<path d="M30.77 37.9665C30.22 37.9665 29.77 37.5165 29.77 36.9665V28.0465C29.77 27.4965 30.22 27.0465 30.77 27.0465C31.32 27.0465 31.77 27.4965 31.77 28.0465V36.9665C31.77 37.5165 31.32 37.9665 30.77 37.9665Z" fill="#001C43"/>
<path d="M16.75 40.2466H15.98C15.43 40.2466 14.98 39.7966 14.98 39.2466C14.98 38.6966 15.43 38.2466 15.98 38.2466H16.75C17.3 38.2466 17.75 38.6966 17.75 39.2466C17.75 39.7966 17.3 40.2466 16.75 40.2466Z" fill="#001C43"/>
<path d="M45.56 40.2466H44.79C44.24 40.2466 43.79 39.7966 43.79 39.2466C43.79 38.6966 44.24 38.2466 44.79 38.2466H45.56C46.11 38.2466 46.56 38.6966 46.56 39.2466C46.56 39.7966 46.11 40.2466 45.56 40.2466Z" fill="#001C43"/>
<path d="M30.77 26.2265C30.22 26.2265 29.77 25.7765 29.77 25.2265V24.4565C29.77 23.9065 30.22 23.4565 30.77 23.4565C31.32 23.4565 31.77 23.9065 31.77 24.4565V25.2265C31.77 25.7765 31.32 26.2265 30.77 26.2265Z" fill="#001C43"/>
<path d="M30.77 55.0465C30.22 55.0465 29.77 54.5965 29.77 54.0465V53.2766C29.77 52.7266 30.22 52.2766 30.77 52.2766C31.32 52.2766 31.77 52.7266 31.77 53.2766V54.0465C31.77 54.5965 31.32 55.0465 30.77 55.0465Z" fill="#001C43"/>
<path d="M37.25 40.1066H33.04C32.49 40.1066 32.04 39.6566 32.04 39.1066C32.04 38.5566 32.49 38.1066 33.04 38.1066H37.25C37.8 38.1066 38.25 38.5566 38.25 39.1066C38.25 39.6566 37.8 40.1066 37.25 40.1066Z" fill="#001C43"/>
<path d="M30.77 42.1265C29.11 42.1265 27.75 40.7765 27.75 39.1065C27.75 37.4365 29.1 36.0865 30.77 36.0865C32.44 36.0865 33.79 37.4365 33.79 39.1065C33.79 40.7765 32.44 42.1265 30.77 42.1265ZM30.77 38.0865C30.21 38.0865 29.75 38.5465 29.75 39.1065C29.75 39.6665 30.21 40.1265 30.77 40.1265C31.33 40.1265 31.79 39.6665 31.79 39.1065C31.79 38.5465 31.33 38.0865 30.77 38.0865Z" fill="#001C43"/>
</svg>
