<svg width="72" height="72" viewBox="0 0 72 72" fill="none" xmlns="http://www.w3.org/2000/svg">
<path d="M8.53 63.6736C8.17 63.6736 7.82998 63.4736 7.65998 63.1536L0.12 49.4336C-0.04 49.1336 -0.04 48.7736 0.12 48.4736L6.09 37.4136L0.85999 34.5036C0.49999 34.3036 0.29998 33.9136 0.34998 33.5036C0.39998 33.0936 0.690001 32.7636 1.09 32.6636L7.29999 31.0436C7.82999 30.9036 8.37999 31.2236 8.51999 31.7636C8.65999 32.2936 8.33999 32.8436 7.79999 32.9836L4.00998 33.9736L7.91999 36.1536C8.39999 36.4236 8.57 37.0236 8.31 37.5036L2.12998 48.9536L8.53998 60.6036L18.26 43.0536C18.39 42.8236 18.6 42.6536 18.86 42.5736C19.12 42.5036 19.39 42.5336 19.62 42.6636L23.76 44.9636L22.95 41.7936C22.81 41.2536 23.14 40.7136 23.67 40.5736C24.2 40.4336 24.75 40.7636 24.89 41.2936L26.28 46.7136C26.38 47.1036 26.24 47.5136 25.92 47.7536C25.6 47.9936 25.17 48.0336 24.82 47.8336L19.52 44.8836L9.40998 63.1436C9.22998 63.4636 8.89998 63.6636 8.53998 63.6636L8.53 63.6736Z" fill="#001C43"/>
<path d="M8.53 63.6736C8.18 63.6736 7.84999 63.4836 7.66999 63.1836C7.48999 62.8736 7.47998 62.5036 7.65998 62.1936L14.52 49.8136C14.7 49.4936 15.03 49.2936 15.39 49.2936H30.37V49.2836C30.92 49.2836 31.37 49.7336 31.37 50.2836V62.6636C31.38 62.9336 31.28 63.1836 31.09 63.3736C30.9 63.5636 30.65 63.6636 30.38 63.6636L8.53 63.6836V63.6736ZM15.98 51.2936L10.23 61.6736L29.38 61.6536V51.2736L15.98 51.2836V51.2936Z" fill="#001C43"/>
<path d="M23.3 39.7136C22.85 39.7136 22.44 39.4036 22.33 38.9536L20.26 30.4936C20.16 30.0836 19.74 29.8336 19.33 29.9336L10.54 32.0936C10.01 32.2236 9.46 31.8936 9.33 31.3636C9.2 30.8236 9.53001 30.2836 10.06 30.1536L18.85 27.9936C20.34 27.6236 21.83 28.5436 22.2 30.0236L24.28 38.4836C24.41 39.0236 24.08 39.5636 23.55 39.6936C23.47 39.7136 23.39 39.7236 23.31 39.7236L23.3 39.7136Z" fill="#1DB8D9"/>
<path d="M49.07 71.9937C48.8 71.9937 48.54 71.8837 48.35 71.6837L34.6 57.2937C34.42 57.1037 34.32 56.8437 34.32 56.5737C34.32 56.3037 34.44 56.0537 34.63 55.8737L48.38 42.8337C48.67 42.5537 49.1 42.4837 49.46 42.6437C49.83 42.8037 50.07 43.1637 50.07 43.5637V49.6237L70.94 49.5837C71.3 49.5837 71.64 49.7837 71.81 50.1037C71.99 50.4237 71.98 50.8137 71.78 51.1237L63.46 64.3837C63.28 64.6737 62.97 64.8437 62.63 64.8537L50.06 65.0137V70.9937C50.06 71.4037 49.81 71.7737 49.43 71.9237C49.31 71.9737 49.18 71.9937 49.06 71.9937H49.07ZM36.74 56.6437L48.07 68.5037V64.0337C48.07 63.4837 48.51 63.0437 49.06 63.0337L62.07 62.8637L69.14 51.5937L49.08 51.6337C48.82 51.6337 48.56 51.5237 48.37 51.3437C48.18 51.1537 48.08 50.9037 48.08 50.6337V45.8937L36.75 56.6437H36.74Z" fill="#001C43"/>
<path d="M56.79 51.6236C56.43 51.6236 56.09 51.4237 55.92 51.1137L48.62 38.0337C48.49 37.8037 48.46 37.5237 48.53 37.2737C48.6 37.0137 48.77 36.8036 49 36.6736L59.81 30.6437C60.29 30.3737 60.9 30.5437 61.17 31.0337L71.81 50.1137C71.98 50.4237 71.98 50.8037 71.81 51.1037C71.63 51.4137 71.3 51.5936 70.95 51.5936L56.79 51.6236ZM50.85 37.9337L57.37 49.6236L69.24 49.6037L59.91 32.8836L50.85 37.9437V37.9337Z" fill="#001C43"/>
<path d="M50.84 31.2136C50.74 31.2136 50.64 31.1936 50.54 31.1636L32.48 25.4336C32.1 25.3136 31.83 24.9736 31.79 24.5836C31.75 24.1836 31.95 23.8036 32.3 23.6136L37.61 20.6836L27.48 2.43362C27.31 2.12362 27.31 1.74362 27.49 1.44362C27.67 1.13362 28 0.953613 28.35 0.953613H43.98C44.35 0.953613 44.69 1.15362 44.86 1.48362L51.09 13.2336L56.3 10.3536C56.66 10.1536 57.1 10.1936 57.42 10.4536C57.74 10.7136 57.86 11.1336 57.74 11.5236L51.79 30.5136C51.71 30.7636 51.53 30.9836 51.3 31.1036C51.16 31.1736 51 31.2136 50.84 31.2136ZM35.3 24.2336L50.18 28.9536L55.08 13.3036L51.16 15.4636C50.93 15.5936 50.65 15.6236 50.39 15.5436C50.13 15.4636 49.92 15.2936 49.79 15.0536L43.36 2.93362H30.03L39.82 20.5736C39.95 20.8036 39.98 21.0836 39.91 21.3336C39.84 21.5936 39.66 21.8036 39.43 21.9336L35.28 24.2236L35.3 24.2336Z" fill="#001C43"/>
<path d="M27.3 28.0236C27.11 28.0236 26.93 27.9736 26.77 27.8736L16.27 21.3236C16.05 21.1836 15.89 20.9636 15.83 20.7036C15.77 20.4436 15.81 20.1736 15.95 19.9536L27.5 1.41363C27.69 1.11363 28.01 0.933633 28.37 0.943633C28.72 0.943633 29.05 1.14363 29.22 1.45363L36.09 13.8336C36.27 14.1536 36.26 14.5436 36.06 14.8436L28.14 27.5536C28 27.7836 27.78 27.9436 27.52 28.0036C27.44 28.0236 27.37 28.0336 27.29 28.0336L27.3 28.0236ZM18.17 20.1536L26.98 25.6436L34.06 14.2836L28.3 3.90363L18.17 20.1536Z" fill="#001C43"/>
</svg>
