<svg width="61" height="65" viewBox="0 0 61 65" fill="none" xmlns="http://www.w3.org/2000/svg">
<path d="M30.1908 44.3566C20.0908 44.3566 11.8708 36.1366 11.8708 26.0366C11.8708 15.9366 20.0908 7.71655 30.1908 7.71655C40.2908 7.71655 48.5108 15.9366 48.5108 26.0366C48.5108 36.1366 40.2908 44.3566 30.1908 44.3566ZM30.1908 9.72656C21.1908 9.72656 13.8708 17.0466 13.8708 26.0466C13.8708 35.0466 21.1908 42.3666 30.1908 42.3666C39.1908 42.3666 46.5108 35.0466 46.5108 26.0466C46.5108 17.0466 39.1908 9.72656 30.1908 9.72656Z" fill="#001C43"/>
<path d="M30.1908 51.5165C28.4708 51.5165 27.0908 50.3865 26.7408 48.7065C26.5708 47.8665 25.8608 47.4865 25.2408 47.4865C24.9508 47.4865 24.4207 47.5665 24.0207 48.1265C23.3507 49.0665 22.3207 49.6165 21.2007 49.6165C20.0807 49.6165 19.0608 49.1165 18.3808 48.2665C17.7208 47.4465 17.4907 46.3965 17.7207 45.3265C17.8207 44.8665 17.7208 44.4165 17.4308 44.0565C16.9608 43.4765 16.1307 43.2965 15.4707 43.6865C14.9007 44.0265 14.2908 44.1965 13.6708 44.1965C12.3708 44.1965 11.1307 43.4165 10.5307 42.2165C9.93074 41.0265 10.0608 39.6665 10.8608 38.5765C11.2108 38.1065 11.2608 37.5166 11.0008 36.9966C10.7108 36.4165 10.1307 36.0965 9.47074 36.1665C7.65074 36.3865 6.12075 35.2766 5.67075 33.5565C5.25075 31.9665 5.91074 30.4165 7.34074 29.6065C7.88074 29.2965 8.17075 28.7465 8.10075 28.1265C8.03075 27.5065 7.64076 27.0265 7.05076 26.8365C5.41076 26.3165 4.43076 24.8265 4.61076 23.1165C4.79076 21.4065 6.06073 20.1465 7.77073 19.9865C8.39073 19.9265 8.87078 19.5365 9.07078 18.9465C9.26078 18.3565 9.10078 17.7565 8.63078 17.3465C7.51078 16.3565 7.14074 14.8765 7.66074 13.4865C8.33074 11.7165 10.2508 10.7665 12.0708 11.3765C12.7508 11.6065 13.4507 11.3366 13.8307 10.7466C13.9907 10.4866 14.2308 9.96655 13.9308 9.30655C13.4208 8.18655 13.5007 6.97653 14.1407 5.97653C14.8007 4.95653 15.9507 4.31653 17.1507 4.31653C18.0207 4.31653 18.8308 4.64653 19.5008 5.25653C19.8608 5.58653 20.2508 5.65652 20.5108 5.65652C20.9208 5.65652 21.3308 5.48653 21.6208 5.19653C21.8208 4.99653 22.0508 4.65653 22.0408 4.12653C22.0408 3.16653 22.3807 2.27653 23.0307 1.62653C23.6907 0.956526 24.6307 0.576538 25.5907 0.576538C26.9907 0.576538 28.2207 1.38653 28.7807 2.69653C29.0307 3.26653 29.5508 3.60654 30.1708 3.60654C30.7908 3.60654 31.3108 3.26653 31.5608 2.69653C32.1308 1.38653 33.3508 0.576538 34.7508 0.576538C35.7108 0.576538 36.6508 0.956526 37.3108 1.62653C37.9508 2.27653 38.3108 3.16653 38.3008 4.12653C38.3008 4.65653 38.5307 4.99653 38.7207 5.19653C39.0107 5.48653 39.4207 5.65652 39.8307 5.65652C40.0907 5.65652 40.4707 5.58653 40.8407 5.25653C41.5107 4.63653 42.3308 4.31653 43.1908 4.31653C44.3908 4.31653 45.5407 4.95653 46.2007 5.97653C46.8407 6.97653 46.9207 8.18655 46.4107 9.30655C46.1107 9.96655 46.3408 10.4866 46.5108 10.7466C46.8908 11.3366 47.5907 11.5965 48.2707 11.3765C50.1007 10.7665 52.0108 11.7165 52.6908 13.4865C53.2108 14.8765 52.8407 16.3465 51.7207 17.3465C51.2507 17.7565 51.0907 18.3565 51.2807 18.9465C51.4707 19.5365 51.9607 19.9265 52.5807 19.9865C54.2907 20.1465 55.5608 21.4065 55.7408 23.1165C55.9208 24.8265 54.9408 26.3165 53.3008 26.8365C52.7108 27.0265 52.3108 27.5065 52.2508 28.1265C52.1808 28.7465 52.4708 29.2965 53.0108 29.6065C54.4408 30.4165 55.1008 31.9665 54.6808 33.5565C54.2308 35.2665 52.7208 36.3765 50.8808 36.1665C50.2108 36.0965 49.6507 36.4165 49.3507 36.9966C49.0907 37.5166 49.1408 38.1065 49.4908 38.5765C50.3008 39.6665 50.4208 41.0365 49.8208 42.2165C49.2108 43.4165 47.9808 44.1965 46.6708 44.1965C46.0508 44.1965 45.4408 44.0265 44.8708 43.6865C44.2108 43.2965 43.3707 43.4765 42.9107 44.0565C42.6207 44.4165 42.5208 44.8665 42.6208 45.3165C42.8608 46.3865 42.6207 47.4365 41.9607 48.2565C41.2807 49.0965 40.2307 49.6065 39.1407 49.6065C38.0507 49.6065 36.9908 49.0665 36.3208 48.1165C35.9208 47.5665 35.3907 47.4765 35.1007 47.4765C34.4807 47.4765 33.7707 47.8565 33.6007 48.6965C33.2607 50.3765 31.8707 51.5065 30.1607 51.5065L30.1908 51.5165ZM25.2408 45.4865C26.9408 45.4865 28.3607 46.6465 28.7007 48.3065C28.8807 49.1965 29.5908 49.5165 30.1908 49.5165C30.7908 49.5165 31.4908 49.1965 31.6808 48.3065C32.0208 46.6465 33.4407 45.4865 35.1407 45.4865C36.2807 45.4865 37.3208 46.0265 37.9908 46.9665C38.3708 47.5065 38.8508 47.6165 39.1808 47.6165C39.6608 47.6165 40.1408 47.3865 40.4408 47.0165C40.6308 46.7765 40.8407 46.3665 40.7007 45.7565C40.4707 44.7065 40.7108 43.6366 41.3808 42.8065C42.4408 41.4865 44.4308 41.0965 45.9208 41.9665C46.7208 42.4365 47.6708 42.1065 48.0608 41.3165C48.2108 41.0165 48.3907 40.4165 47.9007 39.7665C47.1107 38.6965 46.9807 37.2865 47.5807 36.0965C48.2507 34.7765 49.6008 34.0065 51.1208 34.1765C52.0608 34.2765 52.6108 33.6165 52.7608 33.0465C52.8308 32.7865 52.9807 31.8865 52.0407 31.3465C50.8007 30.6465 50.1307 29.3365 50.2707 27.9165C50.4207 26.5065 51.3507 25.3565 52.7107 24.9265C53.5807 24.6565 53.8208 23.9165 53.7608 23.3265C53.7008 22.7265 53.3107 22.0665 52.4007 21.9765C50.9807 21.8365 49.8307 20.9165 49.3907 19.5665C48.9507 18.2165 49.3407 16.7865 50.4007 15.8465C51.1107 15.2165 50.9308 14.4865 50.8208 14.1965C50.6408 13.7265 50.1708 13.1865 49.4408 13.1865C49.2708 13.1865 49.0907 13.2165 48.9107 13.2766C47.3807 13.7866 45.7007 13.1765 44.8307 11.8365C44.1807 10.8365 44.1007 9.57654 44.5907 8.48654C44.8807 7.85654 44.7107 7.36653 44.5207 7.06653C44.0307 6.29653 42.9208 6.06654 42.1908 6.73654C40.8308 7.98654 38.5808 7.89654 37.3008 6.60654C36.6408 5.94654 36.2908 5.05654 36.3008 4.10654C36.3008 3.66654 36.1707 3.30653 35.8907 3.03653C35.6007 2.74653 35.1808 2.57654 34.7508 2.57654C34.3908 2.57654 33.7407 2.69654 33.3907 3.48654C32.8207 4.78654 31.5908 5.60654 30.1708 5.60654C28.7508 5.60654 27.5107 4.79654 26.9507 3.48654C26.6007 2.68654 25.9507 2.57654 25.5907 2.57654C25.1607 2.57654 24.7407 2.74653 24.4507 3.03653C24.1807 3.31653 24.0408 3.67654 24.0408 4.10654C24.0408 5.05654 23.6908 5.94654 23.0408 6.60654C21.7607 7.89654 19.5207 7.98654 18.1507 6.73654C17.4207 6.06654 16.3208 6.29653 15.8208 7.06653C15.6308 7.36653 15.4608 7.85654 15.7408 8.48654C16.2408 9.57654 16.1508 10.8365 15.5008 11.8365C14.6408 13.1865 12.9508 13.7866 11.4208 13.2766C11.2408 13.2165 11.0607 13.1865 10.8907 13.1865C10.1507 13.1865 9.68078 13.7365 9.51078 14.1965C9.40078 14.4865 9.22076 15.2165 9.93076 15.8465C10.9908 16.7865 11.3808 18.2165 10.9408 19.5665C10.5008 20.9165 9.35076 21.8465 7.93076 21.9765C7.02076 22.0665 6.63078 22.7265 6.57078 23.3265C6.51078 23.9165 6.75077 24.6565 7.62077 24.9265C8.98077 25.3565 9.91077 26.4965 10.0608 27.9165C10.2108 29.3265 9.53075 30.6465 8.29075 31.3465C7.35075 31.8765 7.50078 32.7765 7.57078 33.0465C7.72078 33.6165 8.27073 34.2765 9.21073 34.1765C10.7207 34.0065 12.0808 34.7765 12.7508 36.0865C13.3508 37.2765 13.2308 38.6865 12.4308 39.7565C11.9408 40.4165 12.1207 41.0165 12.2707 41.3065C12.6707 42.0965 13.6107 42.4265 14.4107 41.9565C15.9007 41.0765 17.8907 41.4765 18.9507 42.7965C19.6107 43.6265 19.8608 44.6966 19.6308 45.7466C19.5008 46.3465 19.7007 46.7665 19.8907 47.0065C20.1907 47.3765 20.6707 47.6065 21.1507 47.6065C21.4807 47.6065 21.9607 47.4965 22.3407 46.9565C23.0107 46.0165 24.0508 45.4765 25.1908 45.4765L25.2408 45.4865Z" fill="#001C43"/>
<path d="M36.5007 36.9265C36.3407 36.9265 36.1807 36.8865 36.0307 36.8065L29.6607 33.4265L23.2707 36.7565C22.9307 36.9365 22.5207 36.8965 22.2207 36.6765C21.9107 36.4565 21.7607 36.0765 21.8307 35.6965L23.0807 28.5965L17.9407 23.5465C17.6707 23.2765 17.5707 22.8765 17.6907 22.5165C17.8107 22.1565 18.1207 21.8965 18.5007 21.8365L25.6407 20.8265L28.8507 14.3765C29.0207 14.0365 29.3707 13.8265 29.7507 13.8265C30.1307 13.8265 30.4807 14.0465 30.6507 14.3865L33.8208 20.8665L40.9507 21.9265C41.3307 21.9865 41.6407 22.2465 41.7507 22.6065C41.8607 22.9665 41.7707 23.3665 41.4907 23.6265L36.3107 28.6365L37.5007 35.7466C37.5607 36.1266 37.4107 36.4965 37.1007 36.7265C36.9307 36.8465 36.7207 36.9165 36.5207 36.9165L36.5007 36.9265ZM29.6707 31.3065C29.8307 31.3065 29.9907 31.3465 30.1407 31.4265L35.1807 34.0965L34.2407 28.4665C34.1907 28.1465 34.2907 27.8065 34.5307 27.5865L38.6308 23.6165L32.9807 22.7766C32.6507 22.7266 32.3707 22.5265 32.2307 22.2265L29.7207 17.0965L27.1807 22.2065C27.0307 22.4965 26.7507 22.7066 26.4307 22.7466L20.7807 23.5465L24.8507 27.5465C25.0907 27.7765 25.1907 28.1065 25.1407 28.4365L24.1507 34.0565L29.2107 31.4165C29.3507 31.3365 29.5107 31.3065 29.6707 31.3065Z" fill="#001C43"/>
<path d="M12.6407 64.3865C12.4507 64.3865 12.2507 64.3265 12.0907 64.2265L1.08073 56.9665C0.860727 56.8165 0.700735 56.5865 0.650735 56.3265C0.600735 56.0665 0.650759 55.7965 0.800759 55.5765L10.3708 41.3865C10.6808 40.9265 11.3008 40.8066 11.7608 41.1166C12.2208 41.4266 12.3407 42.0465 12.0307 42.5065L3.03074 55.8565L12.3608 62.0165L21.6607 47.9265C21.9607 47.4665 22.5808 47.3366 23.0508 47.6466C23.5108 47.9466 23.6407 48.5665 23.3307 49.0365L13.4808 63.9665C13.3308 64.1865 13.1107 64.3465 12.8507 64.3965C12.7807 64.4065 12.7207 64.4165 12.6507 64.4165L12.6407 64.3865Z" fill="#001C43"/>
<path d="M52.6007 47.1865C52.2707 47.1865 51.9507 47.0266 51.7607 46.7266L48.8307 42.1166C48.5307 41.6466 48.6707 41.0366 49.1407 40.7366C49.6007 40.4366 50.2207 40.5766 50.5207 41.0466L53.4507 45.6565C53.7507 46.1265 53.6107 46.7366 53.1407 47.0366C52.9707 47.1466 52.7907 47.1966 52.6007 47.1966V47.1865Z" fill="#001C43"/>
<path d="M48.5108 64.7666C48.1808 64.7666 47.8708 64.6066 47.6708 64.3166L37.8208 49.3866C37.5208 48.9266 37.6408 48.3066 38.1008 47.9966C38.5608 47.6966 39.1808 47.8166 39.4908 48.2766L49.3408 63.2066C49.6408 63.6666 49.5208 64.2866 49.0608 64.5966C48.8908 64.7066 48.7008 64.7666 48.5108 64.7666Z" fill="#001C43"/>
<path d="M51.4008 64.1865C51.0708 64.1865 50.7508 64.0265 50.5608 63.7365C50.2608 63.2765 50.3908 62.6565 50.8508 62.3565L58.0408 57.6665C58.3808 57.4465 58.4808 56.9865 58.2608 56.6365L53.3908 49.1665C53.0908 48.7065 53.2208 48.0865 53.6808 47.7865C54.1408 47.4865 54.7608 47.6165 55.0608 48.0765L59.9308 55.5465C60.3308 56.1565 60.4708 56.8965 60.3208 57.6065C60.1708 58.3265 59.7508 58.9365 59.1308 59.3365L51.9408 64.0265C51.7708 64.1365 51.5808 64.1865 51.4008 64.1865Z" fill="#1DB8D9"/>
</svg>
