<svg width="48" height="67" viewBox="0 0 48 67" fill="none" xmlns="http://www.w3.org/2000/svg">
<path d="M35.29 44.7898C34.74 44.7898 34.29 44.3398 34.29 43.7898V39.9198C34.29 39.6298 34.41 39.3598 34.63 39.1698L36.91 37.1498C37.32 36.7798 37.95 36.8199 38.32 37.2299C38.69 37.6399 38.65 38.2698 38.24 38.6398L36.3 40.3599V43.7798C36.3 44.3298 35.85 44.7798 35.3 44.7798L35.29 44.7898Z" fill="#001C43"/>
<path d="M11.54 44.6298C10.99 44.6298 10.54 44.1798 10.54 43.6298V40.3299L8.80001 38.5999C8.41001 38.2099 8.41001 37.5798 8.80001 37.1898C9.19001 36.7998 9.81998 36.7998 10.21 37.1898L12.25 39.2099C12.44 39.3999 12.55 39.6498 12.55 39.9198V43.6298C12.55 44.1798 12.1 44.6298 11.55 44.6298H11.54Z" fill="#001C43"/>
<path d="M37.56 38.8998C37.01 38.8998 36.56 38.4498 36.56 37.8998V36.0298H10.49V37.5398C10.49 38.0898 10.04 38.5398 9.48999 38.5398C8.93999 38.5398 8.48999 38.0898 8.48999 37.5398V35.0298C8.48999 34.4798 8.93999 34.0298 9.48999 34.0298H37.56C38.11 34.0298 38.56 34.4798 38.56 35.0298V37.8998C38.56 38.4498 38.11 38.8998 37.56 38.8998Z" fill="#001C43"/>
<path d="M13.38 35.3698C12.83 35.3698 12.38 34.9198 12.38 34.3698V25.7598C12.38 25.2098 12.83 24.7598 13.38 24.7598H17.11C17.66 24.7598 18.11 25.2098 18.11 25.7598C18.11 26.3098 17.66 26.7598 17.11 26.7598H14.38V34.3698C14.38 34.9198 13.93 35.3698 13.38 35.3698Z" fill="#001C43"/>
<path d="M33.78 35.3698C33.23 35.3698 32.78 34.9198 32.78 34.3698V26.7598H30.05C29.5 26.7598 29.05 26.3098 29.05 25.7598C29.05 25.2098 29.5 24.7598 30.05 24.7598H33.78C34.33 24.7598 34.78 25.2098 34.78 25.7598V34.3698C34.78 34.9198 34.33 35.3698 33.78 35.3698Z" fill="#001C43"/>
<path d="M23.39 21.4998C22.84 21.4998 22.39 21.0498 22.39 20.4998V1.93982C22.39 1.38982 22.84 0.939819 23.39 0.939819C23.94 0.939819 24.39 1.38982 24.39 1.93982V20.4998C24.39 21.0498 23.94 21.4998 23.39 21.4998Z" fill="#001C43"/>
<path d="M29.33 32.2998C28.78 32.2998 28.33 31.8498 28.33 31.2998V21.7198H18.56C18.01 21.7198 17.56 21.2798 17.56 20.7198C17.56 20.1598 18.01 19.7198 18.56 19.7198H28.33C29.43 19.7198 30.33 20.6198 30.33 21.7198V31.2998C30.33 31.8498 29.88 32.2998 29.33 32.2998Z" fill="#1DB8D9"/>
<path d="M11.04 65.8998C10.82 65.8998 10.61 65.8298 10.42 65.6898C5.25998 61.6498 4.03998 56.4098 3.97998 52.5098C3.40998 52.1798 2.76996 51.5698 2.76996 50.3698C2.76996 48.8098 4.77 47.4498 5.38 47.0798C11.95 42.1698 22.87 41.3799 23.33 41.3499C23.37 41.3499 23.42 41.3499 23.46 41.3499C23.94 41.3799 35.2 42.1698 41.86 47.1298C42.68 47.6398 44.19 48.7398 44.32 49.8698C44.43 50.7998 43.98 51.7399 43.19 52.3599C43.17 56.2899 41.97 61.6098 36.75 65.6998C36.31 66.0398 35.69 65.9598 35.35 65.5298C35.01 65.0898 35.09 64.4698 35.52 64.1298C40.34 60.3498 41.27 55.3598 41.19 51.8398C41.19 51.4498 41.4 51.0998 41.74 50.9198C42.07 50.7598 42.37 50.4199 42.34 50.0999C42.25 49.9099 41.46 49.2398 40.74 48.7898C34.75 44.3198 24.34 43.4299 23.4 43.3599C22.48 43.4299 12.4199 44.3299 6.50995 48.7399C5.63995 49.2899 4.80997 50.0798 4.77997 50.3898C4.77997 50.6398 4.78 50.7198 5.37 50.9598C5.75 51.1198 6 51.4898 6 51.9098C5.94 55.4098 6.86998 60.3698 11.67 64.1298C12.1 64.4698 12.18 65.0998 11.84 65.5298C11.64 65.7798 11.35 65.9098 11.05 65.9098L11.04 65.8998Z" fill="#001C43"/>
<path d="M46.08 66.4198H1.21997C0.669971 66.4198 0.219971 65.9698 0.219971 65.4198C0.219971 64.8698 0.669971 64.4198 1.21997 64.4198H46.08C46.63 64.4198 47.08 64.8698 47.08 65.4198C47.08 65.9698 46.63 66.4198 46.08 66.4198Z" fill="#001C43"/>
</svg>
