<svg width="66" height="48" viewBox="0 0 66 48" fill="none" xmlns="http://www.w3.org/2000/svg">
<path d="M64.0759 47.3997H1.10593C0.555927 47.3997 0.105927 46.9497 0.105927 46.3997V1.8197C0.105927 1.2697 0.555927 0.819702 1.10593 0.819702H64.0759C64.6259 0.819702 65.0759 1.2697 65.0759 1.8197V46.3997C65.0759 46.9497 64.6259 47.3997 64.0759 47.3997ZM2.10593 45.3997H63.0759V2.8197H2.10593V45.3997Z" fill="#001C43"/>
<path d="M43.7759 22.3897C43.5159 22.3897 43.2559 22.2897 43.0559 22.0797C42.6759 21.6797 42.6859 21.0497 43.0859 20.6697L63.3859 1.0997C63.7859 0.7197 64.4159 0.729729 64.7959 1.12973C65.1759 1.52973 65.1659 2.1597 64.7659 2.5397L44.4659 22.1097C44.2759 22.2997 44.0259 22.3897 43.7759 22.3897Z" fill="#001C43"/>
<path d="M20.9759 22.6197C20.7159 22.6197 20.4659 22.5197 20.2659 22.3297L0.395924 2.53969C0.00592408 2.14969 0.00592408 1.51972 0.395924 1.12972C0.785924 0.739719 1.41593 0.739719 1.80593 1.12972L21.6759 20.9197C22.0659 21.3097 22.0659 21.9397 21.6759 22.3297C21.4759 22.5297 21.2259 22.6197 20.9659 22.6197H20.9759Z" fill="#001C43"/>
<path d="M1.10593 47.3996C0.825931 47.3996 0.555931 47.2897 0.355931 47.0597C-0.0140689 46.6397 0.0359274 46.0096 0.445927 45.6496L23.9659 24.9497C24.3759 24.5897 25.0159 24.6296 25.3759 25.0396C25.7459 25.4496 25.6959 26.0897 25.2859 26.4497L1.76592 47.1496C1.57592 47.3196 1.33593 47.3996 1.10593 47.3996Z" fill="#001C43"/>
<path d="M64.0759 47.3996C63.8459 47.3996 63.6159 47.3196 63.4259 47.1596L39.1359 26.4596C38.7159 26.0996 38.6659 25.4697 39.0259 25.0497C39.3859 24.6297 40.0159 24.5797 40.4359 24.9397L64.7259 45.6397C65.1459 45.9997 65.1959 46.6297 64.8359 47.0497C64.6359 47.2797 64.3559 47.3996 64.0759 47.3996Z" fill="#001C43"/>
<path d="M32.2059 33.0097C31.3959 33.0097 30.5859 32.6997 29.9759 32.0897L22.4759 24.5897C22.0859 24.1997 22.0859 23.5697 22.4759 23.1797C22.8659 22.7897 23.4959 22.7897 23.8859 23.1797L31.3859 30.6797C31.8359 31.1297 32.5659 31.1297 33.0159 30.6797L40.8159 22.8797C41.2059 22.4897 41.8359 22.4897 42.2259 22.8797C42.6159 23.2697 42.6159 23.8997 42.2259 24.2897L34.4259 32.0897C33.8059 32.6997 33.0059 33.0097 32.1959 33.0097H32.2059Z" fill="#1DB8D9"/>
</svg>
