<svg width="71" height="55" viewBox="0 0 71 55" fill="none" xmlns="http://www.w3.org/2000/svg">
<path d="M65.41 49.1897H11.5601C8.57006 49.1897 6.13007 46.7597 6.13007 43.7597V6.2597C6.13007 3.2697 8.56006 0.829712 11.5601 0.829712H54.3701C54.9201 0.829712 55.3701 1.27971 55.3701 1.82971C55.3701 2.37971 54.9201 2.82971 54.3701 2.82971H11.5601C9.67006 2.82971 8.13007 4.3697 8.13007 6.2597V43.7597C8.13007 45.6497 9.67006 47.1897 11.5601 47.1897H65.41C67.3 47.1897 68.84 45.6497 68.84 43.7597V17.8297C68.84 17.2797 69.29 16.8297 69.84 16.8297C70.39 16.8297 70.84 17.2797 70.84 17.8297V43.7597C70.84 46.7497 68.41 49.1897 65.41 49.1897Z" fill="#001C43"/>
<path d="M69.84 15.3497C69.29 15.3497 68.84 14.8997 68.84 14.3497V3.86969C68.84 3.28969 68.37 2.8197 67.79 2.8197H57.7C57.15 2.8197 56.7 2.3697 56.7 1.8197C56.7 1.2697 57.15 0.819702 57.7 0.819702H67.79C69.47 0.819702 70.84 2.18969 70.84 3.86969V14.3497C70.84 14.8997 70.39 15.3497 69.84 15.3497Z" fill="#1DB8D9"/>
<path d="M59.9901 54.2497H6.14001C3.15001 54.2497 0.710022 51.8197 0.710022 48.8197V11.3197C0.710022 10.7697 1.16002 10.3197 1.71002 10.3197C2.26002 10.3197 2.71002 10.7697 2.71002 11.3197V48.8197C2.71002 50.7097 4.25001 52.2497 6.14001 52.2497H59.9901C60.5401 52.2497 60.9901 52.6997 60.9901 53.2497C60.9901 53.7997 60.5401 54.2497 59.9901 54.2497Z" fill="#001C43"/>
<path d="M38.6901 39.2397C38.4801 39.2397 38.25 39.2396 38.03 39.2196C32.17 38.8896 30.4201 34.0597 30.3101 31.5597C30.2901 31.0097 30.71 30.5397 31.27 30.5197C31.82 30.4897 32.2901 30.9196 32.3101 31.4696C32.3201 31.6996 32.65 36.9096 38.15 37.2296C40.34 37.3496 42.0201 36.7596 43.1201 35.4696C44.3801 33.9896 44.64 31.8497 44.34 30.4897C44.01 28.9697 42.91 26.8897 37.21 26.2797C34.63 26.0097 32.6301 24.6797 31.5701 22.5497C30.4301 20.2397 30.5701 17.2897 31.9301 15.0497C33.1001 13.1197 35.26 11.8397 37.71 11.6297C40.32 11.3997 42.83 12.4196 44.58 14.4196C44.94 14.8396 44.9001 15.4697 44.4901 15.8297C44.0701 16.1997 43.44 16.1497 43.08 15.7397C41.75 14.2297 39.8601 13.4497 37.8801 13.6297C36.0701 13.7897 34.48 14.7096 33.64 16.0996C32.64 17.7496 32.5201 19.9897 33.3601 21.6797C33.8801 22.7397 35.01 24.0597 37.41 24.3097C42.66 24.8697 45.5601 26.7597 46.2901 30.0797C46.7001 31.9697 46.3501 34.7796 44.6301 36.7896C43.6501 37.9396 41.8301 39.2697 38.6901 39.2697V39.2397Z" fill="#001C43"/>
<path d="M38.14 42.8697C37.59 42.8697 37.14 42.4197 37.14 41.8697V8.28967C37.14 7.73967 37.59 7.28967 38.14 7.28967C38.69 7.28967 39.14 7.73967 39.14 8.28967V41.8697C39.14 42.4197 38.69 42.8697 38.14 42.8697Z" fill="#001C43"/>
</svg>
