<svg width="61" height="60" viewBox="0 0 61 60" fill="none" xmlns="http://www.w3.org/2000/svg">
<path d="M35.8835 15.9087C35.7235 15.9087 35.5635 15.8686 35.4135 15.7886C34.9235 15.5286 34.7435 14.9187 35.0135 14.4387L38.7835 7.45867C38.8635 7.31867 38.8735 7.14865 38.8335 6.99865C38.7835 6.83865 38.6835 6.70866 38.5435 6.63866L31.2835 2.71868C30.7935 2.45868 30.6135 1.84864 30.8835 1.36864C31.1435 0.878644 31.7535 0.698671 32.2335 0.958671L39.4935 4.87865C40.1035 5.20865 40.5535 5.75864 40.7535 6.42864C40.9535 7.09864 40.8835 7.79863 40.5535 8.41863L36.7835 15.3987C36.6035 15.7287 36.2635 15.9286 35.9035 15.9286L35.8835 15.9087Z" fill="#1DB8D9"/>
<path d="M17.1235 50.7187C16.9635 50.7187 16.8035 50.6787 16.6535 50.5987L5.68349 44.6787C5.45349 44.5487 5.27349 44.3387 5.20349 44.0887C5.12349 43.8387 5.15349 43.5587 5.28349 43.3287L27.3735 2.39872C27.6335 1.90872 28.2435 1.72869 28.7235 1.98869C29.2135 2.24869 29.3935 2.85872 29.1235 3.33872L7.51349 43.3887L16.7235 48.3587L33.3335 17.5787C33.5935 17.0887 34.2035 16.9087 34.6835 17.1687C35.1735 17.4287 35.3535 18.0387 35.0835 18.5187L17.9935 50.1787C17.8135 50.5087 17.4735 50.7087 17.1135 50.7087L17.1235 50.7187Z" fill="#001C43"/>
<path d="M5.9535 59.0887C5.7935 59.0887 5.6235 59.0487 5.4835 58.9687L4.8235 58.6086C4.4835 58.4286 4.2735 58.0586 4.3035 57.6686L5.1735 43.7286C5.1935 43.3886 5.3835 43.0786 5.6835 42.9186C5.9835 42.7486 6.3435 42.7486 6.6435 42.9186L17.6135 48.8387C17.9135 48.9987 18.1135 49.3087 18.1335 49.6487C18.1635 49.9887 18.0135 50.3187 17.7335 50.5187L6.5635 58.8987C6.3835 59.0287 6.1735 59.0987 5.9635 59.0987L5.9535 59.0887ZM7.0535 45.4186L6.3635 56.5287L15.2735 49.8487L7.0535 45.4087V45.4186Z" fill="#001C43"/>
<path d="M33.8335 13.7286C33.6735 13.7286 33.5135 13.6886 33.3635 13.6086L25.1835 9.19865C24.6935 8.93865 24.5135 8.32867 24.7835 7.84867C25.0435 7.35867 25.6535 7.17864 26.1335 7.43864L34.3135 11.8487C34.8035 12.1087 34.9835 12.7186 34.7135 13.1986C34.5335 13.5286 34.1935 13.7286 33.8335 13.7286Z" fill="#001C43"/>
<path d="M59.3235 59.6787H1.14349C0.593494 59.6787 0.143494 59.2287 0.143494 58.6787C0.143494 58.1287 0.593494 57.6787 1.14349 57.6787H59.3235C59.8735 57.6787 60.3235 58.1287 60.3235 58.6787C60.3235 59.2287 59.8735 59.6787 59.3235 59.6787Z" fill="#001C43"/>
</svg>
