<svg width="73" height="61" viewBox="0 0 73 61" fill="none" xmlns="http://www.w3.org/2000/svg">
<path d="M57.22 60.6935H1.89999C1.34999 60.6935 0.899994 60.2435 0.899994 59.6935V21.5635C0.899994 21.0135 1.34999 20.5635 1.89999 20.5635H5.89V1.66345C5.89 1.11345 6.34 0.663452 6.89 0.663452H16.8C17.35 0.663452 17.8 1.11345 17.8 1.66345V20.4835H20.79V9.91345C20.79 9.36345 21.24 8.91345 21.79 8.91345H26.78C27.33 8.91345 27.78 9.36345 27.78 9.91345V20.5635H31.77C32.32 20.5635 32.77 21.0135 32.77 21.5635V33.8435L51.08 20.7535C51.38 20.5335 51.79 20.5035 52.12 20.6735C52.45 20.8435 52.66 21.1835 52.66 21.5635V33.8435L70.97 20.7535C71.27 20.5335 71.68 20.5035 72.01 20.6735C72.34 20.8435 72.55 21.1835 72.55 21.5635V45.0435C72.55 45.5935 72.1 46.0435 71.55 46.0435C71 46.0435 70.55 45.5935 70.55 45.0435V23.5035L52.24 36.5935C51.94 36.8135 51.53 36.8435 51.2 36.6735C50.87 36.5035 50.66 36.1635 50.66 35.7835V23.5035L32.35 36.5935C32.04 36.8135 31.64 36.8435 31.31 36.6735C30.98 36.5035 30.77 36.1635 30.77 35.7835V22.5635H26.78C26.23 22.5635 25.78 22.1135 25.78 21.5635V10.9135H22.79V21.4835C22.79 22.0335 22.34 22.4835 21.79 22.4835H16.8C16.25 22.4835 15.8 22.0335 15.8 21.4835V2.66345H7.89V21.5635C7.89 22.1135 7.44 22.5635 6.89 22.5635H2.89999V58.6935H57.22C57.77 58.6935 58.22 59.1435 58.22 59.6935C58.22 60.2435 57.77 60.6935 57.22 60.6935ZM51.68 52.3735H45.02C44.47 52.3735 44.02 51.9235 44.02 51.3735V44.7135C44.02 44.1635 44.47 43.7135 45.02 43.7135H51.68C52.23 43.7135 52.68 44.1635 52.68 44.7135V51.3735C52.68 51.9235 52.23 52.3735 51.68 52.3735ZM46.02 50.3735H50.68V45.7135H46.02V50.3735ZM40.1 52.3735H33.44C32.89 52.3735 32.44 51.9235 32.44 51.3735V44.7135C32.44 44.1635 32.89 43.7135 33.44 43.7135H40.1C40.65 43.7135 41.1 44.1635 41.1 44.7135V51.3735C41.1 51.9235 40.65 52.3735 40.1 52.3735ZM34.44 50.3735H39.1V45.7135H34.44V50.3735ZM28.45 52.3735H21.79C21.24 52.3735 20.79 51.9235 20.79 51.3735V44.7135C20.79 44.1635 21.24 43.7135 21.79 43.7135H28.45C29 43.7135 29.45 44.1635 29.45 44.7135V51.3735C29.45 51.9235 29 52.3735 28.45 52.3735ZM22.79 50.3735H27.45V45.7135H22.79V50.3735Z" fill="#001C43"/>
<path d="M70.21 60.6935H60.51C59.96 60.6935 59.51 60.2435 59.51 59.6935C59.51 59.1435 59.96 58.6935 60.51 58.6935H70.21C70.41 58.6935 70.57 58.5335 70.57 58.3335V48.3735C70.57 47.8235 71.02 47.3735 71.57 47.3735C72.12 47.3735 72.57 47.8235 72.57 48.3735V58.3335C72.57 59.6335 71.51 60.6935 70.21 60.6935Z" fill="#1DB8D9"/>
<path d="M28.45 22.5634H5.28999C4.73999 22.5634 4.28999 22.1134 4.28999 21.5634C4.28999 21.0134 4.73999 20.5634 5.28999 20.5634H28.45C29 20.5634 29.45 21.0134 29.45 21.5634C29.45 22.1134 29 22.5634 28.45 22.5634Z" fill="#001C43"/>
</svg>
