<svg width="65" height="56" viewBox="0 0 65 56" fill="none" xmlns="http://www.w3.org/2000/svg">
<path d="M32.2238 33.044C32.0938 33.044 31.9538 33.014 31.8338 32.964C31.4638 32.804 31.2238 32.444 31.2238 32.044V25.654H28.7138C26.1338 25.654 24.0338 23.554 24.0338 20.974V4.67404C24.0338 2.09404 26.1338 -0.00598145 28.7138 -0.00598145H49.5138C50.0638 -0.00598145 50.5138 0.444019 50.5138 0.994019C50.5138 1.54402 50.0638 1.99402 49.5138 1.99402H28.7138C27.2338 1.99402 26.0338 3.19404 26.0338 4.67404V20.974C26.0338 22.454 27.2338 23.654 28.7138 23.654H32.2238C32.7738 23.654 33.2238 24.104 33.2238 24.654V29.714L39.2738 23.934C39.4638 23.754 39.7038 23.654 39.9638 23.654H59.4038C60.8838 23.654 62.0838 22.454 62.0838 20.974V14.554C62.0838 14.004 62.5338 13.554 63.0838 13.554C63.6338 13.554 64.0838 14.004 64.0838 14.554V20.974C64.0838 23.554 61.9838 25.654 59.4038 25.654H40.3638L32.9038 32.774C32.7138 32.954 32.4638 33.054 32.2138 33.054L32.2238 33.044Z" fill="#001C43"/>
<path d="M63.0939 11.954C62.5439 11.954 62.0939 11.504 62.0939 10.954V2.67404C62.0939 2.29404 61.7839 1.99402 61.4139 1.99402H52.8038C52.2538 1.99402 51.8038 1.54402 51.8038 0.994019C51.8038 0.444019 52.2538 -0.00598145 52.8038 -0.00598145H61.4139C62.8939 -0.00598145 64.0939 1.19404 64.0939 2.67404V10.954C64.0939 11.504 63.6439 11.954 63.0939 11.954Z" fill="#1DB8D9"/>
<path d="M31.5038 55.1941C27.3538 55.1941 19.6438 52.3141 11.5738 44.1841C1.72379 34.2741 -1.42618 23.6241 1.91382 20.2641C2.13382 20.0341 2.36382 19.7941 2.60382 19.5441C3.97382 18.0941 5.68382 16.2841 7.91382 16.2841C9.56382 16.2841 11.1438 17.254 12.7338 19.244C16.9538 24.524 15.5138 26.6641 12.8238 29.3141L12.4238 29.7141C12.3738 29.7641 11.1738 31.1241 17.8638 37.8541C22.7138 42.7341 24.7538 43.4641 25.5438 43.4641C25.7738 43.4641 25.8738 43.3941 25.9438 43.3341L26.3438 42.9341C27.6338 41.6141 28.8638 40.3641 30.8038 40.3641C32.3538 40.3641 34.1238 41.2141 36.3738 43.0241C38.2838 44.5741 39.2438 46.0941 39.3138 47.6941C39.4138 50.0141 37.5638 51.7741 36.0838 53.1941C35.8338 53.4341 35.5938 53.6641 35.3738 53.8841C34.5338 54.7341 33.2038 55.1741 31.5238 55.1741L31.5038 55.1941ZM7.91382 18.2941C6.54382 18.2941 5.22378 19.6941 4.06378 20.9241C3.81378 21.1841 3.57381 21.4441 3.34381 21.6741C1.42381 23.6041 3.09379 32.8041 13.0038 42.7741C20.1538 49.9741 27.4538 53.1941 31.5238 53.1941C32.6438 53.1941 33.5138 52.944 33.9638 52.494C34.2038 52.254 34.4538 52.0141 34.7138 51.7641C35.9638 50.5641 37.3938 49.2041 37.3338 47.7841C37.2938 46.8041 36.5538 45.7341 35.1338 44.5841C33.2838 43.0941 31.8738 42.3641 30.8238 42.3641C29.7738 42.3641 29.0238 43.0741 27.7938 44.3341L27.3838 44.744C26.9138 45.214 26.2838 45.4741 25.5738 45.4741C24.3138 45.4741 21.9938 44.8341 16.4738 39.2741C10.8238 33.5941 9.14382 30.2141 11.0338 28.3141L11.4438 27.9041C13.5538 25.8141 14.6138 24.7641 11.1938 20.5041C10.0238 19.0341 8.92378 18.2941 7.93378 18.2941H7.91382Z" fill="#001C43"/>
</svg>
