<svg width="79" height="56" viewBox="0 0 79 56" fill="none" xmlns="http://www.w3.org/2000/svg">
<path d="M64.2208 45.3331C62.2408 45.3331 60.6208 43.783 60.5208 41.813C60.3708 38.573 59.0208 35.5231 56.7208 33.2331C54.2608 30.7731 50.9908 29.4231 47.5108 29.4231C46.5208 29.4231 45.5908 29.043 44.8908 28.343C44.1908 27.643 43.8108 26.7131 43.8108 25.7231C43.8108 23.6831 45.4708 22.0231 47.5108 22.0231C52.9708 22.0231 58.1008 24.1431 61.9508 28.0031C65.5508 31.6031 67.6608 36.3831 67.9108 41.4631C67.9608 42.5031 67.5708 43.5231 66.8308 44.2631C66.1808 44.9131 65.3108 45.303 64.3908 45.343H64.2108L64.2208 45.3331ZM47.5208 24.0131C46.5808 24.0131 45.8208 24.7731 45.8208 25.7131C45.8208 26.1631 46.0008 26.5931 46.3208 26.9131C46.6408 27.2331 47.0708 27.4131 47.5208 27.4131C51.5308 27.4131 55.3108 28.973 58.1408 31.813C60.7908 34.463 62.3408 37.9731 62.5208 41.7131C62.5608 42.6231 63.3108 43.3331 64.2208 43.3331H64.3008C64.7208 43.3131 65.1208 43.1331 65.4208 42.8331C65.7608 42.4931 65.9408 42.0231 65.9208 41.5531C65.7008 36.9731 63.7908 32.6631 60.5408 29.4131C57.0608 25.9331 52.4308 24.0131 47.5108 24.0131H47.5208Z" fill="#001C43"/>
<path d="M74.5008 44.9931C72.5108 44.9931 70.8908 43.4331 70.8008 41.4531C70.5508 35.6031 68.1408 30.1031 63.9908 25.9631C59.8408 21.8231 54.3008 19.3831 48.4308 19.1531C46.3908 19.0731 44.8008 17.353 44.8808 15.313C44.9608 13.323 46.5808 11.7531 48.5708 11.7531H48.7208C56.4608 12.0631 63.7408 15.2431 69.2308 20.7231C74.6908 26.1831 77.8708 33.4331 78.2008 41.1431C78.2408 42.1731 77.8508 43.1831 77.1208 43.9131C76.4608 44.5731 75.5908 44.9531 74.6608 44.9931H74.5008ZM48.6408 13.7431C47.6608 13.7431 46.9108 14.4631 46.8808 15.3731C46.8408 16.3131 47.5808 17.1031 48.5108 17.1431C54.8908 17.3931 60.8908 20.0231 65.4108 24.5331C69.9108 29.0331 72.5308 35.0031 72.8008 41.3531C72.8408 42.2631 73.5808 42.9831 74.5008 42.9831H74.5708C75.0008 42.9631 75.4008 42.7831 75.7008 42.4831C76.0408 42.1431 76.2208 41.6931 76.2008 41.2031C75.9008 34.0031 72.9208 27.2231 67.8208 22.1131C62.6908 16.9831 55.8808 14.0131 48.6508 13.7231L48.6408 13.7431Z" fill="#001C43"/>
<path d="M19.1208 27.6331C18.8608 27.6331 18.6108 27.5331 18.4108 27.3431L13.1308 22.0631C12.1708 21.1031 12.1708 19.5431 13.1308 18.5831L18.2108 13.5031C18.6008 13.1131 19.2308 13.1131 19.6208 13.5031C20.0108 13.8931 20.0108 14.5231 19.6208 14.9131L14.5408 19.9931C14.3608 20.1731 14.3608 20.4631 14.5408 20.6431L19.8208 25.9231C20.2108 26.3131 20.2108 26.9431 19.8208 27.3331C19.6208 27.5331 19.3708 27.6231 19.1108 27.6231L19.1208 27.6331Z" fill="#1DB8D9"/>
<path d="M44.9308 55.8331C38.9408 55.8331 27.7808 51.6431 16.0408 39.8331C1.79082 25.4931 -2.84918 10.1931 1.88082 5.43306L2.34082 4.96306C4.60082 2.66306 7.42082 -0.186963 10.8908 0.00303745C13.0408 0.123037 15.1108 1.44304 17.0508 3.91304C19.6508 7.22304 20.8108 9.65305 20.8208 11.793C20.8208 12.343 20.3808 12.793 19.8208 12.793C19.2708 12.793 18.8208 12.353 18.8208 11.793C18.8208 10.153 17.7508 8.04305 15.4708 5.14305C13.9008 3.14305 12.3208 2.08306 10.7708 1.99306C8.19082 1.84306 5.74082 4.35305 3.76082 6.36305L3.29082 6.83305C1.59082 8.54305 1.77082 13.053 3.75082 18.323C6.20082 24.853 11.0608 31.983 17.4508 38.413C28.0308 49.053 38.8708 53.823 44.9208 53.823C46.7108 53.823 48.0608 53.4231 48.8208 52.6531C49.1608 52.3031 49.5308 51.953 49.9108 51.593C51.8208 49.763 53.9908 47.693 53.8908 45.413C53.8308 43.843 52.6808 42.153 50.4908 40.383C43.9508 35.103 42.2308 36.8631 39.1008 40.0531L38.5008 40.663C37.9708 41.193 37.2708 41.473 36.4508 41.473C33.4908 41.473 28.6408 37.8531 20.2408 29.3631C19.8508 28.9731 19.8508 28.333 20.2408 27.953C20.6308 27.563 21.2608 27.563 21.6508 27.953C24.4708 30.803 33.0508 39.4631 36.4408 39.4631C36.8108 39.4631 36.9708 39.3431 37.0708 39.2431L37.6608 38.6531C40.9508 35.2931 43.7908 32.403 51.7408 38.823C54.4308 41.003 55.7808 43.1331 55.8808 45.3331C56.0108 48.5231 53.3908 51.033 51.2808 53.043C50.9108 53.393 50.5608 53.733 50.2308 54.073C49.0908 55.223 47.2508 55.8331 44.9108 55.8331H44.9308Z" fill="#001C43"/>
</svg>
