<svg width="56" height="55" viewBox="0 0 56 55" fill="none" xmlns="http://www.w3.org/2000/svg">
<path d="M15.3753 54.6022C14.6153 54.6022 13.8853 54.3122 13.3153 53.7422L1.8053 42.8122C1.1653 42.2922 0.805298 41.5322 0.805298 40.5922C0.805298 39.8022 1.14531 39.0422 1.78531 38.3922L13.3353 27.4222C14.4453 26.4622 16.1653 26.4022 17.2853 27.2522C18.0253 27.8522 18.4753 28.8322 18.4753 29.8422V33.5222H35.0953V18.1022H31.4653C30.4653 18.1022 29.4853 17.6522 28.9053 16.9222C27.9253 15.6422 27.9953 14.0022 29.0753 12.9122L30.0053 11.9122C30.3853 11.5122 31.0153 11.4822 31.4153 11.8622C31.8153 12.2422 31.8453 12.8722 31.4653 13.2722L30.5153 14.2922C30.1253 14.6822 30.1253 15.2222 30.4753 15.6922C30.6653 15.9322 31.0653 16.1022 31.4553 16.1022H35.9853C36.5953 16.1022 37.0853 16.5922 37.0853 17.2022V34.4222C37.0853 35.0322 36.5953 35.5222 35.9853 35.5222H17.5653C16.9553 35.5222 16.4653 35.0322 16.4653 34.4222V29.8422C16.4653 29.4322 16.2953 29.0322 16.0453 28.8322C15.6553 28.5322 14.9953 28.6322 14.6653 28.9122L3.17531 39.8322C2.79531 40.2122 2.7953 40.5022 2.7953 40.6022C2.7953 40.9322 2.88531 41.1322 3.11531 41.3222L14.7053 52.3222C15.0853 52.7022 15.6153 52.7122 16.0553 52.3622C16.2953 52.1722 16.4653 51.7622 16.4653 51.3522V46.7722C16.4653 46.1622 16.9553 45.6722 17.5653 45.6722H45.9453C46.6753 45.6722 47.3053 45.0222 47.3053 44.2822V17.0022C47.3053 16.3922 47.7953 15.9022 48.4053 15.9022H52.9353C53.3253 15.9022 53.7253 15.7322 53.9253 15.4822C54.0653 15.3122 54.0753 14.7522 53.6553 14.2722L52.5253 13.0622C52.1453 12.6522 52.1753 12.0222 52.5753 11.6522C52.9753 11.2722 53.6153 11.3022 53.9853 11.7022L55.1353 12.9422C56.1553 14.1222 56.2953 15.7522 55.4653 16.7522C54.9053 17.4622 53.9253 17.9122 52.9253 17.9122H49.2953V44.2922C49.2953 46.1322 47.7553 47.6822 45.9353 47.6822H18.4653V51.3622C18.4653 52.3722 18.0253 53.3522 17.3053 53.9322C16.7153 54.3922 16.0353 54.6222 15.3653 54.6222L15.3753 54.6022Z" fill="#001C43"/>
<path d="M32.8252 11.2422C32.5652 11.2422 32.3153 11.1422 32.1153 10.9522C31.7253 10.5622 31.7253 9.93219 32.1153 9.54219L39.9152 1.7422C41.1452 0.512202 43.1452 0.512202 44.3752 1.7422L51.8752 9.2422C52.2652 9.6322 52.2652 10.2622 51.8752 10.6522C51.4852 11.0422 50.8552 11.0422 50.4652 10.6522L42.9652 3.15218C42.5152 2.70218 41.7853 2.70218 41.3353 3.15218L33.5353 10.9522C33.3353 11.1522 33.0852 11.2422 32.8252 11.2422Z" fill="#1DB8D9"/>
</svg>
