<svg width="79" height="60" viewBox="0 0 79 60" fill="none" xmlns="http://www.w3.org/2000/svg">
<path d="M30.94 34.1998C30.68 34.1998 30.4301 34.0999 30.2301 33.9099C29.8401 33.5199 29.8401 32.8899 30.2301 32.4999L43.51 19.2199C43.9 18.8299 44.5301 18.8299 44.9201 19.2199L51.5601 25.8599L75.26 2.15987C75.65 1.76987 76.2801 1.76987 76.6701 2.15987C77.0601 2.54987 77.0601 3.17984 76.6701 3.56984L52.27 27.9699C51.88 28.3599 51.2501 28.3599 50.8601 27.9699L44.2201 21.3299L31.65 33.8999C31.45 34.0999 31.2 34.1899 30.94 34.1899V34.1998Z" fill="#001C43"/>
<path d="M77.2501 15.3499C76.7001 15.3499 76.2501 14.8999 76.2501 14.3499V3.86987C76.2501 3.28987 75.78 2.81982 75.2 2.81982H65.11C64.56 2.81982 64.11 2.36982 64.11 1.81982C64.11 1.26982 64.56 0.819824 65.11 0.819824H75.2C76.88 0.819824 78.2501 2.18987 78.2501 3.86987V14.3499C78.2501 14.8999 77.8001 15.3499 77.2501 15.3499Z" fill="#1DB8D9"/>
<path d="M17.67 59.8398C8.39004 59.8398 0.840027 52.2898 0.840027 43.0098C0.840027 33.7298 8.39004 26.1799 17.67 26.1799C26.95 26.1799 34.5001 33.7298 34.5001 43.0098C34.5001 52.2898 26.95 59.8398 17.67 59.8398ZM17.67 28.1699C9.49004 28.1699 2.84003 34.8199 2.84003 42.9999C2.84003 51.1799 9.49004 57.8298 17.67 57.8298C25.85 57.8298 32.5001 51.1799 32.5001 42.9999C32.5001 34.8199 25.85 28.1699 17.67 28.1699Z" fill="#001C43"/>
<path d="M25.29 35.0798C24.98 34.9198 24.62 34.9198 24.3 35.0698L14.87 39.6498C14.65 39.7498 14.48 39.9298 14.37 40.1398L9.57 49.4598C9.29 49.9998 9.51004 50.6698 10.05 50.9498C10.36 51.1098 10.72 51.1098 11.04 50.9598L20.47 46.3798C20.69 46.2798 20.86 46.0998 20.97 45.8898L25.77 36.5698C26.05 36.0298 25.83 35.3598 25.29 35.0798ZM13.06 47.5198L15.64 42.5098L18.13 45.0599L13.06 47.5198ZM19.71 43.5198L17.22 40.9699L22.29 38.5098L19.71 43.5198Z" fill="#001C43"/>
</svg>
