<svg width="52" height="64" viewBox="0 0 52 64" fill="none" xmlns="http://www.w3.org/2000/svg">
<path d="M28.5985 38.3363H23.9085C16.4385 38.3363 10.3585 32.2563 10.3585 24.7863V1.53635C10.3585 1.00635 10.7885 0.576355 11.3185 0.576355H28.6185C29.1485 0.576355 29.5785 1.00635 29.5785 1.53635C29.5785 2.06635 29.1485 2.49634 28.6185 2.49634H12.2785V24.7964C12.2785 31.2064 17.4985 36.4263 23.9085 36.4263H28.5985C35.0085 36.4263 40.2285 31.2064 40.2285 24.7964V13.7064C40.2285 13.1764 40.6585 12.7463 41.1885 12.7463C41.7185 12.7463 42.1485 13.1764 42.1485 13.7064V24.7964C42.1485 32.2664 36.0685 38.3463 28.5985 38.3463V38.3363Z" fill="#001C43"/>
<path d="M40.6285 63.4564H11.8785C11.3485 63.4564 10.9185 63.0264 10.9185 62.4964V50.3764C10.9185 48.3264 12.5885 46.6564 14.6385 46.6564H37.8685C39.9185 46.6564 41.5885 48.3264 41.5885 50.3764V62.4964C41.5885 63.0264 41.1585 63.4564 40.6285 63.4564ZM12.8385 61.5364H39.6685V50.3764C39.6685 49.3864 38.8585 48.5764 37.8685 48.5764H14.6385C13.6485 48.5764 12.8385 49.3864 12.8385 50.3764V61.5364Z" fill="#001C43"/>
<path d="M31.7785 48.5463H20.7185C20.1885 48.5463 19.7585 48.1163 19.7585 47.5863V37.4263C19.7585 36.8963 20.1885 36.4663 20.7185 36.4663C21.2485 36.4663 21.6785 36.8963 21.6785 37.4263V46.6263H30.8185V37.4263C30.8185 36.8963 31.2485 36.4663 31.7785 36.4663C32.3085 36.4663 32.7385 36.8963 32.7385 37.4263V47.5863C32.7385 48.1163 32.3085 48.5463 31.7785 48.5463Z" fill="#001C43"/>
<path d="M11.4785 29.6763C9.37848 29.6763 6.03849 28.7663 3.54849 26.2163C1.61849 24.2463 0.63849 21.6763 0.70849 18.7963V4.8063C0.70849 3.6563 1.71847 2.71631 2.96847 2.71631H10.1285C10.6585 2.71631 11.0885 3.1463 11.0885 3.6763C11.0885 4.2063 10.6585 4.63632 10.1285 4.63632H2.96847C2.74847 4.63632 2.62847 4.7663 2.62847 4.8063V18.8263C2.56847 21.2363 3.33848 23.2663 4.91848 24.8763C6.85848 26.8663 9.60847 27.7563 11.4685 27.7563C11.9985 27.7563 12.4285 28.1863 12.4285 28.7163C12.4285 29.2463 11.9985 29.6763 11.4685 29.6763H11.4785Z" fill="#001C43"/>
<path d="M40.8585 29.6763C40.3285 29.6763 39.8985 29.2463 39.8985 28.7163C39.8985 28.1863 40.3285 27.7563 40.8585 27.7563C42.7185 27.7563 45.4685 26.8663 47.4185 24.8763C48.9985 23.2563 49.7685 21.2263 49.7085 18.8463V4.8063C49.7085 4.8063 49.5885 4.63632 49.3685 4.63632H42.2085C41.6785 4.63632 41.2485 4.2063 41.2485 3.6763C41.2485 3.1463 41.6785 2.71631 42.2085 2.71631H49.3685C50.6185 2.71631 51.6285 3.6563 51.6285 4.8063V18.8263C51.6985 21.6763 50.7185 24.2463 48.7885 26.2163C46.2985 28.7663 42.9585 29.6763 40.8585 29.6763Z" fill="#001C43"/>
<path d="M41.1885 11.9963C40.6585 11.9963 40.2285 11.5663 40.2285 11.0363V3.1463C40.2285 2.7963 39.9385 2.50632 39.5885 2.50632H31.3885C30.8585 2.50632 30.4285 2.07633 30.4285 1.54633C30.4285 1.01633 30.8585 0.586304 31.3885 0.586304H39.5885C40.9985 0.586304 42.1485 1.7363 42.1485 3.1463V11.0363C42.1485 11.5663 41.7185 11.9963 41.1885 11.9963Z" fill="#00BEDD"/>
</svg>
