<svg width="33" height="53" viewBox="0 0 33 53" fill="none" xmlns="http://www.w3.org/2000/svg">
<path d="M6.32076 42.6997C6.05076 42.6997 5.78077 42.5897 5.58077 42.3697L1.50076 37.8497C0.760757 37.0397 0.580745 35.8697 1.05074 34.8697C1.51074 33.8897 2.52075 33.2597 3.62075 33.2597H8.94076V1.33972C8.94076 0.789722 9.39076 0.339722 9.94076 0.339722C10.4908 0.339722 10.9408 0.789722 10.9408 1.33972V34.2597C10.9408 34.8097 10.4908 35.2597 9.94076 35.2597H3.62075C3.29075 35.2597 2.99074 35.4397 2.86074 35.7197C2.73074 35.9897 2.78074 36.2897 2.98074 36.5097L7.07076 41.0397C7.44076 41.4497 7.41076 42.0797 7.00076 42.4497C6.81076 42.6197 6.57077 42.7097 6.33077 42.7097L6.32076 42.6997Z" fill="#001C43"/>
<path d="M26.7507 42.5297C26.5107 42.5297 26.2807 42.4497 26.0907 42.2797C25.6807 41.9097 25.6407 41.2797 26.0107 40.8697L29.8807 36.5197C30.0907 36.2897 30.1407 35.9897 30.0107 35.7197C29.8807 35.4397 29.5807 35.2597 29.2507 35.2597H22.9307C22.3807 35.2597 21.9307 34.8097 21.9307 34.2597V1.33972C21.9307 0.789722 22.3807 0.339722 22.9307 0.339722C23.4807 0.339722 23.9307 0.789722 23.9307 1.33972V33.2597H29.2507C30.3507 33.2597 31.3607 33.8897 31.8207 34.8597C32.2907 35.8497 32.1107 37.0297 31.3707 37.8497L27.5107 42.1997C27.3107 42.4197 27.0407 42.5397 26.7607 42.5397L26.7507 42.5297Z" fill="#001C43"/>
<path d="M16.4307 52.2097C15.6807 52.2097 14.9307 51.9198 14.3507 51.3498L7.65072 44.6497C7.26072 44.2597 7.26072 43.6298 7.65072 43.2398C8.04072 42.8498 8.67075 42.8498 9.06075 43.2398L15.7608 49.9397C16.1208 50.2997 16.6907 50.3097 17.0407 49.9697L23.8607 43.1497C24.2507 42.7597 24.8807 42.7597 25.2707 43.1497C25.6607 43.5397 25.6607 44.1697 25.2707 44.5597L18.4508 51.3797C17.8908 51.9397 17.1607 52.2097 16.4207 52.2097H16.4307Z" fill="#1DB8D9"/>
</svg>
