<svg width="32" height="53" viewBox="0 0 32 53" fill="none" xmlns="http://www.w3.org/2000/svg">
<path d="M22.7822 52.2097C22.2322 52.2097 21.7822 51.7597 21.7822 51.2097V18.2997C21.7822 17.7497 22.2322 17.2997 22.7822 17.2997H29.1021C29.4321 17.2997 29.7321 17.1197 29.8621 16.8397C29.9921 16.5697 29.9421 16.2697 29.7421 16.0497L25.6522 11.5197C25.2822 11.1097 25.3122 10.4797 25.7222 10.1097C26.1322 9.73971 26.7622 9.76972 27.1322 10.1797L31.2122 14.6997C31.9522 15.5097 32.1321 16.6797 31.6621 17.6897C31.2021 18.6697 30.1922 19.2997 29.0922 19.2997H23.7722V51.2097C23.7722 51.7597 23.3222 52.2097 22.7722 52.2097H22.7822Z" fill="#001C43"/>
<path d="M9.80215 52.2097C9.25215 52.2097 8.80215 51.7597 8.80215 51.2097V19.2998H3.48214C2.38214 19.2998 1.37214 18.6698 0.912136 17.6898C0.442136 16.6998 0.612148 15.5297 1.36215 14.6997L5.22219 10.3497C5.59219 9.93974 6.22217 9.89972 6.63217 10.2697C7.04217 10.6397 7.08218 11.2698 6.71218 11.6798L2.84219 16.0297C2.63219 16.2597 2.58218 16.5597 2.71218 16.8297C2.84219 17.1097 3.14219 17.2897 3.47219 17.2897H9.79214C10.3421 17.2897 10.7921 17.7397 10.7921 18.2897V51.1997C10.7921 51.7497 10.3421 52.1997 9.79214 52.1997L9.80215 52.2097Z" fill="#001C43"/>
<path d="M8.16214 9.69971C7.90214 9.69971 7.65218 9.59973 7.45218 9.40973C7.06218 9.01973 7.06218 8.38976 7.45218 7.99976L14.2722 1.17975C14.8222 0.629749 15.5422 0.369722 16.3322 0.339722C17.1022 0.339722 17.8322 0.659707 18.3822 1.19971L25.0822 7.89972C25.4722 8.28972 25.4722 8.91975 25.0822 9.30975C24.6922 9.69975 24.0622 9.69975 23.6722 9.30975L16.9722 2.60974C16.7922 2.42974 16.5622 2.32971 16.3122 2.32971C16.0522 2.29971 15.8522 2.41971 15.6922 2.57971L8.87217 9.39972C8.67217 9.59972 8.42214 9.68976 8.16214 9.68976V9.69971Z" fill="#1DB8D9"/>
</svg>
