<svg width="62" height="63" viewBox="0 0 62 63" fill="none" xmlns="http://www.w3.org/2000/svg">
<path d="M56.8801 62.2297H5.13007C2.34007 62.2297 0.0600586 59.9597 0.0600586 57.1597V5.40973C0.0600586 2.60973 2.34007 0.339722 5.13007 0.339722H46.2001C46.7501 0.339722 47.2001 0.789722 47.2001 1.33972C47.2001 1.88972 46.7501 2.33972 46.2001 2.33972H5.13007C3.44007 2.33972 2.06006 3.71973 2.06006 5.40973V57.1597C2.06006 58.8497 3.44007 60.2297 5.13007 60.2297H56.8801C58.5701 60.2297 59.9501 58.8497 59.9501 57.1597V15.7897C59.9501 15.2397 60.4001 14.7897 60.9501 14.7897C61.5001 14.7897 61.9501 15.2397 61.9501 15.7897V57.1597C61.9501 59.9597 59.6801 62.2297 56.8801 62.2297Z" fill="#001C43"/>
<path d="M60.9501 13.7397C60.4001 13.7397 59.9501 13.2897 59.9501 12.7397V3.25977C59.9501 2.74977 59.5501 2.33972 59.0701 2.33972H49.4201C48.8701 2.33972 48.4201 1.88972 48.4201 1.33972C48.4201 0.789722 48.8701 0.339722 49.4201 0.339722H59.0701C60.6601 0.339722 61.9501 1.64977 61.9501 3.25977V12.7397C61.9501 13.2897 61.5001 13.7397 60.9501 13.7397Z" fill="#1DB8D9"/>
<path d="M23.4801 49.1497H16.3201C15.7701 49.1497 15.3201 48.6997 15.3201 48.1497V25.1298C15.3201 24.5798 15.7701 24.1298 16.3201 24.1298H23.4801C24.0301 24.1298 24.4801 24.5798 24.4801 25.1298V48.1497C24.4801 48.6997 24.0301 49.1497 23.4801 49.1497ZM17.3201 47.1497H22.4801V26.1298H17.3201V47.1497ZM19.9001 22.9797C17.0601 22.9797 14.7501 20.6697 14.7501 17.8297C14.7501 14.9897 17.0601 12.6797 19.9001 12.6797C22.7401 12.6797 25.0501 14.9897 25.0501 17.8297C25.0501 20.6697 22.7401 22.9797 19.9001 22.9797ZM19.9001 14.6797C18.1601 14.6797 16.7501 16.0897 16.7501 17.8297C16.7501 19.5697 18.1601 20.9797 19.9001 20.9797C21.6401 20.9797 23.0501 19.5697 23.0501 17.8297C23.0501 16.0897 21.6401 14.6797 19.9001 14.6797Z" fill="#001C43"/>
<path d="M50.2801 49.1497H43.1301C42.5801 49.1497 42.1301 48.6997 42.1301 48.1497V36.9498C42.1301 33.4198 41.7401 31.8397 39.4101 31.8397C37.0801 31.8397 36.1201 33.1698 36.1201 36.7498V48.1397C36.1201 48.6897 35.6701 49.1397 35.1201 49.1397H27.9701C27.4201 49.1397 26.9701 48.6897 26.9701 48.1397V25.1198C26.9701 24.5698 27.4201 24.1198 27.9701 24.1198H34.8301C35.3801 24.1198 35.8301 24.5698 35.8301 25.1198V25.6298C37.2001 24.4698 39.1801 23.5598 41.7001 23.5598C50.1501 23.5598 51.2801 29.6097 51.2801 35.5197V48.1497C51.2801 48.6997 50.8301 49.1497 50.2801 49.1497ZM44.1301 47.1497H49.2801V35.5197C49.2801 29.3697 48.0101 25.5598 41.7001 25.5598C38.5901 25.5598 36.5901 27.2697 35.8201 28.7397C35.6501 29.0697 35.3101 29.2697 34.9401 29.2697C34.3901 29.2697 33.8401 28.8197 33.8401 28.2697V26.1198H28.9801V47.1397H34.1301V36.7498C34.1301 35.0398 34.1301 29.8397 39.4201 29.8397C44.1401 29.8397 44.1401 34.4598 44.1401 36.9498V47.1497H44.1301Z" fill="#001C43"/>
</svg>
