<svg width="76" height="66" viewBox="0 0 76 66" fill="none" xmlns="http://www.w3.org/2000/svg">
<path d="M6.78998 65.3898C3.03998 65.3898 0 62.3399 0 58.5999C0 54.8599 3.04998 51.8098 6.78998 51.8098C10.53 51.8098 13.58 54.8599 13.58 58.5999C13.58 62.3399 10.53 65.3898 6.78998 65.3898ZM6.78998 53.7998C4.14998 53.7998 2 55.9498 2 58.5898C2 61.2298 4.14998 63.3798 6.78998 63.3798C9.42998 63.3798 11.58 61.2298 11.58 58.5898C11.58 55.9498 9.42998 53.7998 6.78998 53.7998Z" fill="#001C43"/>
<path d="M33.07 65.3699C28.31 65.3699 24.44 61.4999 24.44 56.7399C24.44 51.9799 28.31 48.1099 33.07 48.1099C37.83 48.1099 41.7 51.9799 41.7 56.7399C41.7 61.4999 37.83 65.3699 33.07 65.3699ZM33.07 50.1199C29.42 50.1199 26.44 53.0899 26.44 56.7499C26.44 60.4099 29.41 63.3799 33.07 63.3799C36.73 63.3799 39.7 60.4099 39.7 56.7499C39.7 53.0899 36.73 50.1199 33.07 50.1199Z" fill="#001C43"/>
<path d="M27.96 51.7899C27.71 51.7899 27.46 51.6998 27.27 51.5098L19.84 44.3499H1.71997C1.16997 44.3499 0.719971 43.8999 0.719971 43.3499C0.719971 42.7999 1.16997 42.3499 1.71997 42.3499H20.24C20.5 42.3499 20.75 42.4498 20.93 42.6298L28.65 50.0698C29.05 50.4498 29.06 51.0899 28.68 51.4799C28.48 51.6799 28.22 51.7899 27.96 51.7899Z" fill="#001C43"/>
<path d="M1.21997 57.6697C0.669971 57.6697 0.219971 57.2197 0.219971 56.6697V16.7898C0.219971 16.2398 0.669971 15.7898 1.21997 15.7898H28.14C28.5 15.7898 28.83 15.9798 29.01 16.2898L44.02 42.1797C44.3 42.6597 44.13 43.2697 43.66 43.5497C43.18 43.8297 42.57 43.6598 42.29 43.1898L27.57 17.7997H2.22998V56.6797C2.22998 57.2297 1.77998 57.6797 1.22998 57.6797L1.21997 57.6697Z" fill="#001C43"/>
<path d="M43.47 62.1498H40.34C39.79 62.1498 39.34 61.6998 39.34 61.1498C39.34 60.5998 39.79 60.1498 40.34 60.1498H42.47V1.93982C42.47 1.38982 42.92 0.939819 43.47 0.939819C44.02 0.939819 44.47 1.38982 44.47 1.93982V61.1498C44.47 61.6998 44.02 62.1498 43.47 62.1498Z" fill="#001C43"/>
<path d="M26.96 62.4498H12.44C11.89 62.4498 11.44 61.9998 11.44 61.4498C11.44 60.8998 11.89 60.4498 12.44 60.4498H26.96C27.51 60.4498 27.96 60.8998 27.96 61.4498C27.96 61.9998 27.51 62.4498 26.96 62.4498Z" fill="#001C43"/>
<path d="M74.51 28.1199H44.36C43.81 28.1199 43.36 27.6699 43.36 27.1199C43.36 26.5699 43.81 26.1199 44.36 26.1199H74.51C75.06 26.1199 75.51 26.5699 75.51 27.1199C75.51 27.6699 75.06 28.1199 74.51 28.1199Z" fill="#001C43"/>
<path d="M34.63 50.2498C34.37 50.2498 34.12 50.1499 33.92 49.9599C33.53 49.5699 33.53 48.9398 33.92 48.5498L41.7 40.7998C42.09 40.4098 42.72 40.4098 43.11 40.7998C43.5 41.1898 43.5 41.8199 43.11 42.2099L35.33 49.9599C35.14 50.1499 34.88 50.2498 34.62 50.2498H34.63Z" fill="#001C43"/>
<path d="M15.95 40.1399H6.78998C6.23998 40.1399 5.78998 39.6899 5.78998 39.1399V30.1199C5.78998 29.5699 6.23998 29.1199 6.78998 29.1199C7.33998 29.1199 7.78998 29.5699 7.78998 30.1199V38.1399H15.95C16.5 38.1399 16.95 38.5899 16.95 39.1399C16.95 39.6899 16.5 40.1399 15.95 40.1399Z" fill="#001C43"/>
<path d="M23.68 38.1998C23.42 38.1998 23.15 38.0998 22.96 37.8898C22.58 37.4898 22.59 36.8599 22.99 36.4799L27.83 31.8499C28.23 31.4699 28.86 31.4798 29.24 31.8798C29.62 32.2798 29.61 32.9099 29.21 33.2899L24.37 37.9198C24.18 38.1098 23.93 38.1998 23.68 38.1998Z" fill="#001C43"/>
<path d="M36.88 46.9698C36.62 46.9698 36.36 46.8697 36.16 46.6697L25.48 35.6898C25.1 35.2898 25.1 34.6598 25.5 34.2798C25.9 33.8898 26.53 33.8997 26.91 34.2997L37.59 45.2798C37.97 45.6798 37.97 46.3098 37.57 46.6898C37.38 46.8798 37.12 46.9698 36.87 46.9698H36.88Z" fill="#001C43"/>
<path d="M71.92 23.1798H49.2C48.65 23.1798 48.2 22.7298 48.2 22.1798V2.72986C48.2 2.17986 48.65 1.72986 49.2 1.72986H58.13C58.68 1.72986 59.13 2.17986 59.13 2.72986C59.13 3.27986 58.68 3.72986 58.13 3.72986H50.2V21.1798H70.92V16.7398C70.92 16.1898 71.37 15.7398 71.92 15.7398C72.47 15.7398 72.92 16.1898 72.92 16.7398V22.1798C72.92 22.7298 72.47 23.1798 71.92 23.1798Z" fill="#001C43"/>
<path d="M71.92 14.0598C71.37 14.0598 70.92 13.6098 70.92 13.0598V4.4798C70.92 4.0698 70.59 3.73975 70.18 3.73975H61.26C60.71 3.73975 60.26 3.28975 60.26 2.73975C60.26 2.18975 60.71 1.73975 61.26 1.73975H70.18C71.69 1.73975 72.92 2.9698 72.92 4.4798V13.0598C72.92 13.6098 72.47 14.0598 71.92 14.0598Z" fill="#1DB8D9"/>
</svg>
