<svg width="75" height="65" viewBox="0 0 75 65" fill="none" xmlns="http://www.w3.org/2000/svg">
<path d="M24.3137 64.354H5.36365C2.56365 64.354 0.28363 62.034 0.28363 59.184V13.284C0.28363 10.434 2.56365 8.11401 5.36365 8.11401H24.3137C27.1137 8.11401 29.3936 10.434 29.3936 13.284V59.184C29.3936 62.034 27.1137 64.354 24.3137 64.354ZM5.36365 10.114C3.66365 10.114 2.28363 11.534 2.28363 13.284V59.184C2.28363 60.934 3.66365 62.354 5.36365 62.354H24.3137C26.0137 62.354 27.3936 60.934 27.3936 59.184V13.284C27.3936 11.534 26.0137 10.114 24.3137 10.114H5.36365ZM20.7736 18.984H7.36365C6.81365 18.984 6.36365 18.534 6.36365 17.984C6.36365 17.434 6.81365 16.984 7.36365 16.984H20.7736C21.3236 16.984 21.7736 17.434 21.7736 17.984C21.7736 18.534 21.3236 18.984 20.7736 18.984Z" fill="#001C43"/>
<path d="M55.5036 59.944H33.7336C33.1836 59.944 32.7336 59.494 32.7336 58.944C32.7336 56.454 34.5736 53.614 37.0836 52.994V49.764C37.0836 49.214 37.5336 48.764 38.0836 48.764H51.1436C51.6936 48.764 52.1436 49.214 52.1436 49.764V52.994C54.6636 53.604 56.4937 56.454 56.4937 58.944C56.4937 59.494 56.0437 59.944 55.4937 59.944H55.5036ZM34.8737 57.944H54.3536C53.9236 56.404 52.6036 54.874 51.1436 54.874C50.5936 54.874 50.1436 54.424 50.1436 53.874V50.764H39.0836V53.874C39.0836 54.424 38.6336 54.874 38.0836 54.874C36.6236 54.874 35.3037 56.404 34.8737 57.944Z" fill="#001C43"/>
<path d="M69.0336 46.784H32.3936C31.8436 46.784 31.3936 46.334 31.3936 45.784C31.3936 45.234 31.8436 44.784 32.3936 44.784H69.0336C70.7236 44.784 72.1036 43.404 72.1036 41.714V5.06403C72.1036 3.37403 70.7236 1.99402 69.0336 1.99402H20.1837C18.8437 1.99402 17.6936 2.86403 17.2836 4.06403H54.8036C55.3536 4.06403 55.8036 4.51403 55.8036 5.06403C55.8036 5.61403 55.3536 6.06403 54.8036 6.06403H16.1237C15.5737 6.06403 15.1237 5.61403 15.1237 5.06403C15.1237 2.26403 17.4036 -0.00598145 20.1936 -0.00598145H69.0436C71.8436 -0.00598145 74.1136 2.27403 74.1136 5.06403V41.714C74.1136 44.514 71.8336 46.784 69.0436 46.784H69.0336ZM69.0336 38.634H32.3936C31.8436 38.634 31.3936 38.184 31.3936 37.634C31.3936 37.084 31.8436 36.634 32.3936 36.634H68.0336V18.914C68.0336 18.364 68.4836 17.914 69.0336 17.914C69.5836 17.914 70.0336 18.364 70.0336 18.914V37.634C70.0336 38.184 69.5836 38.634 69.0336 38.634Z" fill="#001C43"/>
<path d="M69.0136 16.524C68.4636 16.524 68.0136 16.074 68.0136 15.524V6.79407C68.0136 6.36407 67.6637 6.02405 67.2437 6.02405H58.1736C57.6236 6.02405 57.1736 5.57405 57.1736 5.02405C57.1736 4.47405 57.6236 4.02405 58.1736 4.02405H67.2437C68.7737 4.02405 70.0136 5.26407 70.0136 6.79407V15.524C70.0136 16.074 69.5636 16.524 69.0136 16.524Z" fill="#1DB8D9"/>
</svg>
