<svg width="92" height="53" viewBox="0 0 92 53" fill="none" xmlns="http://www.w3.org/2000/svg">
<path d="M22.9634 52.3382C22.4134 52.3382 21.9634 51.8882 21.9634 51.3382V17.7382C21.9634 17.3582 22.1834 17.0082 22.5234 16.8382L45.4935 5.48824C45.7735 5.34824 46.1035 5.34824 46.3835 5.48824L69.3535 16.8382C69.6935 17.0082 69.9135 17.3582 69.9135 17.7382V36.5782C69.9135 37.1282 69.4635 37.5782 68.9135 37.5782C68.3635 37.5782 67.9135 37.1282 67.9135 36.5782V18.3582L45.9435 7.49824L23.9734 18.3582V51.3382C23.9734 51.8882 23.5234 52.3382 22.9734 52.3382H22.9634Z" fill="#001C43"/>
<path d="M52.3535 52.3382H39.5334C38.9834 52.3382 38.5334 51.8882 38.5334 51.3382V29.4282C38.5334 28.8782 38.9834 28.4282 39.5334 28.4282H52.3535C52.9035 28.4282 53.3535 28.8782 53.3535 29.4282V51.3382C53.3535 51.8882 52.9035 52.3382 52.3535 52.3382ZM40.5334 50.3382H51.3535V30.4282H40.5334V50.3382Z" fill="#001C43"/>
<path d="M54.7134 52.3383H1.25348C0.703479 52.3383 0.253479 51.8883 0.253479 51.3383C0.253479 50.7883 0.703479 50.3383 1.25348 50.3383H54.7134C55.2634 50.3383 55.7134 50.7883 55.7134 51.3383C55.7134 51.8883 55.2634 52.3383 54.7134 52.3383Z" fill="#001C43"/>
<path d="M90.6335 52.3383H71.8135C71.2635 52.3383 70.8135 51.8883 70.8135 51.3383C70.8135 50.7883 71.2635 50.3383 71.8135 50.3383H90.6335C91.1835 50.3383 91.6335 50.7883 91.6335 51.3383C91.6335 51.8883 91.1835 52.3383 90.6335 52.3383Z" fill="#001C43"/>
<path d="M79.0335 19.3482C78.8835 19.3482 78.7335 19.3182 78.5935 19.2482L45.9435 3.05823L13.2935 19.2482C12.8035 19.4982 12.1935 19.2882 11.9535 18.7982C11.7035 18.2982 11.9135 17.7082 12.4035 17.4582L45.4935 1.04824C45.7735 0.908237 46.1035 0.908237 46.3835 1.04824L79.4735 17.4582C79.9735 17.7082 80.1735 18.3082 79.9235 18.7982C79.7535 19.1482 79.3935 19.3582 79.0235 19.3582L79.0335 19.3482Z" fill="#001C43"/>
<path d="M67.0835 52.3383H58.0835C57.5335 52.3383 57.0835 51.8883 57.0835 51.3383C57.0835 50.7883 57.5335 50.3383 58.0835 50.3383H67.0835C67.5335 50.3383 67.9135 49.9683 67.9135 49.5083V40.1583C67.9135 39.6083 68.3635 39.1583 68.9135 39.1583C69.4635 39.1583 69.9135 39.6083 69.9135 40.1583V49.5083C69.9135 51.0683 68.6435 52.3383 67.0835 52.3383Z" fill="#1DB8D9"/>
</svg>
