<svg width="64" height="64" viewBox="0 0 64 64" fill="none" xmlns="http://www.w3.org/2000/svg">
<path d="M43.3699 39.864C38.0499 39.864 33.04 37.794 29.28 34.024C21.51 26.254 21.51 13.604 29.28 5.83401C33.04 2.07401 38.0499 -0.00598145 43.3699 -0.00598145C48.6899 -0.00598145 53.7 2.06401 57.46 5.83401C61.22 9.59402 63.3 14.604 63.3 19.924C63.3 25.244 61.23 30.254 57.46 34.014C53.7 37.774 48.6899 39.854 43.3699 39.854V39.864ZM43.3699 2.004C38.5799 2.004 34.08 3.874 30.69 7.254C23.7 14.244 23.7 25.624 30.69 32.614C34.08 36.004 38.5799 37.864 43.3699 37.864C48.16 37.864 52.66 35.994 56.05 32.614C59.44 29.224 61.3 24.724 61.3 19.934C61.3 15.144 59.43 10.644 56.05 7.254C52.66 3.864 48.16 2.004 43.3699 2.004Z" fill="#001C43"/>
<path d="M25.02 35.074C24.76 35.074 24.51 34.974 24.31 34.784C23.92 34.394 23.92 33.764 24.31 33.374L26.88 30.804C27.27 30.414 27.9 30.414 28.29 30.804C28.68 31.194 28.68 31.8239 28.29 32.2139L25.72 34.784C25.52 34.984 25.27 35.074 25.01 35.074H25.02Z" fill="#001C43"/>
<path d="M29.03 39.074C28.77 39.074 28.52 38.974 28.32 38.784C27.93 38.394 27.93 37.764 28.32 37.374L30.89 34.804C31.28 34.414 31.91 34.414 32.3 34.804C32.69 35.194 32.69 35.8239 32.3 36.2139L29.73 38.784C29.53 38.984 29.28 39.074 29.02 39.074H29.03Z" fill="#001C43"/>
<path d="M6.51999 63.204C4.96999 63.204 3.42997 62.614 2.24997 61.434C1.10997 60.294 0.48999 58.784 0.48999 57.164C0.48999 55.544 1.11997 54.034 2.24997 52.894L11.57 43.574C11.96 43.184 12.59 43.184 12.98 43.574C13.37 43.964 13.37 44.594 12.98 44.984L3.65997 54.304C2.89997 55.064 2.47998 56.074 2.47998 57.164C2.47998 58.254 2.89997 59.264 3.65997 60.024C5.23997 61.604 7.79996 61.604 9.36996 60.024L25.41 43.984C25.8 43.594 26.43 43.594 26.82 43.984C27.21 44.374 27.21 45.004 26.82 45.394L10.78 61.434C9.59997 62.614 8.05998 63.204 6.50998 63.204H6.51999Z" fill="#001C43"/>
<path d="M14.48 43.084C14.22 43.084 13.97 42.984 13.77 42.794C13.38 42.404 13.38 41.774 13.77 41.384L19.67 35.484C20.66 34.494 22.39 34.494 23.39 35.484L29.07 41.164C29.46 41.554 29.46 42.184 29.07 42.574C28.68 42.964 28.05 42.964 27.66 42.574L21.98 36.894C21.74 36.654 21.33 36.654 21.09 36.894L15.19 42.794C14.99 42.994 14.74 43.084 14.48 43.084Z" fill="#1DB8D9"/>
</svg>
