<svg width="84" height="43" viewBox="0 0 84 43" fill="none" xmlns="http://www.w3.org/2000/svg">
<path d="M68.2919 42.3932H3.7019C3.3819 42.3932 3.07191 42.2332 2.89191 41.9732C1.29191 39.7332 0.441956 37.0932 0.441956 34.3432C0.441956 27.0832 6.34193 21.1832 13.6019 21.1832C14.6719 21.1832 15.7319 21.3132 16.7819 21.5732C20.2419 18.1132 24.8119 16.2232 29.7119 16.2232C31.1419 16.2232 32.5619 16.3932 33.9519 16.7132C35.1219 7.77323 42.7919 0.943237 51.9219 0.943237C61.0519 0.943237 68.5419 7.52323 69.8619 16.3732C75.4919 17.1332 80.3019 20.7832 82.5319 26.0732C82.7419 26.5832 82.512 27.1732 82.002 27.3832C81.492 27.6032 80.902 27.3632 80.692 26.8532C78.652 22.0032 74.1219 18.7232 68.8919 18.2832C68.4119 18.2432 68.0319 17.8632 67.9819 17.3932C67.1219 9.15323 60.2219 2.94324 51.9319 2.94324C43.6419 2.94324 36.3819 9.58324 35.8419 18.0532C35.8219 18.3632 35.6619 18.6432 35.4119 18.8132C35.1619 18.9832 34.8419 19.0332 34.5519 18.9432C32.9919 18.4632 31.3719 18.2232 29.7319 18.2232C25.1919 18.2232 20.9719 20.0532 17.8419 23.3832C17.5819 23.6632 17.1819 23.7632 16.8319 23.6532C15.7819 23.3432 14.712 23.1832 13.632 23.1832C7.48196 23.1832 2.47192 28.1932 2.47192 34.3432C2.47192 36.5032 3.0919 38.5832 4.2619 40.3932H68.322C68.872 40.3932 69.322 40.8432 69.322 41.3932C69.322 41.9432 68.872 42.3932 68.322 42.3932H68.2919Z" fill="#001C43"/>
<path d="M81.002 42.3933H72.2119C71.6619 42.3933 71.2119 41.9433 71.2119 41.3933C71.2119 40.8433 71.6619 40.3933 72.2119 40.3933H81.002C81.432 40.3933 81.7919 40.0433 81.7919 39.6033V30.4633C81.7919 29.9133 82.2419 29.4633 82.7919 29.4633C83.3419 29.4633 83.7919 29.9133 83.7919 30.4633V39.6033C83.7919 41.1433 82.542 42.3933 81.002 42.3933Z" fill="#1DB8D9"/>
</svg>
