<svg width="67" height="60" viewBox="0 0 67 60" fill="none" xmlns="http://www.w3.org/2000/svg">
<path d="M24.9141 17.9932C24.3641 17.9932 23.9141 17.5432 23.9141 16.9932V1.94324C23.9141 1.39324 24.3641 0.943237 24.9141 0.943237H28.5441C29.0941 0.943237 29.5441 1.39324 29.5441 1.94324C29.5441 2.49324 29.0941 2.94324 28.5441 2.94324H25.9141V16.9932C25.9141 17.5432 25.4641 17.9932 24.9141 17.9932Z" fill="#001C43"/>
<path d="M42.1641 17.9932C41.6141 17.9932 41.1641 17.5432 41.1641 16.9932V14.7932C41.1641 14.2432 41.6141 13.7932 42.1641 13.7932C42.7141 13.7932 43.1641 14.2432 43.1641 14.7932V16.9932C43.1641 17.5432 42.7141 17.9932 42.1641 17.9932Z" fill="#001C43"/>
<path d="M59.5041 59.8233H7.57411C4.53411 59.8233 2.28409 58.7633 1.24409 56.8433C0.204093 54.9233 0.544094 52.4533 2.21409 49.9033L24.0841 16.4433C24.3841 15.9833 25.0041 15.8533 25.4641 16.1533C25.9241 16.4533 26.0541 17.0733 25.7541 17.5333L3.88411 50.9933C2.63411 52.9033 2.3241 54.6333 3.0041 55.8833C3.6841 57.1333 5.30409 57.8133 7.58409 57.8133H59.5141C61.7941 57.8133 63.4141 57.1233 64.0941 55.8833C64.7641 54.6333 64.4541 52.9033 63.2141 50.9933L41.3441 17.5333C41.0441 17.0733 41.1741 16.4533 41.6341 16.1533C42.0941 15.8533 42.7141 15.9833 43.0141 16.4433L64.8841 49.9033C66.5441 52.4533 66.8941 54.9133 65.8541 56.8433C64.8141 58.7633 62.5641 59.8233 59.5241 59.8233H59.5041Z" fill="#001C43"/>
<path d="M42.1641 12.9032C41.6141 12.9032 41.1641 12.4532 41.1641 11.9032V3.62325C41.1641 3.24325 40.8541 2.94324 40.4841 2.94324H31.8841C31.3341 2.94324 30.8841 2.49324 30.8841 1.94324C30.8841 1.39324 31.3341 0.943237 31.8841 0.943237H40.4841C41.9641 0.943237 43.1641 2.14325 43.1641 3.62325V11.9032C43.1641 12.4532 42.7141 12.9032 42.1641 12.9032Z" fill="#1DB8D9"/>
<path d="M53.1641 36.5532H12.8641C12.3141 36.5532 11.8641 36.1032 11.8641 35.5532C11.8641 35.0032 12.3141 34.5532 12.8641 34.5532H53.1641C53.7141 34.5532 54.1641 35.0032 54.1641 35.5532C54.1641 36.1032 53.7141 36.5532 53.1641 36.5532Z" fill="#001C43"/>
<path d="M42.1141 48.0132C39.4941 48.0132 37.3541 45.8832 37.3541 43.2532C37.3541 40.6232 39.4841 38.4932 42.1141 38.4932C44.7441 38.4932 46.8741 40.6232 46.8741 43.2532C46.8741 45.8832 44.7441 48.0132 42.1141 48.0132ZM42.1141 40.5032C40.5941 40.5032 39.3541 41.7432 39.3541 43.2632C39.3541 44.7832 40.5941 46.0232 42.1141 46.0232C43.6341 46.0232 44.8741 44.7832 44.8741 43.2632C44.8741 41.7432 43.6341 40.5032 42.1141 40.5032Z" fill="#001C43"/>
<path d="M28.1941 52.5933C25.9841 52.5933 24.1941 50.8033 24.1941 48.5933C24.1941 46.3833 25.9841 44.5933 28.1941 44.5933C30.4041 44.5933 32.1941 46.3833 32.1941 48.5933C32.1941 50.8033 30.4041 52.5933 28.1941 52.5933ZM28.1941 46.5933C27.0941 46.5933 26.1941 47.4933 26.1941 48.5933C26.1941 49.6933 27.0941 50.5933 28.1941 50.5933C29.2941 50.5933 30.1941 49.6933 30.1941 48.5933C30.1941 47.4933 29.2941 46.5933 28.1941 46.5933Z" fill="#001C43"/>
</svg>
