<svg width="55" height="59" viewBox="0 0 55 59" fill="none" xmlns="http://www.w3.org/2000/svg">
<path d="M17.6853 33.1797C17.4153 33.1797 17.1453 33.0697 16.9453 32.8497L12.8653 28.3297C12.1253 27.5197 11.9453 26.3497 12.4153 25.3497C12.8753 24.3697 13.8853 23.7397 14.9853 23.7397H21.3053V1.8197C21.3053 1.2697 21.7553 0.819702 22.3053 0.819702C22.8553 0.819702 23.3053 1.2697 23.3053 1.8197V24.7397C23.3053 25.2897 22.8553 25.7397 22.3053 25.7397H14.9853C14.6553 25.7397 14.3553 25.9197 14.2253 26.1997C14.0953 26.4697 14.1453 26.7697 14.3453 26.9897L18.4353 31.5197C18.8053 31.9297 18.7753 32.5597 18.3653 32.9297C18.1753 33.0997 17.9353 33.1897 17.6953 33.1897L17.6853 33.1797Z" fill="#001C43"/>
<path d="M38.1153 33.0197C37.8753 33.0197 37.6453 32.9397 37.4553 32.7697C37.0453 32.3997 37.0052 31.7697 37.3752 31.3597L41.2453 27.0097C41.4553 26.7797 41.5052 26.4797 41.3752 26.2097C41.2452 25.9297 40.9453 25.7498 40.6153 25.7498H33.2953C32.7453 25.7498 32.2953 25.2998 32.2953 24.7498V1.82971C32.2953 1.27971 32.7453 0.829712 33.2953 0.829712C33.8453 0.829712 34.2953 1.27971 34.2953 1.82971V23.7498H40.6153C41.7153 23.7498 42.7253 24.3797 43.1853 25.3497C43.6553 26.3397 43.4753 27.5197 42.7353 28.3397L38.8752 32.6897C38.6752 32.9097 38.4052 33.0297 38.1252 33.0297L38.1153 33.0197Z" fill="#001C43"/>
<path d="M50.4853 58.2897H4.97528C2.49528 58.2897 0.475281 56.2697 0.475281 53.7897V39.7897C0.475281 39.2397 0.925281 38.7897 1.47528 38.7897H8.47528C9.02528 38.7897 9.47528 39.2397 9.47528 39.7897V49.2897H45.9853V39.7897C45.9853 39.2397 46.4353 38.7897 46.9853 38.7897H53.9853C54.5353 38.7897 54.9853 39.2397 54.9853 39.7897V53.7897C54.9853 56.2697 52.9653 58.2897 50.4853 58.2897ZM2.47528 40.7897V53.7897C2.47528 55.1697 3.59528 56.2897 4.97528 56.2897H50.4853C51.8653 56.2897 52.9853 55.1697 52.9853 53.7897V40.7897H47.9853V50.2897C47.9853 50.8397 47.5353 51.2897 46.9853 51.2897H8.47528C7.92528 51.2897 7.47528 50.8397 7.47528 50.2897V40.7897H2.47528Z" fill="#001C43"/>
<path d="M27.7853 42.6997H27.7553C26.9853 42.6997 26.2553 42.3797 25.7053 41.8297L19.0053 35.1297C18.6153 34.7397 18.6153 34.1097 19.0053 33.7197C19.3953 33.3297 20.0253 33.3297 20.4153 33.7197L27.1153 40.4198C27.2953 40.5998 27.5253 40.6997 27.7753 40.6997C28.0353 40.7197 28.2353 40.6097 28.3953 40.4497L35.2153 33.6297C35.6053 33.2397 36.2353 33.2397 36.6253 33.6297C37.0153 34.0197 37.0153 34.6498 36.6253 35.0398L29.8053 41.8598C29.2653 42.3998 28.5453 42.6997 27.7753 42.6997H27.7853Z" fill="#1DB8D9"/>
</svg>
