<svg width="500" height="500" viewBox="0 0 500 500" fill="none" xmlns="http://www.w3.org/2000/svg">
<g clip-path="url(#clip0_2_1781)">
<g clip-path="url(#clip1_2_1781)">
<path d="M175.788 262.852C175.788 262.852 163.457 256.729 154.166 236.961C144.875 217.192 154.488 183.511 154.488 183.511C154.488 183.511 128.169 209.794 130.69 249.476C133.211 289.159 161.542 302.568 161.542 302.568C161.542 302.568 228.675 327.204 175.788 262.852Z" fill="#F7F1E4"/>
<path d="M163.832 302.532C159.032 298.666 154.601 294.364 150.594 289.68C147.475 285.817 143.07 281.667 140.699 277.305C138.368 272.964 138.067 268.438 136.534 263.756C136.534 263.756 136.884 240.275 159.185 248.196C163.584 253.019 170.272 259.74 175.75 263.033L188.203 279.131L196.063 298.084L190.559 306.567L163.832 302.532Z" fill="#BA5D17"/>
<path d="M175.788 262.852C172.433 261.185 169.339 259.038 166.602 256.479C163.837 253.938 161.31 251.149 159.054 248.147C156.804 245.121 154.785 241.93 153.014 238.601C152.068 236.909 151.262 235.143 150.603 233.32C149.958 231.499 149.428 229.64 149.015 227.753C148.225 224.016 147.747 220.219 147.585 216.403C147.398 212.612 147.452 208.814 147.747 205.03C148.001 201.257 148.435 197.5 149.018 193.755C149.6 190.01 150.262 186.379 151.232 182.579L156.887 185.919C156.086 186.786 155.159 187.858 154.334 188.9C153.509 189.942 152.668 191.042 151.859 192.169C151.05 193.295 150.313 194.41 149.548 195.512C148.783 196.614 148.107 197.834 147.385 198.988C144.624 203.688 142.252 208.605 140.293 213.692C138.368 218.763 136.884 223.991 135.858 229.317C134.933 234.635 134.515 240.028 134.608 245.425C134.645 246.77 134.632 248.127 134.704 249.467L135.126 253.492C135.419 256.165 135.855 258.82 136.431 261.446C136.551 262.107 136.712 262.76 136.914 263.401L137.44 265.387C137.757 266.691 138.157 267.974 138.638 269.227L140.056 272.97L141.778 276.576C144.191 281.338 147.227 285.759 150.806 289.722L152.158 291.193C152.623 291.669 153.11 292.12 153.588 292.591C154.531 293.536 155.552 294.384 156.564 295.251C157.064 295.698 157.61 296.067 158.135 296.482C158.661 296.896 159.185 297.289 159.722 297.654C160.259 298.019 160.802 298.419 161.356 298.748C161.647 298.881 161.906 299.108 162.212 299.28L162.953 299.705L162.689 299.585C165.753 300.748 168.877 301.75 172.046 302.587C175.181 303.442 178.379 304.051 181.609 304.409C184.754 304.74 188.027 304.79 190.498 303.826C191.632 303.453 192.601 302.697 193.238 301.688C193.856 300.536 194.129 299.23 194.026 297.927C193.961 296.38 193.706 294.848 193.267 293.363C192.819 291.795 192.266 290.259 191.611 288.766C190.267 285.709 188.739 282.736 187.036 279.864C183.598 274.016 179.717 268.418 175.788 262.852ZM175.788 262.852C178.107 265.313 180.409 267.886 182.612 270.481C184.816 273.076 186.962 275.821 189.002 278.583C191.05 281.379 192.906 284.312 194.558 287.359C195.398 288.916 196.133 290.528 196.758 292.183C197.445 293.919 197.903 295.738 198.122 297.592C198.397 299.693 198.062 301.829 197.158 303.745C196.128 305.722 194.452 307.286 192.408 308.177C190.604 308.979 188.683 309.485 186.717 309.676C184.873 309.865 183.016 309.91 181.164 309.809C177.619 309.587 174.096 309.087 170.628 308.314C167.182 307.58 163.777 306.666 160.427 305.576L160.153 305.452L159.027 304.884C158.654 304.715 158.342 304.507 157.999 304.318C157.323 303.945 156.682 303.543 156.036 303.129C155.389 302.714 154.761 302.308 154.159 301.869C153.556 301.43 152.905 301.002 152.328 300.531C151.152 299.59 149.968 298.667 148.865 297.638C148.314 297.135 147.745 296.646 147.198 296.134L145.622 294.527C141.455 290.208 137.9 285.339 135.054 280.055L133.044 276.021L131.382 271.849C130.827 270.456 130.351 269.034 129.958 267.587L129.323 265.431C129.089 264.725 128.9 264.004 128.756 263.273L127.872 258.839C127.576 257.381 127.366 255.906 127.243 254.423L126.762 249.997C126.68 248.51 126.675 247.024 126.597 245.528C126.496 239.59 126.986 233.656 128.06 227.815L129.041 223.483L129.554 221.365L130.196 219.251C130.641 217.838 131.045 216.418 131.526 215.022L133.109 210.864C135.32 205.403 138.02 200.152 141.176 195.177C141.999 193.947 142.772 192.706 143.618 191.497C144.464 190.289 145.305 189.09 146.234 187.941C147.163 186.793 148.046 185.623 149.011 184.491C149.976 183.359 150.935 182.29 152.095 181.115C152.626 180.582 153.319 180.241 154.065 180.146C154.811 180.05 155.568 180.205 156.216 180.587C156.864 180.968 157.367 181.555 157.646 182.253C157.924 182.952 157.962 183.723 157.754 184.446C156.767 187.776 155.897 191.357 155.204 194.887C154.511 198.417 153.899 201.983 153.468 205.566C152.667 212.716 152.276 219.953 153.345 226.975C153.847 230.453 154.812 233.847 156.215 237.068C157.643 240.398 159.314 243.619 161.216 246.702C163.075 249.838 165.22 252.796 167.624 255.537C170.011 258.324 172.756 260.784 175.788 262.852Z" fill="#261507"/>
</g>
<g clip-path="url(#clip2_2_1781)">
<path d="M282.84 133.38C282.84 133.38 242.69 143.11 214.57 184C186.45 224.89 151.09 278.6 169.19 344.14C177.52 374.32 206.56 388.09 236.89 390.34C265.64 392.47 292.1 381.7 320.61 359.08C347.26 337.95 350.08 284.02 335.61 244.71C314.8 188.11 311.65 119.07 282.84 133.38Z" fill="#F7F1E4"/>
<path d="M283 133.75C276.078 135.729 269.377 138.409 263 141.75C256.593 145.055 250.481 148.902 244.73 153.25C243.27 154.32 241.88 155.45 240.47 156.58C239.06 157.71 237.7 158.88 236.38 160.11C233.68 162.49 231.14 165.04 228.64 167.64C223.692 172.892 219.184 178.541 215.16 184.53C207.16 196.53 199.25 208.65 192.26 221.23C185.141 233.7 179.209 246.811 174.54 260.39C172.281 267.164 170.454 274.075 169.07 281.08C167.699 288.065 166.873 295.147 166.6 302.26C166.065 316.475 167.838 330.682 171.85 344.33C173.812 350.962 177.06 357.143 181.41 362.52C185.806 367.864 191.123 372.379 197.11 375.85C203.151 379.358 209.631 382.048 216.38 383.85C223.169 385.679 230.123 386.828 237.14 387.28C244.119 387.753 251.129 387.418 258.03 386.28C264.932 385.124 271.69 383.234 278.19 380.64C291.25 375.47 303.32 367.84 314.56 359.15C315.96 358.08 317.39 356.93 318.71 355.86C319.983 354.799 321.188 353.66 322.32 352.45C324.608 349.999 326.635 347.319 328.37 344.45C331.872 338.557 334.531 332.201 336.27 325.57C338.054 318.836 339.199 311.949 339.69 305C340.225 298.011 340.252 290.993 339.77 284C339.283 276.981 338.327 270.002 336.91 263.11C336.2 259.67 335.37 256.25 334.39 252.87C333.91 251.18 333.39 249.51 332.85 247.87L331.14 242.75C328.84 235.797 326.807 228.797 325.04 221.75C323.24 214.75 321.59 207.63 320.04 200.57C316.82 186.46 314.04 172.28 309.86 158.51C308.78 155.09 307.62 151.69 306.24 148.39C304.918 145.082 303.242 141.927 301.24 138.98C299.19 136.14 296.56 133.54 293.24 132.53C291.549 131.987 289.757 131.84 288 132.1C286.264 132.412 284.581 132.967 283 133.75ZM282.71 133C284.34 132.152 286.085 131.545 287.89 131.2C289.745 130.868 291.652 130.953 293.47 131.45C295.281 131.982 296.961 132.888 298.4 134.11C299.826 135.286 301.105 136.629 302.21 138.11C304.384 141.067 306.235 144.248 307.73 147.6C309.28 150.91 310.59 154.31 311.82 157.73C314.31 164.56 316.41 171.52 318.46 178.46L324.46 199.3C328.46 213.17 332.74 226.92 337.74 240.3C338.99 243.57 340.43 247.11 341.51 250.64C342.59 254.17 343.63 257.76 344.51 261.37C346.206 268.606 347.346 275.96 347.92 283.37C349.08 298.15 348.16 313.23 344.04 327.75C342.036 335.104 338.96 342.123 334.91 348.58C332.819 351.845 330.404 354.891 327.7 357.67C326.328 359.065 324.872 360.374 323.34 361.59C321.84 362.77 320.43 363.86 318.94 364.97C307.19 373.73 294.52 381.6 280.58 386.89C273.613 389.571 266.378 391.495 259 392.63C251.609 393.752 244.112 394.017 236.66 393.42C229.251 392.84 221.918 391.524 214.77 389.49C207.559 387.456 200.649 384.477 194.22 380.63C187.717 376.744 181.961 371.729 177.22 365.82C172.548 359.856 169.099 353.029 167.07 345.73C163.084 331.535 161.432 316.785 162.18 302.06C162.996 287.404 165.968 272.949 171 259.16C176.011 245.481 182.316 232.311 189.83 219.83C197.24 207.34 205.51 195.44 213.83 183.64C218.055 177.72 222.725 172.13 227.8 166.92C232.884 161.743 238.367 156.975 244.2 152.66C250.023 148.344 256.183 144.502 262.62 141.17C269.021 137.769 275.752 135.032 282.71 133Z" fill="#261507"/>
<path d="M178.54 318.59C187.54 318.06 196.14 307.5 199.66 297.67C203.18 287.84 199.03 271.6 204.39 264.87C209.75 258.14 246.16 232 247.21 212C248.26 192 234 162 233.87 161.68C225.956 169.052 218.838 177.233 212.63 186.09C203.963 198.433 196.104 211.323 189.1 224.68C185.64 231.36 182.46 238.18 179.62 245.13C176.809 252.085 174.372 259.185 172.32 266.4C170.285 273.607 168.688 280.93 167.54 288.33C166.426 295.725 165.775 303.183 165.59 310.66C165.59 310.66 169.5 319.12 178.54 318.59Z" fill="#BA5D17"/>
<path d="M283 133.75C276.078 135.729 269.377 138.409 263 141.75C256.593 145.055 250.481 148.902 244.73 153.25C243.27 154.32 241.88 155.45 240.47 156.58C239.06 157.71 237.7 158.88 236.38 160.11C233.68 162.49 231.14 165.04 228.64 167.64C223.692 172.892 219.184 178.541 215.16 184.53C207.16 196.53 199.25 208.65 192.26 221.23C185.141 233.7 179.209 246.811 174.54 260.39C172.281 267.164 170.454 274.075 169.07 281.08C167.699 288.065 166.873 295.147 166.6 302.26C166.065 316.475 167.838 330.682 171.85 344.33C173.812 350.962 177.06 357.143 181.41 362.52C185.806 367.864 191.123 372.379 197.11 375.85C203.151 379.358 209.631 382.048 216.38 383.85C223.169 385.679 230.123 386.828 237.14 387.28C244.119 387.753 251.129 387.418 258.03 386.28C264.932 385.124 271.69 383.234 278.19 380.64C291.25 375.47 303.32 367.84 314.56 359.15C315.96 358.08 317.39 356.93 318.71 355.86C319.983 354.799 321.188 353.66 322.32 352.45C324.608 349.999 326.635 347.319 328.37 344.45C331.872 338.557 334.531 332.201 336.27 325.57C338.054 318.836 339.199 311.949 339.69 305C340.225 298.011 340.252 290.993 339.77 284C339.283 276.981 338.327 270.002 336.91 263.11C336.2 259.67 335.37 256.25 334.39 252.87C333.91 251.18 333.39 249.51 332.85 247.87L331.14 242.75C328.84 235.797 326.807 228.797 325.04 221.75C323.24 214.75 321.59 207.63 320.04 200.57C316.82 186.46 314.04 172.28 309.86 158.51C308.78 155.09 307.62 151.69 306.24 148.39C304.918 145.082 303.242 141.927 301.24 138.98C299.19 136.14 296.56 133.54 293.24 132.53C291.549 131.987 289.757 131.84 288 132.1C286.264 132.412 284.581 132.967 283 133.75ZM282.71 133C284.34 132.152 286.085 131.545 287.89 131.2C289.745 130.868 291.652 130.953 293.47 131.45C295.281 131.982 296.961 132.888 298.4 134.11C299.826 135.286 301.105 136.629 302.21 138.11C304.384 141.067 306.235 144.248 307.73 147.6C309.28 150.91 310.59 154.31 311.82 157.73C314.31 164.56 316.41 171.52 318.46 178.46L324.46 199.3C328.46 213.17 332.74 226.92 337.74 240.3C338.99 243.57 340.43 247.11 341.51 250.64C342.59 254.17 343.63 257.76 344.51 261.37C346.206 268.606 347.346 275.96 347.92 283.37C349.08 298.15 348.16 313.23 344.04 327.75C342.036 335.104 338.96 342.123 334.91 348.58C332.819 351.845 330.404 354.891 327.7 357.67C326.328 359.065 324.872 360.374 323.34 361.59C321.84 362.77 320.43 363.86 318.94 364.97C307.19 373.73 294.52 381.6 280.58 386.89C273.613 389.571 266.378 391.495 259 392.63C251.609 393.752 244.112 394.017 236.66 393.42C229.251 392.84 221.918 391.524 214.77 389.49C207.559 387.456 200.649 384.477 194.22 380.63C187.717 376.744 181.961 371.729 177.22 365.82C172.548 359.856 169.099 353.029 167.07 345.73C163.084 331.535 161.432 316.785 162.18 302.06C162.996 287.404 165.968 272.949 171 259.16C176.011 245.481 182.316 232.311 189.83 219.83C197.24 207.34 205.51 195.44 213.83 183.64C218.055 177.72 222.725 172.13 227.8 166.92C232.884 161.743 238.367 156.975 244.2 152.66C250.023 148.344 256.183 144.502 262.62 141.17C269.021 137.769 275.752 135.032 282.71 133Z" fill="#261507"/>
</g>
<g clip-path="url(#clip3_2_1781)">
<path d="M338.53 340.35C338.53 340.35 341.53 350.62 359.86 355.12C378.19 359.62 392.25 358.35 394.05 372.76C396.14 389.51 373.35 389.08 364.6 388.3C354.68 387.42 341.06 380.02 338.8 375.07" fill="#F7F1E4"/>
<path d="M338.91 340.23C340.122 342.716 341.899 344.884 344.1 346.56C346.265 348.279 348.658 349.689 351.21 350.75C353.76 351.822 356.405 352.652 359.11 353.23C361.83 353.81 364.64 354.23 367.43 354.69L375.91 356C378.865 356.423 381.784 357.071 384.64 357.94C387.868 358.875 390.793 360.645 393.12 363.07C394.308 364.388 395.262 365.9 395.94 367.54C396.573 369.106 397.019 370.74 397.27 372.41C397.548 374.136 397.585 375.893 397.38 377.63C397.146 379.509 396.544 381.323 395.61 382.97C394.675 384.589 393.451 386.022 392 387.2C390.631 388.313 389.117 389.235 387.5 389.94C385.995 390.623 384.428 391.159 382.82 391.54C381.286 391.917 379.73 392.194 378.16 392.37C375.119 392.683 372.057 392.716 369.01 392.47C367.51 392.36 366.01 392.19 364.53 391.97C362.952 391.762 361.394 391.428 359.87 390.97C356.947 390.089 354.124 388.903 351.45 387.43C348.81 386.02 346.321 384.344 344.02 382.43C342.862 381.462 341.788 380.399 340.81 379.25C339.757 378.099 338.966 376.735 338.49 375.25C338.475 375.199 338.47 375.145 338.476 375.092C338.482 375.039 338.498 374.988 338.525 374.941C338.551 374.894 338.586 374.853 338.628 374.821C338.67 374.788 338.718 374.764 338.77 374.75C338.848 374.731 338.929 374.734 339.005 374.759C339.081 374.784 339.148 374.829 339.2 374.89C340.076 375.925 341.121 376.804 342.29 377.49C343.452 378.229 344.657 378.897 345.9 379.49C348.389 380.655 350.951 381.657 353.57 382.49C356.115 383.31 358.719 383.932 361.36 384.35C362.615 384.545 363.881 384.659 365.15 384.69C366.5 384.69 367.86 384.69 369.21 384.69C371.91 384.61 374.58 384.44 377.16 384.12C379.627 383.851 382.057 383.318 384.41 382.53C386.401 381.926 388.168 380.747 389.49 379.14C390.057 378.348 390.458 377.45 390.67 376.5C390.894 375.412 390.955 374.296 390.85 373.19C390.751 370.926 389.986 368.741 388.65 366.91C387.092 365.113 385.088 363.758 382.84 362.98C380.288 361.997 377.668 361.202 375 360.6L366.66 358.67C363.85 357.99 361.08 357.26 358.27 356.39C355.45 355.526 352.721 354.391 350.12 353C347.516 351.618 345.12 349.878 343 347.83C340.829 345.795 339.179 343.267 338.19 340.46C338.159 340.359 338.168 340.25 338.217 340.156C338.266 340.063 338.349 339.992 338.45 339.96C338.543 339.93 338.644 339.936 338.733 339.976C338.822 340.017 338.892 340.09 338.93 340.18L338.91 340.23Z" fill="#261507"/>
<path d="M194.24 380.65C187.733 376.766 181.975 371.747 177.24 365.83C172.559 359.873 169.103 353.049 167.07 345.75C163.085 331.554 161.43 316.806 162.17 302.08C162.521 295.611 163.306 289.173 164.52 282.81C159.87 280 143.46 271.35 119.15 273.21C90.15 275.42 93.41 295.15 94.49 298.21C98.86 310.46 111.11 323.65 130.49 341.21C149.87 358.77 160.49 361.59 155.75 368.7C151.01 375.81 141.05 373 122.31 378.75C104 384.39 98.09 392 97.77 398C97.45 404 98.21 414.59 118.59 411.61C129.01 410.08 137.35 397.61 151.59 393.88C173.91 388.09 187.59 394.2 203.21 392.17C206.501 391.625 209.668 390.494 212.56 388.83C206.145 386.854 199.993 384.107 194.24 380.65Z" fill="#F7F1E4"/>
<path d="M165.65 284C162.251 281.895 158.637 280.159 154.87 278.82C151.109 277.452 147.247 276.379 143.32 275.61C135.48 274.084 127.464 273.677 119.51 274.4C115.583 274.701 111.713 275.518 108 276.83C104.423 278.048 101.253 280.232 98.84 283.14C96.6208 286.073 95.4865 289.685 95.63 293.36C95.6486 294.272 95.7388 295.182 95.9 296.08C95.9753 296.502 96.0755 296.92 96.2 297.33L96.29 297.58L96.43 297.91L96.7 298.58C97.4348 300.363 98.297 302.091 99.28 303.75C103.19 310.48 108.54 316.46 114.08 322.17C119.62 327.88 125.6 333.28 131.61 338.61C137.62 343.94 143.85 348.75 150.36 353.61C151.99 354.85 153.63 356.08 155.27 357.53C156.153 358.288 156.976 359.114 157.73 360C158.69 361.116 159.375 362.442 159.73 363.87C159.933 364.725 159.977 365.609 159.86 366.48C159.745 367.274 159.52 368.048 159.19 368.78C158.636 370.002 157.897 371.132 157 372.13C155.224 373.989 153.005 375.366 150.55 376.13C148.469 376.782 146.343 377.284 144.19 377.63L138.19 378.63C134.329 379.303 130.507 380.181 126.74 381.26C123.029 382.331 119.388 383.634 115.84 385.16C112.468 386.592 109.309 388.48 106.45 390.77C105.2 391.802 104.109 393.011 103.21 394.36C102.462 395.465 102.004 396.741 101.88 398.07C101.749 399.647 101.857 401.235 102.2 402.78C102.475 403.931 103.084 404.974 103.95 405.78C104.986 406.631 106.215 407.215 107.53 407.48C109.175 407.82 110.851 407.984 112.53 407.97C114.367 407.945 116.2 407.808 118.02 407.56C119.595 407.307 121.123 406.814 122.55 406.1C125.924 404.321 129.154 402.282 132.21 400C135.625 397.482 139.259 395.276 143.07 393.41C145.07 392.469 147.143 391.693 149.27 391.09C149.8 390.96 150.35 390.81 150.88 390.69L152.42 390.37C153.42 390.17 154.42 389.92 155.51 389.76C159.635 389.034 163.812 388.649 168 388.61C172.137 388.579 176.271 388.806 180.38 389.29C184.44 389.75 188.38 390.29 192.38 390.68C196.286 391.108 200.225 391.151 204.14 390.81C206.064 390.519 207.949 390.012 209.76 389.3C211.623 388.605 213.423 387.752 215.14 386.75C215.227 386.707 215.327 386.697 215.421 386.723C215.514 386.748 215.596 386.806 215.65 386.887C215.703 386.968 215.726 387.065 215.713 387.162C215.7 387.258 215.653 387.346 215.58 387.41C212.328 390.024 208.589 391.965 204.58 393.12C200.502 393.946 196.35 394.345 192.19 394.31C183.96 394.25 176 393.52 168.19 394.2C164.339 394.53 160.516 395.132 156.75 396C155.75 396.2 154.87 396.48 153.93 396.72L152.52 397.09L151.21 397.49C149.487 398.089 147.815 398.825 146.21 399.69C142.856 401.538 139.652 403.648 136.63 406C133.331 408.687 129.819 411.101 126.13 413.22C123.968 414.372 121.635 415.169 119.22 415.58C117.049 415.93 114.858 416.137 112.66 416.2C110.309 416.294 107.956 416.083 105.66 415.57C104.402 415.28 103.175 414.865 102 414.33C100.705 413.733 99.5053 412.948 98.44 412C97.3443 411.032 96.4152 409.89 95.69 408.62C95.0043 407.407 94.4894 406.104 94.16 404.75C93.8667 403.52 93.6926 402.264 93.64 401C93.64 400.39 93.64 399.8 93.64 399.22V398.36C93.64 398.06 93.64 397.84 93.69 397.45C93.9371 394.738 94.8847 392.136 96.44 389.9C97.8104 387.901 99.4721 386.118 101.37 384.61C104.861 381.899 108.724 379.703 112.84 378.09C116.741 376.508 120.751 375.212 124.84 374.21C128.84 373.21 133.01 372.43 137.07 371.84C141.13 371.25 145.22 370.84 148.53 369.92C149.975 369.556 151.303 368.829 152.39 367.81C152.857 367.33 153.251 366.784 153.56 366.19C153.747 365.892 153.822 365.538 153.77 365.19C153.625 364.673 153.362 364.197 153 363.8C152.468 363.152 151.883 362.55 151.25 362C149.91 360.74 148.35 359.5 146.79 358.25C143.65 355.77 140.43 353.25 137.29 350.64C134.15 348.03 131.07 345.32 128.1 342.54C122.16 337 116.29 331.34 110.73 325.36C105.17 319.38 99.82 313.08 95.77 305.71C94.7599 303.871 93.881 301.963 93.14 300L92.86 299.26L92.72 298.89L92.58 298.42C92.4258 297.861 92.3056 297.293 92.22 296.72C92.0606 295.611 91.9871 294.491 92 293.37C92.0242 291.158 92.3989 288.964 93.11 286.87C93.8393 284.771 94.9402 282.82 96.36 281.11C99.2207 277.83 102.935 275.406 107.09 274.11C111.06 272.872 115.175 272.163 119.33 272C127.497 271.502 135.694 272.176 143.67 274C147.644 274.922 151.54 276.156 155.32 277.69C159.112 279.198 162.732 281.105 166.12 283.38C166.193 283.444 166.24 283.532 166.253 283.628C166.266 283.725 166.243 283.822 166.19 283.903C166.136 283.984 166.054 284.042 165.961 284.067C165.867 284.093 165.767 284.083 165.68 284.04L165.65 284Z" fill="#261507"/>
<path d="M230.23 308.89C230.23 308.89 219 351 222.61 376.12C226.22 401.24 230.33 417.32 243.16 423.12C255.99 428.92 272.85 429.69 277.16 424.79C282.75 418.37 280.58 411.79 274.16 403.56C267.74 395.33 259.43 384.65 263.71 358C266.676 339.663 271.871 321.757 279.18 304.68" fill="#F7F1E4"/>
<path d="M230.61 309C229.27 314.76 228.14 320.58 227.15 326.41C226.16 332.24 225.29 338.09 224.65 343.96C223.988 349.804 223.624 355.679 223.56 361.56C223.56 364.49 223.63 367.41 223.87 370.3C224.125 373.195 224.526 376.075 225.07 378.93C226.07 384.75 227.15 390.54 228.6 396.17C230.05 401.8 231.91 407.31 234.8 411.97C236.183 414.255 237.949 416.284 240.02 417.97C241.038 418.769 242.129 419.469 243.28 420.06C244.516 420.644 245.781 421.164 247.07 421.62C252.356 423.522 257.905 424.595 263.52 424.8C266.171 424.923 268.826 424.677 271.41 424.07C272.408 423.841 273.353 423.42 274.19 422.83L274.37 422.67C274.402 422.62 274.442 422.576 274.49 422.54C274.65 422.33 274.86 422.08 275.02 421.85C275.351 421.407 275.643 420.935 275.89 420.44C276.35 419.531 276.615 418.535 276.668 417.518C276.721 416.5 276.562 415.483 276.2 414.53C275.309 412.151 274.043 409.929 272.45 407.95C270.86 405.85 268.75 403.44 266.94 400.85C265.066 398.2 263.474 395.361 262.19 392.38C260.932 389.375 260 386.244 259.41 383.04C258.863 379.899 258.573 376.718 258.54 373.53C258.587 367.342 259.277 361.175 260.6 355.13C261.86 349.23 263.27 343.38 265.06 337.64C268.478 326.145 273.086 315.038 278.81 304.5L279.54 304.83C275.929 316.064 272.925 327.484 270.54 339.04C269.41 344.79 268.34 350.54 267.54 356.34C266.644 361.959 266.309 367.654 266.54 373.34C266.648 376.083 266.983 378.812 267.54 381.5C268.044 384.132 268.825 386.703 269.87 389.17C270.901 391.655 272.184 394.028 273.7 396.25C274.45 397.39 275.27 398.53 276.13 399.69L277.46 401.45C277.93 402.08 278.4 402.73 278.85 403.39C280.846 406.142 282.37 409.208 283.36 412.46C283.887 414.325 284.067 416.27 283.89 418.2C283.693 420.17 283.086 422.078 282.11 423.8C281.66 424.61 281.145 425.383 280.57 426.11C280.29 426.48 280.01 426.78 279.69 427.11C279.48 427.33 279.26 427.55 279.03 427.76C278.8 427.97 278.58 428.13 278.35 428.31C276.746 429.42 274.932 430.192 273.02 430.58C269.8 431.232 266.505 431.43 263.23 431.17C256.974 430.732 250.824 429.325 245 427C243.509 426.417 242.054 425.75 240.64 425C239.169 424.198 237.786 423.246 236.51 422.16C234.029 420.02 231.937 417.465 230.33 414.61C227.14 409.05 225.46 403.09 224.1 397.21C222.74 391.33 221.89 385.39 221.1 379.49C220.66 376.507 220.373 373.503 220.24 370.49C220.12 367.49 220.16 364.49 220.31 361.49C220.61 355.49 221.31 349.55 222.19 343.65C224.028 331.891 226.586 320.256 229.85 308.81L230.61 309Z" fill="#261507"/>
<path d="M337.06 331.92C338 348.5 335.5 377.5 344.83 389.5C356.43 402.72 361.15 416.8 351.95 421.37C342.75 425.94 323.68 424.85 309.43 410.88C295.18 396.91 298.12 377.45 296.12 359.05C294.12 340.65 286.05 314.05 286.05 314.05C286.05 314.05 286.3 311.45 294 293.66C312.23 251.51 345.34 231.22 337.06 331.92Z" fill="#F7F1E4"/>
<path d="M340.91 285.08C339.99 297.12 339.353 309.183 339 321.27C338.68 333.34 338.59 345.42 339.26 357.44C339.546 363.429 340.187 369.396 341.18 375.31C341.667 378.21 342.4 381.064 343.37 383.84C343.833 385.155 344.451 386.411 345.21 387.58C345.385 387.856 345.582 388.117 345.8 388.36C345.98 388.6 346.3 388.91 346.54 389.19C347.07 389.75 347.54 390.34 348.08 390.92C350.115 393.269 351.983 395.759 353.67 398.37C355.417 401.038 356.831 403.909 357.88 406.92C358.428 408.507 358.794 410.151 358.97 411.82C359.175 413.629 359.019 415.461 358.51 417.21C357.943 419.099 356.846 420.785 355.35 422.07C354.628 422.698 353.832 423.235 352.98 423.67C352.214 424.05 351.426 424.384 350.62 424.67C344.25 426.93 337.62 426.89 331.27 425.74C321.684 423.874 312.88 419.17 306 412.24C303.682 409.839 301.682 407.151 300.05 404.24C296.976 398.495 294.999 392.228 294.22 385.76C293.32 379.5 293.08 373.36 292.69 367.41C292.47 364.41 292.28 361.5 291.89 358.63C291.5 355.76 291.09 352.83 290.66 349.9L290 345.54L289.32 341.12L288 332.21C287.1 326.21 286.25 320.21 285.68 314.13C285.669 314.023 285.7 313.915 285.768 313.831C285.835 313.747 285.933 313.692 286.04 313.68C286.122 313.673 286.205 313.691 286.277 313.73C286.35 313.769 286.41 313.828 286.45 313.9C289.256 319.356 291.656 325.011 293.63 330.82C294.63 333.7 295.53 336.63 296.41 339.57C297.29 342.51 298.03 345.49 298.65 348.57C299.905 354.639 300.627 360.805 300.81 367C301.08 373.12 301.14 379.08 301.81 384.83C302.272 390.418 303.782 395.87 306.26 400.9C307.539 403.314 309.126 405.553 310.98 407.56C312.878 409.621 314.971 411.493 317.23 413.15C321.799 416.478 326.998 418.839 332.51 420.09C337.97 421.31 343.86 421.47 348.98 419.83C349.603 419.625 350.214 419.384 350.81 419.11C351.319 418.885 351.799 418.6 352.24 418.26C353.087 417.608 353.729 416.726 354.09 415.72C354.85 413.61 354.61 410.83 353.86 408.17C352.048 402.642 349.272 397.479 345.66 392.92C345.21 392.33 344.76 391.74 344.29 391.17L343.57 390.27C343.295 389.936 343.041 389.586 342.81 389.22C341.944 387.838 341.246 386.357 340.73 384.81C339.753 381.858 339.034 378.826 338.58 375.75C337.694 369.716 337.16 363.636 336.98 357.54C336.55 345.4 336.86 333.29 337.44 321.19C338.02 309.09 338.92 297 340.12 285C340.125 284.947 340.14 284.896 340.165 284.849C340.19 284.803 340.224 284.762 340.265 284.728C340.306 284.695 340.353 284.67 340.404 284.654C340.454 284.639 340.507 284.634 340.56 284.64C340.663 284.655 340.757 284.709 340.822 284.79C340.887 284.872 340.919 284.976 340.91 285.08Z" fill="#261507"/>
</g>
<g clip-path="url(#clip4_2_1781)">
<path d="M421.29 68.49C420.7 67.55 420.06 66.63 419.41 65.72C414.191 58.3979 407.091 52.6212 398.86 49C394.722 47.3118 390.371 46.2014 385.93 45.7C383.689 45.51 381.438 45.4599 379.19 45.55C378.06 45.61 376.94 45.63 375.81 45.72L372.39 46.15L370.69 46.36L369 46.68L365.6 47.3L362.24 48.09C361.12 48.35 360 48.62 358.9 48.97L355.58 49.97C354.48 50.32 353.4 50.71 352.3 51.08C350.1 51.78 347.98 52.71 345.83 53.53C341.564 55.3154 337.392 57.318 333.33 59.53C329.291 61.7693 325.4 64.2644 321.68 67C319.842 68.3711 318.08 69.8398 316.4 71.4C314.793 73.0031 313.337 74.7505 312.05 76.62C309.33 80.38 306.72 84.27 304.14 88.18C299 96 294 103.91 288.94 111.84C283.88 119.77 278.94 127.71 274 135.69L273.39 135.32C273.39 135.32 286.39 185.88 323 187.43L322.59 186.85C324.52 185.421 326.645 184.276 328.9 183.45C331.126 182.604 333.4 181.89 335.71 181.31C340.327 180.176 345 179.285 349.71 178.64C354.39 177.99 359.09 177.5 363.79 177.07C363.79 177.07 397.02 177.31 416.21 147.72C420.49 141.12 431.1 122.03 431.35 103.33C431.54 86.11 421.57 68.94 421.29 68.49Z" fill="#F7F1E4"/>
<path d="M287.58 114.9L290 111.11C294.92 103.31 299.88 95.5301 305 87.8301C307.47 84.0001 310 80.1601 312.72 76.4601C313.981 74.6182 315.414 72.9005 317 71.3301C318.645 69.788 320.378 68.3423 322.19 67.0001C325.849 64.3011 329.676 61.8394 333.65 59.6301C337.641 57.4413 341.743 55.4619 345.94 53.7001C348.07 52.9001 350.15 52.0001 352.32 51.3001C353.39 50.9301 354.46 50.5501 355.54 50.2001L358.81 49.2001C359.89 48.8701 360.99 48.6001 362.09 48.3501L365.4 47.5701L368.73 47.0001L370.4 46.7001L372.08 46.4901L375.44 46.0701C376.55 45.9801 377.66 45.9601 378.77 45.9001C380.978 45.8149 383.188 45.865 385.39 46.0501C389.761 46.5456 394.044 47.6357 398.12 49.2901C406.2 52.7301 415.12 58.6201 420.33 65.7401C420.98 66.6301 421.6 67.5301 422.18 68.4601C422.754 69.352 423.275 70.2769 423.74 71.2301C424.639 73.2262 425.42 75.273 426.08 77.3601C426.73 79.3601 427.34 81.3601 427.96 83.3601C428.68 85.7501 426.54 83.4401 425.41 83.2201C423.173 82.7993 420.959 82.2585 418.78 81.6001C405.41 79.0001 392.52 68.0001 389.3 64.5401C388.628 63.8899 388.038 63.1614 387.54 62.3701C386.809 61.2879 386.011 60.2525 385.15 59.2701C384.218 58.2372 383.182 57.3023 382.06 56.4801C380.889 55.5905 379.604 54.8608 378.24 54.3101C377.37 53.9766 376.451 53.7875 375.52 53.7501C374.343 53.708 373.176 53.9918 372.15 54.5701C371.162 55.1573 370.348 55.9958 369.79 57.0001C369.331 57.7919 368.994 58.6482 368.79 59.5401C368.44 61.1601 369.15 62.6701 369.52 64.0201C369.922 65.4067 370.468 66.7474 371.15 68.0201C372.43 71.0001 383 80.0001 384.52 82.0001C392.52 93.0001 391.07 104.78 388.52 108.22C386.52 111 379.45 116.64 377.99 118.22C374.802 121.422 371.35 124.349 367.67 126.97L356.33 135.46C354.43 136.907 352.54 138.387 350.66 139.9L347.88 142.17L345.26 144.17C341.669 146.777 337.691 148.801 333.47 150.17C329.235 151.534 324.809 152.209 320.36 152.17C319.25 152.17 318.15 152.03 317.03 151.98L315.39 151.74C314.841 151.676 314.296 151.576 313.76 151.44L312.14 151.08L310.56 150.59C310.031 150.458 309.51 150.295 309 150.1C308.484 149.918 307.98 149.704 307.49 149.46L306 148.74C305.577 148.493 305.172 148.216 304.79 147.91C303.949 147.255 303.178 146.514 302.49 145.7C301.035 143.963 299.724 142.11 298.57 140.16C296.205 136.126 294.124 131.933 292.34 127.61C291.43 125.44 290.57 123.24 289.74 121.03L288.51 117.71L288 116L287.72 115.16L287.47 114.42L287.58 114.9Z" fill="#BA5D17"/>
<path d="M322.35 186.54C324.311 185.05 326.481 183.857 328.79 183C331.08 182.119 333.417 181.365 335.79 180.74C338.26 180.27 340.61 180.03 343.01 179.66C345.41 179.29 347.77 178.95 350.14 178.55C359.624 177.04 368.957 174.698 378.03 171.55C380.28 170.73 382.5 169.85 384.66 168.85C386.831 167.884 388.951 166.806 391.01 165.62C394.957 163.15 398.639 160.282 402 157.06C403.68 155.53 405.37 154.06 407 152.53C408.654 151.054 410.195 149.457 411.61 147.75C411.95 147.32 412.34 146.92 412.67 146.48L413.19 145.84L413.66 145.12C414.28 144.12 414.89 143.12 415.47 142.12C416.65 140.12 417.763 138.06 418.81 135.94C422.98 127.57 426.25 118.66 427.54 109.58C428.216 105.087 428.247 100.521 427.63 96.02C426.98 91.4445 425.875 86.9455 424.33 82.59C423.57 80.39 422.71 78.21 421.77 76.07C421.3 75.01 420.77 73.95 420.3 72.9L419.51 71.35L419.11 70.59L418.74 69.94C416.309 66.0772 413.369 62.559 410 59.48C406.646 56.3933 402.843 53.8341 398.72 51.89C394.551 50.0196 390.125 48.7859 385.59 48.23H385.8C384.1 48.15 382.53 47.98 381.09 47.95C380.73 47.95 380.38 47.95 380.09 47.95L378.89 48.01L376.55 48.09H376.05L375.46 48.16L374.29 48.29L372 48.61C371.24 48.68 370.49 48.81 369.73 48.95L367.42 49.34C365.87 49.57 364.36 49.98 362.82 50.34C361.28 50.7 359.92 51.04 358.34 51.49C357.58 51.71 356.8 51.91 356.05 52.14L353.81 52.87C352.28 53.35 350.92 53.82 349.43 54.4L347.18 55.26C346.45 55.52 345.8 55.82 345.05 56.12C343.61 56.74 342.17 57.37 340.75 58.03C337.9 59.37 335.09 60.75 332.38 62.3C329.67 63.85 326.98 65.49 324.38 67.3C323.1 68.2 321.82 69.11 320.62 70.06C320.02 70.54 319.42 71.06 318.83 71.54C318.24 72.02 317.62 72.54 317.13 73.06C315.01 75.3153 313.074 77.7363 311.34 80.3C309.49 82.87 307.69 85.48 305.9 88.11C302.307 93.3233 298.757 98.5867 295.25 103.9L274.36 135.9L274.13 136.25L273.79 136L273.19 135.62C273.144 135.593 273.105 135.558 273.073 135.515C273.042 135.473 273.019 135.424 273.007 135.373C272.995 135.321 272.993 135.268 273.002 135.216C273.012 135.164 273.031 135.114 273.06 135.07C273.125 134.992 273.216 134.942 273.316 134.929C273.416 134.916 273.518 134.941 273.6 135L274.22 135.35L273.65 135.49C280.24 124.56 286.72 113.58 293.43 102.74C296.763 97.3067 300.147 91.9 303.58 86.52C305.3 83.8533 307.057 81.1867 308.85 78.52C309.76 77.19 310.66 75.89 311.61 74.57C312.576 73.2088 313.639 71.9188 314.79 70.71C315.41 70 316 69.52 316.61 69C317.22 68.48 317.83 67.91 318.46 67.39C319.73 66.33 321.02 65.39 322.32 64.39C324.94 62.47 327.66 60.7 330.43 59.03C333.2 57.36 336.07 55.83 338.97 54.4C340.42 53.68 341.88 53 343.35 52.33C344.08 52.02 344.86 51.64 345.63 51.33L347.83 50.44C348.57 50.1333 349.33 49.8333 350.11 49.54C350.89 49.24 351.68 48.98 352.43 48.71L354.72 47.91C355.48 47.66 356.24 47.45 357.01 47.21C358.48 46.76 360.21 46.21 361.75 45.88C363.29 45.55 364.88 45.05 366.48 44.78L368.87 44.32C369.68 44.16 370.49 44 371.31 43.9L373.73 43.57L374.93 43.41L375.53 43.33L376.22 43.27L378.65 43.13L379.84 43C380.29 43 380.74 43 381.18 43C382.92 43 384.53 43.15 386.01 43.18H386.23C391.32 43.6872 396.302 44.9756 401 47C405.666 49.1014 409.985 51.9 413.81 55.3C417.629 58.6845 420.972 62.5697 423.75 66.85C423.99 67.24 424.12 67.48 424.28 67.77L424.75 68.61L425.63 70.27C426.2 71.39 426.74 72.51 427.26 73.64C428.26 75.91 429.26 78.21 430.12 80.56C431.881 85.2832 433.164 90.1709 433.95 95.15C434.34 97.6884 434.544 100.252 434.56 102.82C434.563 105.378 434.399 107.933 434.07 110.47C432.74 120.56 429.33 130.06 425.07 139C423.98 141.24 422.83 143.44 421.59 145.61C420.98 146.69 420.34 147.77 419.67 148.84C419 149.91 418.38 151.12 417.67 152.18C416.177 154.343 414.504 156.377 412.67 158.26C410.842 160.097 408.809 161.718 406.61 163.09C402.25 165.84 397.44 167.56 392.84 169.36C390.53 170.24 388.24 171.14 385.91 171.92C383.58 172.7 381.25 173.44 378.91 174.12C369.569 176.826 360.039 178.832 350.4 180.12C348 180.45 345.6 180.74 343.19 181.01C340.78 181.28 338.34 181.47 336.05 181.83C333.716 182.337 331.421 183.005 329.18 183.83C326.94 184.626 324.827 185.744 322.91 187.15C322.868 187.182 322.82 187.204 322.769 187.217C322.718 187.231 322.665 187.233 322.613 187.226C322.561 187.219 322.511 187.201 322.466 187.174C322.421 187.147 322.382 187.112 322.35 187.07C322.281 186.999 322.242 186.904 322.242 186.805C322.242 186.706 322.281 186.611 322.35 186.54Z" fill="#261507"/>
</g>
<g clip-path="url(#clip5_2_1781)">
<path d="M317.911 53.0903C315.535 54.4201 313.399 56.4941 310.774 57.5261C308.106 58.5856 305.263 59.1409 302.39 59.1635C296.781 59.0841 291.261 58.8757 285.792 59.3223C283.107 59.4818 280.449 59.9412 277.867 60.6917C276.687 61.0341 275.581 61.5891 274.603 62.3291C274.187 62.6364 273.846 63.0333 273.605 63.4901C273.487 63.6983 273.4 63.9222 273.346 64.155L273.126 65.0779C272.652 67.6535 272.548 70.2829 272.817 72.8876C273.08 75.5253 273.629 78.127 274.453 80.6478C275.613 84.4222 277.386 87.9823 279.703 91.1865L280.901 92.7345L282.229 94.3123C285.772 98.51 289.535 102.479 293.148 106.945C294.077 108.08 294.947 109.263 295.753 110.488C296.656 111.82 297.371 113.269 297.879 114.794C298.358 116.392 298.578 117.771 298.877 119.111L299.685 123.14C300.191 125.718 300.899 128.253 301.801 130.721C302.68 133.044 303.967 135.237 305.355 136.08C305.662 136.272 306 136.413 306.353 136.497H306.612H306.752H306.992L307.92 136.566C309.09 136.642 310.266 136.585 311.423 136.398C313.666 136.016 315.775 135.073 317.552 133.659C318.033 133.339 318.487 132.981 318.909 132.587C319.355 132.173 319.772 131.729 320.157 131.257C320.556 130.781 320.975 130.344 321.364 129.858L322.492 128.33C322.879 127.822 323.235 127.292 323.56 126.742L324.558 125.105L326.425 121.651C328.77 116.821 330.81 111.849 332.533 106.766C334.419 101.656 336.246 96.5253 337.873 91.3055C339.5 86.0858 341.147 80.9058 342.334 75.686C342.933 73.0951 343.396 70.4751 343.722 67.8366C343.882 66.5267 343.981 65.2168 344.061 63.8672C344.121 63.1527 344.061 62.6565 344.061 62.1207C344.061 61.8527 343.991 61.5749 343.971 61.307C343.947 61.0316 343.897 60.7591 343.822 60.4932C343.332 58.2536 342.128 56.2312 340.388 54.7277C338.523 53.169 336.279 52.1252 333.881 51.7011C328.8 50.8079 322.632 50.4606 317.911 53.0903Z" fill="#BA5D17"/>
<path d="M318.14 53.4378C316.484 54.3606 314.966 55.6011 313.28 56.643C312.435 57.1773 311.535 57.6198 310.595 57.9628C309.672 58.3292 308.725 58.6309 307.76 58.8659C305.83 59.3381 303.849 59.5747 301.861 59.5704H296.002C292.119 59.5947 288.242 59.8698 284.395 60.3941C282.52 60.665 280.673 61.1 278.875 61.6941C278.03 61.9708 277.217 62.3368 276.45 62.7856C276.088 62.9771 275.753 63.2139 275.452 63.4902C275.235 63.6763 275.062 63.9064 274.943 64.165L274.863 64.3039C274.863 64.2543 274.863 64.3039 274.863 64.3039L274.763 64.6612V64.5123C274.184 67.7051 274.184 70.9751 274.763 74.1678C275.313 77.3793 276.265 80.5097 277.597 83.486C278.295 84.9538 279.092 86.3728 279.983 87.7332C280.412 88.3881 280.891 89.0629 281.38 89.7179C281.869 90.3728 282.378 90.9782 282.917 91.6033C285.113 94.1537 287.429 96.6742 289.764 99.2146C290.922 100.485 292.1 101.775 293.258 103.085L294.974 105.069C295.543 105.754 296.092 106.508 296.651 107.223C297.21 107.937 297.769 108.642 298.298 109.446C298.841 110.267 299.325 111.126 299.745 112.016C299.981 112.464 300.191 112.924 300.374 113.395C300.564 113.891 300.714 114.388 300.843 114.834C301.103 115.747 301.312 116.67 301.492 117.513L302.59 122.475C302.959 124.073 303.378 125.69 303.868 127.199C304.117 127.963 304.377 128.697 304.666 129.422C304.929 130.104 305.239 130.767 305.594 131.406C305.886 131.949 306.241 132.455 306.652 132.915C306.769 133.045 306.904 133.158 307.051 133.252H307.131L307.022 133.193C307.022 133.193 307.022 133.193 307.301 133.262L306.622 133.242H306.932H307.061H307.002H307.261H307.97C308.309 133.242 308.818 133.242 309.197 133.242C311.443 133.168 313.595 132.331 315.296 130.87L315.525 130.712C315.575 130.662 315.755 130.513 315.995 130.275L316.434 129.838L316.743 129.491L317.382 128.806L318.11 127.923C318.6 127.358 319.109 126.593 319.518 125.938L320.047 125.085L320.316 124.648L320.616 124.152L321.215 123.16L321.744 122.098L322.901 120.084C323.55 118.764 324.209 117.275 324.798 115.836C327.183 110.001 329.269 103.69 331.475 97.5376L334.829 88.3088C335.877 85.2523 336.875 82.2058 337.873 79.1296C338.871 76.0533 339.869 72.9671 340.568 69.8809L341.087 67.5588L341.486 65.197C341.616 64.4032 341.766 63.5994 341.835 62.8849C341.888 62.2876 341.898 61.6874 341.865 61.0887V60.9399C341.613 58.7974 340.575 56.8226 338.951 55.3927C337.159 53.8762 334.991 52.8653 332.673 52.4653C330.248 51.9133 327.764 51.66 325.277 51.7111C322.796 51.7305 320.353 52.3215 318.14 53.4378ZM317.751 52.7431C320.044 51.4873 322.578 50.7264 325.187 50.5103C327.778 50.2837 330.386 50.3103 332.972 50.5897C335.727 50.7656 338.393 51.6253 340.728 53.0904C341.941 53.8973 343.008 54.9041 343.882 56.0675C344.771 57.2667 345.447 58.6095 345.878 60.0368V59.888C346.181 60.9006 346.352 61.9479 346.387 63.004C346.447 63.9368 346.387 64.7703 346.387 65.6237V68.184C346.387 69.0473 346.287 69.9107 346.217 70.7641C345.91 74.1553 345.4 77.5253 344.69 80.8562C344.031 84.1707 343.223 87.4553 342.275 90.6805C341.326 93.9056 340.278 97.0116 339.23 100.177C338.182 103.343 337.084 106.449 335.967 109.624C334.849 112.8 333.611 115.906 332.164 119.032C331.435 120.61 330.707 122.118 329.828 123.735L328.541 125.978L327.892 127.09L327.163 128.191L326.804 128.737L326.385 129.332L325.536 130.533C324.987 131.218 324.538 131.843 323.949 132.518L323.051 133.51C322.722 133.857 322.322 134.244 321.953 134.602L321.394 135.138L320.925 135.564C320.473 135.978 319.989 136.356 319.478 136.695L319.707 136.527C316.744 138.81 313.096 140.037 309.347 140.01C308.738 140.01 308.249 140.01 307.6 139.94L306.822 139.871H306.353L306.053 139.821L305.375 139.692C305.215 139.633 304.866 139.534 304.377 139.345C304.138 139.24 303.908 139.117 303.688 138.978C303.498 138.859 303.398 138.789 303.239 138.67C302.685 138.265 302.182 137.796 301.742 137.271C301.042 136.413 300.439 135.482 299.945 134.492C299.49 133.608 299.1 132.693 298.777 131.754C298.468 130.88 298.178 129.977 297.939 129.094C297.44 127.318 297.06 125.591 296.721 123.825L295.803 118.724C295.653 117.881 295.513 117.117 295.334 116.382C295.244 115.995 295.154 115.658 295.054 115.39C294.954 115.122 294.815 114.735 294.675 114.397C294.391 113.713 294.057 113.049 293.677 112.413C293.288 111.768 292.769 111.103 292.319 110.428C291.87 109.753 291.411 109.108 290.912 108.443L289.325 106.459C288.267 105.099 287.169 103.799 286.061 102.479C283.836 99.8596 281.58 97.2299 279.384 94.4712C278.835 93.7666 278.316 93.072 277.747 92.2881C277.178 91.5041 276.749 90.7995 276.28 89.9957C275.365 88.4173 274.558 86.7795 273.865 85.0936C272.487 81.7492 271.594 78.2278 271.21 74.6342C271.007 72.8356 270.953 71.0234 271.05 69.216C271.134 67.376 271.428 65.5516 271.928 63.778V63.6391L272.048 63.3116C272.128 63.0863 272.232 62.8701 272.357 62.6666L272.288 62.8055C272.616 62.1969 273.072 61.6656 273.625 61.2475C274.089 60.8955 274.588 60.5898 275.112 60.3346C276.073 59.9023 277.077 59.5698 278.106 59.3422C280.074 58.8891 282.078 58.6069 284.095 58.4987C288.035 58.2952 291.983 58.2952 295.923 58.4987L301.782 58.727C303.708 58.7956 305.634 58.6087 307.511 58.1712C309.431 57.803 311.265 57.0828 312.92 56.0476C314.517 55.0156 316.014 53.7454 317.751 52.7431Z" fill="#261507"/>
<path d="M465.5 75.5373C459.512 68.5909 451.068 66.8741 449.97 66.6062C446.668 65.8295 443.524 64.4935 440.678 62.6567C436.885 60.289 433.588 57.2161 430.966 53.6065C429.609 51.7111 426.325 44.338 424.418 42.2838C422.607 40.1925 420.247 38.643 417.601 37.8083C416.948 37.6229 416.28 37.4901 415.605 37.4114L414.607 37.3022H413.609C412.159 37.3687 410.719 37.5714 409.307 37.9076C406.417 38.637 403.623 39.7029 400.983 41.0831C398.906 42.2082 396.905 43.4679 394.994 44.854C396.793 45.3882 398.557 46.0345 400.274 46.7891C404.937 48.8647 409.249 51.6429 413.06 55.0255C416.871 58.3841 420.209 62.2396 422.981 66.4871C423.221 66.8741 423.351 67.1024 423.52 67.4001L423.979 68.2237L424.858 69.8809C425.427 70.9824 425.966 72.0939 426.485 73.2251C427.483 75.4678 428.481 77.7601 429.339 80.0822C430.028 81.9776 430.647 83.9028 431.216 85.8577C435.657 88.7851 440.508 90.9683 442.634 91.385C447.959 92.3595 453.442 92.0187 458.604 90.3927C461.598 89.4004 465.181 87.247 466.588 84.4386C467.346 83.0227 467.648 81.4097 467.453 79.8178C467.258 78.2258 466.577 76.7316 465.5 75.5373Z" fill="#BA5D17"/>
<path d="M431.126 85.8874C433.262 86.8798 435.428 87.7431 437.593 88.5172C438.681 88.9042 439.779 89.2316 440.857 89.5095C441.376 89.6501 441.903 89.7627 442.434 89.8469C442.873 89.9064 443.482 89.9362 444.011 89.9759C448.375 90.1599 452.734 89.5028 456.847 88.0408C457.788 87.7095 458.694 87.2874 459.552 86.7806C460.368 86.2985 461.137 85.7403 461.847 85.1134C462.752 84.3905 463.408 83.4055 463.724 82.2952C463.827 81.9524 463.894 81.5998 463.923 81.2433C463.989 80.6259 463.9 80.0019 463.664 79.4273C463.41 78.8101 463.029 78.2524 462.546 77.7899C461.171 76.3547 459.622 75.0947 457.935 74.0388C456.206 72.9733 454.37 72.0919 452.455 71.4091C451.457 71.0717 450.519 70.774 449.461 70.5259C448.792 70.3672 448.223 70.1985 447.634 70.0298C447.045 69.8611 446.447 69.6725 445.838 69.4641C443.241 68.6578 440.779 67.474 438.532 65.9512C436.476 64.5441 434.525 62.992 432.693 61.3071C431.748 60.3977 430.858 59.4334 430.028 58.4193C429.619 57.9232 429.219 57.427 428.84 56.8911C428.64 56.6331 428.471 56.3652 428.281 56.0973L428.002 55.7102L427.662 55.1744C426.934 53.9042 426.475 52.8821 425.956 51.8004L424.468 48.6745C423.989 47.6822 423.47 46.6898 423.011 45.7471C422.601 44.9304 422.077 44.1754 421.454 43.5044C420.195 42.0786 418.625 40.9584 416.863 40.2297L417.092 40.2793C416.434 40.1007 415.985 39.932 415.715 39.8526H415.535L415.136 39.793L414.318 39.6541H414.617L413.32 39.5747C412.934 39.5549 412.547 39.5549 412.162 39.5747C411.373 39.5747 410.495 39.6938 409.667 39.7831C407.978 40.023 406.31 40.3878 404.676 40.8747C403.002 41.3419 401.358 41.9119 399.755 42.5815C398.138 43.296 396.512 44.0601 394.915 44.8838C396.201 43.6136 397.568 42.4269 399.007 41.3312C400.478 40.2212 402.033 39.2259 403.658 38.3541C405.312 37.4529 407.046 36.7054 408.838 36.1213C409.756 35.8435 410.625 35.5855 411.613 35.387C412.11 35.2804 412.614 35.2009 413.12 35.1489L414.487 35H414.777H415.495H415.875H416.464C417.212 35.0893 417.751 35.2282 418.11 35.258H418.33C421.037 35.9342 423.538 37.2557 425.616 39.1083L426.365 39.8029L426.714 40.1503L427.133 40.6167C427.589 41.1534 428.013 41.7168 428.401 42.3037C429.13 43.3655 429.758 44.3975 430.397 45.4295L432.154 48.476C432.713 49.4684 433.312 50.4607 433.801 51.205L433.94 51.3935L434.19 51.7012L434.669 52.3164C434.995 52.7134 435.328 53.1004 435.667 53.4775C436.359 54.2283 437.092 54.9406 437.863 55.611C439.505 57 441.243 58.2733 443.063 59.4216C444.705 60.4725 446.49 61.2845 448.363 61.833L449.92 62.3093C450.449 62.4681 450.998 62.6368 451.457 62.746C452.718 63.068 453.96 63.4556 455.18 63.907C457.647 64.8141 459.993 66.0171 462.167 67.4894C464.412 68.9645 466.429 70.7562 468.155 72.8083C469.257 74.0586 470.08 75.5263 470.571 77.1151C471.057 78.7581 471.149 80.4913 470.84 82.1761C470.698 82.9676 470.474 83.7424 470.172 84.4882C469.879 85.2476 469.504 85.973 469.054 86.6516C468.184 87.9196 467.096 89.0249 465.84 89.9164C463.622 91.5075 461.102 92.635 458.434 93.2308C453.524 94.3216 448.43 94.2944 443.532 93.1514C442.923 93.0026 442.374 92.8537 441.676 92.6155C441.082 92.3947 440.502 92.1395 439.939 91.8514C438.864 91.3026 437.818 90.6998 436.805 90.0454C434.8 88.8167 432.901 87.426 431.126 85.8874Z" fill="#261507"/>
</g>
<path d="M359.51 176.79C367.17 176.22 370.51 176.16 375.14 175.79C384.47 175.02 393.52 175.15 402.79 174.1C412.06 173.05 421.35 171.96 430.3 170.1C432.53 169.65 434.73 169.1 436.79 168.52C437.745 168.26 438.678 167.926 439.58 167.52C440.009 167.356 440.418 167.145 440.8 166.89C441.212 166.651 441.606 166.384 441.98 166.09C443.551 164.896 444.93 163.47 446.07 161.86C447.32 160.17 448.37 158.28 449.76 156.12C450.536 154.85 451.474 153.687 452.55 152.66C452.894 152.347 453.259 152.057 453.64 151.79C454.08 151.52 457 149.19 457.88 146.94C458.788 142.721 459.068 138.391 458.71 134.09C458.63 133.01 458.51 131.95 458.34 130.93C458.25 130.44 458.15 129.93 458.05 129.48C457.958 129.16 457.837 128.849 457.69 128.55C456.711 126.863 455.465 125.347 454 124.06C450.564 121.044 446.973 118.21 443.24 115.57C441.34 114.16 439.43 112.73 437.53 111.14C436.59 110.34 436.43 108.44 435.5 107.5C435.04 107.03 434.44 105.86 434 105.36C433.547 104.819 433.366 103.604 433 103C433 103 431.82 99.2901 430 92.0001C429 88.0001 427.4 87 427.4 87C421.691 84.4724 415.826 82.3146 409.84 80.5401C398.4 77 395.6 72.44 392 70.23C388.4 68.02 386.4 64 384.4 61C382.4 58 379 56.47 374.4 56C373.497 55.9003 372.583 56.0226 371.738 56.3563C370.893 56.69 370.142 57.225 369.551 57.9149C368.959 58.6048 368.545 59.4286 368.345 60.3148C368.144 61.201 368.163 62.1228 368.4 63C369.4 66 370.94 69.6901 373.4 72C376.3 74.72 377.4 76 380.4 79C383.56 82.16 386 83.6301 388.4 91C390.8 98.37 391.8 100.12 390.4 105C388.4 111.83 376.4 122 372.4 126C368.4 130 353.61 152 354 157.49C354.39 162.98 359.51 176.79 359.51 176.79Z" fill="#F7F1E4"/>
<path d="M429.43 81.62C430.72 84.62 431.72 87.74 433.03 90.62C433.33 91.4528 433.574 92.3047 433.76 93.17L434.31 95.55C434.67 97.11 435.04 98.65 435.5 100.12C435.88 101.486 436.448 102.792 437.19 104C438.129 105.104 439.178 106.109 440.32 107C442.766 108.957 445.309 110.79 447.94 112.49C450.58 114.26 453.35 116.02 456.07 118C457.43 119 458.76 120 460.07 121.21C461.551 122.477 462.871 123.921 464 125.51C464.15 125.75 464.32 126.02 464.46 126.28L464.68 126.68C464.76 126.85 464.84 127.02 464.91 127.19C465.059 127.534 465.182 127.888 465.28 128.25L465.45 128.98C465.55 129.47 465.68 129.98 465.75 130.45C465.82 130.92 465.9 131.35 465.96 131.8C466.18 133.545 466.297 135.301 466.31 137.06C466.409 140.631 466.073 144.2 465.31 147.69L465.24 148L465.14 148.25C464.535 149.681 463.678 150.992 462.61 152.12C462.17 152.61 461.72 153.12 461.25 153.5C460.78 153.88 460.34 154.32 459.69 154.81L459.56 154.9L459.34 155.05L459.25 155.11C459.25 155.11 459.25 155.11 459.18 155.11L458.66 155.53L458.57 155.6L458.37 155.8L457.98 156.2C457.425 156.833 456.91 157.501 456.44 158.2C455.32 159.83 454.2 161.62 452.74 163.52C451.245 165.483 449.466 167.213 447.46 168.65L447.67 168.48C447.358 168.749 447.024 168.989 446.67 169.2L446.33 169.39C446.26 169.39 446.14 169.51 446.17 169.48C446.2 169.45 445.86 169.69 445.68 169.78C445.503 169.885 445.319 169.979 445.13 170.06C444.79 170.22 444.53 170.32 444.37 170.38L444.61 170.26C443.669 170.69 442.687 171.025 441.68 171.26C441.39 171.35 440.68 171.54 440.36 171.62L439.08 171.92C437.38 172.31 435.68 172.63 434.02 172.92C430.69 173.49 427.36 173.92 424.02 174.37C417.36 175.18 410.71 175.65 404.09 176.14C397.47 176.63 390.79 176.91 384.16 177.14L374.16 177.53C370.84 177.62 367.52 177.69 364.16 177.85C364.054 177.859 363.948 177.826 363.867 177.758C363.785 177.689 363.734 177.591 363.725 177.485C363.716 177.379 363.749 177.274 363.817 177.192C363.886 177.11 363.984 177.059 364.09 177.05C370.7 176.16 377.28 175.51 383.86 174.64C390.44 173.77 397.09 173 403.63 172C410.17 171 416.72 170 423.18 168.88C426.41 168.29 429.61 167.64 432.79 166.88C434.38 166.52 435.92 166.13 437.43 165.68L438.55 165.32C438.99 165.18 439.12 165.13 439.55 164.95C440.143 164.76 440.719 164.519 441.27 164.23L441.5 164.12L442.02 163.86C442.04 163.864 442.06 163.864 442.08 163.86C442.08 163.86 442.01 163.86 442.18 163.78L442.86 163.31C442.99 163.22 443.02 163.18 442.98 163.21L443.19 163.03C444.503 161.911 445.628 160.587 446.52 159.11C447.52 157.6 448.42 155.75 449.52 153.85C450.146 152.766 450.866 151.739 451.67 150.78L452.34 150.03L452.7 149.67C452.86 149.52 452.99 149.38 453.19 149.21C453.39 149.04 453.53 148.9 453.86 148.62C454.03 148.49 454.21 148.34 454.42 148.2L454.59 148.09L454.69 148.02C454.88 147.88 455.26 147.57 455.54 147.31C455.835 147.042 456.115 146.758 456.38 146.46C456.776 146.075 457.113 145.634 457.38 145.15L457.21 145.71C457.83 142.876 458.118 139.98 458.07 137.08C458.07 135.61 457.97 134.08 457.86 132.66L457.74 131.66C457.74 131.33 457.64 131.05 457.59 130.75L457.52 130.29C457.524 130.26 457.524 130.23 457.52 130.2L457.46 130.06C457.46 129.96 457.37 129.88 457.31 129.78C456.625 128.685 455.809 127.678 454.88 126.78C453.88 125.78 452.72 124.69 451.56 123.68C449.22 121.62 446.74 119.59 444.21 117.49C441.649 115.329 439.221 113.015 436.94 110.56C435.716 109.229 434.643 107.767 433.74 106.2C432.9 104.565 432.313 102.811 432 101C431.67 99.33 431.45 97.69 431.26 96.07L431 93.65C430.916 92.9172 430.792 92.1895 430.63 91.47C429.77 88.23 429.32 85.03 428.72 81.85C428.71 81.7981 428.71 81.7447 428.721 81.6929C428.731 81.6412 428.752 81.592 428.782 81.5483C428.812 81.5046 428.85 81.4672 428.894 81.4383C428.938 81.4094 428.988 81.3896 429.04 81.38C429.122 81.3738 429.204 81.3937 429.274 81.4368C429.344 81.4799 429.399 81.544 429.43 81.62Z" fill="#261507"/>
<path d="M459.43 162.82C460.362 167.514 460.45 172.336 459.69 177.06C459.52 178.25 459.33 179.43 459.06 180.6C458.79 181.77 458.56 182.93 458.22 184.07L457.72 185.77L457.44 186.61L457.17 187.31C456.817 188.219 456.35 189.079 455.78 189.87C453.54 193.05 449.13 195 444.57 195.09C442.361 195.185 440.156 194.814 438.1 194C437.667 193.816 437.252 193.591 436.86 193.33C436.526 193.091 436.233 192.801 435.99 192.47C435.361 191.641 434.878 190.711 434.56 189.72C433.84 187.6 433.45 184.91 432.7 182.3C431.968 179.669 430.963 177.122 429.7 174.7C429.39 174.1 429.06 173.51 428.7 172.92L428.18 172.05L427.59 171.14C426.762 169.976 425.787 168.924 424.69 168.01C422.543 166.272 420.091 164.95 417.46 164.11C416.94 163.94 416.46 163.78 415.89 163.63C415.89 163.63 417.82 163.16 418.22 162.99C420.79 161.87 421.36 161.92 422.89 161.3C424.42 160.68 425.89 160.04 427.44 159.3C430.604 157.861 433.523 155.934 436.09 153.59C437.359 152.395 438.46 151.033 439.36 149.54C439.44 149.41 439.43 149.35 439.46 149.37L439.94 149.68C441.876 150.915 444.016 151.795 446.26 152.28C448.394 152.721 450.581 152.842 452.75 152.64C453.16 152.64 453.56 152.55 453.96 152.49C455.73 152.27 458.43 158.21 459.43 162.82Z" fill="#F4538E"/>
<path d="M430.12 152.44C433.01 150.44 436.7 150.6 439.79 151.93C441.338 152.596 442.686 153.654 443.7 155C444.19 155.663 444.625 156.366 445 157.1L445.61 158.1L446.12 159.16C446.44 159.87 446.83 160.55 447.12 161.28L447.85 163.43C448.057 164.146 448.221 164.874 448.34 165.61L448.73 167.77C448.81 169.24 448.95 170.67 448.97 172.09C448.99 173.51 448.83 174.94 448.73 176.34C448.728 176.386 448.716 176.43 448.696 176.471C448.676 176.512 448.647 176.549 448.613 176.579C448.578 176.608 448.538 176.631 448.495 176.645C448.451 176.659 448.405 176.664 448.36 176.66C448.289 176.655 448.222 176.63 448.165 176.587C448.108 176.544 448.065 176.487 448.04 176.42C447.6 175.09 447.19 173.77 446.8 172.42C446.41 171.07 445.8 169.89 445.35 168.66L444.46 167C444.199 166.413 443.892 165.848 443.54 165.31L442.54 163.7C442.191 163.201 441.818 162.721 441.42 162.26L440.84 161.57L440.16 160.99C439.733 160.614 439.271 160.279 438.78 159.99C437.878 159.384 437.019 158.716 436.21 157.99C435.8 157.63 435.4 157.23 434.95 156.89C434.73 156.7 434.51 156.49 434.28 156.31C434.05 156.13 433.8 155.94 433.56 155.74C432.56 154.96 431.49 154.14 430.17 153.18H430.11C430.068 153.15 430.031 153.112 430.004 153.068C429.976 153.024 429.958 152.975 429.949 152.924C429.941 152.873 429.943 152.82 429.955 152.77C429.967 152.719 429.989 152.672 430.02 152.63C430.037 152.559 430.071 152.494 430.12 152.44Z" fill="#261507"/>
<path d="M401.86 162.33C407.154 161.929 412.476 162.543 417.54 164.14C420.171 164.979 422.623 166.302 424.77 168.04C425.867 168.954 426.842 170.006 427.67 171.17L428.26 172.08L428.78 172.95C429.11 173.54 429.44 174.13 429.78 174.73C431.043 177.152 432.048 179.699 432.78 182.33C433.53 184.94 433.92 187.63 434.64 189.75C434.936 190.736 435.396 191.666 436 192.5C436.243 192.831 436.536 193.121 436.87 193.36C437.262 193.621 437.677 193.846 438.11 194.03C440.168 194.834 442.373 195.195 444.58 195.09C449.14 195 453.58 193.09 455.79 189.87C456.36 189.079 456.827 188.219 457.18 187.31L457.45 186.61L457.73 185.77L458.23 184.07C458.57 182.93 458.82 181.77 459.07 180.6C459.32 179.43 459.53 178.25 459.7 177.06C460.46 172.336 460.372 167.513 459.44 162.82C458.535 157.996 455.864 153.682 451.95 150.72C451.874 150.664 451.822 150.58 451.807 150.486C451.792 150.393 451.815 150.297 451.87 150.22C451.912 150.162 451.972 150.118 452.039 150.095C452.107 150.072 452.181 150.07 452.25 150.09C453.578 150.44 454.856 150.961 456.05 151.64C457.258 152.363 458.381 153.218 459.4 154.19C461.411 156.2 463.02 158.576 464.14 161.19C466.271 166.428 467.137 172.094 466.67 177.73C466.483 180.529 466.004 183.301 465.24 186C465.06 186.68 464.82 187.35 464.59 188L464.23 189L463.77 190.1C463.08 191.572 462.196 192.944 461.14 194.18C459.015 196.538 456.318 198.308 453.31 199.32C450.497 200.284 447.531 200.718 444.56 200.6C441.563 200.563 438.609 199.881 435.9 198.6C435.158 198.223 434.455 197.774 433.8 197.26C433.116 196.683 432.52 196.009 432.03 195.26C431.164 193.959 430.522 192.523 430.13 191.01C429.41 188.13 429.28 185.63 428.76 183.2C428.283 180.776 427.559 178.407 426.6 176.13C426.36 175.55 426.11 174.98 425.84 174.42L425.44 173.57L425.03 172.81C424.439 171.804 423.72 170.879 422.89 170.06C421.12 168.358 419.048 167.002 416.78 166.06C414.449 165.067 412.018 164.326 409.53 163.85C407.016 163.337 404.464 163.032 401.9 162.94C401.808 162.935 401.722 162.895 401.658 162.828C401.595 162.761 401.56 162.672 401.56 162.58C401.581 162.514 401.62 162.455 401.673 162.411C401.726 162.366 401.791 162.338 401.86 162.33Z" fill="#261507"/>
<path d="M393.37 140.9C394.475 140.9 395.37 140.005 395.37 138.9C395.37 137.796 394.475 136.9 393.37 136.9C392.265 136.9 391.37 137.796 391.37 138.9C391.37 140.005 392.265 140.9 393.37 140.9Z" fill="#261507"/>
<path d="M403.87 154.9C405.251 154.9 406.37 153.781 406.37 152.4C406.37 151.019 405.251 149.9 403.87 149.9C402.489 149.9 401.37 151.019 401.37 152.4C401.37 153.781 402.489 154.9 403.87 154.9Z" fill="#261507"/>
<path d="M387.37 155.9C388.475 155.9 389.37 155.005 389.37 153.9C389.37 152.796 388.475 151.9 387.37 151.9C386.265 151.9 385.37 152.796 385.37 153.9C385.37 155.005 386.265 155.9 387.37 155.9Z" fill="#261507"/>
<path d="M415.13 135.9C412.68 127.76 448.8 117.23 451.87 124.4C454.87 131.4 444.87 147.4 439.87 148.4C434 149.58 417.39 143.4 415.13 135.9Z" fill="#261507"/>
<path d="M375.48 159.1C381.033 160.574 386.737 161.399 392.48 161.56C398.142 161.714 403.803 161.264 409.37 160.22C414.803 159.32 420.048 157.522 424.89 154.9C427.1 153.596 429.151 152.039 431 150.26C431.441 149.865 431.858 149.444 432.25 149C432.69 148.58 433.02 148.11 433.41 147.67C433.8 147.23 434.11 146.78 434.41 146.32L434.82 145.67C434.93 145.51 435.09 145.16 435.08 145.28L441.73 143.68C441.73 143.68 441.73 143.68 441.8 143.77L441.95 143.94L442.31 144.29C442.57 144.53 442.85 144.75 443.13 145C443.726 145.447 444.351 145.855 445 146.22C446.326 146.994 447.768 147.551 449.27 147.87C449.659 147.963 450.053 148.03 450.45 148.07C450.852 148.145 451.261 148.185 451.67 148.19L452.93 148.25L454.22 148.17H454.89L455.55 148.07C455.99 148 456.44 147.92 456.91 147.87C457.81 147.69 458.72 147.43 459.69 147.25C459.776 147.238 459.864 147.252 459.941 147.291C460.018 147.33 460.082 147.393 460.122 147.469C460.163 147.546 460.179 147.634 460.168 147.72C460.156 147.806 460.119 147.886 460.06 147.95C459.357 148.657 458.616 149.325 457.84 149.95C457.43 150.25 457 150.53 456.57 150.82L455.92 151.25L455.22 151.61C454.75 151.86 454.27 152.08 453.79 152.31C453.31 152.54 452.79 152.65 452.25 152.82C451.99 152.9 451.73 152.99 451.47 153.06L450.65 153.21C450.106 153.326 449.555 153.406 449 153.45C446.72 153.645 444.425 153.379 442.25 152.67C441.151 152.311 440.086 151.853 439.07 151.3C438.552 151.024 438.051 150.716 437.57 150.38C437.32 150.22 437.07 150.03 436.83 149.85L436.45 149.55L435.99 149.15L442.65 147.55C442.486 148.102 442.289 148.643 442.06 149.17C441.86 149.6 441.65 150.02 441.44 150.43C441.009 151.217 440.528 151.975 440 152.7C438.971 154.076 437.779 155.322 436.45 156.41C433.904 158.465 431.057 160.118 428.01 161.31C422.279 163.582 416.244 164.997 410.1 165.51C404.116 165.981 398.098 165.743 392.17 164.8C386.31 163.879 380.595 162.198 375.17 159.8C375.122 159.779 375.079 159.748 375.043 159.709C375.007 159.671 374.979 159.626 374.96 159.577C374.941 159.527 374.933 159.475 374.934 159.422C374.936 159.37 374.948 159.318 374.97 159.27C375.011 159.185 375.08 159.116 375.166 159.076C375.251 159.036 375.348 159.027 375.44 159.05L375.48 159.1Z" fill="#261507"/>
<path d="M359 105.67C360.14 104.73 361 103.83 362 102.96C363 102.09 364 101.26 365 100.48C367.156 98.8409 369.555 97.5486 372.11 96.6501C373.579 96.1288 375.122 95.8419 376.68 95.8001C377.615 95.7826 378.547 95.897 379.45 96.1401C380.506 96.4301 381.475 96.9762 382.27 97.7301C382.663 98.1062 383 98.5373 383.27 99.0101C383.512 99.4421 383.71 99.8978 383.86 100.37C383.968 100.801 384.045 101.238 384.09 101.68C384.09 102.1 384.09 102.51 384.09 102.91C383.924 104.396 383.395 105.817 382.55 107.05C381.85 105.73 381.35 104.5 380.71 103.54C380.55 103.31 380.39 103.1 380.24 102.9C380.09 102.7 379.9 102.58 379.76 102.43C379.621 102.335 379.473 102.251 379.32 102.18C379.17 102.18 379.08 102.1 378.96 102.18C378.739 102.195 378.518 102.222 378.3 102.26C378 102.33 377.67 102.34 377.24 102.47C376.4 102.67 375.39 102.98 374.33 103.33C372.2 104.05 369.85 104.88 367.33 105.5C366.016 105.825 364.678 106.049 363.33 106.17C361.867 106.329 360.388 106.158 359 105.67Z" fill="#261507"/>
<path d="M431.38 90.4101C430.51 89.8933 429.604 89.4389 428.67 89.0501C427.363 88.5082 425.98 88.1709 424.57 88.0501C422.937 87.8761 421.292 88.2452 419.89 89.1001C418.603 89.9876 417.677 91.3076 417.28 92.8201C416.943 94.1267 416.885 95.4896 417.11 96.8201C417.762 95.7728 418.484 94.7706 419.27 93.8201C419.87 93.0911 420.664 92.5467 421.56 92.2501C423 91.8601 424.9 92.4201 426.95 93.2501C428.69 93.9701 430.51 94.8401 432.41 95.6601C432.14 94.0001 431.81 92.2301 431.38 90.4101Z" fill="#261507"/>
<g clip-path="url(#clip6_2_1781)">
<path d="M267.17 127C267.298 136.291 269.174 145.474 272.7 154.07C275.688 162.887 280.052 171.177 285.63 178.63C291.282 185.972 297.988 192.438 305.53 197.82C309.269 200.498 313.219 202.869 317.34 204.91C319.4 205.91 321.49 206.91 323.61 207.66C324.67 208.08 325.75 208.43 326.81 208.79L327.61 209.03C327.88 209.12 328.42 209.27 328.42 209.27L333.93 192.35C333.93 192.35 329.52 191.25 325.51 189.98C321.509 188.704 317.592 187.181 313.78 185.42C306.17 181.86 298.69 177.26 293 170.29C290.421 166.905 288.149 163.298 286.21 159.51C284.3 155.78 282.67 152 281.16 148.12C279.65 144.24 278.4 140.34 277.29 136.38C276.73 134.38 276.2 132.38 275.73 130.38C275.5 129.38 275.26 128.38 275.06 127.38L274.75 125.91L274.61 125.16L274.54 124.78L267.17 127Z" fill="#C0272D"/>
<path d="M341.06 225.35C341.495 227.037 341.736 228.768 341.78 230.51C341.847 232.375 341.614 234.239 341.09 236.03C340.517 237.991 339.489 239.79 338.09 241.28C336.567 242.859 334.641 243.99 332.52 244.55C330.356 245.11 328.084 245.11 325.92 244.55C323.824 243.994 321.881 242.968 320.24 241.55C317.185 238.786 315.161 235.066 314.5 231C313.819 227.08 314.526 223.045 316.5 219.59C317.516 217.88 318.878 216.401 320.5 215.25C322.071 214.104 323.884 213.335 325.8 213C327.704 212.71 329.65 212.902 331.46 213.56C333.161 214.2 334.708 215.191 336 216.47C338.459 218.918 340.208 221.987 341.06 225.35ZM340.37 225.49C340.108 223.882 339.505 222.348 338.602 220.992C337.698 219.636 336.514 218.49 335.13 217.63C333.858 216.845 332.436 216.333 330.956 216.127C329.476 215.92 327.968 216.023 326.53 216.43C325.196 216.821 323.965 217.503 322.927 218.429C321.889 219.354 321.07 220.499 320.53 221.78C319.404 224.316 319.192 227.165 319.93 229.84C320.624 232.4 322.237 234.614 324.46 236.06C326.384 237.356 328.702 237.936 331.01 237.7C332.195 237.56 333.347 237.222 334.42 236.7C335.669 236.11 336.793 235.285 337.73 234.27C338.786 233.127 339.569 231.759 340.02 230.27C340.492 228.723 340.612 227.089 340.37 225.49Z" fill="#261507"/>
<path d="M340.37 225.49C340.108 223.882 339.505 222.348 338.602 220.992C337.698 219.636 336.514 218.49 335.13 217.63C333.858 216.845 332.436 216.333 330.956 216.127C329.476 215.92 327.968 216.023 326.53 216.43C325.196 216.821 323.965 217.504 322.927 218.429C321.889 219.354 321.07 220.499 320.53 221.78C319.404 224.316 319.192 227.165 319.93 229.84C320.624 232.4 322.237 234.614 324.46 236.06C326.384 237.356 328.702 237.936 331.01 237.7C332.195 237.56 333.347 237.222 334.42 236.7C335.669 236.11 336.793 235.285 337.73 234.27C338.786 233.127 339.569 231.759 340.02 230.27C340.492 228.723 340.612 227.089 340.37 225.49Z" fill="#FAAF3B"/>
<path d="M267.17 127C267.298 136.29 269.174 145.474 272.7 154.07C275.688 162.887 280.052 171.177 285.63 178.63C291.282 185.972 297.988 192.438 305.53 197.82C309.269 200.498 313.219 202.869 317.34 204.91C319.4 205.91 321.49 206.91 323.61 207.66C324.67 208.08 325.75 208.43 326.81 208.79L327.61 209.03C327.88 209.12 328.42 209.27 328.42 209.27L333.93 192.35C333.93 192.35 329.52 191.25 325.51 189.98C321.509 188.704 317.592 187.181 313.78 185.42C306.17 181.86 298.69 177.26 293 170.29C290.421 166.905 288.149 163.298 286.21 159.51C284.3 155.78 282.67 152 281.16 148.12C279.65 144.24 278.4 140.34 277.29 136.38C276.73 134.38 276.2 132.38 275.73 130.38C275.5 129.38 275.26 128.38 275.06 127.38L274.75 125.91L274.61 125.16L274.54 124.78L267.17 127ZM275 124C275.13 124.173 275.231 124.365 275.3 124.57L275.44 124.92L275.72 125.63L276.29 127L277.46 129.82C278.26 131.69 279.06 133.55 279.89 135.4C281.56 139.09 283.26 142.75 285.11 146.32C288.78 153.43 292.85 160.43 297.88 166.16L299.79 168.16L301.93 170C302.652 170.614 303.41 171.185 304.2 171.71C304.962 172.28 305.753 172.811 306.57 173.3C309.845 175.386 313.271 177.225 316.82 178.8C320.38 180.44 324.06 181.88 327.82 183.2C329.68 183.87 331.57 184.49 333.46 185.07C335.35 185.65 337.29 186.23 339.11 186.68L343 187.68L341.49 191.19L331.93 213.44L330.93 215.69L328.69 215.13C327.96 214.94 327.41 214.77 326.79 214.58C326.17 214.39 325.61 214.18 325.02 213.98C323.86 213.55 322.7 213.12 321.58 212.63C319.3 211.69 317.12 210.63 314.96 209.46C310.681 207.152 306.594 204.504 302.74 201.54C295.065 195.651 288.308 188.655 282.69 180.78C282.34 180.29 281.97 179.78 281.63 179.31L280.63 177.77L278.73 174.69C278.14 173.63 277.6 172.56 277.03 171.49C276.46 170.42 275.89 169.37 275.43 168.26L274 165C273.53 163.9 273.13 162.76 272.7 161.64C271.79 159.42 271.14 157.11 270.39 154.84C267.658 145.668 266.181 136.168 266 126.6V126.15L266.42 126.05C269.32 125.31 272.2 124.66 275 124Z" fill="#261507"/>
</g>
</g>
<defs>
<clipPath id="clip0_2_1781">
<rect width="500" height="500" fill="white"/>
</clipPath>
<clipPath id="clip1_2_1781">
<rect width="96.83" height="112.12" fill="white" transform="translate(148.408 177) rotate(24.4509)"/>
</clipPath>
<clipPath id="clip2_2_1781">
<rect width="186.42" height="262.73" fill="white" transform="translate(162 131)"/>
</clipPath>
<clipPath id="clip3_2_1781">
<rect width="305.51" height="172.27" fill="white" transform="translate(92 259)"/>
</clipPath>
<clipPath id="clip4_2_1781">
<rect width="161.53" height="144.43" fill="white" transform="translate(273 43)"/>
</clipPath>
<clipPath id="clip5_2_1781">
<rect width="200" height="105" fill="white" transform="translate(271 35)"/>
</clipPath>
<clipPath id="clip6_2_1781">
<rect width="76.97" height="120.97" fill="white" transform="translate(266 124)"/>
</clipPath>
</defs>
</svg>
