<svg width="200" height="60" viewBox="0 0 200 86" fill="none" xmlns="http://www.w3.org/2000/svg">
<g id="Group 88">
<path id="Vector" d="M177.683 0.179993C165.71 0.179993 156.013 9.76999 156.013 21.5967V43.0167H147.343V85.8467H169.013C180.983 85.8467 190.683 76.26 190.683 64.43V43.0167H199.35V0.179993H177.683Z" fill="#00BEDB"/>
<path id="Vector_2" d="M125.677 0.179993C113.713 0.179993 104.013 9.76999 104.013 21.5967V43.0167H95.3367V0.179993H73.6767C61.71 0.179993 52 9.76999 52 21.5967V43.0167H43.3367V0.179993H21.67C9.7 0.179993 0 9.76999 0 21.5967V43.0167H26.0033V85.8467H47.67C59.64 85.8467 69.3333 76.26 69.3333 64.43V43.0167H78.0033V85.8467H99.6733C111.637 85.8467 121.343 76.26 121.343 64.43V43.0167H147.34V0.179993H125.673H125.677Z" fill="#fff"/>
</g>
</svg>
