<svg width="640" height="172" viewBox="0 0 640 172" fill="none" xmlns="http://www.w3.org/2000/svg">
<g clip-path="url(#clip0_606_15104)">
<path d="M640 0.330078H0V171.663H640V0.330078Z" fill="#001C43"/>
<path d="M220.57 43.1801C208.597 43.1801 198.9 52.7701 198.9 64.5967V86.0167H190.23V128.847H211.9C223.87 128.847 233.57 119.26 233.57 107.43V86.0167H242.237V43.1801H220.57Z" fill="#00BEDD"/>
<path d="M168.563 43.1801C156.6 43.1801 146.9 52.7701 146.9 64.5967V86.0167H138.223V43.1801H116.563C104.597 43.1801 94.8867 52.7701 94.8867 64.5967V86.0167H86.2233V43.1801H64.5567C52.5867 43.1801 42.8867 52.7701 42.8867 64.5967V86.0167H68.89V128.847H90.5567C102.527 128.847 112.22 119.26 112.22 107.43V86.0167H120.89V128.847H142.56C154.523 128.847 164.23 119.26 164.23 107.43V86.0167H190.227V43.1801H168.56H168.563Z" fill="white"/>
<path d="M334.637 122.353V99.4233C330.477 100.34 326.13 101.247 322.247 101.767V103.523C326.453 103.983 326.593 104.05 326.593 108.02V122.35C326.593 126.063 326.263 126.383 322.04 126.783V128.863H339.177V126.783C334.96 126.387 334.637 126.067 334.637 122.35" fill="white"/>
<path d="M330.09 93.8867C332.787 93.8867 334.9 91.7967 334.9 89.2C334.9 86.6034 332.787 84.4434 330.09 84.4434C327.393 84.4434 325.277 86.5267 325.277 89.2C325.277 91.8734 327.52 93.8867 330.09 93.8867Z" fill="white"/>
<path d="M354.603 122.353V82.6134C350.327 83.5334 345.043 84.4434 342.217 84.8967V86.7867C346.427 87.1134 346.567 87.1767 346.567 91.0234V122.353C346.567 126.067 346.23 126.387 342.017 126.787V128.867H359.15V126.787C354.94 126.39 354.603 126.07 354.603 122.353Z" fill="white"/>
<path d="M403.077 126.907C398.86 126.907 396.223 120.85 396.223 112.647C396.223 105.603 398.99 102.16 401.69 102.16C405.907 102.16 408.41 107.173 408.41 115.833C408.41 125.28 405.443 126.907 403.077 126.907ZM402.67 99.4233C395.3 99.4233 387.127 104.963 387.127 115.25C387.127 122.213 392.203 129.643 402.35 129.643C409.923 129.643 417.507 124.5 417.507 113.88C417.507 106.327 411.833 99.4233 402.67 99.4233Z" fill="white"/>
<path d="M448.707 122.42V108.147C448.707 103.137 445.473 99.4233 440.207 99.4233C437.9 99.4233 436.45 100.147 434.21 101.573C433.02 102.357 431.777 103.207 430.527 104.053V99.4267C426.23 100.347 422.023 101.25 418.267 101.71V103.463C422.353 103.91 422.47 103.987 422.47 107.9V122.42C422.47 126.133 422.147 126.387 417.727 126.787V128.867H433.677V126.787C430.84 126.39 430.523 126.133 430.523 122.42V106.787C432.357 105.223 434.41 104.38 436.123 104.38C438.683 104.38 440.66 105.87 440.66 109.717V122.42C440.66 126.133 440.403 126.387 437.103 126.787V128.867H452.653V126.787C449.023 126.39 448.707 126.133 448.707 122.42Z" fill="white"/>
<path d="M523.987 126.907C519.77 126.907 517.133 120.85 517.133 112.647C517.133 105.603 519.9 102.16 522.607 102.16C526.817 102.16 529.327 107.173 529.327 115.833C529.327 125.28 526.357 126.907 523.987 126.907ZM523.593 99.4233C516.22 99.4233 508.04 104.963 508.04 115.25C508.04 122.213 513.113 129.643 523.26 129.643C530.837 129.643 538.42 124.5 538.42 113.88C538.42 106.327 532.75 99.4233 523.59 99.4233" fill="white"/>
<path d="M570.047 122.42V108.147C570.047 103.137 566.82 99.4233 561.543 99.4233C559.243 99.4233 557.79 100.147 555.557 101.573C554.367 102.357 553.117 103.207 551.867 104.053V99.4267C547.577 100.347 543.367 101.25 539.603 101.71V103.463C543.693 103.91 543.823 103.987 543.823 107.9V122.42C543.823 126.133 543.487 126.387 539.077 126.787V128.867H555.027V126.787C552.193 126.39 551.867 126.133 551.867 122.42V106.787C553.717 105.223 555.753 104.38 557.46 104.38C560.037 104.38 562.01 105.87 562.01 109.717V122.42C562.01 126.133 561.743 126.387 558.443 126.787V128.867H574.003V126.787C570.373 126.39 570.043 126.133 570.043 122.42" fill="white"/>
<path d="M588.02 110.487C584.91 109.397 583.073 107.76 583.073 105.87C583.073 103.853 584.727 102.163 586.9 102.163C588.943 102.163 591.94 104.017 594.033 108.57L595.51 108.53L595.06 99.7667H593.84C593.84 99.7667 592.91 101.26 591.637 101.26C590.97 101.26 588.797 100.06 587.13 99.8601C580.083 99.0467 576.423 103.797 576.423 108.813C576.423 113.83 582.087 116.43 584.913 117.533C588.48 118.907 589.927 120.793 589.927 122.817C589.927 125.23 588.157 126.913 585.78 126.913C582.16 126.913 578.39 123.4 577.133 119.427L575.803 119.377L576.247 129.46L577.523 129.51C577.523 129.51 578.22 128.17 579.087 128.1C580.547 127.983 582.96 129.253 584.78 129.46C590.353 130.087 597.113 126.66 597.113 120.01C597.113 114.8 593.223 112.32 588.02 110.49" fill="white"/>
<path d="M374.57 110.487C371.47 109.397 369.623 107.76 369.623 105.87C369.623 103.853 371.277 102.163 373.45 102.163C375.487 102.163 378.483 104.017 380.583 108.57L382.057 108.53L381.627 99.7667H380.397C380.397 99.7667 379.463 101.26 378.19 101.26C377.513 101.26 375.343 100.06 373.68 99.8601C366.64 99.0467 362.98 103.797 362.98 108.813C362.98 113.83 368.633 116.43 371.47 117.533C375.037 118.907 376.487 120.793 376.487 122.817C376.487 125.23 374.707 126.913 372.327 126.913C368.707 126.913 364.937 123.4 363.683 119.427L362.367 119.377L362.803 129.46L364.077 129.51C364.077 129.51 364.767 128.17 365.64 128.1C367.103 127.983 369.503 129.253 371.323 129.46C376.913 130.087 383.66 126.66 383.66 120.01C383.66 114.8 379.78 112.32 374.567 110.49" fill="white"/>
<path d="M461.21 119.993C460.067 119.993 459.087 120.397 458.28 121.2C457.473 122.003 457.07 122.937 457.07 124C457.07 124.993 457.427 125.87 458.123 126.607C458.83 127.34 459.66 127.717 460.61 127.717C461.307 127.717 461.887 127.577 462.357 127.307C462.557 127.193 462.687 127.14 462.8 127.14C462.913 127.14 463.01 127.2 463.137 127.327C463.257 127.473 463.303 127.677 463.303 127.947C463.303 129.277 462.88 130.577 462.023 131.85C461.18 133.107 459.803 134.14 457.927 134.94V136C460.677 135.167 462.747 133.863 464.15 132.083C465.543 130.303 466.24 128.267 466.24 125.97C466.24 124.12 465.747 122.663 464.76 121.587C463.78 120.533 462.597 119.99 461.21 119.99" fill="white"/>
<path d="M489.21 129.837C498.853 130.58 504.83 123.98 504.83 116.293C504.83 109.26 499.953 105.81 494.677 103.597L492.573 102.68C487.823 100.667 485.39 98.3201 485.39 94.9934C485.39 91.3434 487.757 88.4868 491.78 88.4868C496.713 88.4868 500.25 93.3601 500.58 98.6034H503.007V85.5468H500.787C500.787 85.5468 500.733 88.4468 499.403 88.4468C498.387 88.4468 495.823 86.2634 491.903 85.9468C482.773 85.1834 478.137 91.3434 478.137 98.3201C478.137 104.507 482.813 108.28 488.36 110.69L489.68 111.273C494.68 113.427 497.117 115.573 497.117 120.003C497.117 123.717 494.677 126.907 490.34 126.907C485.407 126.907 480.573 123.287 479.96 116.653H477.533V129.72H479.527C479.527 129.72 479.82 126.82 481.133 126.82C482.153 126.82 485.283 129.54 489.21 129.84" fill="white"/>
<path d="M306.393 86.03V88.1167L309.18 88.3767C312.33 88.6334 312.687 89.3467 311.617 93.4567C310.613 97.3734 307.68 108.183 305.043 116.447H304.893L295.103 92.41C294.127 89.2267 294.427 88.7 297.127 88.3767L299.697 88.1167V86.03H279.097V88.1167C282.827 88.5034 284.11 88.83 286.107 94.6267L286.19 95.0434L278.853 116.447H278.717L270.91 92.4767C269.92 89.2267 270.203 88.7 272.92 88.3767L275.493 88.1167V86.03H254.89V88.1167C258.61 88.5034 259.9 88.83 261.907 94.6267L273.847 128.823H277.637L288.22 99.6334H288.363L300.373 128.823H304.17C310.183 110.847 315.043 97.0967 315.837 95.0834C317.99 89.4134 318.793 88.7234 322.47 88.25V86.03H306.387H306.393Z" fill="white"/>
</g>
<defs>
<clipPath id="clip0_606_15104">
<rect width="640" height="171.333" fill="white" transform="translate(0 0.330078)"/>
</clipPath>
</defs>
</svg>
