<svg width="640" height="173" viewBox="0 0 640 173" fill="none" xmlns="http://www.w3.org/2000/svg">
<g clip-path="url(#clip0_606_15085)">
<path d="M640 0.996765H0V172.33H640V0.996765Z" fill="#00BEDD"/>
<path d="M220.57 43.8467C208.597 43.8467 198.9 53.4367 198.9 65.2634V86.6834H190.23V129.513H211.9C223.87 129.513 233.57 119.927 233.57 108.097V86.6834H242.237V43.8467H220.57Z" fill="white"/>
<path d="M168.563 43.8467C156.6 43.8467 146.9 53.4367 146.9 65.2634V86.6834H138.223V43.8467H116.563C104.597 43.8467 94.8867 53.4367 94.8867 65.2634V86.6834H86.2233V43.8467H64.5567C52.5867 43.8467 42.8867 53.4367 42.8867 65.2634V86.6834H68.89V129.513H90.5567C102.527 129.513 112.22 119.927 112.22 108.097V86.6834H120.89V129.513H142.56C154.523 129.513 164.23 119.927 164.23 108.097V86.6834H190.227V43.8467H168.56H168.563Z" fill="#001C43"/>
<path d="M334.637 123.02V100.09C330.477 101.007 326.13 101.913 322.247 102.433V104.19C326.453 104.65 326.593 104.717 326.593 108.687V123.017C326.593 126.73 326.263 127.05 322.04 127.45V129.53H339.177V127.45C334.96 127.053 334.637 126.733 334.637 123.017" fill="#001C43"/>
<path d="M330.09 94.5534C332.787 94.5534 334.9 92.4634 334.9 89.8668C334.9 87.2701 332.787 85.1101 330.09 85.1101C327.393 85.1101 325.277 87.1934 325.277 89.8668C325.277 92.5401 327.52 94.5534 330.09 94.5534Z" fill="#001C43"/>
<path d="M354.603 123.02V83.28C350.327 84.2 345.043 85.11 342.217 85.5634V87.4534C346.427 87.78 346.567 87.8434 346.567 91.69V123.02C346.567 126.733 346.23 127.053 342.017 127.453V129.533H359.15V127.453C354.94 127.057 354.603 126.737 354.603 123.02Z" fill="#001C43"/>
<path d="M403.077 127.573C398.86 127.573 396.223 121.517 396.223 113.313C396.223 106.27 398.99 102.827 401.69 102.827C405.907 102.827 408.41 107.84 408.41 116.5C408.41 125.947 405.443 127.573 403.077 127.573ZM402.67 100.09C395.3 100.09 387.127 105.63 387.127 115.917C387.127 122.88 392.203 130.31 402.35 130.31C409.923 130.31 417.507 125.167 417.507 114.547C417.507 106.993 411.833 100.09 402.67 100.09Z" fill="#001C43"/>
<path d="M448.707 123.087V108.813C448.707 103.803 445.473 100.09 440.207 100.09C437.9 100.09 436.45 100.813 434.21 102.24C433.02 103.023 431.777 103.873 430.527 104.72V100.093C426.23 101.013 422.023 101.917 418.267 102.377V104.13C422.353 104.577 422.47 104.653 422.47 108.567V123.087C422.47 126.8 422.147 127.053 417.727 127.453V129.533H433.677V127.453C430.84 127.057 430.523 126.8 430.523 123.087V107.453C432.357 105.89 434.41 105.047 436.123 105.047C438.683 105.047 440.66 106.537 440.66 110.383V123.087C440.66 126.8 440.403 127.053 437.103 127.453V129.533H452.653V127.453C449.023 127.057 448.707 126.8 448.707 123.087Z" fill="#001C43"/>
<path d="M523.987 127.573C519.77 127.573 517.133 121.517 517.133 113.313C517.133 106.27 519.9 102.827 522.607 102.827C526.817 102.827 529.327 107.84 529.327 116.5C529.327 125.947 526.357 127.573 523.987 127.573ZM523.593 100.09C516.22 100.09 508.04 105.63 508.04 115.917C508.04 122.88 513.113 130.31 523.26 130.31C530.837 130.31 538.42 125.167 538.42 114.547C538.42 106.993 532.75 100.09 523.59 100.09" fill="#001C43"/>
<path d="M570.047 123.087V108.813C570.047 103.803 566.82 100.09 561.543 100.09C559.243 100.09 557.79 100.813 555.557 102.24C554.367 103.023 553.117 103.873 551.867 104.72V100.093C547.577 101.013 543.367 101.917 539.603 102.377V104.13C543.693 104.577 543.823 104.653 543.823 108.567V123.087C543.823 126.8 543.487 127.053 539.077 127.453V129.533H555.027V127.453C552.193 127.057 551.867 126.8 551.867 123.087V107.453C553.717 105.89 555.753 105.047 557.46 105.047C560.037 105.047 562.01 106.537 562.01 110.383V123.087C562.01 126.8 561.743 127.053 558.443 127.453V129.533H574.003V127.453C570.373 127.057 570.043 126.8 570.043 123.087" fill="#001C43"/>
<path d="M588.02 111.153C584.91 110.063 583.073 108.427 583.073 106.537C583.073 104.52 584.727 102.83 586.9 102.83C588.943 102.83 591.94 104.683 594.033 109.237L595.51 109.197L595.06 100.433H593.84C593.84 100.433 592.91 101.927 591.637 101.927C590.97 101.927 588.797 100.727 587.13 100.527C580.083 99.7133 576.423 104.463 576.423 109.48C576.423 114.497 582.087 117.097 584.913 118.2C588.48 119.573 589.927 121.46 589.927 123.483C589.927 125.897 588.157 127.58 585.78 127.58C582.16 127.58 578.39 124.067 577.133 120.093L575.803 120.043L576.247 130.127L577.523 130.177C577.523 130.177 578.22 128.837 579.087 128.767C580.547 128.65 582.96 129.92 584.78 130.127C590.353 130.753 597.113 127.327 597.113 120.677C597.113 115.467 593.223 112.987 588.02 111.157" fill="#001C43"/>
<path d="M374.57 111.153C371.47 110.063 369.623 108.427 369.623 106.537C369.623 104.52 371.277 102.83 373.45 102.83C375.487 102.83 378.483 104.683 380.583 109.237L382.057 109.197L381.627 100.433H380.397C380.397 100.433 379.463 101.927 378.19 101.927C377.513 101.927 375.343 100.727 373.68 100.527C366.64 99.7133 362.98 104.463 362.98 109.48C362.98 114.497 368.633 117.097 371.47 118.2C375.037 119.573 376.487 121.46 376.487 123.483C376.487 125.897 374.707 127.58 372.327 127.58C368.707 127.58 364.937 124.067 363.683 120.093L362.367 120.043L362.803 130.127L364.077 130.177C364.077 130.177 364.767 128.837 365.64 128.767C367.103 128.65 369.503 129.92 371.323 130.127C376.913 130.753 383.66 127.327 383.66 120.677C383.66 115.467 379.78 112.987 374.567 111.157" fill="#001C43"/>
<path d="M461.21 120.66C460.067 120.66 459.087 121.063 458.28 121.867C457.473 122.67 457.07 123.603 457.07 124.667C457.07 125.66 457.427 126.537 458.123 127.273C458.83 128.007 459.66 128.383 460.61 128.383C461.307 128.383 461.887 128.243 462.357 127.973C462.557 127.86 462.687 127.807 462.8 127.807C462.913 127.807 463.01 127.867 463.137 127.993C463.257 128.14 463.303 128.343 463.303 128.613C463.303 129.943 462.88 131.243 462.023 132.517C461.18 133.773 459.803 134.807 457.927 135.607V136.667C460.677 135.833 462.747 134.53 464.15 132.75C465.543 130.97 466.24 128.933 466.24 126.637C466.24 124.787 465.747 123.33 464.76 122.253C463.78 121.2 462.597 120.657 461.21 120.657" fill="#001C43"/>
<path d="M489.21 130.503C498.853 131.247 504.83 124.647 504.83 116.96C504.83 109.927 499.953 106.477 494.677 104.263L492.573 103.347C487.823 101.333 485.39 98.9867 485.39 95.66C485.39 92.01 487.757 89.1534 491.78 89.1534C496.713 89.1534 500.25 94.0267 500.58 99.27H503.007V86.2134H500.787C500.787 86.2134 500.733 89.1134 499.403 89.1134C498.387 89.1134 495.823 86.93 491.903 86.6134C482.773 85.85 478.137 92.01 478.137 98.9867C478.137 105.173 482.813 108.947 488.36 111.357L489.68 111.94C494.68 114.093 497.117 116.24 497.117 120.67C497.117 124.383 494.677 127.573 490.34 127.573C485.407 127.573 480.573 123.953 479.96 117.32H477.533V130.387H479.527C479.527 130.387 479.82 127.487 481.133 127.487C482.153 127.487 485.283 130.207 489.21 130.507" fill="#001C43"/>
<path d="M306.393 86.6968V88.7834L309.18 89.0434C312.33 89.3001 312.687 90.0134 311.617 94.1234C310.613 98.0401 307.68 108.85 305.043 117.113H304.893L295.103 93.0768C294.127 89.8934 294.427 89.3668 297.127 89.0434L299.697 88.7834V86.6968H279.097V88.7834C282.827 89.1701 284.11 89.4968 286.107 95.2934L286.19 95.7101L278.853 117.113H278.717L270.91 93.1434C269.92 89.8934 270.203 89.3668 272.92 89.0434L275.493 88.7834V86.6968H254.89V88.7834C258.61 89.1701 259.9 89.4968 261.907 95.2934L273.847 129.49H277.637L288.22 100.3H288.363L300.373 129.49H304.17C310.183 111.513 315.043 97.7634 315.837 95.7501C317.99 90.0801 318.793 89.3901 322.47 88.9168V86.6968H306.387H306.393Z" fill="#001C43"/>
</g>
<defs>
<clipPath id="clip0_606_15085">
<rect width="640" height="171.333" fill="white" transform="translate(0 0.996765)"/>
</clipPath>
</defs>
</svg>
