<svg width="640" height="172" viewBox="0 0 640 172" fill="none" xmlns="http://www.w3.org/2000/svg">
<g clip-path="url(#clip0_606_15066)">
<path d="M220.57 43.5134C208.597 43.5134 198.9 53.1034 198.9 64.9301V86.3501H190.23V129.18H211.9C223.87 129.18 233.57 119.593 233.57 107.763V86.3501H242.237V43.5134H220.57Z" fill="#00BEDB"/>
<path d="M168.563 43.5134C156.6 43.5134 146.9 53.1034 146.9 64.9301V86.3501H138.223V43.5134H116.563C104.597 43.5134 94.8867 53.1034 94.8867 64.9301V86.3501H86.2233V43.5134H64.5567C52.5867 43.5134 42.8867 53.1034 42.8867 64.9301V86.3501H68.89V129.18H90.5567C102.527 129.18 112.22 119.593 112.22 107.763V86.3501H120.89V129.18H142.56C154.523 129.18 164.23 119.593 164.23 107.763V86.3501H190.227V43.5134H168.56H168.563Z" fill="#001C43"/>
<path d="M334.637 122.687V99.7568C330.477 100.673 326.13 101.58 322.247 102.1V103.857C326.453 104.317 326.593 104.383 326.593 108.353V122.683C326.593 126.397 326.263 126.717 322.04 127.117V129.197H339.177V127.117C334.96 126.72 334.637 126.4 334.637 122.683" fill="#001C43"/>
<path d="M330.09 94.2201C332.787 94.2201 334.9 92.1301 334.9 89.5334C334.9 86.9367 332.787 84.7767 330.09 84.7767C327.393 84.7767 325.277 86.8601 325.277 89.5334C325.277 92.2067 327.52 94.2201 330.09 94.2201Z" fill="#001C43"/>
<path d="M354.603 122.687V82.9468C350.327 83.8668 345.043 84.7768 342.217 85.2301V87.1201C346.427 87.4468 346.567 87.5101 346.567 91.3568V122.687C346.567 126.4 346.23 126.72 342.017 127.12V129.2H359.15V127.12C354.94 126.723 354.603 126.403 354.603 122.687Z" fill="#001C43"/>
<path d="M403.077 127.24C398.86 127.24 396.223 121.183 396.223 112.98C396.223 105.937 398.99 102.493 401.69 102.493C405.907 102.493 408.41 107.507 408.41 116.167C408.41 125.613 405.443 127.24 403.077 127.24ZM402.67 99.7568C395.3 99.7568 387.127 105.297 387.127 115.583C387.127 122.547 392.203 129.977 402.35 129.977C409.923 129.977 417.507 124.833 417.507 114.213C417.507 106.66 411.833 99.7568 402.67 99.7568Z" fill="#001C43"/>
<path d="M448.707 122.753V108.48C448.707 103.47 445.473 99.7568 440.207 99.7568C437.9 99.7568 436.45 100.48 434.21 101.907C433.02 102.69 431.777 103.54 430.527 104.387V99.7601C426.23 100.68 422.023 101.583 418.267 102.043V103.797C422.353 104.243 422.47 104.32 422.47 108.233V122.753C422.47 126.467 422.147 126.72 417.727 127.12V129.2H433.677V127.12C430.84 126.723 430.523 126.467 430.523 122.753V107.12C432.357 105.557 434.41 104.713 436.123 104.713C438.683 104.713 440.66 106.203 440.66 110.05V122.753C440.66 126.467 440.403 126.72 437.103 127.12V129.2H452.653V127.12C449.023 126.723 448.707 126.467 448.707 122.753Z" fill="#001C43"/>
<path d="M523.987 127.24C519.77 127.24 517.133 121.183 517.133 112.98C517.133 105.937 519.9 102.493 522.607 102.493C526.817 102.493 529.327 107.507 529.327 116.167C529.327 125.613 526.357 127.24 523.987 127.24ZM523.593 99.7568C516.22 99.7568 508.04 105.297 508.04 115.583C508.04 122.547 513.113 129.977 523.26 129.977C530.837 129.977 538.42 124.833 538.42 114.213C538.42 106.66 532.75 99.7568 523.59 99.7568" fill="#001C43"/>
<path d="M570.047 122.753V108.48C570.047 103.47 566.82 99.7568 561.543 99.7568C559.243 99.7568 557.79 100.48 555.557 101.907C554.367 102.69 553.117 103.54 551.867 104.387V99.7601C547.577 100.68 543.367 101.583 539.603 102.043V103.797C543.693 104.243 543.823 104.32 543.823 108.233V122.753C543.823 126.467 543.487 126.72 539.077 127.12V129.2H555.027V127.12C552.193 126.723 551.867 126.467 551.867 122.753V107.12C553.717 105.557 555.753 104.713 557.46 104.713C560.037 104.713 562.01 106.203 562.01 110.05V122.753C562.01 126.467 561.743 126.72 558.443 127.12V129.2H574.003V127.12C570.373 126.723 570.043 126.467 570.043 122.753" fill="#001C43"/>
<path d="M588.02 110.82C584.91 109.73 583.073 108.093 583.073 106.203C583.073 104.187 584.727 102.497 586.9 102.497C588.943 102.497 591.94 104.35 594.033 108.903L595.51 108.863L595.06 100.1H593.84C593.84 100.1 592.91 101.593 591.637 101.593C590.97 101.593 588.797 100.393 587.13 100.193C580.083 99.3801 576.423 104.13 576.423 109.147C576.423 114.163 582.087 116.763 584.913 117.867C588.48 119.24 589.927 121.127 589.927 123.15C589.927 125.563 588.157 127.247 585.78 127.247C582.16 127.247 578.39 123.733 577.133 119.76L575.803 119.71L576.247 129.793L577.523 129.843C577.523 129.843 578.22 128.503 579.087 128.433C580.547 128.317 582.96 129.587 584.78 129.793C590.353 130.42 597.113 126.993 597.113 120.343C597.113 115.133 593.223 112.653 588.02 110.823" fill="#001C43"/>
<path d="M374.57 110.82C371.47 109.73 369.623 108.093 369.623 106.203C369.623 104.187 371.277 102.497 373.45 102.497C375.487 102.497 378.483 104.35 380.583 108.903L382.057 108.863L381.627 100.1H380.397C380.397 100.1 379.463 101.593 378.19 101.593C377.513 101.593 375.343 100.393 373.68 100.193C366.64 99.3801 362.98 104.13 362.98 109.147C362.98 114.163 368.633 116.763 371.47 117.867C375.037 119.24 376.487 121.127 376.487 123.15C376.487 125.563 374.707 127.247 372.327 127.247C368.707 127.247 364.937 123.733 363.683 119.76L362.367 119.71L362.803 129.793L364.077 129.843C364.077 129.843 364.767 128.503 365.64 128.433C367.103 128.317 369.503 129.587 371.323 129.793C376.913 130.42 383.66 126.993 383.66 120.343C383.66 115.133 379.78 112.653 374.567 110.823" fill="#001C43"/>
<path d="M461.21 120.327C460.067 120.327 459.087 120.73 458.28 121.533C457.473 122.337 457.07 123.27 457.07 124.333C457.07 125.327 457.427 126.203 458.123 126.94C458.83 127.673 459.66 128.05 460.61 128.05C461.307 128.05 461.887 127.91 462.357 127.64C462.557 127.527 462.687 127.473 462.8 127.473C462.913 127.473 463.01 127.533 463.137 127.66C463.257 127.807 463.303 128.01 463.303 128.28C463.303 129.61 462.88 130.91 462.023 132.183C461.18 133.44 459.803 134.473 457.927 135.273V136.333C460.677 135.5 462.747 134.197 464.15 132.417C465.543 130.637 466.24 128.6 466.24 126.303C466.24 124.453 465.747 122.997 464.76 121.92C463.78 120.867 462.597 120.323 461.21 120.323" fill="#001C43"/>
<path d="M489.21 130.17C498.853 130.913 504.83 124.313 504.83 116.627C504.83 109.593 499.953 106.143 494.677 103.93L492.573 103.013C487.823 101 485.39 98.6534 485.39 95.3267C485.39 91.6767 487.757 88.8201 491.78 88.8201C496.713 88.8201 500.25 93.6934 500.58 98.9367H503.007V85.8801H500.787C500.787 85.8801 500.733 88.7801 499.403 88.7801C498.387 88.7801 495.823 86.5967 491.903 86.2801C482.773 85.5167 478.137 91.6767 478.137 98.6534C478.137 104.84 482.813 108.613 488.36 111.023L489.68 111.607C494.68 113.76 497.117 115.907 497.117 120.337C497.117 124.05 494.677 127.24 490.34 127.24C485.407 127.24 480.573 123.62 479.96 116.987H477.533V130.053H479.527C479.527 130.053 479.82 127.153 481.133 127.153C482.153 127.153 485.283 129.873 489.21 130.173" fill="#001C43"/>
<path d="M306.393 86.3634V88.4501L309.18 88.7101C312.33 88.9667 312.687 89.6801 311.617 93.7901C310.613 97.7067 307.68 108.517 305.043 116.78H304.893L295.103 92.7434C294.127 89.5601 294.427 89.0334 297.127 88.7101L299.697 88.4501V86.3634H279.097V88.4501C282.827 88.8367 284.11 89.1634 286.107 94.9601L286.19 95.3767L278.853 116.78H278.717L270.91 92.8101C269.92 89.5601 270.203 89.0334 272.92 88.7101L275.493 88.4501V86.3634H254.89V88.4501C258.61 88.8367 259.9 89.1634 261.907 94.9601L273.847 129.157H277.637L288.22 99.9667H288.363L300.373 129.157H304.17C310.183 111.18 315.043 97.4301 315.837 95.4167C317.99 89.7467 318.793 89.0567 322.47 88.5834V86.3634H306.387H306.393Z" fill="#001C43"/>
</g>
<defs>
<clipPath id="clip0_606_15066">
<rect width="640" height="171.333" fill="white" transform="translate(0 0.663452)"/>
</clipPath>
</defs>
</svg>
