<svg width="280" height="225" viewBox="0 0 280 225" fill="none" xmlns="http://www.w3.org/2000/svg">
<path d="M216.344 43.0809C204.635 43.0809 195.13 52.5735 195.13 64.2866V85.4984H186.655V127.912H207.867C219.571 127.912 229.07 118.419 229.07 106.706V85.4964H237.56V43.0789H216.346L216.344 43.0809Z" fill="#00BEDD"/>
<path d="M165.445 43.0809C153.738 43.0809 144.235 52.5735 144.235 64.2866V85.4984H135.758V43.0809H114.549C102.842 43.0809 93.3388 52.5735 93.3388 64.2866V85.4984H84.8578V43.0809H63.6501C51.937 43.0809 42.4424 52.5735 42.4424 64.2866V85.4984H67.8979V127.912H89.1014C100.814 127.912 110.317 118.419 110.317 106.706V85.4964H118.79V127.91H140C151.705 127.91 161.212 118.417 161.212 106.704V85.4943H186.659V43.0768H165.445V43.0809Z" fill="#001C43"/>
<path d="M88.0192 178.831V165.575C85.6388 166.106 83.1525 166.63 80.9341 166.935V167.953C83.3415 168.215 83.4204 168.252 83.4204 170.547V178.831C83.4204 180.983 83.2314 181.172 80.8177 181.394V182.597H90.6136V181.394C88.2041 181.172 88.0192 180.983 88.0192 178.831Z" fill="#001C43"/>
<path d="M85.4166 162.374C86.962 162.374 88.1667 161.173 88.1667 159.661C88.1667 158.149 86.962 156.917 85.4166 156.917C83.8712 156.917 82.6643 158.116 82.6643 159.661C82.6643 161.206 83.9459 162.374 85.4166 162.374Z" fill="#001C43"/>
<path d="M99.4249 178.831V155.856C96.9821 156.39 93.9703 156.917 92.3543 157.173V158.269C94.7534 158.458 94.8302 158.498 94.8302 160.716V178.831C94.8302 180.983 94.6454 181.172 92.2359 181.394V182.597H102.019V181.394C99.6201 181.172 99.4249 180.983 99.4249 178.831Z" fill="#001C43"/>
<path d="M126.914 165.577C122.685 165.577 118.024 168.784 118.024 174.731C118.024 178.758 120.923 183.052 126.723 183.052C131.05 183.052 135.382 180.077 135.382 173.935C135.382 169.571 132.136 165.577 126.916 165.577M127.126 181.471C124.714 181.471 123.21 177.967 123.21 173.223C123.21 169.149 124.797 167.16 126.339 167.16C128.746 167.16 130.175 170.055 130.175 175.067C130.175 180.526 128.495 181.471 127.128 181.471" fill="#001C43"/>
<path d="M153.213 178.871V170.62C153.213 167.722 151.358 165.577 148.35 165.577C147.031 165.577 146.219 165.992 144.917 166.821C144.252 167.272 143.527 167.768 142.825 168.252V165.577C140.382 166.109 137.956 166.632 135.825 166.894V167.914C138.147 168.169 138.216 168.213 138.216 170.475V178.871C138.216 181.022 138.031 181.172 135.515 181.396V182.599H144.63V181.396C143.008 181.174 142.823 181.022 142.823 178.871V169.837C143.863 168.933 145.035 168.439 146.028 168.439C147.488 168.439 148.614 169.305 148.614 171.526V178.871C148.614 181.022 148.464 181.172 146.576 181.396V182.599H155.46V181.396C153.404 181.174 153.215 181.022 153.215 178.871" fill="#001C43"/>
<path d="M196.017 165.577C191.804 165.577 187.128 168.784 187.128 174.731C187.128 178.758 190.022 183.052 195.825 183.052C200.154 183.052 204.485 180.077 204.485 173.935C204.485 169.571 201.243 165.577 196.019 165.577M196.247 181.471C193.827 181.471 192.319 177.967 192.319 173.223C192.319 169.149 193.902 167.16 195.45 167.16C197.863 167.16 199.298 170.055 199.298 175.067C199.298 180.526 197.606 181.471 196.247 181.471Z" fill="#001C43"/>
<path d="M222.563 178.871V170.62C222.563 167.722 220.718 165.577 217.704 165.577C216.385 165.577 215.558 165.992 214.281 166.821C213.6 167.272 212.881 167.768 212.171 168.252V165.577C209.722 166.109 207.312 166.632 205.168 166.894V167.914C207.499 168.169 207.572 168.213 207.572 170.473V178.871C207.572 181.022 207.385 181.172 204.861 181.396V182.599H213.98V181.396C212.366 181.174 212.171 181.022 212.171 178.871V169.837C213.224 168.933 214.395 168.439 215.374 168.439C216.846 168.439 217.966 169.305 217.966 171.526V178.871C217.966 181.022 217.814 181.172 215.928 181.396V182.599H224.823V181.396C222.752 181.174 222.56 181.022 222.56 178.871" fill="#001C43"/>
<path d="M232.834 171.974C231.064 171.341 230.013 170.396 230.013 169.303C230.013 168.136 230.952 167.16 232.194 167.16C233.355 167.16 235.067 168.231 236.268 170.863L237.115 170.838L236.855 165.768H236.158C236.158 165.768 235.628 166.636 234.897 166.636C234.519 166.636 233.277 165.94 232.321 165.824C228.296 165.35 226.208 168.1 226.208 171.002C226.208 173.904 229.444 175.404 231.064 176.046C233.1 176.841 233.927 177.927 233.927 179.099C233.927 180.495 232.917 181.465 231.555 181.465C229.484 181.465 227.328 179.433 226.607 177.138L225.853 177.107L226.11 182.938L226.837 182.969C226.837 182.969 227.234 182.192 227.731 182.154C228.563 182.088 229.945 182.819 230.985 182.938C234.172 183.301 238.031 181.317 238.031 177.475C238.031 174.461 235.813 173.032 232.834 171.972" fill="#001C43"/>
<path d="M110.833 171.974C109.071 171.341 108.008 170.396 108.008 169.303C108.008 168.136 108.961 167.16 110.199 167.16C111.36 167.16 113.07 168.231 114.274 170.863L115.126 170.838L114.877 165.768H114.164C114.164 165.768 113.637 166.636 112.91 166.636C112.515 166.636 111.279 165.94 110.334 165.824C106.306 165.35 104.213 168.1 104.213 171.002C104.213 173.904 107.455 175.404 109.073 176.046C111.103 176.841 111.944 177.927 111.944 179.099C111.944 180.495 110.909 181.465 109.555 181.465C107.493 181.465 105.332 179.433 104.626 177.138L103.86 177.107L104.117 182.938L104.844 182.969C104.844 182.969 105.231 182.192 105.735 182.154C106.57 182.088 107.945 182.819 108.992 182.938C112.185 183.301 116.034 181.317 116.034 177.475C116.034 174.461 113.817 173.032 110.835 171.972" fill="#001C43"/>
<path d="M160.356 177.469C159.7 177.469 159.151 177.703 158.676 178.166C158.223 178.632 158.005 179.174 158.005 179.785C158.005 180.358 158.194 180.863 158.59 181.288C159 181.714 159.484 181.932 160.011 181.932C160.41 181.932 160.757 181.851 161.019 181.7C161.129 181.633 161.204 181.602 161.262 181.602C161.32 181.602 161.382 181.639 161.455 181.714C161.521 181.795 161.548 181.914 161.548 182.069C161.548 182.838 161.303 183.588 160.834 184.325C160.341 185.052 159.563 185.648 158.478 186.112V186.726C160.049 186.244 161.231 185.495 162.045 184.464C162.826 183.432 163.235 182.254 163.235 180.933C163.235 179.857 162.944 179.016 162.404 178.395C161.831 177.78 161.156 177.471 160.36 177.471" fill="#001C43"/>
<path d="M176.356 183.166C181.869 183.594 185.284 179.776 185.284 175.333C185.284 171.266 182.496 169.266 179.482 167.995L178.288 167.461C175.575 166.295 174.184 164.939 174.184 163.016C174.184 160.903 175.536 159.254 177.821 159.254C180.633 159.254 182.669 162.075 182.862 165.109H184.247V157.555H182.985C182.985 157.555 182.951 159.235 182.177 159.235C181.609 159.235 180.147 157.97 177.891 157.783C172.688 157.343 170.027 160.903 170.027 164.939C170.027 168.514 172.711 170.697 175.868 172.091L176.624 172.431C179.48 173.674 180.868 174.914 180.868 177.473C180.868 179.622 179.478 181.469 177.004 181.469C174.19 181.469 171.425 179.373 171.074 175.539H169.693V183.093H170.821C170.821 183.093 170.995 181.415 171.733 181.415C172.329 181.415 174.121 182.99 176.352 183.164" fill="#001C43"/>
<path d="M71.8735 157.833V159.036L73.4667 159.187C75.2655 159.339 75.467 159.752 74.8563 162.127C74.2851 164.391 72.6089 170.641 71.0988 175.42H71.0178L65.4157 161.524C64.8569 159.682 65.0314 159.379 66.5747 159.19L68.0433 159.038V157.835H56.2679V159.038C58.4053 159.266 59.1302 159.451 60.281 162.802L60.3287 163.045L56.1329 175.42H56.054L51.5922 161.562C51.0293 159.682 51.1934 159.379 52.7409 159.187L54.2136 159.036V157.833H42.4382V159.036C44.5632 159.264 45.3026 159.449 46.443 162.8L53.2643 182.576H55.4391L61.4899 165.701H61.575L68.4317 182.576H70.6044C74.0359 172.176 76.813 164.235 77.2721 163.065C78.4997 159.786 78.9587 159.383 81.0629 159.113V157.829H71.8715L71.8735 157.833Z" fill="#001C43"/>
</svg>
